<?xml version="1.0" standalone="no"?>
<!DOCTYPE svg PUBLIC "-//W3C//DTD SVG 20010904//EN"
 "http://www.w3.org/TR/2001/REC-SVG-20010904/DTD/svg10.dtd">
<svg version="1.0" xmlns="http://www.w3.org/2000/svg"
 width="992.000000pt" height="992.000000pt" viewBox="0 0 992.000000 992.000000"
 preserveAspectRatio="xMidYMid meet">
<metadata>
Created by potrace 1.11, written by Peter Selinger 2001-2013
</metadata>
<g transform="translate(0.000000,992.000000) scale(0.100000,-0.100000)"
fill="#000000" stroke="none">
<path d="M4009 9756 c-2 -2 -54 -6 -115 -10 -61 -4 -121 -8 -135 -11 -13 -2
-49 -6 -80 -10 -31 -3 -67 -8 -80 -10 -24 -5 -87 -15 -124 -20 -11 -2 -36 -6
-55 -10 -19 -4 -41 -8 -47 -8 -7 0 -13 -4 -13 -9 0 -5 -4 -7 -9 -3 -5 3 -65
-9 -133 -26 -68 -17 -127 -32 -133 -33 -20 -4 -190 -59 -200 -64 -5 -4 -19 -8
-30 -9 -18 -3 -97 -31 -150 -53 -11 -5 -45 -19 -75 -31 -30 -12 -71 -29 -90
-37 -19 -9 -38 -15 -42 -14 -5 1 -8 -3 -8 -8 0 -6 -7 -10 -15 -10 -13 0 -307
-145 -330 -163 -5 -4 -57 -36 -113 -70 -155 -93 -234 -145 -240 -159 -2 -5 -8
-8 -13 -8 -8 0 -156 -108 -185 -135 -6 -5 -28 -23 -49 -40 -21 -16 -53 -43
-71 -60 -18 -16 -50 -44 -71 -62 -81 -67 -309 -301 -401 -413 -51 -61 -106
-127 -123 -148 -10 -12 -19 -26 -19 -31 0 -5 -3 -11 -7 -13 -14 -6 -213 -291
-213 -304 0 -3 -11 -20 -25 -38 -14 -18 -25 -36 -25 -39 0 -3 -14 -30 -32 -59
-47 -78 -178 -338 -171 -338 3 0 -2 -9 -12 -20 -10 -11 -15 -20 -12 -20 3 0
-8 -30 -24 -67 -50 -110 -60 -137 -58 -157 0 -5 -4 -12 -10 -16 -6 -3 -13 -16
-16 -28 -2 -11 -9 -30 -15 -41 -6 -12 -8 -21 -4 -21 3 0 2 -6 -4 -12 -6 -7
-11 -17 -11 -23 -1 -5 -13 -46 -27 -90 -14 -44 -28 -87 -30 -95 -2 -8 -17 -67
-33 -130 -17 -63 -28 -116 -26 -119 3 -2 1 -9 -4 -15 -5 -6 -12 -33 -15 -59
-3 -27 -9 -54 -13 -60 -4 -6 -7 -20 -8 -31 -4 -41 -17 -141 -20 -146 -2 -3 -6
-33 -10 -65 -4 -33 -8 -76 -11 -95 -25 -210 -25 -786 1 -903 2 -12 7 -44 9
-72 3 -27 8 -61 10 -75 6 -36 19 -122 22 -142 1 -10 2 -19 4 -20 1 -2 3 -12 5
-23 11 -64 18 -96 30 -145 8 -30 17 -70 20 -89 3 -19 10 -42 16 -52 5 -11 8
-19 5 -19 -3 0 0 -15 5 -32 36 -115 51 -164 52 -173 2 -5 8 -23 14 -40 6 -16
30 -82 53 -145 41 -113 67 -175 97 -235 8 -16 16 -39 19 -50 2 -11 8 -21 14
-23 5 -2 10 -8 10 -13 0 -14 50 -118 73 -151 10 -16 15 -28 11 -28 -3 0 -2 -6
4 -13 5 -6 19 -28 30 -48 11 -20 26 -47 34 -60 7 -13 18 -27 23 -31 6 -4 7 -8
3 -8 -5 0 12 -30 37 -66 25 -36 45 -68 45 -70 0 -9 104 -159 113 -162 4 -2 7
-10 7 -18 0 -8 4 -14 8 -14 4 0 15 -13 25 -29 9 -16 51 -70 92 -120 41 -50 75
-92 75 -94 0 -17 381 -405 459 -467 24 -19 62 -52 85 -72 22 -21 44 -38 48
-38 4 0 24 -16 44 -35 19 -19 42 -35 50 -35 8 0 14 -4 14 -8 0 -10 169 -129
295 -208 80 -50 111 -68 245 -141 25 -14 50 -29 55 -33 6 -5 12 -8 15 -7 3 0
58 -25 123 -56 65 -32 121 -57 124 -57 6 0 54 -21 118 -51 12 -6 27 -11 35
-13 8 -2 26 -8 40 -13 14 -6 28 -9 33 -6 4 2 7 -1 7 -6 0 -6 9 -11 19 -11 11
0 23 -4 26 -10 3 -5 16 -10 29 -10 12 0 27 -5 34 -12 7 -7 12 -9 12 -5 0 3 12
2 28 -4 32 -13 178 -58 207 -64 11 -2 35 -8 53 -14 17 -5 32 -8 32 -5 0 3 9 0
19 -6 11 -5 35 -12 53 -15 18 -2 44 -7 58 -10 14 -3 39 -8 55 -11 17 -3 48 -9
70 -14 22 -4 63 -11 90 -15 28 -4 59 -8 70 -10 295 -48 842 -52 1100 -9 17 3
44 7 60 9 46 5 118 16 135 20 14 4 67 13 115 20 11 2 20 4 20 5 0 2 19 6 65
15 82 15 376 96 440 122 20 8 42 14 58 15 6 1 12 4 12 7 0 3 29 15 65 26 36
10 65 23 65 27 0 4 7 8 16 8 8 0 34 8 57 19 23 10 71 31 107 47 36 16 67 32
68 36 2 4 12 8 23 8 10 0 19 5 19 12 0 6 3 9 6 6 5 -6 89 36 214 106 25 13 63
34 85 46 54 30 329 212 333 221 2 4 25 22 53 39 27 18 49 36 49 41 0 5 5 9 11
9 9 0 72 49 135 105 6 6 40 35 75 65 82 72 257 247 339 340 36 40 77 86 92
102 14 15 23 28 20 28 -4 0 -2 4 4 8 6 4 38 43 72 87 34 44 66 85 70 91 50 60
233 346 290 453 52 97 119 226 120 231 0 3 17 41 37 85 20 44 43 94 51 112 8
17 14 38 14 46 0 9 3 17 8 19 6 3 41 88 46 113 1 6 5 16 9 23 5 6 6 12 2 12
-3 0 1 13 9 29 8 15 17 39 20 52 4 22 15 56 33 99 3 8 7 22 8 30 1 8 14 55 28
105 14 49 23 93 21 97 -3 4 -1 8 3 8 5 0 9 8 10 18 2 19 5 37 26 137 9 39 18
88 22 110 4 22 8 51 11 65 2 14 6 43 9 65 2 22 6 54 9 70 34 207 40 734 11
940 -2 17 -7 55 -10 85 -4 30 -9 64 -10 75 -2 11 -7 40 -10 65 -9 65 -16 110
-22 134 -2 11 -6 30 -8 41 -2 11 -6 31 -9 45 -13 58 -17 76 -20 95 -7 33 -43
164 -71 255 -14 47 -28 92 -30 100 -2 8 -20 60 -40 115 -20 55 -42 114 -47
130 -6 17 -17 39 -24 50 -6 11 -15 31 -19 45 -4 14 -29 71 -56 128 -26 56 -49
106 -49 110 -1 4 -5 12 -10 17 -4 6 -27 45 -49 89 -84 157 -196 334 -325 511
-44 61 -86 114 -93 118 -7 4 -13 12 -13 17 0 5 -12 22 -27 38 -16 16 -50 55
-78 88 -66 78 -334 346 -409 409 -33 28 -64 55 -70 60 -6 6 -31 26 -56 45 -25
19 -50 39 -57 45 -7 5 -19 16 -27 22 -29 24 -286 203 -292 203 -2 0 -35 20
-74 45 -39 25 -72 45 -75 45 -3 0 -22 11 -43 23 -128 81 -610 300 -659 300 -7
0 -13 5 -13 10 0 5 -7 7 -15 3 -8 -3 -15 -1 -15 4 0 6 -3 9 -7 8 -10 -2 -65
13 -78 21 -5 3 -12 6 -15 7 -11 1 -97 25 -120 33 -40 14 -103 31 -125 35 -11
2 -27 5 -35 8 -13 5 -112 27 -150 34 -246 44 -260 46 -395 60 -33 3 -78 8
-100 10 -49 6 -551 14 -556 10z"/>
<path d="M8585 2480 c-2 -3 -17 -7 -35 -8 -17 -1 -59 -9 -93 -18 -34 -8 -66
-16 -72 -17 -5 -2 -14 -5 -20 -8 -5 -4 -23 -9 -40 -13 -38 -9 -209 -95 -213
-107 -2 -5 -10 -9 -18 -9 -8 0 -14 -4 -14 -10 0 -5 -7 -10 -15 -10 -8 0 -15
-4 -15 -10 0 -5 -5 -10 -10 -10 -23 0 -175 -149 -241 -236 -62 -82 -100 -147
-136 -234 -38 -90 -46 -112 -48 -125 -1 -5 -4 -17 -8 -25 -51 -137 -55 -404
-8 -602 18 -78 99 -279 121 -298 3 -3 11 -17 19 -32 8 -16 18 -28 23 -28 4 0
8 -6 8 -13 0 -17 59 -87 152 -177 90 -88 104 -100 118 -100 5 0 10 -4 10 -8 0
-10 138 -92 195 -117 69 -29 79 -33 120 -46 49 -14 69 -20 72 -20 2 0 17 -5
35 -10 119 -34 388 -33 523 3 22 6 47 12 55 13 8 2 16 4 18 5 1 2 6 3 11 4 5
0 13 4 17 9 4 4 14 7 23 7 50 0 292 144 387 230 45 41 174 184 174 193 0 6 41
71 58 92 4 6 14 26 22 45 7 19 21 46 29 59 8 13 16 29 17 35 1 6 10 34 20 61
24 69 26 78 29 95 2 8 6 26 9 40 16 63 21 125 20 255 -2 140 -4 165 -26 260
-7 28 -12 52 -13 55 0 3 -3 10 -6 15 -4 6 -9 24 -13 40 -17 68 -105 235 -170
320 -79 102 -229 237 -331 298 -49 28 -167 83 -210 97 -22 7 -49 16 -60 20
-23 9 -135 32 -174 36 -14 1 -28 3 -31 4 -11 6 -262 5 -265 0z"/>
</g>
</svg>
