<?xml version="1.0" standalone="no"?>
<!DOCTYPE svg PUBLIC "-//W3C//DTD SVG 20010904//EN"
 "http://www.w3.org/TR/2001/REC-SVG-20010904/DTD/svg10.dtd">
<svg version="1.0" xmlns="http://www.w3.org/2000/svg"
 width="513.000000pt" height="513.000000pt" viewBox="0 0 513.000000 513.000000"
 preserveAspectRatio="xMidYMid meet">
<metadata>
Created by potrace 1.14, written by Peter Selinger 2001-2017
</metadata>
<g transform="translate(0.000000,513.000000) scale(0.100000,-0.100000)"
fill="#000000" stroke="none">
<path d="M2400 5045 c-85 -41 -162 -79 -170 -84 -8 -6 -46 -25 -85 -44 -141
-68 -907 -447 -1268 -627 l-372 -185 -21 -100 c-12 -55 -25 -113 -28 -130 -5
-31 -181 -817 -232 -1040 -27 -119 -105 -470 -109 -490 -4 -22 -22 -106 -60
-275 -15 -63 -32 -144 -40 -179 l-14 -63 287 -368 c158 -203 328 -422 379
-487 273 -352 403 -519 411 -528 4 -5 33 -42 63 -81 29 -38 105 -135 167 -215
l113 -146 1140 0 1140 0 87 111 c48 61 92 118 99 126 7 8 133 170 280 360 147
190 273 352 280 360 22 27 554 713 615 793 63 83 62 76 43 162 -2 6 -15 64
-29 130 -14 66 -31 138 -36 160 -9 38 -104 463 -115 515 -16 76 -25 114 -43
195 -12 50 -23 101 -26 115 -2 14 -20 95 -40 180 -19 85 -37 166 -40 180 -2
14 -18 85 -35 159 -17 73 -33 143 -35 155 -3 11 -7 30 -10 42 -2 11 -21 97
-42 190 l-37 170 -161 81 c-89 45 -343 171 -566 281 -223 110 -611 301 -863
426 -252 124 -461 226 -465 226 -4 0 -77 -34 -162 -75z"/>
</g>
</svg>
