<svg width="30" height="30" viewBox="0 0 30 30" fill="none" xmlns="http://www.w3.org/2000/svg">
<path d="M12.6705 16.7164L14.8882 18.7498C14.9573 18.8122 15.0292 18.8775 15.1031 18.9456C15.3879 20.5184 16.7673 21.7144 18.4206 21.7144C20.2792 21.7144 21.792 20.2021 21.792 18.3431C21.792 16.6297 20.5073 15.2118 18.8517 14.9998C18.8198 14.9641 18.7883 14.9298 18.7578 14.8955L17.8771 13.9071L17.8566 13.9138C17.4684 13.4904 17.0221 13.0036 16.6768 12.6268C17.2284 12.4587 17.8143 12.3677 18.4201 12.3677C21.7153 12.3677 24.3955 15.0479 24.3955 18.3431C24.3955 21.6382 21.7153 24.3184 18.4201 24.3184C15.125 24.3184 12.4447 21.6382 12.4447 18.3431C12.4452 17.7791 12.5238 17.2337 12.6705 16.7164Z" fill="#BEFFFB"/>
<path d="M8.30334 12.7152C8.97066 13.3225 9.63607 13.9322 10.2934 14.5357C9.74944 15.6922 9.44555 16.983 9.44555 18.3429C9.44555 23.2918 13.4718 27.3181 18.4208 27.3181C23.3697 27.3181 27.396 23.2914 27.396 18.3429C27.396 13.3945 23.3697 9.36769 18.4208 9.36769C17.0194 9.36769 15.692 9.69063 14.5093 10.2655C13.9081 9.60966 13.2999 8.94615 12.695 8.28121C14.3845 7.31572 16.3393 6.76367 18.4208 6.76367C24.8053 6.76367 30 11.9584 30 18.3429C30 24.7274 24.8053 29.9221 18.4208 29.9221C12.0362 29.9221 6.84153 24.7274 6.84153 18.3429C6.84105 16.3014 7.37214 14.3819 8.30334 12.7152Z" fill="#BEFFFB"/>
<path d="M0.0650368 5.48501C0.116003 5.35116 0.187925 5.23732 0.2789 5.14635C0.523251 4.902 0.844765 4.86818 1.15532 4.86818C1.60544 4.86818 2.05508 4.86532 2.5052 4.86199C3.20062 4.85722 3.91986 4.85246 4.62814 4.85961C4.67577 4.86008 4.70673 4.85722 4.72531 4.85437L4.76341 4.76339L4.85439 4.72528C4.85725 4.70623 4.86011 4.67575 4.85963 4.62812C4.85248 3.91983 4.85772 3.2006 4.86201 2.5047C4.86487 2.05506 4.8682 1.60494 4.8682 1.15482C4.8682 0.844263 4.90202 0.522749 5.14637 0.278399C5.23735 0.187423 5.35119 0.115499 5.48551 0.0645337C6.06233 -0.153619 6.44719 0.236007 6.63248 0.4232C6.94685 0.742807 7.26312 1.06051 7.57892 1.37917C8.30101 2.10602 9.0474 2.85765 9.76663 3.61547C10.0005 3.86315 10.1648 4.2685 10.1753 4.62431C10.1915 5.17445 10.1872 5.73079 10.1829 6.2695C10.1791 6.75963 10.1748 7.26595 10.1867 7.76132C10.1906 7.92232 10.2725 8.13189 10.3777 8.24859C11.6066 9.61133 12.8694 10.986 14.0906 12.3149L15.0961 13.4104C15.6368 14.0006 16.9123 15.3919 17.342 15.8592L17.3458 15.8577L17.493 16.023C17.5892 16.1307 17.694 16.2459 17.8049 16.3679C18.1479 16.7442 18.537 17.1705 18.8986 17.6334C19.1591 17.9678 19.0191 18.4641 18.7328 18.7504C18.7223 18.7609 18.7118 18.7709 18.7014 18.7804C18.4294 19.0267 17.9793 19.1681 17.6335 18.8981C17.161 18.5284 16.7266 18.1317 16.3436 17.7811C16.2312 17.6782 16.124 17.5801 16.0207 17.4877L12.3149 14.0901C10.9855 12.8689 9.61088 11.6061 8.24862 10.3772C8.13192 10.272 7.92234 10.1901 7.76087 10.1862C7.26598 10.1743 6.75918 10.1786 6.26905 10.1824C5.73081 10.1867 5.174 10.191 4.62385 10.1748C4.26805 10.1643 3.8627 10 3.61454 9.76566C2.8572 9.0469 2.10557 8.30051 1.37872 7.57842C1.06054 7.26262 0.742357 6.94634 0.422749 6.6315C0.236034 6.44717 -0.153116 6.06278 0.0650368 5.48501Z" fill="#BEFFFB"/>
</svg>
