<svg width="571" height="592" viewBox="0 0 571 592" fill="none" xmlns="http://www.w3.org/2000/svg">
<g filter="url(#filter0_d)">
<g filter="url(#filter1_d)">
<path d="M75 66H466V473C466 475.761 463.761 478 461 478H80C77.2386 478 75 475.761 75 473V66Z" fill="white"/>
<path d="M75.5 66.5H465.5V473C465.5 475.485 463.485 477.5 461 477.5H80C77.5147 477.5 75.5 475.485 75.5 473V66.5Z" stroke="#E6E7E8"/>
</g>
<rect x="76" y="66" width="389" height="85" fill="#F9F9FF"/>
<path d="M232.76 103.753V90.0781H228.66L225.339 98.6273L222.017 90.0781H217.938V103.753H220.849V93.8914L224.703 103.753H225.974L229.829 93.8914V103.753H232.76Z" fill="#454954"/>
<path d="M243.984 103.753V97.3562C243.984 94.5065 241.914 93.6044 239.638 93.6044C238.08 93.6044 236.522 94.0759 235.312 95.1625L236.337 96.9872C237.157 96.2286 238.141 95.8186 239.187 95.8186C240.499 95.8186 241.36 96.4746 241.36 97.4792V98.7299C240.704 97.9508 239.556 97.5202 238.223 97.5202C236.645 97.5202 234.8 98.3813 234.8 100.719C234.8 102.933 236.645 103.999 238.223 103.999C239.515 103.999 240.684 103.527 241.36 102.707V103.753H243.984ZM239.269 102.236C238.244 102.236 237.403 101.703 237.403 100.76C237.403 99.8164 238.244 99.2629 239.269 99.2629C240.11 99.2629 240.93 99.5704 241.36 100.144V101.375C240.93 101.949 240.11 102.236 239.269 102.236Z" fill="#454954"/>
<path d="M249.15 103.753V97.2127C249.581 96.5772 250.729 96.0851 251.59 96.0851C251.898 96.0851 252.123 96.1056 252.308 96.1466V93.6044C251.077 93.6044 249.868 94.3219 249.15 95.183V93.8504H246.547V103.753H249.15Z" fill="#454954"/>
<path d="M258.547 103.999C260.577 103.999 261.807 103.097 262.463 102.195L260.762 100.596C260.29 101.272 259.572 101.682 258.67 101.682C257.092 101.682 255.985 100.514 255.985 98.7914C255.985 97.0692 257.092 95.9211 258.67 95.9211C259.572 95.9211 260.29 96.2901 260.762 96.9872L262.463 95.388C261.807 94.486 260.577 93.6044 258.547 93.6044C255.513 93.6044 253.299 95.7571 253.299 98.7914C253.299 101.846 255.513 103.999 258.547 103.999Z" fill="#454954"/>
<path d="M273.473 103.753V96.7207C273.473 94.7935 272.428 93.6044 270.254 93.6044C268.635 93.6044 267.425 94.3835 266.79 95.1215V90.0781H264.165V103.753H266.79V97.0692C267.22 96.4951 268.02 95.9211 269.045 95.9211C270.152 95.9211 270.869 96.3516 270.869 97.7253V103.753H273.473Z" fill="#454954"/>
<path d="M291.288 103.753V101.19H285.711C289.258 98.6068 291.185 96.5772 291.185 94.2399C291.185 91.5132 288.889 89.873 285.957 89.873C284.05 89.873 282.021 90.5701 280.688 92.1077L282.349 94.0349C283.271 93.0713 284.46 92.4563 286.019 92.4563C287.146 92.4563 288.233 93.0303 288.233 94.2399C288.233 95.9211 286.593 97.3152 280.996 101.457V103.753H291.288Z" fill="#454954"/>
<path d="M298.681 103.999C302.597 103.999 304.339 100.452 304.339 96.9257C304.339 93.3994 302.597 89.873 298.681 89.873C294.765 89.873 293.022 93.3994 293.022 96.9257C293.022 100.452 294.765 103.999 298.681 103.999ZM298.681 101.416C296.733 101.416 295.995 99.4474 295.995 96.9257C295.995 94.404 296.733 92.4563 298.681 92.4563C300.649 92.4563 301.367 94.404 301.367 96.9257C301.367 99.4474 300.628 101.416 298.681 101.416Z" fill="#454954"/>
<path d="M312.112 103.753V90.0781H309.57L305.264 94.404L306.925 96.1466L309.201 93.8299V103.753H312.112Z" fill="#454954"/>
<path d="M318.86 103.978C322.899 103.978 325.236 101.047 325.236 96.9052C325.236 93.0508 323.493 89.8525 319.331 89.8525C316.215 89.8525 314.103 91.8822 314.103 94.5475C314.103 97.4587 316.297 98.9964 318.757 98.9964C320.254 98.9964 321.627 98.1558 322.284 97.2332C322.284 97.3357 322.284 97.4382 322.284 97.5407C322.284 99.4884 321.115 101.395 318.86 101.395C317.65 101.395 316.871 101.026 316.133 100.329L314.841 102.564C315.805 103.425 317.199 103.978 318.86 103.978ZM319.577 96.4951C318.306 96.4951 317.056 95.8801 317.056 94.445C317.056 93.5019 317.917 92.4358 319.495 92.4358C321.402 92.4358 322.14 93.8914 322.263 95.2035C321.607 96.0236 320.623 96.4951 319.577 96.4951Z" fill="#454954"/>
<path d="M383.58 179.903H385.191V169.158H383.773L380.89 172.106L381.84 173.089L383.58 171.268V179.903Z" fill="#454954"/>
<path d="M429.762 179.903H437.333V178.485H432.323C435.271 176.214 437.285 174.329 437.285 172.235C437.285 170.092 435.465 168.997 433.532 168.997C432.033 168.997 430.568 169.593 429.682 170.705L430.632 171.752C431.293 170.962 432.275 170.431 433.548 170.431C434.595 170.431 435.642 170.978 435.642 172.235C435.642 173.926 433.789 175.537 429.762 178.63V179.903Z" fill="#454954"/>
<path d="M134.577 327.809C134.577 321.339 139.822 316.094 146.293 316.094H399.637C406.107 316.094 411.352 321.339 411.352 327.809C411.352 334.279 406.107 339.524 399.637 339.524H146.293C139.822 339.524 134.577 334.279 134.577 327.809Z" fill="#545CB9"/>
<path d="M134.577 377.599C134.577 371.129 139.822 365.884 146.293 365.884H399.637C406.107 365.884 411.352 371.129 411.352 377.599C411.352 384.069 406.107 389.315 399.637 389.315H146.293C139.822 389.315 134.577 384.069 134.577 377.599Z" fill="#32366B"/>
<path d="M268.58 225.809C268.58 228.757 269.788 231.351 272.865 231.351C275.233 231.351 276.731 229.724 276.731 227.791C276.731 225.503 275.104 224.343 273.171 224.343C271.85 224.343 270.69 225.197 270.223 225.922C270.207 225.809 270.207 225.696 270.207 225.568C270.207 223.57 271.19 221.685 273.139 221.685C274.202 221.685 274.83 222.088 275.378 222.716L276.167 221.492C275.475 220.751 274.492 220.252 273.139 220.252C270.062 220.252 268.58 222.797 268.58 225.809ZM275.104 227.839C275.104 228.789 274.331 229.917 272.784 229.917C271.029 229.917 270.368 228.419 270.239 227.162C270.803 226.309 271.77 225.729 272.768 225.729C274.041 225.729 275.104 226.405 275.104 227.839Z" fill="#454954"/>
<path d="M379.887 227.28C379.887 229.152 381.695 230.192 383.855 230.192C385.983 230.192 387.791 229.136 387.791 227.28C387.791 225.888 386.639 224.912 385.327 224.496C386.543 224.128 387.631 223.328 387.631 221.952C387.631 220.016 385.663 219.168 383.855 219.168C381.999 219.168 380.063 220.016 380.063 221.952C380.063 223.328 381.135 224.128 382.351 224.496C381.039 224.912 379.887 225.888 379.887 227.28ZM386.015 222.192C386.015 223.328 384.511 223.744 383.855 223.856C383.199 223.744 381.679 223.328 381.679 222.192C381.679 221.184 382.607 220.592 383.855 220.592C385.055 220.592 386.015 221.184 386.015 222.192ZM386.191 227.088C386.191 228.128 385.087 228.768 383.855 228.768C382.575 228.768 381.503 228.128 381.503 227.088C381.503 225.84 383.183 225.296 383.855 225.216C384.495 225.296 386.191 225.84 386.191 227.088Z" fill="#454954"/>
<path d="M100.947 282.412H102.558V271.667H101.14L98.2568 274.615L99.2072 275.598L100.947 273.778V282.412Z" fill="#454954"/>
<path d="M104.497 277.048C104.497 279.706 105.721 282.605 108.701 282.605C111.681 282.605 112.906 279.706 112.906 277.048C112.906 274.39 111.681 271.506 108.701 271.506C105.721 271.506 104.497 274.39 104.497 277.048ZM111.263 277.048C111.263 279.142 110.602 281.172 108.701 281.172C106.8 281.172 106.14 279.142 106.14 277.048C106.14 274.954 106.8 272.94 108.701 272.94C110.602 272.94 111.263 274.954 111.263 277.048Z" fill="#454954"/>
<path d="M156.594 282.412H158.205V270.697H156.788L153.904 273.911L154.855 274.982L156.594 272.997V282.412Z" fill="#454954"/>
<path d="M162.383 282.412H163.994V270.697H162.577L159.693 273.911L160.644 274.982L162.383 272.997V282.412Z" fill="#454954"/>
<path d="M212.243 282.412H213.854V270.87H212.436L209.553 274.036L210.503 275.092L212.243 273.137V282.412Z" fill="#454954"/>
<path d="M215.889 282.412H223.461V280.889H218.451C221.399 278.449 223.412 276.424 223.412 274.175C223.412 271.873 221.592 270.697 219.659 270.697C218.161 270.697 216.695 271.337 215.809 272.531L216.759 273.656C217.42 272.808 218.402 272.237 219.675 272.237C220.722 272.237 221.769 272.825 221.769 274.175C221.769 275.992 219.917 277.722 215.889 281.045V282.412Z" fill="#454954"/>
<path d="M268.827 280.748V270.896H267.844L264.316 272.228V273.875L267.103 272.86V280.748H264.155V282.212H271.581V280.748H268.827Z" fill="#454954"/>
<path d="M278.503 276.488C279.309 275.972 279.76 275.106 279.76 274.025C279.76 272.078 278.342 270.697 276.216 270.697C274.122 270.697 272.688 271.961 272.543 273.875H274.234C274.347 272.877 275.104 272.228 276.216 272.228C277.359 272.228 278.133 272.926 278.133 274.041C278.133 275.106 277.376 275.839 276.232 275.839H275.362V277.286H276.232C277.585 277.286 278.487 277.985 278.487 279.1C278.487 280.132 277.601 280.881 276.377 280.881C275.153 280.881 274.267 280.249 274.073 279.25H272.398C272.672 281.197 274.202 282.412 276.377 282.412C278.535 282.412 280.114 280.997 280.114 279.1C280.114 277.902 279.534 276.987 278.503 276.488Z" fill="#454954"/>
<path d="M322.317 282.412H324.073V270.697H322.528L319.384 273.911L320.42 274.982L322.317 272.997V282.412Z" fill="#454954"/>
<path d="M331.475 282.412H333.231V279.602H334.847V278.056H333.231V270.697H330.825L325.907 278.161V279.602H331.475V282.412ZM331.475 272.295V278.056H327.646L331.475 272.295Z" fill="#454954"/>
<path d="M377.722 282.205H379.333V270.697H377.916L375.032 273.854L375.983 274.906L377.722 272.957V282.205Z" fill="#454954"/>
<path d="M381.514 280.6C382.352 281.722 383.576 282.412 385.412 282.412C387.684 282.412 389.359 280.928 389.359 278.564C389.359 276.201 387.732 274.872 385.928 274.872C384.881 274.872 383.979 275.338 383.463 275.89V272.215H388.65V270.697H381.852V277.011L383.012 277.408C383.721 276.684 384.494 276.373 385.428 276.373C386.814 276.373 387.732 277.253 387.732 278.633C387.732 279.893 386.798 280.876 385.396 280.876C384.14 280.876 383.173 280.359 382.464 279.427L381.514 280.6Z" fill="#454954"/>
<path d="M102.411 333.667H104.022V322.922H102.604L99.7207 325.87L100.671 326.853L102.411 325.033V333.667Z" fill="#454954"/>
<path d="M107.169 333.667H108.941L113.226 324.034V322.922H105.687V324.34H111.357L107.169 333.667Z" fill="#454954"/>
<path d="M155.28 333.463H156.98V322.121H155.484L152.44 325.233L153.444 326.27L155.28 324.349V333.463Z" fill="white"/>
<path d="M159.044 330.572C159.044 332.562 160.966 333.667 163.261 333.667C165.522 333.667 167.444 332.545 167.444 330.572C167.444 329.093 166.22 328.056 164.825 327.614C166.118 327.222 167.274 326.372 167.274 324.91C167.274 322.853 165.182 321.951 163.261 321.951C161.289 321.951 159.231 322.853 159.231 324.91C159.231 326.372 160.37 327.222 161.663 327.614C160.268 328.056 159.044 329.093 159.044 330.572ZM165.556 325.165C165.556 326.372 163.958 326.814 163.261 326.933C162.564 326.814 160.949 326.372 160.949 325.165C160.949 324.094 161.935 323.465 163.261 323.465C164.536 323.465 165.556 324.094 165.556 325.165ZM165.743 330.368C165.743 331.473 164.57 332.153 163.261 332.153C161.901 332.153 160.761 331.473 160.761 330.368C160.761 329.042 162.547 328.464 163.261 328.379C163.941 328.464 165.743 329.042 165.743 330.368Z" fill="white"/>
<path d="M212.392 333.48H214.093V322.138H212.596L209.553 325.25L210.556 326.287L212.392 324.366V333.48Z" fill="white"/>
<path d="M216.701 332.358C217.432 333.14 218.469 333.667 219.897 333.667C223.128 333.667 224.709 330.98 224.709 327.818C224.709 324.689 223.434 321.951 220.169 321.951C217.67 321.951 216.088 323.686 216.088 325.709C216.088 328.124 217.823 329.365 219.863 329.365C221.24 329.365 222.465 328.447 222.992 327.682V328.073C222.992 330.079 222.074 332.153 219.897 332.153C218.775 332.153 218.095 331.728 217.517 331.082L216.701 332.358ZM222.941 326.372C222.363 327.29 221.325 327.886 220.288 327.886C218.945 327.886 217.823 327.171 217.823 325.658C217.823 324.655 218.639 323.465 220.254 323.465C222.108 323.465 222.839 325.063 222.941 326.372Z" fill="white"/>
<path d="M265.49 332.003L267.97 329.207C269.517 327.493 270.3 326.544 270.3 325.28C270.3 323.449 269.002 321.951 266.555 321.951C264.209 321.951 262.645 323.333 262.578 325.429H264.342C264.475 324.215 265.274 323.499 266.505 323.499C267.87 323.499 268.502 324.331 268.502 325.263C268.502 326.278 267.72 327.11 266.489 328.458L262.894 332.535V333.467H270.449V332.003H265.49Z" fill="white"/>
<path d="M277.054 321.951C273.892 321.951 272.045 324.381 272.045 327.809C272.045 331.221 273.892 333.667 277.054 333.667C280.216 333.667 282.046 331.221 282.046 327.809C282.046 324.381 280.216 321.951 277.054 321.951ZM277.054 332.053C274.924 332.053 273.842 330.255 273.842 327.809C273.842 325.363 274.924 323.566 277.054 323.566C279.151 323.566 280.232 325.363 280.232 327.809C280.232 330.255 279.151 332.053 277.054 332.053Z" fill="white"/>
<path d="M321.401 333.667H329.534V332.144H324.152C327.319 329.704 329.482 327.679 329.482 325.43C329.482 323.128 327.527 321.951 325.45 321.951C323.841 321.951 322.266 322.592 321.314 323.786L322.335 324.911C323.045 324.063 324.101 323.492 325.468 323.492C326.592 323.492 327.717 324.08 327.717 325.43C327.717 327.247 325.727 328.977 321.401 332.3V333.667Z" fill="white"/>
<path d="M333.927 333.667H335.657V322.124H334.134L331.037 325.291L332.058 326.347L333.927 324.391V333.667Z" fill="white"/>
<path d="M375.585 333.667H383.718V332.144H378.336C381.503 329.704 383.666 327.679 383.666 325.43C383.666 323.128 381.71 321.951 379.634 321.951C378.025 321.951 376.45 322.592 375.498 323.786L376.519 324.911C377.229 324.063 378.284 323.492 379.651 323.492C380.776 323.492 381.901 324.08 381.901 325.43C381.901 327.247 379.911 328.977 375.585 332.3V333.667Z" fill="white"/>
<path d="M385.809 333.667H393.942V332.144H388.56C391.727 329.704 393.89 327.679 393.89 325.43C393.89 323.128 391.935 321.951 389.858 321.951C388.249 321.951 386.674 322.592 385.722 323.786L386.743 324.911C387.453 324.063 388.508 323.492 389.875 323.492C391 323.492 392.125 324.08 392.125 325.43C392.125 327.247 390.135 328.977 385.809 332.3V333.667Z" fill="white"/>
<path d="M101.314 228.13C102.007 229.097 103.392 229.886 105.261 229.886C107.693 229.886 109.192 228.581 109.192 226.777C109.192 225.086 107.71 224.248 106.695 224.152C107.758 223.958 109.03 223.169 109.03 221.671C109.03 219.867 107.452 218.787 105.261 218.787C103.537 218.787 102.265 219.512 101.459 220.463L102.313 221.461C103.103 220.656 103.988 220.221 105.116 220.221C106.389 220.221 107.42 220.801 107.42 221.896C107.42 223.008 106.356 223.491 105.052 223.491C104.633 223.491 104.069 223.491 103.892 223.475V224.941C104.053 224.925 104.617 224.925 105.052 224.925C106.614 224.925 107.581 225.424 107.581 226.616C107.581 227.744 106.695 228.453 105.213 228.453C104.005 228.453 102.893 227.905 102.217 227.083L101.314 228.13Z" fill="#454954"/>
<path d="M163.598 229.693H165.209V227.116H166.69V225.698H165.209V218.948H163.002L158.491 225.795V227.116H163.598V229.693ZM163.598 220.414V225.698H160.086L163.598 220.414Z" fill="#454954"/>
<path d="M216.103 228.195C216.94 229.242 218.164 229.886 220.001 229.886C222.272 229.886 223.947 228.501 223.947 226.294C223.947 224.087 222.32 222.847 220.516 222.847C219.469 222.847 218.567 223.282 218.052 223.797V220.366H223.239V218.948H216.441V224.844L217.601 225.215C218.309 224.538 219.083 224.248 220.017 224.248C221.402 224.248 222.32 225.07 222.32 226.358C222.32 227.534 221.386 228.453 219.985 228.453C218.728 228.453 217.762 227.969 217.053 227.099L216.103 228.195Z" fill="#454954"/>
<path d="M326.901 229.693H328.673L332.958 220.06V218.948H325.419V220.366H331.089L326.901 229.693Z" fill="#454954"/>
<path d="M430.197 229.858C430.89 230.599 431.872 231.099 433.226 231.099C436.286 231.099 437.784 228.554 437.784 225.557C437.784 222.593 436.576 220 433.483 220C431.115 220 429.617 221.643 429.617 223.56C429.617 225.847 431.26 227.023 433.193 227.023C434.498 227.023 435.658 226.153 436.157 225.429V225.799C436.157 227.7 435.287 229.665 433.226 229.665C432.162 229.665 431.518 229.262 430.97 228.65L430.197 229.858ZM436.109 224.188C435.561 225.058 434.579 225.622 433.596 225.622C432.323 225.622 431.26 224.945 431.26 223.512C431.26 222.561 432.033 221.434 433.564 221.434C435.32 221.434 436.012 222.948 436.109 224.188Z" fill="#454954"/>
<path d="M429.913 280.995V271.458H428.93L425.402 272.747V274.342L428.189 273.359V280.995H425.241V282.412H432.667V280.995H429.913Z" fill="#454954"/>
<path d="M437.753 274.986C437.624 274.986 437.479 274.986 437.366 275.002L439.686 271.458H437.672L434.531 276.162C433.935 277.096 433.581 277.869 433.581 278.82C433.581 280.962 435.288 282.605 437.737 282.605C440.169 282.605 441.893 280.978 441.893 278.772C441.893 276.581 440.169 274.986 437.753 274.986ZM437.737 281.204C436.287 281.204 435.256 280.189 435.256 278.884C435.256 278.272 435.465 277.789 435.965 277.128L436.013 277.048C436.464 276.694 437.06 276.5 437.737 276.5C439.202 276.5 440.217 277.547 440.217 278.868C440.217 280.189 439.186 281.204 437.737 281.204Z" fill="#454954"/>
<path d="M427.947 332.249L430.347 329.543C431.845 327.884 432.602 326.966 432.602 325.741C432.602 323.969 431.346 322.52 428.978 322.52C426.707 322.52 425.192 323.857 425.128 325.886H426.835C426.964 324.71 427.738 324.018 428.93 324.018C430.25 324.018 430.863 324.823 430.863 325.725C430.863 326.708 430.105 327.513 428.913 328.818L425.434 332.765V333.667H432.747V332.249H427.947Z" fill="#454954"/>
<path d="M440.202 328.125C441.007 327.626 441.459 326.788 441.459 325.741C441.459 323.857 440.041 322.52 437.915 322.52C435.821 322.52 434.387 323.744 434.242 325.596H435.933C436.046 324.63 436.803 324.002 437.915 324.002C439.058 324.002 439.832 324.678 439.832 325.757C439.832 326.788 439.074 327.497 437.931 327.497H437.061V328.899H437.931C439.284 328.899 440.186 329.575 440.186 330.654C440.186 331.653 439.3 332.378 438.076 332.378C436.851 332.378 435.966 331.766 435.772 330.799H434.097C434.371 332.684 435.901 333.86 438.076 333.86C440.234 333.86 441.813 332.491 441.813 330.654C441.813 329.495 441.233 328.609 440.202 328.125Z" fill="#454954"/>
<path d="M98.8032 383.457H106.374V382.039H101.364C104.312 379.768 106.326 377.883 106.326 375.789C106.326 373.647 104.506 372.551 102.573 372.551C101.075 372.551 99.6086 373.147 98.7227 374.259L99.6731 375.306C100.334 374.517 101.316 373.985 102.589 373.985C103.636 373.985 104.683 374.533 104.683 375.789C104.683 377.481 102.83 379.091 98.8032 382.184V383.457Z" fill="#454954"/>
<path d="M113.073 383.457H114.683V380.879H116.165V379.462H114.683V372.712H112.477L107.966 379.559V380.879H113.073V383.457ZM113.073 374.178V379.462H109.561L113.073 374.178Z" fill="#454954"/>
<path d="M152.987 383.457H160.558V382.039H155.548C158.496 379.768 160.51 377.883 160.51 375.789C160.51 373.647 158.689 372.551 156.756 372.551C155.258 372.551 153.792 373.147 152.906 374.259L153.857 375.306C154.517 374.517 155.5 373.985 156.772 373.985C157.819 373.985 158.866 374.533 158.866 375.789C158.866 377.481 157.014 379.091 152.987 382.184V383.457Z" fill="white"/>
<path d="M162.649 381.959C163.487 383.006 164.711 383.65 166.547 383.65C168.819 383.65 170.494 382.265 170.494 380.058C170.494 377.851 168.867 376.611 167.063 376.611C166.016 376.611 165.114 377.046 164.598 377.561V374.13H169.785V372.712H162.987V378.608L164.147 378.979C164.856 378.302 165.629 378.012 166.563 378.012C167.949 378.012 168.867 378.834 168.867 380.122C168.867 381.298 167.933 382.216 166.531 382.216C165.275 382.216 164.308 381.733 163.599 380.863L162.649 381.959Z" fill="white"/>
<path d="M208.635 383.457H216.206V382.039H211.197C214.144 379.768 216.158 377.883 216.158 375.789C216.158 373.647 214.338 372.551 212.405 372.551C210.907 372.551 209.441 373.147 208.555 374.259L209.505 375.306C210.166 374.517 211.148 373.985 212.421 373.985C213.468 373.985 214.515 374.533 214.515 375.789C214.515 377.481 212.662 379.091 208.635 382.184V383.457Z" fill="white"/>
<path d="M218.056 378.109C218.056 381.057 219.264 383.65 222.341 383.65C224.709 383.65 226.207 382.023 226.207 380.09C226.207 377.803 224.58 376.643 222.647 376.643C221.326 376.643 220.166 377.497 219.699 378.222C219.683 378.109 219.683 377.996 219.683 377.867C219.683 375.87 220.665 373.985 222.615 373.985C223.678 373.985 224.306 374.388 224.854 375.016L225.643 373.792C224.95 373.051 223.968 372.551 222.615 372.551C219.538 372.551 218.056 375.096 218.056 378.109ZM224.58 380.138C224.58 381.089 223.807 382.216 222.26 382.216C220.504 382.216 219.844 380.718 219.715 379.462C220.279 378.608 221.245 378.028 222.244 378.028C223.517 378.028 224.58 378.705 224.58 380.138Z" fill="white"/>
<path d="M264.283 383.457H271.854V382.039H266.844C269.792 379.768 271.805 377.883 271.805 375.789C271.805 373.647 269.985 372.551 268.052 372.551C266.554 372.551 265.088 373.147 264.202 374.259L265.153 375.306C265.813 374.517 266.796 373.985 268.068 373.985C269.115 373.985 270.162 374.533 270.162 375.789C270.162 377.481 268.31 379.091 264.283 382.184V383.457Z" fill="white"/>
<path d="M273.703 378.109C273.703 381.057 274.911 383.65 277.988 383.65C280.356 383.65 281.854 382.023 281.854 380.09C281.854 377.803 280.227 376.643 278.294 376.643C276.973 376.643 275.814 377.497 275.346 378.222C275.33 378.109 275.33 377.996 275.33 377.867C275.33 375.87 276.313 373.985 278.262 373.985C279.325 373.985 279.953 374.388 280.501 375.016L281.29 373.792C280.598 373.051 279.615 372.551 278.262 372.551C275.185 372.551 273.703 375.096 273.703 378.109ZM280.227 380.138C280.227 381.089 279.454 382.216 277.908 382.216C276.152 382.216 275.491 380.718 275.363 379.462C275.926 378.608 276.893 378.028 277.892 378.028C279.164 378.028 280.227 378.705 280.227 380.138Z" fill="white"/>
<path d="M321.395 383.457H328.966V382.039H323.956C326.904 379.768 328.918 377.883 328.918 375.789C328.918 373.647 327.097 372.551 325.164 372.551C323.666 372.551 322.2 373.147 321.314 374.259L322.265 375.306C322.925 374.517 323.908 373.985 325.181 373.985C326.228 373.985 327.275 374.533 327.275 375.789C327.275 377.481 325.422 379.091 321.395 382.184V383.457Z" fill="white"/>
<path d="M332.024 383.457H333.796L338.081 373.824V372.712H330.542V374.13H336.212L332.024 383.457Z" fill="white"/>
<path d="M374.114 383.457H381.685V382.039H376.675C379.623 379.768 381.636 377.883 381.636 375.789C381.636 373.647 379.816 372.551 377.883 372.551C376.385 372.551 374.919 373.147 374.033 374.259L374.984 375.306C375.644 374.517 376.627 373.985 377.899 373.985C378.946 373.985 379.993 374.533 379.993 375.789C379.993 377.481 378.141 379.091 374.114 382.184V383.457Z" fill="white"/>
<path d="M383.55 380.718C383.55 382.603 385.371 383.65 387.545 383.65C389.688 383.65 391.508 382.587 391.508 380.718C391.508 379.317 390.348 378.334 389.027 377.915C390.252 377.545 391.347 376.74 391.347 375.354C391.347 373.405 389.366 372.551 387.545 372.551C385.677 372.551 383.728 373.405 383.728 375.354C383.728 376.74 384.807 377.545 386.031 377.915C384.71 378.334 383.55 379.317 383.55 380.718ZM389.72 375.596C389.72 376.74 388.206 377.158 387.545 377.271C386.885 377.158 385.355 376.74 385.355 375.596C385.355 374.581 386.289 373.985 387.545 373.985C388.754 373.985 389.72 374.581 389.72 375.596ZM389.897 380.525C389.897 381.572 388.786 382.216 387.545 382.216C386.257 382.216 385.177 381.572 385.177 380.525C385.177 379.269 386.869 378.721 387.545 378.64C388.19 378.721 389.897 379.269 389.897 380.525Z" fill="white"/>
<path d="M431.905 384.921H433.516V374.177H432.098L429.215 377.125L430.165 378.108L431.905 376.287V384.921Z" fill="#BAC7C4"/>
<path d="M330.799 140.363V131.632H333.924V129.619H325.354V131.632H328.496V140.363H330.799Z" fill="#454954"/>
<path d="M167.788 140.363V129.619H164.566L161.957 136.336L159.347 129.619H156.142V140.363H158.429V132.615L161.457 140.363H162.456L165.485 132.615V140.363H167.788Z" fill="#454954"/>
<path d="M220.968 140.363V131.632H224.093V129.619H215.523V131.632H218.665V140.363H220.968Z" fill="#454954"/>
<path d="M275.156 140.363L278.216 129.619H275.655L273.77 137.383L271.741 129.619H269.953L267.907 137.383L266.022 129.619H263.461L266.538 140.363H268.97L270.839 132.986L272.723 140.363H275.156Z" fill="#454954"/>
<path d="M382.485 140.363V135.901H387.688V133.888H382.485V131.632H387.801V129.619H380.197V140.363H382.485Z" fill="#454954"/>
<path d="M432.357 140.557C435.241 140.557 436.658 139.075 436.658 137.109C436.658 133.098 430.488 134.242 430.488 132.551C430.488 131.906 431.036 131.487 432.003 131.487C433.098 131.487 434.258 131.858 435.128 132.663L436.4 130.956C435.337 129.973 433.92 129.458 432.212 129.458C429.683 129.458 428.137 130.94 428.137 132.728C428.137 136.771 434.322 135.466 434.322 137.335C434.322 137.963 433.726 138.527 432.454 138.527C430.972 138.527 429.796 137.85 429.039 137.061L427.782 138.849C428.797 139.864 430.279 140.557 432.357 140.557Z" fill="#454954"/>
<path d="M104.328 140.557C107.211 140.557 108.629 139.075 108.629 137.109C108.629 133.098 102.459 134.242 102.459 132.551C102.459 131.906 103.007 131.487 103.973 131.487C105.069 131.487 106.229 131.858 107.098 132.663L108.371 130.956C107.308 129.973 105.89 129.458 104.183 129.458C101.654 129.458 100.107 130.94 100.107 132.728C100.107 136.771 106.293 135.466 106.293 137.335C106.293 137.963 105.697 138.527 104.424 138.527C102.942 138.527 101.767 137.85 101.009 137.061L99.7529 138.849C100.768 139.864 102.25 140.557 104.328 140.557Z" fill="#454954"/>
<circle cx="104" cy="447" r="7" fill="#7B84EB"/>
<path d="M128.992 452L126.112 447.648C127.568 447.52 128.896 446.464 128.896 444.544C128.896 442.576 127.488 441.328 125.536 441.328H121.248V452H122.576V447.76H124.72L127.424 452H128.992ZM125.376 446.592H122.576V442.512H125.376C126.64 442.512 127.52 443.328 127.52 444.544C127.52 445.744 126.64 446.592 125.376 446.592ZM133.97 452.192C135.218 452.192 136.258 451.76 137.042 450.992L136.466 450.208C135.842 450.848 134.962 451.2 134.066 451.2C132.402 451.2 131.394 449.984 131.298 448.528H137.538V448.224C137.538 445.904 136.162 444.08 133.826 444.08C131.618 444.08 130.018 445.888 130.018 448.128C130.018 450.544 131.666 452.192 133.97 452.192ZM136.354 447.632H131.282C131.346 446.464 132.162 445.072 133.81 445.072C135.57 445.072 136.338 446.496 136.354 447.632ZM141.945 452.192C143.929 452.192 144.969 451.152 144.969 449.856C144.969 446.848 140.185 447.952 140.185 446.272C140.185 445.584 140.841 445.056 141.897 445.056C142.905 445.056 143.737 445.472 144.201 446.032L144.761 445.2C144.153 444.576 143.225 444.08 141.897 444.08C140.057 444.08 139.033 445.088 139.033 446.304C139.033 449.168 143.817 448.016 143.817 449.888C143.817 450.656 143.161 451.216 141.977 451.216C140.921 451.216 139.945 450.704 139.433 450.112L138.825 450.976C139.609 451.792 140.665 452.192 141.945 452.192ZM150.423 452.192C151.671 452.192 152.711 451.76 153.495 450.992L152.919 450.208C152.295 450.848 151.415 451.2 150.519 451.2C148.855 451.2 147.847 449.984 147.751 448.528H153.991V448.224C153.991 445.904 152.615 444.08 150.279 444.08C148.071 444.08 146.471 445.888 146.471 448.128C146.471 450.544 148.119 452.192 150.423 452.192ZM152.807 447.632H147.735C147.799 446.464 148.615 445.072 150.263 445.072C152.023 445.072 152.791 446.496 152.807 447.632ZM161.966 452V446.688C161.966 444.816 160.622 444.08 158.974 444.08C157.71 444.08 156.718 444.496 155.886 445.36L156.446 446.192C157.134 445.44 157.886 445.12 158.814 445.12C159.934 445.12 160.766 445.712 160.766 446.736V448.128C160.142 447.424 159.262 447.088 158.206 447.088C156.894 447.088 155.518 447.888 155.518 449.632C155.518 451.312 156.91 452.192 158.206 452.192C159.246 452.192 160.142 451.824 160.766 451.12V452H161.966ZM158.654 451.328C157.518 451.328 156.734 450.624 156.734 449.632C156.734 448.656 157.518 447.952 158.654 447.952C159.486 447.952 160.302 448.272 160.766 448.896V450.368C160.302 451.008 159.486 451.328 158.654 451.328ZM165.588 452V446.528C165.94 445.904 166.948 445.296 167.7 445.296C167.876 445.296 168.02 445.312 168.164 445.328V444.096C167.108 444.096 166.212 444.704 165.588 445.504V444.272H164.388V452H165.588ZM173.077 452.192C174.485 452.192 175.317 451.616 175.909 450.848L175.109 450.112C174.597 450.8 173.941 451.12 173.141 451.12C171.509 451.12 170.469 449.84 170.469 448.128C170.469 446.416 171.509 445.152 173.141 445.152C173.941 445.152 174.597 445.44 175.109 446.144L175.909 445.424C175.317 444.656 174.485 444.08 173.077 444.08C170.773 444.08 169.221 445.84 169.221 448.128C169.221 450.416 170.773 452.192 173.077 452.192ZM184.038 452V446.544C184.038 444.864 183.19 444.08 181.574 444.08C180.406 444.08 179.35 444.736 178.822 445.392V441.328H177.622V452H178.822V446.352C179.27 445.728 180.166 445.152 181.094 445.152C182.15 445.152 182.838 445.536 182.838 446.912V452H184.038ZM199.183 452C198.399 451.28 197.743 450.64 197.103 449.984C197.743 449.088 198.207 448.08 198.559 447.232L197.535 446.768C197.343 447.36 196.959 448.336 196.383 449.216C195.967 448.768 195.551 448.304 195.119 447.792C194.767 447.392 194.303 446.848 193.871 446.272C195.231 445.568 196.591 444.864 196.591 443.264C196.591 441.92 195.567 441.168 194.191 441.168C192.671 441.168 191.503 442.224 191.503 443.632C191.503 444.384 191.839 445.216 192.319 446.032C191.087 446.704 189.967 447.552 189.967 449.216C189.967 451.184 191.455 452.192 193.279 452.192C194.575 452.192 195.567 451.664 196.351 450.88C196.783 451.312 197.199 451.728 197.519 452H199.183ZM193.407 451.2C192.271 451.2 191.247 450.464 191.247 449.136C191.247 448.032 191.935 447.376 192.831 446.832C193.247 447.44 193.711 448.016 194.159 448.528C194.463 448.896 195.023 449.504 195.631 450.144C195.023 450.768 194.287 451.2 193.407 451.2ZM192.735 443.664C192.735 442.736 193.407 442.096 194.223 442.096C194.943 442.096 195.487 442.528 195.487 443.312C195.487 444.384 194.511 444.944 193.375 445.504C193.007 444.88 192.735 444.224 192.735 443.664ZM208.677 452C212.005 452 214.149 449.712 214.149 446.672C214.149 443.648 212.005 441.328 208.677 441.328H205.029V452H208.677ZM208.677 450.816H206.357V442.512H208.677C211.317 442.512 212.773 444.368 212.773 446.672C212.773 448.96 211.269 450.816 208.677 450.816ZM216.792 443.168C217.24 443.168 217.592 442.816 217.592 442.368C217.592 441.92 217.24 441.552 216.792 441.552C216.344 441.552 215.976 441.92 215.976 442.368C215.976 442.816 216.344 443.168 216.792 443.168ZM217.384 452V444.272H216.184V452H217.384ZM222.242 452.192C224.226 452.192 225.266 451.152 225.266 449.856C225.266 446.848 220.482 447.952 220.482 446.272C220.482 445.584 221.138 445.056 222.194 445.056C223.202 445.056 224.034 445.472 224.498 446.032L225.058 445.2C224.45 444.576 223.522 444.08 222.194 444.08C220.354 444.08 219.33 445.088 219.33 446.304C219.33 449.168 224.114 448.016 224.114 449.888C224.114 450.656 223.458 451.216 222.274 451.216C221.218 451.216 220.242 450.704 219.73 450.112L219.122 450.976C219.906 451.792 220.962 452.192 222.242 452.192ZM230.624 452.192C232.032 452.192 232.864 451.616 233.456 450.848L232.656 450.112C232.144 450.8 231.488 451.12 230.688 451.12C229.056 451.12 228.016 449.84 228.016 448.128C228.016 446.416 229.056 445.152 230.688 445.152C231.488 445.152 232.144 445.44 232.656 446.144L233.456 445.424C232.864 444.656 232.032 444.08 230.624 444.08C228.32 444.08 226.768 445.84 226.768 448.128C226.768 450.416 228.32 452.192 230.624 452.192ZM238.529 452.192C240.881 452.192 242.353 450.368 242.353 448.128C242.353 445.888 240.881 444.08 238.529 444.08C236.177 444.08 234.705 445.888 234.705 448.128C234.705 450.368 236.177 452.192 238.529 452.192ZM238.529 451.12C236.881 451.12 235.969 449.712 235.969 448.128C235.969 446.56 236.881 445.152 238.529 445.152C240.177 445.152 241.089 446.56 241.089 448.128C241.089 449.712 240.177 451.12 238.529 451.12ZM247.685 452L250.901 444.272H249.605L247.029 450.608L244.469 444.272H243.157L246.373 452H247.685ZM255.657 452.192C256.905 452.192 257.945 451.76 258.729 450.992L258.153 450.208C257.529 450.848 256.649 451.2 255.753 451.2C254.089 451.2 253.081 449.984 252.985 448.528H259.225V448.224C259.225 445.904 257.849 444.08 255.513 444.08C253.305 444.08 251.705 445.888 251.705 448.128C251.705 450.544 253.353 452.192 255.657 452.192ZM258.041 447.632H252.969C253.033 446.464 253.849 445.072 255.497 445.072C257.257 445.072 258.025 446.496 258.041 447.632ZM262.369 452V446.528C262.721 445.904 263.729 445.296 264.481 445.296C264.657 445.296 264.801 445.312 264.945 445.328V444.096C263.889 444.096 262.993 444.704 262.369 445.504V444.272H261.169V452H262.369ZM266.034 455.024C266.242 455.088 266.642 455.136 266.898 455.136C267.922 455.12 268.706 454.688 269.17 453.568L273.042 444.272H271.746L269.17 450.608L266.61 444.272H265.298L268.53 452.08L268.018 453.248C267.746 453.888 267.394 454.064 266.866 454.064C266.674 454.064 266.386 454.016 266.21 453.936L266.034 455.024Z" fill="#595D67"/>
<circle cx="312" cy="447" r="7" fill="#32366B"/>
<path d="M333.896 451C337.224 451 339.368 448.712 339.368 445.672C339.368 442.648 337.224 440.328 333.896 440.328H330.248V451H333.896ZM333.896 449.816H331.576V441.512H333.896C336.536 441.512 337.992 443.368 337.992 445.672C337.992 447.96 336.488 449.816 333.896 449.816ZM344.907 451.192C346.155 451.192 347.195 450.76 347.979 449.992L347.403 449.208C346.779 449.848 345.899 450.2 345.003 450.2C343.339 450.2 342.331 448.984 342.235 447.528H348.475V447.224C348.475 444.904 347.099 443.08 344.763 443.08C342.555 443.08 340.955 444.888 340.955 447.128C340.955 449.544 342.603 451.192 344.907 451.192ZM347.291 446.632H342.219C342.283 445.464 343.099 444.072 344.747 444.072C346.507 444.072 347.275 445.496 347.291 446.632ZM352.883 451.192C354.867 451.192 355.907 450.152 355.907 448.856C355.907 445.848 351.123 446.952 351.123 445.272C351.123 444.584 351.779 444.056 352.835 444.056C353.843 444.056 354.675 444.472 355.139 445.032L355.699 444.2C355.091 443.576 354.163 443.08 352.835 443.08C350.995 443.08 349.971 444.088 349.971 445.304C349.971 448.168 354.755 447.016 354.755 448.888C354.755 449.656 354.099 450.216 352.915 450.216C351.859 450.216 350.883 449.704 350.371 449.112L349.763 449.976C350.547 450.792 351.603 451.192 352.883 451.192ZM358.464 442.168C358.912 442.168 359.264 441.816 359.264 441.368C359.264 440.92 358.912 440.552 358.464 440.552C358.016 440.552 357.648 440.92 357.648 441.368C357.648 441.816 358.016 442.168 358.464 442.168ZM359.056 451V443.272H357.856V451H359.056ZM364.554 454.136C366.442 454.136 368.25 453.336 368.25 450.888V443.272H367.05V444.44C366.426 443.592 365.482 443.08 364.442 443.08C362.41 443.08 361.002 444.616 361.002 447.096C361.002 449.592 362.426 451.096 364.442 451.096C365.53 451.096 366.474 450.504 367.05 449.72V450.888C367.05 452.52 365.834 453.144 364.554 453.144C363.45 453.144 362.682 452.856 362.042 452.104L361.434 452.968C362.362 453.88 363.258 454.136 364.554 454.136ZM364.746 450.024C363.178 450.024 362.25 448.792 362.25 447.096C362.25 445.384 363.178 444.152 364.746 444.152C365.69 444.152 366.618 444.728 367.05 445.384V448.776C366.618 449.448 365.69 450.024 364.746 450.024ZM377.069 451V445.576C377.069 443.896 376.221 443.08 374.621 443.08C373.453 443.08 372.397 443.736 371.853 444.392V443.272H370.653V451H371.853V445.352C372.317 444.728 373.197 444.152 374.141 444.152C375.181 444.152 375.885 444.568 375.885 445.944V451H377.069ZM392.23 451C391.446 450.28 390.79 449.64 390.15 448.984C390.79 448.088 391.254 447.08 391.606 446.232L390.582 445.768C390.39 446.36 390.006 447.336 389.43 448.216C389.014 447.768 388.598 447.304 388.166 446.792C387.814 446.392 387.35 445.848 386.918 445.272C388.278 444.568 389.638 443.864 389.638 442.264C389.638 440.92 388.614 440.168 387.238 440.168C385.718 440.168 384.55 441.224 384.55 442.632C384.55 443.384 384.886 444.216 385.366 445.032C384.134 445.704 383.014 446.552 383.014 448.216C383.014 450.184 384.502 451.192 386.326 451.192C387.622 451.192 388.614 450.664 389.398 449.88C389.83 450.312 390.246 450.728 390.566 451H392.23ZM386.454 450.2C385.318 450.2 384.294 449.464 384.294 448.136C384.294 447.032 384.982 446.376 385.878 445.832C386.294 446.44 386.758 447.016 387.206 447.528C387.51 447.896 388.07 448.504 388.678 449.144C388.07 449.768 387.334 450.2 386.454 450.2ZM385.782 442.664C385.782 441.736 386.454 441.096 387.27 441.096C387.99 441.096 388.534 441.528 388.534 442.312C388.534 443.384 387.558 443.944 386.422 444.504C386.054 443.88 385.782 443.224 385.782 442.664ZM402.044 451V441.512H405.436V440.328H397.34V441.512H400.716V451H402.044ZM408.813 451.192C410.061 451.192 411.101 450.76 411.885 449.992L411.309 449.208C410.685 449.848 409.805 450.2 408.909 450.2C407.245 450.2 406.237 448.984 406.141 447.528H412.381V447.224C412.381 444.904 411.005 443.08 408.669 443.08C406.461 443.08 404.861 444.888 404.861 447.128C404.861 449.544 406.509 451.192 408.813 451.192ZM411.197 446.632H406.125C406.189 445.464 407.005 444.072 408.653 444.072C410.413 444.072 411.181 445.496 411.197 446.632ZM416.789 451.192C418.773 451.192 419.813 450.152 419.813 448.856C419.813 445.848 415.029 446.952 415.029 445.272C415.029 444.584 415.685 444.056 416.741 444.056C417.749 444.056 418.581 444.472 419.045 445.032L419.605 444.2C418.997 443.576 418.069 443.08 416.741 443.08C414.901 443.08 413.877 444.088 413.877 445.304C413.877 448.168 418.661 447.016 418.661 448.888C418.661 449.656 418.005 450.216 416.821 450.216C415.765 450.216 414.789 449.704 414.277 449.112L413.669 449.976C414.453 450.792 415.509 451.192 416.789 451.192ZM423.731 451.192C424.419 451.192 424.851 450.984 425.155 450.696L424.803 449.784C424.643 449.96 424.339 450.12 423.987 450.12C423.475 450.12 423.219 449.704 423.219 449.128V444.328H424.786V443.272H423.219V441.16H422.003V443.272H420.723V444.328H422.003V449.384C422.003 450.536 422.579 451.192 423.731 451.192ZM427.074 442.168C427.522 442.168 427.874 441.816 427.874 441.368C427.874 440.92 427.522 440.552 427.074 440.552C426.626 440.552 426.258 440.92 426.258 441.368C426.258 441.816 426.626 442.168 427.074 442.168ZM427.666 451V443.272H426.466V451H427.666ZM436.475 451V445.576C436.475 443.896 435.627 443.08 434.027 443.08C432.859 443.08 431.803 443.736 431.259 444.392V443.272H430.059V451H431.259V445.352C431.723 444.728 432.603 444.152 433.547 444.152C434.587 444.152 435.291 444.568 435.291 445.944V451H436.475ZM441.992 454.136C443.88 454.136 445.688 453.336 445.688 450.888V443.272H444.488V444.44C443.864 443.592 442.92 443.08 441.88 443.08C439.848 443.08 438.44 444.616 438.44 447.096C438.44 449.592 439.864 451.096 441.88 451.096C442.968 451.096 443.912 450.504 444.488 449.72V450.888C444.488 452.52 443.272 453.144 441.992 453.144C440.888 453.144 440.12 452.856 439.48 452.104L438.872 452.968C439.799 453.88 440.696 454.136 441.992 454.136ZM442.184 450.024C440.616 450.024 439.688 448.792 439.688 447.096C439.688 445.384 440.616 444.152 442.184 444.152C443.128 444.152 444.056 444.728 444.488 445.384V448.776C444.056 449.448 443.128 450.024 442.184 450.024Z" fill="#595D67"/>
</g>
<defs>
<filter id="filter0_d" x="0" y="0" width="571" height="592" filterUnits="userSpaceOnUse" color-interpolation-filters="sRGB">
<feFlood flood-opacity="0" result="BackgroundImageFix"/>
<feColorMatrix in="SourceAlpha" type="matrix" values="0 0 0 0 0 0 0 0 0 0 0 0 0 0 0 0 0 0 127 0"/>
<feOffset dx="15" dy="24"/>
<feGaussianBlur stdDeviation="45"/>
<feColorMatrix type="matrix" values="0 0 0 0 0.270588 0 0 0 0 0.286275 0 0 0 0 0.329412 0 0 0 0.15 0"/>
<feBlend mode="normal" in2="BackgroundImageFix" result="effect1_dropShadow"/>
<feBlend mode="normal" in="SourceGraphic" in2="effect1_dropShadow" result="shape"/>
</filter>
<filter id="filter1_d" x="75" y="63" width="391" height="415" filterUnits="userSpaceOnUse" color-interpolation-filters="sRGB">
<feFlood flood-opacity="0" result="BackgroundImageFix"/>
<feColorMatrix in="SourceAlpha" type="matrix" values="0 0 0 0 0 0 0 0 0 0 0 0 0 0 0 0 0 0 127 0"/>
<feOffset dy="-3"/>
<feColorMatrix type="matrix" values="0 0 0 0 0.329412 0 0 0 0 0.360784 0 0 0 0 0.72549 0 0 0 1 0"/>
<feBlend mode="normal" in2="BackgroundImageFix" result="effect1_dropShadow"/>
<feBlend mode="normal" in="SourceGraphic" in2="effect1_dropShadow" result="shape"/>
</filter>
</defs>
</svg>
