<svg width="47" height="75" viewBox="0 0 47 75" fill="none" xmlns="http://www.w3.org/2000/svg">
<path fill-rule="evenodd" clip-rule="evenodd" d="M39.147 53.8459C39.662 54.4609 41.802 55.3679 41.802 55.3679C41.802 55.3679 40.417 54.7449 39.952 52.3719C39.78 51.5069 39.696 51.0149 39.681 50.6679H39.373C40.452 49.0519 41.057 47.2469 41.057 45.3409C41.057 42.8699 40.416 40.5859 38.666 38.6479C38.728 39.2059 38.333 40.3569 38.333 40.9299C38.333 46.7639 35.106 51.1319 30.308 53.5779C30.532 52.9349 30.666 52.1959 30.666 51.4019C30.666 49.9169 30.217 48.6059 29.532 47.8199C28.407 46.0739 26.131 47.5519 23.498 47.5569C20.865 47.5519 18.588 46.0739 17.463 47.8199C16.779 48.6059 16.33 49.9169 16.33 51.4019C16.33 52.1959 16.464 52.9349 16.687 53.5779C11.89 51.1319 8.66197 46.7639 8.66197 40.9299C8.66197 40.3569 8.26797 39.2059 8.32997 38.6479C6.57997 40.5859 5.93797 42.8699 5.93797 45.3409C5.93797 47.2469 6.54297 49.0519 7.62297 50.6679H7.31397C7.29997 51.0149 7.21497 51.5069 7.04297 52.3719C6.57897 54.7449 5.19397 55.3679 5.19397 55.3679C5.19397 55.3679 7.33397 54.4609 7.84897 53.8459C8.09997 53.5479 8.76797 52.7199 8.96897 52.4699L8.98497 52.4919C8.86797 52.7629 8.58497 53.6469 8.98097 55.3499C9.49797 57.5719 11.617 59.0709 11.617 59.0709C11.617 59.0709 10.347 57.3019 10.699 55.3679C10.699 55.3679 10.624 56.1429 12.69 58.3009C14.666 60.3639 18.271 62.8589 18.586 62.8849C18.56 62.8189 18.521 60.4149 18.495 59.5379C20.003 59.9929 21.574 60.2529 23.208 60.2529C23.305 60.2529 23.401 60.249 23.498 60.247C23.595 60.249 23.691 60.2529 23.787 60.2529C25.421 60.2529 26.992 59.9929 28.5 59.5379C28.474 60.4149 28.436 63.3549 28.409 63.4219C28.724 63.3949 32.33 60.3639 34.305 58.3009C36.372 56.1429 36.297 55.3679 36.297 55.3679C36.648 57.3019 35.378 59.0709 35.378 59.0709C35.378 59.0709 37.498 57.5719 38.015 55.3499C38.41 53.6469 38.127 52.7629 38.01 52.4919L38.026 52.4699C38.227 52.7199 38.895 53.5479 39.147 53.8459Z" fill="url(#paint0_linear)"/>
<path fill-rule="evenodd" clip-rule="evenodd" d="M18.164 58.5279C18.163 58.5259 18.162 58.5249 18.161 58.5239C18.266 57.9329 18.354 57.3079 18.42 56.6559C18.458 56.2639 18.5 55.8699 18.538 55.4619C18.539 55.4629 18.541 55.4629 18.543 55.4639C18.504 55.8679 18.466 56.2569 18.427 56.6469C18.362 57.2959 18.271 57.9259 18.166 58.5129C18.166 58.5179 18.165 58.5229 18.164 58.5279Z" fill="#736153"/>
<path fill-rule="evenodd" clip-rule="evenodd" d="M24 71H23.9932C19.9617 70.9657 17.6129 65.6485 17 64.0773C17.0014 64.0641 17.0027 64.051 17.0027 64.0378C17.1464 62.4903 17.2709 60.8295 17.3598 59.1186C17.4131 58.0905 17.4651 57.065 17.5185 56C19.4925 56.9148 21.6293 57.4631 23.9207 57.5264H23.9932C23.9959 57.5264 23.9973 57.5264 24 57.5264V71Z" fill="#E1A78E"/>
<path fill-rule="evenodd" clip-rule="evenodd" d="M24.0244 71H24V56.7508C25.995 56.6811 27.8376 56.065 29.564 55C29.6082 56.104 29.6559 57.1997 29.6977 58.2535C29.7907 60.141 29.8803 61.9169 30 63.6008V63.6315C29.4734 65.5579 27.6423 71 24.0244 71Z" fill="#E1A78E"/>
<path fill-rule="evenodd" clip-rule="evenodd" d="M22.981 46.585C23.319 46.359 23.714 46.466 23.714 46.466L23.701 46.489C23.621 46.622 23.167 47.349 22.806 47.339C22.815 47.333 22.726 47.272 22.704 47.097C22.675 46.925 22.817 46.7 22.981 46.585Z" fill="#A6836A"/>
<path fill-rule="evenodd" clip-rule="evenodd" d="M39.049 37.8349C39.359 36.1299 39.599 34.8229 39.673 34.5679C39.709 34.4449 39.735 34.3209 39.771 34.1979C39.796 34.0499 39.833 33.9139 39.858 33.7789C39.919 33.5699 39.956 33.3589 40.005 33.1499C40.017 33.0509 40.043 32.9539 40.055 32.8549C40.092 32.6209 40.141 32.3859 40.177 32.1529C40.191 32.0539 40.203 31.9429 40.215 31.8439C40.252 31.6349 40.263 31.4259 40.289 31.2159C40.302 31.0559 40.313 30.8949 40.339 30.7479C40.351 30.6119 40.351 30.4759 40.363 30.3419C40.523 27.1249 39.833 23.8469 37.726 20.8769C35.175 17.3049 32.243 13.5219 25.873 12.9919H20.5C14.129 13.5219 11.197 17.3049 8.64601 20.8769C6.53901 23.8469 5.84901 27.1249 6.01001 30.3419C6.02201 30.4759 6.02201 30.6119 6.03401 30.7479C6.05801 30.8949 6.07101 31.0559 6.08301 31.2159C6.10701 31.4259 6.12001 31.6349 6.15701 31.8439C6.17001 31.9429 6.18201 32.0539 6.19401 32.1529C6.23101 32.3859 6.28101 32.6209 6.31801 32.8549C6.33001 32.9539 6.35401 33.0509 6.36601 33.1499C6.41501 33.3589 6.45301 33.5699 6.51401 33.7789C6.53901 33.9139 6.57701 34.0499 6.60101 34.1979C6.63801 34.3209 6.66201 34.4449 6.70001 34.5679C6.77401 34.8219 7.01201 36.1169 7.31901 37.8099C5.61901 36.9789 3.26001 38.1669 3.54001 41.2969C3.83001 44.4739 7.69101 46.3579 9.01401 46.6799C9.14401 47.2549 9.25501 47.6819 9.33601 47.8869C10.495 50.8069 11.899 51.6819 14.363 54.0609C17.05 56.6359 21.017 59.0509 22.976 59.0389L23.186 59.0509L23.397 59.0389C25.355 59.0509 29.323 56.6359 32.008 54.0609C34.473 51.6819 35.878 50.8069 37.036 47.8869C37.117 47.6839 37.227 47.2599 37.356 46.6899C38.634 46.4009 42.582 44.5109 42.874 41.2969C43.157 38.1389 40.752 36.9589 39.049 37.8349Z" fill="#ECB8A1"/>
<path fill-rule="evenodd" clip-rule="evenodd" d="M43.351 25.763C43.204 24.253 42.673 22.434 42.294 21.277H42.295L42.293 21.273L42.228 21.074L42.17 21.032C41.309 19.388 38.788 15.382 38.182 14.423L38.189 14.387C36.864 12.741 35.426 10.857 32.145 9.544C31.94 9.462 31.74 9.387 31.546 9.317L31.558 9.064C31.558 7.612 30.756 6.293 29.445 5.303C28.882 4.878 28.59 4.217 28.593 3.511V3.5C28.593 1.567 26.343 0 23.568 0C20.792 0 18.542 1.567 18.542 3.5V3.511C18.545 4.217 18.252 4.878 17.69 5.303C16.379 6.292 15.576 7.611 15.576 9.064C15.576 9.443 15.632 9.813 15.735 10.171C13.024 11.113 11.015 12.612 9.53 14.455C9.209 14.742 8.894 15.041 8.592 15.352C4.55 19.514 3 23.427 3 27.827C3 32.225 4.811 36.634 5.999 37.942C7.189 39.251 6.808 41.149 7.163 41.149C7.163 41.149 8.354 41.201 7.719 34.068C7.22 28.483 8.829 24.982 11.683 23.423C14.536 21.868 18.356 22.998 21.089 24.966C24.259 27.251 25.328 24.679 29.567 23.417C36.498 21.353 39.37 31.938 38.788 34.73C37.896 39.032 39.139 41.508 39.614 41.393C39.614 41.393 39.632 40.299 40.063 39.327C41.342 36.427 42.415 38.443 42.613 34.51C42.843 29.906 43.591 28.223 43.351 25.763Z" fill="#29251E"/>
<path d="M0 74.6381V72.9644C0 70.3382 1.5743 67.9693 3.9946 66.9541L14.7021 63H31.464L42.1714 66.9541C44.5917 67.9693 46.166 70.3418 46.166 72.9644V74.6381" fill="#F1ECD0"/>
<defs>
<linearGradient id="paint0_linear" x1="23.498" y1="38.6479" x2="23" y2="74" gradientUnits="userSpaceOnUse">
<stop stop-color="#342D1F"/>
<stop offset="1" stop-color="#F7E441"/>
</linearGradient>
</defs>
</svg>
