<svg width="571" height="707" viewBox="0 0 571 707" fill="none" xmlns="http://www.w3.org/2000/svg">
<g filter="url(#filter0_d)">
<g filter="url(#filter1_d)">
<path d="M75 66H466V588C466 590.761 463.761 593 461 593H80C77.2386 593 75 590.761 75 588V66Z" fill="white"/>
<path d="M75.5 66.5H465.5V588C465.5 590.485 463.485 592.5 461 592.5H80C77.5147 592.5 75.5 590.485 75.5 588V66.5Z" stroke="#E6E7E8"/>
</g>
<path d="M171.7 129.3C174.975 129.3 177 127.725 178.325 125.775L176.2 124.65C175.325 126.05 173.675 127.075 171.7 127.075C168.325 127.075 165.725 124.4 165.725 120.675C165.725 116.925 168.325 114.275 171.7 114.275C173.675 114.275 175.325 115.3 176.2 116.7L178.325 115.575C177.025 113.625 174.975 112.05 171.7 112.05C166.95 112.05 163.15 115.55 163.15 120.675C163.15 125.8 166.95 129.3 171.7 129.3ZM189.418 129H191.668V116.925H189.418V125.6C188.743 126.5 187.468 127.3 186.068 127.3C184.518 127.3 183.518 126.7 183.518 124.7V116.925H181.268V125.45C181.268 128 182.543 129.3 185.118 129.3C186.968 129.3 188.493 128.35 189.418 127.35V129ZM195.733 129H197.983V120.6C198.508 119.7 200.033 118.85 201.158 118.85C201.458 118.85 201.708 118.875 201.933 118.925V116.65C200.333 116.65 198.908 117.575 197.983 118.775V116.925H195.733V129ZM204.68 129H206.93V120.6C207.455 119.7 208.98 118.85 210.105 118.85C210.405 118.85 210.655 118.875 210.88 118.925V116.65C209.28 116.65 207.855 117.575 206.93 118.775V116.925H204.68V129ZM212.877 122.95C212.877 126.75 215.527 129.3 219.127 129.3C221.077 129.3 222.777 128.675 223.977 127.5L222.927 126.025C222.027 126.95 220.627 127.45 219.352 127.45C216.927 127.45 215.427 125.75 215.252 123.7H224.802V123.15C224.802 119.45 222.552 116.625 218.927 116.625C215.402 116.625 212.877 119.45 212.877 122.95ZM218.927 118.475C221.477 118.475 222.552 120.475 222.602 122.075H215.227C215.352 120.425 216.502 118.475 218.927 118.475ZM236.266 129H238.516V120.525C238.516 117.975 237.191 116.625 234.641 116.625C232.766 116.625 231.166 117.65 230.366 118.625V116.925H228.116V129H230.366V120.375C231.016 119.475 232.291 118.625 233.691 118.625C235.241 118.625 236.266 119.275 236.266 121.275V129ZM245.906 129.3C247.081 129.3 247.781 128.975 248.256 128.525L247.681 126.825C247.456 127.075 246.981 127.3 246.456 127.3C245.681 127.3 245.281 126.675 245.281 125.825V118.9H247.731V116.925H245.281V113.625H243.031V116.925H241.031V118.9H243.031V126.325C243.031 128.225 244.006 129.3 245.906 129.3ZM257.718 129H260.218V121.6H268.743V119.4H260.218V114.525H268.918V112.325H257.718V129ZM277.41 129.3C281.185 129.3 283.51 126.45 283.51 122.95C283.51 119.475 281.185 116.625 277.41 116.625C273.66 116.625 271.31 119.475 271.31 122.95C271.31 126.45 273.66 129.3 277.41 129.3ZM277.41 127.3C275.01 127.3 273.66 125.25 273.66 122.95C273.66 120.675 275.01 118.625 277.41 118.625C279.835 118.625 281.16 120.675 281.16 122.95C281.16 125.25 279.835 127.3 277.41 127.3ZM286.866 129H289.116V120.6C289.641 119.7 291.166 118.85 292.291 118.85C292.591 118.85 292.841 118.875 293.066 118.925V116.65C291.466 116.65 290.041 117.575 289.116 118.775V116.925H286.866V129ZM310.489 129H312.739V120.275C312.739 117.85 311.539 116.625 309.314 116.625C307.539 116.625 305.939 117.75 305.239 118.875C304.864 117.575 303.789 116.625 301.964 116.625C300.164 116.625 298.564 117.875 298.064 118.625V116.925H295.814V129H298.064V120.375C298.664 119.5 299.839 118.625 301.014 118.625C302.539 118.625 303.139 119.55 303.139 120.95V129H305.389V120.35C305.964 119.475 307.164 118.625 308.389 118.625C309.864 118.625 310.489 119.55 310.489 120.95V129Z" fill="#595D67"/>
<circle cx="121" cy="122" r="13" fill="#E9E5FF"/>
<path fill-rule="evenodd" clip-rule="evenodd" d="M115 122C115 121.448 115.448 121 116 121H125C125.552 121 126 121.448 126 122C126 122.552 125.552 123 125 123H116C115.448 123 115 122.552 115 122Z" fill="#B57DFF"/>
<path fill-rule="evenodd" clip-rule="evenodd" d="M120.842 117.247C121.257 116.884 121.889 116.926 122.253 117.342L125.753 121.342C126.082 121.719 126.082 122.281 125.753 122.659L122.253 126.659C121.889 127.074 121.257 127.116 120.842 126.753C120.426 126.389 120.384 125.757 120.747 125.342L123.671 122L120.747 118.659C120.384 118.243 120.426 117.611 120.842 117.247Z" fill="#B57DFF"/>
<rect x="113" y="170" width="323" height="388" rx="5" fill="#E6E7E8"/>
<path d="M141.68 201V191.662H140.882V195.834H134.96V191.662H134.162V201H134.96V196.562H140.882V201H141.68ZM146.974 201.168C148.094 201.168 148.948 200.776 149.62 200.076L149.242 199.6C148.668 200.216 147.884 200.538 147.03 200.538C145.434 200.538 144.454 199.32 144.384 197.85H150.04V197.654C150.04 195.694 148.906 194.07 146.848 194.07C144.972 194.07 143.6 195.652 143.6 197.612C143.6 199.698 145 201.168 146.974 201.168ZM149.298 197.276H144.384C144.44 196.1 145.238 194.7 146.834 194.7C148.528 194.7 149.284 196.128 149.298 197.276ZM156.947 201V196.24C156.947 194.728 155.855 194.07 154.483 194.07C153.363 194.07 152.579 194.448 151.879 195.204L152.285 195.708C152.901 195.008 153.559 194.714 154.413 194.714C155.407 194.714 156.219 195.26 156.219 196.268V197.64C155.631 196.982 154.861 196.674 153.923 196.674C152.747 196.674 151.557 197.444 151.557 198.914C151.557 200.37 152.761 201.168 153.923 201.168C154.861 201.168 155.617 200.86 156.219 200.202V201H156.947ZM154.175 200.594C153.069 200.594 152.327 199.88 152.327 198.928C152.327 197.962 153.069 197.248 154.175 197.248C154.987 197.248 155.743 197.556 156.219 198.186V199.67C155.743 200.286 154.987 200.594 154.175 200.594ZM164.948 201V191.662H164.206V195.33C163.674 194.56 162.82 194.07 161.854 194.07C160.062 194.07 158.844 195.484 158.844 197.626C158.844 199.796 160.062 201.168 161.854 201.168C162.862 201.168 163.73 200.622 164.206 199.922V201H164.948ZM161.98 200.51C160.482 200.51 159.614 199.264 159.614 197.626C159.614 195.988 160.482 194.728 161.98 194.728C162.932 194.728 163.814 195.302 164.206 195.96V199.306C163.814 199.95 162.932 200.51 161.98 200.51ZM167.584 193.174C167.892 193.174 168.144 192.922 168.144 192.614C168.144 192.306 167.892 192.068 167.584 192.068C167.29 192.068 167.024 192.306 167.024 192.614C167.024 192.922 167.29 193.174 167.584 193.174ZM167.948 201V194.238H167.22V201H167.948ZM175.506 201V196.268C175.506 194.742 174.75 194.07 173.378 194.07C172.398 194.07 171.432 194.672 170.942 195.26V194.238H170.214V201H170.942V195.89C171.376 195.274 172.272 194.728 173.14 194.728C174.12 194.728 174.778 195.12 174.778 196.422V201H175.506ZM180.463 203.744C182.101 203.744 183.501 203.002 183.501 200.944V194.238H182.759V195.33C182.213 194.56 181.373 194.07 180.407 194.07C178.615 194.07 177.397 195.47 177.397 197.612C177.397 199.782 178.615 201.14 180.407 201.14C181.415 201.14 182.283 200.566 182.759 199.866V200.944C182.759 202.47 181.681 203.086 180.463 203.086C179.441 203.086 178.797 202.834 178.209 202.134L177.789 202.722C178.587 203.534 179.315 203.744 180.463 203.744ZM180.533 200.482C179.035 200.482 178.167 199.25 178.167 197.612C178.167 195.974 179.035 194.728 180.533 194.728C181.471 194.728 182.367 195.302 182.759 195.96V199.25C182.367 199.908 181.471 200.482 180.533 200.482ZM191.398 201V191.662H190.67L188.612 193.832L189.102 194.35L190.6 192.754V201H191.398Z" fill="#595D67"/>
<path d="M137.144 323C140.042 323 141.862 320.928 141.862 318.338C141.862 315.776 140.042 313.662 137.144 313.662H134.162V323H137.144ZM137.144 322.272H134.96V314.39H137.144C139.622 314.39 141.022 316.154 141.022 318.338C141.022 320.522 139.608 322.272 137.144 322.272ZM146.823 323.168C147.943 323.168 148.797 322.776 149.469 322.076L149.091 321.6C148.517 322.216 147.733 322.538 146.879 322.538C145.283 322.538 144.303 321.32 144.233 319.85H149.889V319.654C149.889 317.694 148.755 316.07 146.697 316.07C144.821 316.07 143.449 317.652 143.449 319.612C143.449 321.698 144.849 323.168 146.823 323.168ZM149.147 319.276H144.233C144.289 318.1 145.087 316.7 146.683 316.7C148.377 316.7 149.133 318.128 149.147 319.276ZM153.787 323.168C155.481 323.168 156.321 322.272 156.321 321.18C156.321 318.576 152.065 319.612 152.065 317.918C152.065 317.218 152.695 316.686 153.745 316.686C154.641 316.686 155.369 317.05 155.761 317.582L156.167 317.064C155.677 316.518 154.907 316.07 153.745 316.07C152.219 316.07 151.337 316.91 151.337 317.946C151.337 320.382 155.607 319.332 155.607 321.18C155.607 321.964 154.935 322.552 153.801 322.552C152.849 322.552 152.051 322.104 151.617 321.558L151.183 322.09C151.855 322.846 152.695 323.168 153.787 323.168ZM161.095 323.168C162.271 323.168 162.943 322.706 163.489 322.006L162.985 321.558C162.495 322.23 161.879 322.51 161.137 322.51C159.555 322.51 158.589 321.236 158.589 319.612C158.589 317.988 159.555 316.728 161.137 316.728C161.879 316.728 162.495 316.994 162.985 317.666L163.489 317.218C162.943 316.532 162.271 316.07 161.095 316.07C159.107 316.07 157.819 317.638 157.819 319.612C157.819 321.586 159.107 323.168 161.095 323.168ZM165.842 323V318.072C166.15 317.484 167.074 316.868 167.76 316.868C167.9 316.868 167.998 316.868 168.124 316.896V316.098C167.186 316.098 166.416 316.644 165.842 317.4V316.238H165.114V323H165.842ZM169.922 315.174C170.23 315.174 170.482 314.922 170.482 314.614C170.482 314.306 170.23 314.068 169.922 314.068C169.628 314.068 169.362 314.306 169.362 314.614C169.362 314.922 169.628 315.174 169.922 315.174ZM170.286 323V316.238H169.558V323H170.286ZM175.632 323.168C177.438 323.168 178.656 321.768 178.656 319.612C178.656 317.442 177.438 316.07 175.632 316.07C174.624 316.07 173.756 316.616 173.28 317.302V316.238H172.552V325.576H173.28V321.908C173.826 322.678 174.68 323.168 175.632 323.168ZM175.506 322.51C174.568 322.51 173.672 321.922 173.28 321.278V317.932C173.672 317.288 174.568 316.728 175.506 316.728C177.018 316.728 177.872 317.974 177.872 319.612C177.872 321.25 177.018 322.51 175.506 322.51ZM181.965 323.168C182.525 323.168 182.847 323 183.113 322.748L182.833 322.188C182.679 322.356 182.399 322.51 182.077 322.51C181.601 322.51 181.377 322.132 181.377 321.586V316.882H182.749V316.238H181.377V314.39H180.635V316.238H179.515V316.882H180.635V321.698C180.635 322.622 181.069 323.168 181.965 323.168ZM184.715 315.174C185.023 315.174 185.275 314.922 185.275 314.614C185.275 314.306 185.023 314.068 184.715 314.068C184.421 314.068 184.155 314.306 184.155 314.614C184.155 314.922 184.421 315.174 184.715 315.174ZM185.079 323V316.238H184.351V323H185.079ZM190.201 323.168C192.203 323.168 193.463 321.586 193.463 319.612C193.463 317.638 192.203 316.07 190.201 316.07C188.227 316.07 186.967 317.638 186.967 319.612C186.967 321.586 188.227 323.168 190.201 323.168ZM190.201 322.51C188.633 322.51 187.737 321.124 187.737 319.612C187.737 318.114 188.633 316.728 190.201 316.728C191.797 316.728 192.679 318.114 192.679 319.612C192.679 321.124 191.797 322.51 190.201 322.51ZM200.635 323V318.268C200.635 316.742 199.879 316.07 198.507 316.07C197.527 316.07 196.561 316.672 196.071 317.26V316.238H195.343V323H196.071V317.89C196.505 317.274 197.401 316.728 198.269 316.728C199.249 316.728 199.907 317.12 199.907 318.422V323H200.635Z" fill="#595D67"/>
<path d="M141.68 262V252.662H140.882V256.834H134.96V252.662H134.162V262H134.96V257.562H140.882V262H141.68ZM146.974 262.168C148.094 262.168 148.948 261.776 149.62 261.076L149.242 260.6C148.668 261.216 147.884 261.538 147.03 261.538C145.434 261.538 144.454 260.32 144.384 258.85H150.04V258.654C150.04 256.694 148.906 255.07 146.848 255.07C144.972 255.07 143.6 256.652 143.6 258.612C143.6 260.698 145 262.168 146.974 262.168ZM149.298 258.276H144.384C144.44 257.1 145.238 255.7 146.834 255.7C148.528 255.7 149.284 257.128 149.298 258.276ZM156.947 262V257.24C156.947 255.728 155.855 255.07 154.483 255.07C153.363 255.07 152.579 255.448 151.879 256.204L152.285 256.708C152.901 256.008 153.559 255.714 154.413 255.714C155.407 255.714 156.219 256.26 156.219 257.268V258.64C155.631 257.982 154.861 257.674 153.923 257.674C152.747 257.674 151.557 258.444 151.557 259.914C151.557 261.37 152.761 262.168 153.923 262.168C154.861 262.168 155.617 261.86 156.219 261.202V262H156.947ZM154.175 261.594C153.069 261.594 152.327 260.88 152.327 259.928C152.327 258.962 153.069 258.248 154.175 258.248C154.987 258.248 155.743 258.556 156.219 259.186V260.67C155.743 261.286 154.987 261.594 154.175 261.594ZM164.948 262V252.662H164.206V256.33C163.674 255.56 162.82 255.07 161.854 255.07C160.062 255.07 158.844 256.484 158.844 258.626C158.844 260.796 160.062 262.168 161.854 262.168C162.862 262.168 163.73 261.622 164.206 260.922V262H164.948ZM161.98 261.51C160.482 261.51 159.614 260.264 159.614 258.626C159.614 256.988 160.482 255.728 161.98 255.728C162.932 255.728 163.814 256.302 164.206 256.96V260.306C163.814 260.95 162.932 261.51 161.98 261.51ZM167.584 254.174C167.892 254.174 168.144 253.922 168.144 253.614C168.144 253.306 167.892 253.068 167.584 253.068C167.29 253.068 167.024 253.306 167.024 253.614C167.024 253.922 167.29 254.174 167.584 254.174ZM167.948 262V255.238H167.22V262H167.948ZM175.506 262V257.268C175.506 255.742 174.75 255.07 173.378 255.07C172.398 255.07 171.432 255.672 170.942 256.26V255.238H170.214V262H170.942V256.89C171.376 256.274 172.272 255.728 173.14 255.728C174.12 255.728 174.778 256.12 174.778 257.422V262H175.506ZM180.463 264.744C182.101 264.744 183.501 264.002 183.501 261.944V255.238H182.759V256.33C182.213 255.56 181.373 255.07 180.407 255.07C178.615 255.07 177.397 256.47 177.397 258.612C177.397 260.782 178.615 262.14 180.407 262.14C181.415 262.14 182.283 261.566 182.759 260.866V261.944C182.759 263.47 181.681 264.086 180.463 264.086C179.441 264.086 178.797 263.834 178.209 263.134L177.789 263.722C178.587 264.534 179.315 264.744 180.463 264.744ZM180.533 261.482C179.035 261.482 178.167 260.25 178.167 258.612C178.167 256.974 179.035 255.728 180.533 255.728C181.471 255.728 182.367 256.302 182.759 256.96V260.25C182.367 260.908 181.471 261.482 180.533 261.482ZM195.192 262V261.272H190.278C192.98 259.088 195.15 257.212 195.15 255.154C195.15 253.306 193.582 252.522 192.21 252.522C190.894 252.522 189.76 253.068 189.102 253.964L189.648 254.468C190.152 253.754 191.048 253.25 192.21 253.25C193.232 253.25 194.338 253.81 194.338 255.154C194.338 256.96 192.21 258.78 189.032 261.342V262H195.192Z" fill="#595D67"/>
<path d="M137.144 384C140.042 384 141.862 381.928 141.862 379.338C141.862 376.776 140.042 374.662 137.144 374.662H134.162V384H137.144ZM137.144 383.272H134.96V375.39H137.144C139.622 375.39 141.022 377.154 141.022 379.338C141.022 381.522 139.608 383.272 137.144 383.272ZM146.683 384.168C148.685 384.168 149.945 382.586 149.945 380.612C149.945 378.638 148.685 377.07 146.683 377.07C144.709 377.07 143.449 378.638 143.449 380.612C143.449 382.586 144.709 384.168 146.683 384.168ZM146.683 383.51C145.115 383.51 144.219 382.124 144.219 380.612C144.219 379.114 145.115 377.728 146.683 377.728C148.279 377.728 149.161 379.114 149.161 380.612C149.161 382.124 148.279 383.51 146.683 383.51ZM160.603 384V379.128C160.603 377.77 160.001 377.07 158.755 377.07C157.803 377.07 156.893 377.714 156.515 378.344C156.347 377.686 155.787 377.07 154.737 377.07C153.757 377.07 152.833 377.826 152.553 378.26V377.238H151.825V384H152.553V378.89C152.959 378.274 153.771 377.728 154.499 377.728C155.451 377.728 155.843 378.316 155.843 379.268V384H156.585V378.876C156.963 378.26 157.789 377.728 158.517 377.728C159.469 377.728 159.875 378.316 159.875 379.268V384H160.603ZM167.898 384V379.24C167.898 377.728 166.806 377.07 165.434 377.07C164.314 377.07 163.53 377.448 162.83 378.204L163.236 378.708C163.852 378.008 164.51 377.714 165.364 377.714C166.358 377.714 167.17 378.26 167.17 379.268V380.64C166.582 379.982 165.812 379.674 164.874 379.674C163.698 379.674 162.508 380.444 162.508 381.914C162.508 383.37 163.712 384.168 164.874 384.168C165.812 384.168 166.568 383.86 167.17 383.202V384H167.898ZM165.126 383.594C164.02 383.594 163.278 382.88 163.278 381.928C163.278 380.962 164.02 380.248 165.126 380.248C165.938 380.248 166.694 380.556 167.17 381.186V382.67C166.694 383.286 165.938 383.594 165.126 383.594ZM170.537 376.174C170.845 376.174 171.097 375.922 171.097 375.614C171.097 375.306 170.845 375.068 170.537 375.068C170.243 375.068 169.977 375.306 169.977 375.614C169.977 375.922 170.243 376.174 170.537 376.174ZM170.901 384V377.238H170.173V384H170.901ZM178.459 384V379.268C178.459 377.742 177.703 377.07 176.331 377.07C175.351 377.07 174.385 377.672 173.895 378.26V377.238H173.167V384H173.895V378.89C174.329 378.274 175.225 377.728 176.093 377.728C177.073 377.728 177.731 378.12 177.731 379.422V384H178.459Z" fill="#595D67"/>
<path d="M134.96 445V441.122H137.662C139.44 441.122 140.476 439.862 140.476 438.392C140.476 436.922 139.454 435.662 137.662 435.662H134.162V445H134.96ZM137.578 440.394H134.96V436.39H137.578C138.824 436.39 139.636 437.216 139.636 438.392C139.636 439.554 138.824 440.394 137.578 440.394ZM146.885 445V440.24C146.885 438.728 145.793 438.07 144.421 438.07C143.301 438.07 142.517 438.448 141.817 439.204L142.223 439.708C142.839 439.008 143.497 438.714 144.351 438.714C145.345 438.714 146.157 439.26 146.157 440.268V441.64C145.569 440.982 144.799 440.674 143.861 440.674C142.685 440.674 141.495 441.444 141.495 442.914C141.495 444.37 142.699 445.168 143.861 445.168C144.799 445.168 145.555 444.86 146.157 444.202V445H146.885ZM144.113 444.594C143.007 444.594 142.265 443.88 142.265 442.928C142.265 441.962 143.007 441.248 144.113 441.248C144.925 441.248 145.681 441.556 146.157 442.186V443.67C145.681 444.286 144.925 444.594 144.113 444.594ZM150.629 445.168C151.189 445.168 151.511 445 151.777 444.748L151.497 444.188C151.343 444.356 151.063 444.51 150.741 444.51C150.265 444.51 150.041 444.132 150.041 443.586V438.882H151.413V438.238H150.041V436.39H149.299V438.238H148.179V438.882H149.299V443.698C149.299 444.622 149.733 445.168 150.629 445.168ZM158.307 445V440.24C158.307 438.714 157.551 438.07 156.179 438.07C155.199 438.07 154.233 438.672 153.743 439.26V435.662H153.015V445H153.743V439.89C154.177 439.274 155.073 438.728 155.941 438.728C156.921 438.728 157.579 439.092 157.579 440.394V445H158.307ZM166.214 445V435.662H165.486L163.428 437.832L163.918 438.35L165.416 436.754V445H166.214Z" fill="#595D67"/>
<path d="M134.96 506V502.122H137.662C139.44 502.122 140.476 500.862 140.476 499.392C140.476 497.922 139.454 496.662 137.662 496.662H134.162V506H134.96ZM137.578 501.394H134.96V497.39H137.578C138.824 497.39 139.636 498.216 139.636 499.392C139.636 500.554 138.824 501.394 137.578 501.394ZM146.885 506V501.24C146.885 499.728 145.793 499.07 144.421 499.07C143.301 499.07 142.517 499.448 141.817 500.204L142.223 500.708C142.839 500.008 143.497 499.714 144.351 499.714C145.345 499.714 146.157 500.26 146.157 501.268V502.64C145.569 501.982 144.799 501.674 143.861 501.674C142.685 501.674 141.495 502.444 141.495 503.914C141.495 505.37 142.699 506.168 143.861 506.168C144.799 506.168 145.555 505.86 146.157 505.202V506H146.885ZM144.113 505.594C143.007 505.594 142.265 504.88 142.265 503.928C142.265 502.962 143.007 502.248 144.113 502.248C144.925 502.248 145.681 502.556 146.157 503.186V504.67C145.681 505.286 144.925 505.594 144.113 505.594ZM150.629 506.168C151.189 506.168 151.511 506 151.777 505.748L151.497 505.188C151.343 505.356 151.063 505.51 150.741 505.51C150.265 505.51 150.041 505.132 150.041 504.586V499.882H151.413V499.238H150.041V497.39H149.299V499.238H148.179V499.882H149.299V504.698C149.299 505.622 149.733 506.168 150.629 506.168ZM158.307 506V501.24C158.307 499.714 157.551 499.07 156.179 499.07C155.199 499.07 154.233 499.672 153.743 500.26V496.662H153.015V506H153.743V500.89C154.177 500.274 155.073 499.728 155.941 499.728C156.921 499.728 157.579 500.092 157.579 501.394V506H158.307ZM170.008 506V505.272H165.094C167.796 503.088 169.966 501.212 169.966 499.154C169.966 497.306 168.398 496.522 167.026 496.522C165.71 496.522 164.576 497.068 163.918 497.964L164.464 498.468C164.968 497.754 165.864 497.25 167.026 497.25C168.048 497.25 169.154 497.81 169.154 499.154C169.154 500.96 167.026 502.78 163.848 505.342V506H170.008Z" fill="#595D67"/>
<rect x="133" y="211" width="280" height="24" rx="3" fill="white"/>
<rect x="133" y="272" width="280" height="24" rx="3" fill="white"/>
<rect x="133" y="333" width="280" height="24" rx="3" fill="white"/>
<rect x="133" y="394" width="280" height="24" rx="3" fill="white"/>
<rect x="133" y="455" width="280" height="24" rx="3" fill="white"/>
<rect x="133" y="516" width="280" height="24" rx="3" fill="white"/>
</g>
<defs>
<filter id="filter0_d" x="0" y="0" width="571" height="707" filterUnits="userSpaceOnUse" color-interpolation-filters="sRGB">
<feFlood flood-opacity="0" result="BackgroundImageFix"/>
<feColorMatrix in="SourceAlpha" type="matrix" values="0 0 0 0 0 0 0 0 0 0 0 0 0 0 0 0 0 0 127 0"/>
<feOffset dx="15" dy="24"/>
<feGaussianBlur stdDeviation="45"/>
<feColorMatrix type="matrix" values="0 0 0 0 0.270588 0 0 0 0 0.286275 0 0 0 0 0.329412 0 0 0 0.15 0"/>
<feBlend mode="normal" in2="BackgroundImageFix" result="effect1_dropShadow"/>
<feBlend mode="normal" in="SourceGraphic" in2="effect1_dropShadow" result="shape"/>
</filter>
<filter id="filter1_d" x="75" y="63" width="391" height="530" filterUnits="userSpaceOnUse" color-interpolation-filters="sRGB">
<feFlood flood-opacity="0" result="BackgroundImageFix"/>
<feColorMatrix in="SourceAlpha" type="matrix" values="0 0 0 0 0 0 0 0 0 0 0 0 0 0 0 0 0 0 127 0"/>
<feOffset dy="-3"/>
<feColorMatrix type="matrix" values="0 0 0 0 0.329412 0 0 0 0 0.360784 0 0 0 0 0.72549 0 0 0 1 0"/>
<feBlend mode="normal" in2="BackgroundImageFix" result="effect1_dropShadow"/>
<feBlend mode="normal" in="SourceGraphic" in2="effect1_dropShadow" result="shape"/>
</filter>
</defs>
</svg>
