<svg width="31" height="32" viewBox="0 0 31 32" fill="none" xmlns="http://www.w3.org/2000/svg">
<path d="M14.9472 0.525484C15.3706 0.312959 15.8695 0.312958 16.2929 0.525484L26.8419 5.8203C27.2463 6.02329 27.5375 6.398 27.6343 6.84003L30.2619 18.8388C30.3563 19.2699 30.2561 19.7207 29.9879 20.0712L22.6528 29.6578C22.369 30.0287 21.9286 30.2463 21.4615 30.2463H9.77857C9.31151 30.2463 8.8711 30.0287 8.58728 29.6578L1.25219 20.0712C0.984018 19.7207 0.883795 19.2699 0.9782 18.8388L3.60579 6.84002C3.70259 6.398 3.99376 6.02329 4.39818 5.8203L14.9472 0.525484Z" fill="#CDF25F"/>
<path d="M20.436 21.8328C20.436 22.3859 19.987 22.8339 19.4339 22.8328L12.2005 22.8181C11.9195 22.8175 11.6498 22.7001 11.4687 22.4851C9.89176 20.6125 9.10327 18.4507 9.10327 15.9998C9.10327 13.5382 9.89151 11.3709 11.468 9.4978C11.6494 9.28224 11.92 9.16479 12.2017 9.16479H19.436C19.9883 9.16479 20.436 9.61251 20.436 10.1648V12.3968C20.436 12.9491 19.9883 13.3968 19.436 13.3968H14.6811C14.2443 14.1996 14.0259 15.0672 14.0259 15.9998C14.0259 16.9442 14.2502 17.8119 14.6988 18.6028H19.436C19.9883 18.6028 20.436 19.0505 20.436 19.6028V21.8328Z" fill="#27241D"/>
</svg>
