<svg width="31" height="30" viewBox="0 0 31 30" fill="none" xmlns="http://www.w3.org/2000/svg">
<circle cx="13.1818" cy="13.1818" r="13.1818" fill="#722BFF"/>
<circle cx="27.2714" cy="26.3637" r="3.63635" fill="#722BFF"/>
<path d="M14.4343 6.05377C14.8246 6.05377 15.2636 6.08862 15.7515 6.15832C16.2394 6.22801 16.7342 6.33953 17.2361 6.49286C17.5845 6.5765 17.7588 6.77165 17.7588 7.07831C17.7588 7.10619 17.7518 7.13407 17.7379 7.16195C17.7379 7.18983 17.7379 7.21771 17.7379 7.24559L17.5497 8.62558C17.5079 8.97406 17.3406 9.1483 17.0479 9.1483C16.9921 9.1483 16.9085 9.13437 16.797 9.10649C16.3927 8.99497 15.9955 8.90437 15.6052 8.83467C15.2288 8.75103 14.8943 8.70922 14.6015 8.70922C13.8906 8.70922 13.347 8.88346 12.9706 9.23194C12.6082 9.56648 12.3712 10.1868 12.2597 11.0928L11.737 15.2956C11.7231 15.4071 11.7091 15.5046 11.6952 15.5883C11.6952 15.6719 11.6952 15.7556 11.6952 15.8392C11.6952 16.4386 11.8485 16.8707 12.1552 17.1355C12.4758 17.4004 12.9497 17.5328 13.577 17.5328C13.9115 17.5328 14.267 17.498 14.6433 17.4283C15.0337 17.3586 15.4309 17.261 15.8352 17.1355C15.9467 17.1077 16.0303 17.0937 16.0861 17.0937C16.3788 17.0937 16.5252 17.261 16.5252 17.5955V17.721L16.3579 19.101C16.33 19.2961 16.2743 19.4425 16.1906 19.5401C16.107 19.6377 15.9676 19.7213 15.7724 19.791C15.2846 19.9443 14.7758 20.0558 14.2461 20.1255C13.7303 20.2092 13.2564 20.251 12.8243 20.251C10.1061 20.251 8.74701 18.9267 8.74701 16.2783C8.74701 16.0831 8.75398 15.8949 8.76792 15.7137C8.78186 15.5186 8.80277 15.3165 8.83065 15.1074L9.35337 10.8628C9.56246 9.1483 10.0712 7.92164 10.8797 7.18286C11.7021 6.43013 12.887 6.05377 14.4343 6.05377Z" fill="white"/>
</svg>
