<svg width="69" height="69" viewBox="0 0 69 69" fill="none" xmlns="http://www.w3.org/2000/svg">
<g clip-path="url(#clip0)">
<path d="M56.9809 15.18C56.5538 14.5094 55.9644 13.9574 55.2672 13.575C54.5701 13.1927 53.7878 12.9924 52.9927 12.9927H43.8502V11.3574C43.8502 10.2484 43.4097 9.18485 42.6255 8.40068C41.8413 7.61652 40.7778 7.17598 39.6688 7.17598H3.9475C3.15265 7.15958 2.37991 7.43823 1.77846 7.95813C1.177 8.47804 0.789479 9.20232 0.690698 9.99118C0.645245 10.4269 0.691892 10.8673 0.827614 11.2838C0.963336 11.7004 1.1851 12.0837 1.47852 12.409C1.77195 12.7343 2.13047 12.9943 2.53085 13.1721C2.93123 13.3499 3.36451 13.4416 3.8026 13.4412H17.437C18.0273 13.4254 18.6095 13.5812 19.1129 13.8899C19.6163 14.1986 20.0193 14.6467 20.2729 15.18C20.4935 15.6583 20.5906 16.1843 20.5551 16.7099C20.5196 17.2354 20.3527 17.7436 20.0698 18.1879C19.7869 18.6322 19.3969 18.9984 18.9357 19.2528C18.4745 19.5073 17.9568 19.6419 17.4301 19.6443H3.9475C3.14843 19.6286 2.37217 19.9111 1.77006 20.4367C1.16795 20.9623 0.783158 21.6932 0.690698 22.4871C0.645245 22.9228 0.691892 23.3632 0.827614 23.7797C0.963336 24.1963 1.1851 24.5796 1.47852 24.9049C1.77195 25.2302 2.13047 25.4902 2.53085 25.668C2.93123 25.8458 3.36451 25.9375 3.8026 25.9371H10.2817C11.0742 25.9241 11.8435 26.2043 12.4421 26.7239C13.0406 27.2435 13.4262 27.9658 13.5247 28.7523C13.5702 29.188 13.5235 29.6284 13.3878 30.0449C13.2521 30.4615 13.0303 30.8448 12.7369 31.1701C12.4434 31.4954 12.0849 31.7554 11.6845 31.9332C11.2842 32.111 10.8509 32.2027 10.4128 32.2023H4.1407C3.34821 32.1893 2.57886 32.4695 1.98032 32.9891C1.38178 33.5087 0.996241 34.231 0.897698 35.0175C0.852245 35.4532 0.898892 35.8936 1.03461 36.3101C1.17034 36.7267 1.3921 37.11 1.68552 37.4353C1.97895 37.7606 2.33747 38.0206 2.73785 38.1984C3.13823 38.3762 3.57151 38.4679 4.0096 38.4675H6.466V50.6115C6.466 51.7918 6.93489 52.9238 7.76952 53.7585C8.60415 54.5931 9.73615 55.062 10.9165 55.062H13.9525C14.6729 57.0573 15.9953 58.7797 17.7368 59.991C19.4784 61.2023 21.5533 61.8428 23.6746 61.824C25.7883 61.8137 27.8491 61.1617 29.584 59.9541C31.3189 58.7466 32.6461 57.0406 33.3898 55.062H41.8423C42.5636 57.0568 43.8861 58.7785 45.6275 59.9897C47.3689 61.2009 49.4433 61.8418 51.5644 61.824C53.6781 61.8137 55.7389 61.1617 57.4738 59.9541C59.2087 58.7466 60.5359 57.0406 61.2796 55.062H63.8602C65.0405 55.062 66.1725 54.5931 67.0072 53.7585C67.8418 52.9238 68.3107 51.7918 68.3107 50.6115V35.052C68.3102 33.7026 67.9249 32.3813 67.1998 31.2432L56.9809 15.18ZM23.6746 55.338C22.6461 55.3362 21.6601 54.9272 20.9321 54.2006C20.2042 53.474 19.7935 52.4887 19.7899 51.4602C19.8147 50.4409 20.233 49.4708 20.9572 48.7531C21.6813 48.0354 22.6552 47.6257 23.6746 47.61C24.1981 47.5879 24.7206 47.6719 25.2107 47.857C25.7009 48.0421 26.1485 48.3245 26.5267 48.6871C26.9049 49.0496 27.2058 49.485 27.4114 49.9669C27.617 50.4488 27.723 50.9673 27.723 51.4912C27.723 52.0152 27.617 52.5337 27.4114 53.0156C27.2058 53.4975 26.9049 53.9328 26.5267 54.2954C26.1485 54.658 25.7009 54.9403 25.2107 55.1254C24.7206 55.3105 24.1981 55.3946 23.6746 55.3725V55.338ZM51.5713 55.338C50.5366 55.3343 49.5454 54.9217 48.8138 54.1901C48.0822 53.4585 47.6695 52.4672 47.6659 51.4326C47.6819 50.4018 48.0985 49.4177 48.8275 48.6888C49.5564 47.9598 50.5405 47.5432 51.5713 47.5272C52.606 47.5308 53.5972 47.9434 54.3288 48.6751C55.0604 49.4067 55.4731 50.3979 55.4767 51.4326C55.4678 52.4693 55.0534 53.4614 54.3222 54.1965C53.591 54.9316 52.6011 55.3512 51.5644 55.3656L51.5713 55.338ZM59.0509 32.7267H45.2854C45.0566 32.7267 44.8373 32.6358 44.6755 32.4741C44.5138 32.3123 44.4229 32.0929 44.4229 31.8642V20.5137C44.4229 20.2849 44.5138 20.0655 44.6755 19.9038C44.8373 19.742 45.0566 19.6512 45.2854 19.6512H51.8266C51.9714 19.6511 52.1138 19.6878 52.2405 19.7578C52.3672 19.8278 52.4741 19.9288 52.5511 20.0514L59.7754 31.4088C59.8563 31.5388 59.901 31.688 59.9051 31.8411C59.9092 31.9941 59.8725 32.1455 59.7988 32.2797C59.725 32.4139 59.6169 32.526 59.4854 32.6046C59.354 32.6831 59.204 32.7253 59.0509 32.7267Z" fill="#CCA5FF"/>
</g>
<defs>
<clipPath id="clip0">
<rect width="100" height="100" fill="white" transform="scale(0.69)"/>
</clipPath>
</defs>
</svg>
