<svg width="22" height="23" viewBox="0 0 22 23" fill="none" xmlns="http://www.w3.org/2000/svg">
<path d="M2.22794 9.99127L4.95101 11.1196C4.64398 11.8941 4.39907 12.6918 4.2186 13.5052L4.11531 13.9743L8.01916 17.8776L8.48865 17.7768C9.3026 17.5964 10.1009 17.3517 10.876 17.0449L12.0052 19.7659C12.0162 19.7929 12.0338 19.8167 12.0564 19.8352C12.0789 19.8537 12.1057 19.8663 12.1344 19.8719C12.163 19.8775 12.1926 19.8758 12.2204 19.8672C12.2483 19.8585 12.2735 19.8431 12.2939 19.8222L14.0005 18.1169C14.279 17.8386 14.4961 17.5051 14.6376 17.1378C14.7791 16.7705 14.842 16.3777 14.8221 15.9846L14.7611 14.8892C17.9208 12.5575 21.1181 8.46889 21.989 1.33316C22.0137 1.15425 21.9967 0.972062 21.9394 0.800788C21.882 0.629514 21.7859 0.473785 21.6584 0.34574C21.531 0.217694 21.3756 0.120791 21.2045 0.0625843C21.0335 0.00437733 20.8512 -0.0135612 20.6721 0.010167C13.5334 0.887472 9.43938 4.08471 7.10599 7.23268L6.01207 7.17639C5.61957 7.15505 5.22694 7.21602 4.85944 7.3554C4.49194 7.49478 4.1577 7.70947 3.87821 7.98566L2.1716 9.69101C2.14795 9.7111 2.13004 9.73708 2.11968 9.76631C2.10931 9.79554 2.10687 9.82699 2.11259 9.85747C2.11831 9.88796 2.13199 9.91638 2.15224 9.93988C2.1725 9.96338 2.19861 9.9811 2.22794 9.99127ZM13.1766 5.83463C13.4723 5.54011 13.8488 5.33977 14.2584 5.2589C14.668 5.17804 15.0925 5.22027 15.4781 5.38028C15.8637 5.54028 16.1932 5.81088 16.4251 6.1579C16.6569 6.50491 16.7806 6.9128 16.7806 7.33003C16.7806 7.74727 16.6569 8.15515 16.4251 8.50217C16.1932 8.84919 15.8637 9.11978 15.4781 9.27979C15.0925 9.43979 14.668 9.48203 14.2584 9.40116C13.8488 9.3203 13.4723 9.11996 13.1766 8.82544C12.9796 8.6293 12.8233 8.39625 12.7167 8.13963C12.6101 7.88302 12.5552 7.60789 12.5552 7.33003C12.5552 7.05217 12.6101 6.77705 12.7167 6.52043C12.8233 6.26382 12.9796 6.03076 13.1766 5.83463ZM1.71853 18.1896C1.26665 18.0311 0.781395 17.9924 0.310048 18.077C0.268156 18.0861 0.224652 18.0844 0.183599 18.0721C0.142546 18.0597 0.105286 18.0372 0.0753004 18.0066C0.0381272 17.9696 0.0132353 17.9221 0.00399745 17.8705C-0.00524041 17.8189 0.00162237 17.7657 0.0236559 17.7181C0.523668 16.6438 1.84999 14.4833 4.25146 16.2286C4.264 16.2398 4.27404 16.2535 4.28091 16.2689C4.28778 16.2843 4.29133 16.3009 4.29133 16.3177C4.29133 16.3345 4.28778 16.3512 4.28091 16.3665C4.27404 16.3819 4.264 16.3956 4.25146 16.4069C3.92995 16.6599 3.67254 16.9849 3.50004 17.3557C3.32754 17.7266 3.24479 18.1328 3.25848 18.5415C3.26022 18.5894 3.28008 18.635 3.31404 18.6689C3.34801 18.7029 3.39358 18.7227 3.44158 18.7244C3.84885 18.7408 4.25428 18.6615 4.62529 18.4928C4.9963 18.3241 5.32254 18.0709 5.57778 17.7533C5.58901 17.7396 5.60316 17.7285 5.61919 17.7209C5.63523 17.7133 5.65276 17.7093 5.67051 17.7093C5.68826 17.7093 5.70579 17.7133 5.72182 17.7209C5.73786 17.7285 5.75201 17.7396 5.76323 17.7533C6.09658 18.1497 7.01444 19.4446 5.99798 20.6949C5.55423 21.2278 4.91842 21.5649 4.22798 21.6331C3.24204 21.7387 1.4204 22.0601 0.676254 22.9092C0.646382 22.9446 0.607463 22.9712 0.563649 22.9862C0.519834 23.0012 0.472767 23.004 0.427467 22.9944C0.382166 22.9848 0.340331 22.963 0.306423 22.9315C0.272515 22.9 0.247805 22.8599 0.234929 22.8154C-0.0279886 21.9193 -0.43645 19.9161 1.71853 18.1896Z" fill="#A4A9E6"/>
</svg>
