<svg width="18" height="18" viewBox="0 0 18 18" fill="none" xmlns="http://www.w3.org/2000/svg">
<path d="M17.9901 0.753881L15.4175 16.1809C15.3927 16.3308 15.315 16.4669 15.1984 16.5644C15.0819 16.662 14.9342 16.7145 14.7823 16.7124C14.6994 16.7105 14.6176 16.6932 14.5409 16.6616L9.9949 14.8044L7.56415 17.7691C7.50501 17.8422 7.43009 17.9009 7.34501 17.9409C7.25994 17.9809 7.16691 18.0011 7.07292 18C7.00044 18 6.9286 17.9863 6.86118 17.9597C6.7366 17.9157 6.62885 17.8339 6.55295 17.7257C6.47704 17.6175 6.43676 17.4883 6.43771 17.3562V13.8515L15.119 3.21458L4.37115 12.5047L0.403178 10.8783C0.290415 10.8341 0.192632 10.7586 0.121354 10.6607C0.0500762 10.5628 0.00827465 10.4465 0.00087652 10.3256C-0.00527717 10.2072 0.0210614 10.0894 0.0770423 9.98488C0.133023 9.88037 0.216515 9.79316 0.318483 9.73268L17.0458 0.0910587C17.143 0.0324958 17.2541 0.00105289 17.3676 1.00478e-07C17.4926 -7.02108e-05 17.6149 0.0367621 17.7191 0.105882C17.8216 0.176593 17.9016 0.27525 17.9496 0.390124C17.9977 0.504997 18.0117 0.631254 17.9901 0.753881Z" fill="#722BFF"/>
</svg>
