<svg width="571" height="707" viewBox="0 0 571 707" fill="none" xmlns="http://www.w3.org/2000/svg">
<g filter="url(#filter0_d)">
<g filter="url(#filter1_d)">
<path d="M75 66H466V588C466 590.761 463.761 593 461 593H80C77.2386 593 75 590.761 75 588V66Z" fill="white"/>
<path d="M75.5 66.5H465.5V588C465.5 590.485 463.485 592.5 461 592.5H80C77.5147 592.5 75.5 590.485 75.5 588V66.5Z" stroke="#E6E7E8"/>
</g>
<path d="M163.85 129H166.35V121.6H174.875V119.4H166.35V114.525H175.05V112.325H163.85V129ZM183.542 129.3C187.317 129.3 189.642 126.45 189.642 122.95C189.642 119.475 187.317 116.625 183.542 116.625C179.792 116.625 177.442 119.475 177.442 122.95C177.442 126.45 179.792 129.3 183.542 129.3ZM183.542 127.3C181.142 127.3 179.792 125.25 179.792 122.95C179.792 120.675 181.142 118.625 183.542 118.625C185.967 118.625 187.292 120.675 187.292 122.95C187.292 125.25 185.967 127.3 183.542 127.3ZM192.998 129H195.248V120.6C195.773 119.7 197.298 118.85 198.423 118.85C198.723 118.85 198.973 118.875 199.198 118.925V116.65C197.598 116.65 196.173 117.575 195.248 118.775V116.925H192.998V129ZM216.621 129H218.871V120.275C218.871 117.85 217.671 116.625 215.446 116.625C213.671 116.625 212.071 117.75 211.371 118.875C210.996 117.575 209.921 116.625 208.096 116.625C206.296 116.625 204.696 117.875 204.196 118.625V116.925H201.946V129H204.196V120.375C204.796 119.5 205.971 118.625 207.146 118.625C208.671 118.625 209.271 119.55 209.271 120.95V129H211.521V120.35C212.096 119.475 213.296 118.625 214.521 118.625C215.996 118.625 216.621 119.55 216.621 120.95V129ZM229.949 129H241.149V126.8H232.449V121.6H240.974V119.4H232.449V114.525H241.149V112.325H229.949V129ZM252.455 129H255.005L250.455 122.8L254.73 116.925H252.18L249.08 121.275L245.955 116.925H243.405L247.655 122.8L243.13 129H245.68L249.08 124.3L252.455 129ZM264.96 129H267.21V120.85C267.21 117.775 264.985 116.625 262.36 116.625C260.41 116.625 258.76 117.275 257.41 118.6L258.385 120.15C259.46 119.075 260.635 118.55 262.01 118.55C263.735 118.55 264.96 119.45 264.96 120.95V122.95C264.035 121.875 262.635 121.35 261.01 121.35C258.985 121.35 256.81 122.55 256.81 125.3C256.81 127.95 259.01 129.3 261.01 129.3C262.635 129.3 264.01 128.725 264.96 127.675V129ZM264.96 126.35C264.285 127.25 263.11 127.725 261.86 127.725C260.235 127.725 259.085 126.75 259.085 125.325C259.085 123.9 260.235 122.925 261.86 122.925C263.11 122.925 264.285 123.4 264.96 124.3V126.35ZM285.991 129H288.241V120.275C288.241 117.85 287.041 116.625 284.816 116.625C283.041 116.625 281.441 117.75 280.741 118.875C280.366 117.575 279.291 116.625 277.466 116.625C275.666 116.625 274.066 117.875 273.566 118.625V116.925H271.316V129H273.566V120.375C274.166 119.5 275.341 118.625 276.516 118.625C278.041 118.625 278.641 119.55 278.641 120.95V129H280.891V120.35C281.466 119.475 282.666 118.625 283.891 118.625C285.366 118.625 285.991 119.55 285.991 120.95V129ZM294.573 133.6V127.25C295.548 128.575 296.948 129.3 298.523 129.3C301.673 129.3 303.898 126.9 303.898 122.95C303.898 119 301.673 116.625 298.523 116.625C296.898 116.625 295.448 117.45 294.573 118.65V116.925H292.323V133.6H294.573ZM301.548 122.95C301.548 125.475 300.173 127.3 297.923 127.3C296.548 127.3 295.173 126.475 294.573 125.525V120.4C295.173 119.425 296.548 118.625 297.923 118.625C300.173 118.625 301.548 120.45 301.548 122.95ZM307.252 129H309.502V112.325H307.252V129ZM312.837 122.95C312.837 126.75 315.487 129.3 319.087 129.3C321.037 129.3 322.737 128.675 323.937 127.5L322.887 126.025C321.987 126.95 320.587 127.45 319.312 127.45C316.887 127.45 315.387 125.75 315.212 123.7H324.762V123.15C324.762 119.45 322.512 116.625 318.887 116.625C315.362 116.625 312.837 119.45 312.837 122.95ZM318.887 118.475C321.437 118.475 322.512 120.475 322.562 122.075H315.187C315.312 120.425 316.462 118.475 318.887 118.475Z" fill="#595D67"/>
<circle cx="121" cy="122" r="13" fill="#E9E5FF"/>
<path fill-rule="evenodd" clip-rule="evenodd" d="M115 122C115 121.448 115.448 121 116 121H125C125.552 121 126 121.448 126 122C126 122.552 125.552 123 125 123H116C115.448 123 115 122.552 115 122Z" fill="#545CB9"/>
<path fill-rule="evenodd" clip-rule="evenodd" d="M120.842 117.247C121.257 116.884 121.889 116.926 122.253 117.342L125.753 121.342C126.082 121.719 126.082 122.281 125.753 122.659L122.253 126.659C121.889 127.074 121.257 127.116 120.842 126.753C120.426 126.389 120.384 125.757 120.747 125.342L123.671 122L120.747 118.659C120.384 118.243 120.426 117.611 120.842 117.247Z" fill="#545CB9"/>
<g filter="url(#filter2_d)">
<rect x="115" y="171" width="323" height="211" rx="5" fill="#ECECEC"/>
<path d="M141.144 200C144.042 200 145.862 197.928 145.862 195.338C145.862 192.776 144.042 190.662 141.144 190.662H138.162V200H141.144ZM141.144 199.272H138.96V191.39H141.144C143.622 191.39 145.022 193.154 145.022 195.338C145.022 197.522 143.608 199.272 141.144 199.272ZM150.683 200.168C152.685 200.168 153.945 198.586 153.945 196.612C153.945 194.638 152.685 193.07 150.683 193.07C148.709 193.07 147.449 194.638 147.449 196.612C147.449 198.586 148.709 200.168 150.683 200.168ZM150.683 199.51C149.115 199.51 148.219 198.124 148.219 196.612C148.219 195.114 149.115 193.728 150.683 193.728C152.279 193.728 153.161 195.114 153.161 196.612C153.161 198.124 152.279 199.51 150.683 199.51ZM164.603 200V195.128C164.603 193.77 164.001 193.07 162.755 193.07C161.803 193.07 160.893 193.714 160.515 194.344C160.347 193.686 159.787 193.07 158.737 193.07C157.757 193.07 156.833 193.826 156.553 194.26V193.238H155.825V200H156.553V194.89C156.959 194.274 157.771 193.728 158.499 193.728C159.451 193.728 159.843 194.316 159.843 195.268V200H160.585V194.876C160.963 194.26 161.789 193.728 162.517 193.728C163.469 193.728 163.875 194.316 163.875 195.268V200H164.603ZM171.898 200V195.24C171.898 193.728 170.806 193.07 169.434 193.07C168.314 193.07 167.53 193.448 166.83 194.204L167.236 194.708C167.852 194.008 168.51 193.714 169.364 193.714C170.358 193.714 171.17 194.26 171.17 195.268V196.64C170.582 195.982 169.812 195.674 168.874 195.674C167.698 195.674 166.508 196.444 166.508 197.914C166.508 199.37 167.712 200.168 168.874 200.168C169.812 200.168 170.568 199.86 171.17 199.202V200H171.898ZM169.126 199.594C168.02 199.594 167.278 198.88 167.278 197.928C167.278 196.962 168.02 196.248 169.126 196.248C169.938 196.248 170.694 196.556 171.17 197.186V198.67C170.694 199.286 169.938 199.594 169.126 199.594ZM174.537 192.174C174.845 192.174 175.097 191.922 175.097 191.614C175.097 191.306 174.845 191.068 174.537 191.068C174.243 191.068 173.977 191.306 173.977 191.614C173.977 191.922 174.243 192.174 174.537 192.174ZM174.901 200V193.238H174.173V200H174.901ZM182.459 200V195.268C182.459 193.742 181.703 193.07 180.331 193.07C179.351 193.07 178.385 193.672 177.895 194.26V193.238H177.167V200H177.895V194.89C178.329 194.274 179.225 193.728 180.093 193.728C181.073 193.728 181.731 194.12 181.731 195.422V200H182.459Z" fill="#595D67"/>
<path d="M138.96 261V257.122H141.662C143.44 257.122 144.476 255.862 144.476 254.392C144.476 252.922 143.454 251.662 141.662 251.662H138.162V261H138.96ZM141.578 256.394H138.96V252.39H141.578C142.824 252.39 143.636 253.216 143.636 254.392C143.636 255.554 142.824 256.394 141.578 256.394ZM150.885 261V256.24C150.885 254.728 149.793 254.07 148.421 254.07C147.301 254.07 146.517 254.448 145.817 255.204L146.223 255.708C146.839 255.008 147.497 254.714 148.351 254.714C149.345 254.714 150.157 255.26 150.157 256.268V257.64C149.569 256.982 148.799 256.674 147.861 256.674C146.685 256.674 145.495 257.444 145.495 258.914C145.495 260.37 146.699 261.168 147.861 261.168C148.799 261.168 149.555 260.86 150.157 260.202V261H150.885ZM148.113 260.594C147.007 260.594 146.265 259.88 146.265 258.928C146.265 257.962 147.007 257.248 148.113 257.248C148.925 257.248 149.681 257.556 150.157 258.186V259.67C149.681 260.286 148.925 260.594 148.113 260.594ZM154.629 261.168C155.189 261.168 155.511 261 155.777 260.748L155.497 260.188C155.343 260.356 155.063 260.51 154.741 260.51C154.265 260.51 154.041 260.132 154.041 259.586V254.882H155.413V254.238H154.041V252.39H153.299V254.238H152.179V254.882H153.299V259.698C153.299 260.622 153.733 261.168 154.629 261.168ZM162.307 261V256.24C162.307 254.714 161.551 254.07 160.179 254.07C159.199 254.07 158.233 254.672 157.743 255.26V251.662H157.015V261H157.743V255.89C158.177 255.274 159.073 254.728 159.941 254.728C160.921 254.728 161.579 255.092 161.579 256.394V261H162.307ZM170.214 261V251.662H169.486L167.428 253.832L167.918 254.35L169.416 252.754V261H170.214Z" fill="#595D67"/>
<path d="M138.96 322V318.122H141.662C143.44 318.122 144.476 316.862 144.476 315.392C144.476 313.922 143.454 312.662 141.662 312.662H138.162V322H138.96ZM141.578 317.394H138.96V313.39H141.578C142.824 313.39 143.636 314.216 143.636 315.392C143.636 316.554 142.824 317.394 141.578 317.394ZM150.885 322V317.24C150.885 315.728 149.793 315.07 148.421 315.07C147.301 315.07 146.517 315.448 145.817 316.204L146.223 316.708C146.839 316.008 147.497 315.714 148.351 315.714C149.345 315.714 150.157 316.26 150.157 317.268V318.64C149.569 317.982 148.799 317.674 147.861 317.674C146.685 317.674 145.495 318.444 145.495 319.914C145.495 321.37 146.699 322.168 147.861 322.168C148.799 322.168 149.555 321.86 150.157 321.202V322H150.885ZM148.113 321.594C147.007 321.594 146.265 320.88 146.265 319.928C146.265 318.962 147.007 318.248 148.113 318.248C148.925 318.248 149.681 318.556 150.157 319.186V320.67C149.681 321.286 148.925 321.594 148.113 321.594ZM154.629 322.168C155.189 322.168 155.511 322 155.777 321.748L155.497 321.188C155.343 321.356 155.063 321.51 154.741 321.51C154.265 321.51 154.041 321.132 154.041 320.586V315.882H155.413V315.238H154.041V313.39H153.299V315.238H152.179V315.882H153.299V320.698C153.299 321.622 153.733 322.168 154.629 322.168ZM162.307 322V317.24C162.307 315.714 161.551 315.07 160.179 315.07C159.199 315.07 158.233 315.672 157.743 316.26V312.662H157.015V322H157.743V316.89C158.177 316.274 159.073 315.728 159.941 315.728C160.921 315.728 161.579 316.092 161.579 317.394V322H162.307ZM174.008 322V321.272H169.094C171.796 319.088 173.966 317.212 173.966 315.154C173.966 313.306 172.398 312.522 171.026 312.522C169.71 312.522 168.576 313.068 167.918 313.964L168.464 314.468C168.968 313.754 169.864 313.25 171.026 313.25C172.048 313.25 173.154 313.81 173.154 315.154C173.154 316.96 171.026 318.78 167.848 321.342V322H174.008Z" fill="#595D67"/>
<rect x="137" y="210" width="280" height="24" rx="3" fill="white"/>
<rect x="137" y="271" width="280" height="24" rx="3" fill="white"/>
<rect x="137" y="332" width="280" height="24" rx="3" fill="white"/>
<path d="M156.856 227H158.344L160.776 219.272H159.272L157.512 225.16L155.576 219.272H154.328L152.392 225.16L150.632 219.272H149.128L151.56 227H153.048L154.952 221.064L156.856 227ZM168.762 227H170.25L172.682 219.272H171.178L169.418 225.16L167.482 219.272H166.234L164.298 225.16L162.538 219.272H161.034L163.466 227H164.954L166.858 221.064L168.762 227ZM180.669 227H182.157L184.589 219.272H183.085L181.325 225.16L179.389 219.272H178.141L176.205 225.16L174.445 219.272H172.941L175.373 227H176.861L178.765 221.064L180.669 227ZM184.943 226.168C184.943 226.712 185.391 227.176 185.935 227.176C186.479 227.176 186.943 226.712 186.943 226.168C186.943 225.624 186.479 225.176 185.935 225.176C185.391 225.176 184.943 225.624 184.943 226.168ZM189.043 227H194.179C196.147 227 197.267 225.8 197.267 224.12C197.267 222.824 196.339 221.672 195.203 221.496C196.179 221.288 197.059 220.392 197.059 219.048C197.059 217.496 195.955 216.328 194.051 216.328H189.043V227ZM190.643 220.856V217.736H193.747C194.819 217.736 195.411 218.424 195.411 219.304C195.411 220.184 194.819 220.856 193.747 220.856H190.643ZM190.643 225.592V222.264H193.827C195.011 222.264 195.619 223.032 195.619 223.912C195.619 224.952 194.947 225.592 193.827 225.592H190.643ZM204.431 227H205.871V219.272H204.431V224.824C203.999 225.4 203.183 225.912 202.286 225.912C201.295 225.912 200.655 225.528 200.655 224.248V219.272H199.215V224.728C199.215 226.36 200.031 227.192 201.679 227.192C202.863 227.192 203.839 226.584 204.431 225.944V227ZM207.672 223.128C207.672 225.56 209.368 227.192 211.672 227.192C212.92 227.192 214.008 226.792 214.776 226.04L214.104 225.096C213.528 225.688 212.632 226.008 211.816 226.008C210.264 226.008 209.304 224.92 209.192 223.608H215.304V223.256C215.304 220.888 213.864 219.08 211.544 219.08C209.288 219.08 207.672 220.888 207.672 223.128ZM211.544 220.264C213.176 220.264 213.864 221.544 213.896 222.568H209.176C209.256 221.512 209.992 220.264 211.544 220.264ZM222.321 227H223.761V221.576C223.761 219.944 222.913 219.08 221.281 219.08C220.081 219.08 219.057 219.736 218.545 220.36V219.272H217.105V227H218.545V221.48C218.961 220.904 219.777 220.36 220.673 220.36C221.665 220.36 222.321 220.776 222.321 222.056V227ZM229.467 227.192C231.883 227.192 233.371 225.368 233.371 223.128C233.371 220.904 231.883 219.08 229.467 219.08C227.067 219.08 225.563 220.904 225.563 223.128C225.563 225.368 227.067 227.192 229.467 227.192ZM229.467 225.912C227.931 225.912 227.067 224.6 227.067 223.128C227.067 221.672 227.931 220.36 229.467 220.36C231.019 220.36 231.867 221.672 231.867 223.128C231.867 224.6 231.019 225.912 229.467 225.912ZM239.967 227H241.407V221.784C241.407 219.816 239.983 219.08 238.303 219.08C237.055 219.08 235.999 219.496 235.135 220.344L235.759 221.336C236.447 220.648 237.199 220.312 238.079 220.312C239.183 220.312 239.967 220.888 239.967 221.848V223.128C239.375 222.44 238.479 222.104 237.439 222.104C236.143 222.104 234.751 222.872 234.751 224.632C234.751 226.328 236.159 227.192 237.439 227.192C238.479 227.192 239.359 226.824 239.967 226.152V227ZM239.967 225.304C239.535 225.88 238.783 226.184 237.983 226.184C236.943 226.184 236.207 225.56 236.207 224.648C236.207 223.736 236.943 223.112 237.983 223.112C238.783 223.112 239.535 223.416 239.967 223.992V225.304ZM245.155 229.944V225.88C245.779 226.728 246.674 227.192 247.683 227.192C249.699 227.192 251.123 225.656 251.123 223.128C251.123 220.6 249.699 219.08 247.683 219.08C246.643 219.08 245.715 219.608 245.155 220.376V219.272H243.715V229.944H245.155ZM249.619 223.128C249.619 224.744 248.739 225.912 247.299 225.912C246.419 225.912 245.539 225.384 245.155 224.776V221.496C245.539 220.872 246.419 220.36 247.299 220.36C248.739 220.36 249.619 221.528 249.619 223.128ZM257.717 227H259.157V221.784C259.157 219.816 257.733 219.08 256.053 219.08C254.805 219.08 253.749 219.496 252.885 220.344L253.509 221.336C254.197 220.648 254.949 220.312 255.829 220.312C256.933 220.312 257.717 220.888 257.717 221.848V223.128C257.125 222.44 256.229 222.104 255.189 222.104C253.893 222.104 252.501 222.872 252.501 224.632C252.501 226.328 253.909 227.192 255.189 227.192C256.229 227.192 257.109 226.824 257.717 226.152V227ZM257.717 225.304C257.285 225.88 256.533 226.184 255.733 226.184C254.693 226.184 253.957 225.56 253.957 224.648C253.957 223.736 254.693 223.112 255.733 223.112C256.533 223.112 257.285 223.416 257.717 223.992V225.304ZM261.465 227H262.905V221.624C263.241 221.048 264.217 220.504 264.937 220.504C265.129 220.504 265.289 220.52 265.433 220.552V219.096C264.409 219.096 263.497 219.688 262.905 220.456V219.272H261.465V227ZM268.999 227.192C269.751 227.192 270.199 226.984 270.503 226.696L270.135 225.608C269.991 225.768 269.687 225.912 269.351 225.912C268.855 225.912 268.599 225.512 268.599 224.968V220.536H270.167V219.272H268.599V217.16H267.159V219.272H265.879V220.536H267.159V225.288C267.159 226.504 267.783 227.192 268.999 227.192ZM281.153 227H282.593V221.416C282.593 219.864 281.825 219.08 280.401 219.08C279.265 219.08 278.241 219.8 277.793 220.52C277.553 219.688 276.865 219.08 275.697 219.08C274.545 219.08 273.521 219.88 273.201 220.36V219.272H271.761V227H273.201V221.48C273.585 220.92 274.337 220.36 275.089 220.36C276.065 220.36 276.449 220.952 276.449 221.848V227H277.889V221.464C278.257 220.904 279.025 220.36 279.809 220.36C280.753 220.36 281.153 220.952 281.153 221.848V227ZM284.406 223.128C284.406 225.56 286.102 227.192 288.406 227.192C289.654 227.192 290.742 226.792 291.51 226.04L290.838 225.096C290.262 225.688 289.366 226.008 288.55 226.008C286.998 226.008 286.038 224.92 285.926 223.608H292.038V223.256C292.038 220.888 290.598 219.08 288.278 219.08C286.022 219.08 284.406 220.888 284.406 223.128ZM288.278 220.264C289.91 220.264 290.598 221.544 290.63 222.568H285.91C285.99 221.512 286.726 220.264 288.278 220.264ZM299.056 227H300.496V221.576C300.496 219.944 299.648 219.08 298.016 219.08C296.816 219.08 295.792 219.736 295.28 220.36V219.272H293.84V227H295.28V221.48C295.696 220.904 296.512 220.36 297.408 220.36C298.4 220.36 299.056 220.776 299.056 222.056V227ZM304.905 227.192C305.657 227.192 306.105 226.984 306.409 226.696L306.041 225.608C305.897 225.768 305.593 225.912 305.257 225.912C304.761 225.912 304.505 225.512 304.505 224.968V220.536H306.073V219.272H304.505V217.16H303.065V219.272H301.785V220.536H303.065V225.288C303.065 226.504 303.689 227.192 304.905 227.192ZM306.996 225.992C307.78 226.792 308.916 227.192 310.212 227.192C312.244 227.192 313.332 226.152 313.332 224.824C313.332 223.048 311.732 222.68 310.388 222.376C309.428 222.152 308.596 221.928 308.596 221.256C308.596 220.632 309.204 220.248 310.18 220.248C311.156 220.248 312.02 220.648 312.468 221.192L313.108 220.184C312.452 219.56 311.492 219.08 310.164 219.08C308.276 219.08 307.22 220.136 307.22 221.368C307.22 223.032 308.756 223.384 310.068 223.688C311.06 223.912 311.94 224.168 311.94 224.936C311.94 225.592 311.364 226.04 310.276 226.04C309.236 226.04 308.212 225.512 307.684 224.936L306.996 225.992ZM314.896 226.168C314.896 226.712 315.344 227.176 315.888 227.176C316.432 227.176 316.896 226.712 316.896 226.168C316.896 225.624 316.432 225.176 315.888 225.176C315.344 225.176 314.896 225.624 314.896 226.168ZM318.391 223.128C318.391 225.448 319.991 227.192 322.327 227.192C323.783 227.192 324.663 226.584 325.223 225.832L324.263 224.952C323.799 225.592 323.175 225.912 322.391 225.912C320.871 225.912 319.895 224.728 319.895 223.128C319.895 221.528 320.871 220.36 322.391 220.36C323.175 220.36 323.799 220.664 324.263 221.32L325.223 220.44C324.663 219.688 323.783 219.08 322.327 219.08C319.991 219.08 318.391 220.808 318.391 223.128ZM330.232 227.192C332.648 227.192 334.136 225.368 334.136 223.128C334.136 220.904 332.648 219.08 330.232 219.08C327.832 219.08 326.328 220.904 326.328 223.128C326.328 225.368 327.832 227.192 330.232 227.192ZM330.232 225.912C328.696 225.912 327.832 224.6 327.832 223.128C327.832 221.672 328.696 220.36 330.232 220.36C331.784 220.36 332.632 221.672 332.632 223.128C332.632 224.6 331.784 225.912 330.232 225.912ZM345.357 227H346.797V221.416C346.797 219.864 346.029 219.08 344.605 219.08C343.469 219.08 342.445 219.8 341.997 220.52C341.757 219.688 341.069 219.08 339.901 219.08C338.749 219.08 337.725 219.88 337.405 220.36V219.272H335.965V227H337.405V221.48C337.789 220.92 338.541 220.36 339.293 220.36C340.269 220.36 340.653 220.952 340.653 221.848V227H342.093V221.464C342.461 220.904 343.229 220.36 344.013 220.36C344.957 220.36 345.357 220.952 345.357 221.848V227Z" fill="#595D67"/>
<path d="M149.672 291.04H152.792V290.016H150.76V278.176H152.792V277.152H149.672V291.04ZM154.247 288H159.383C161.351 288 162.47 286.8 162.47 285.12C162.47 283.824 161.543 282.672 160.407 282.496C161.383 282.288 162.263 281.392 162.263 280.048C162.263 278.496 161.159 277.328 159.255 277.328H154.247V288ZM155.847 281.856V278.736H158.951C160.023 278.736 160.615 279.424 160.615 280.304C160.615 281.184 160.023 281.856 158.951 281.856H155.847ZM155.847 286.592V283.264H159.031C160.215 283.264 160.823 284.032 160.823 284.912C160.823 285.952 160.151 286.592 159.031 286.592H155.847ZM163.938 284.128C163.938 286.56 165.634 288.192 167.938 288.192C169.186 288.192 170.274 287.792 171.042 287.04L170.37 286.096C169.794 286.688 168.898 287.008 168.082 287.008C166.53 287.008 165.57 285.92 165.458 284.608H171.57V284.256C171.57 281.888 170.13 280.08 167.81 280.08C165.554 280.08 163.938 281.888 163.938 284.128ZM167.81 281.264C169.442 281.264 170.13 282.544 170.162 283.568H165.442C165.522 282.512 166.258 281.264 167.81 281.264ZM178.875 288H180.315V277.328H178.875V281.392C178.251 280.56 177.339 280.08 176.347 280.08C174.331 280.08 172.891 281.664 172.891 284.144C172.891 286.672 174.331 288.192 176.347 288.192C177.371 288.192 178.299 287.664 178.875 286.896V288ZM178.875 285.792C178.475 286.416 177.611 286.912 176.731 286.912C175.291 286.912 174.395 285.744 174.395 284.144C174.395 282.528 175.291 281.36 176.731 281.36C177.611 281.36 178.475 281.872 178.875 282.496V285.792ZM182.621 288H184.061V282.624C184.397 282.048 185.373 281.504 186.093 281.504C186.285 281.504 186.445 281.52 186.589 281.552V280.096C185.565 280.096 184.653 280.688 184.061 281.456V280.272H182.621V288ZM191.451 288.192C193.867 288.192 195.355 286.368 195.355 284.128C195.355 281.904 193.867 280.08 191.451 280.08C189.051 280.08 187.547 281.904 187.547 284.128C187.547 286.368 189.051 288.192 191.451 288.192ZM191.451 286.912C189.915 286.912 189.051 285.6 189.051 284.128C189.051 282.672 189.915 281.36 191.451 281.36C193.003 281.36 193.851 282.672 193.851 284.128C193.851 285.6 193.003 286.912 191.451 286.912ZM200.607 288.192C203.023 288.192 204.511 286.368 204.511 284.128C204.511 281.904 203.023 280.08 200.607 280.08C198.207 280.08 196.703 281.904 196.703 284.128C196.703 286.368 198.207 288.192 200.607 288.192ZM200.607 286.912C199.071 286.912 198.207 285.6 198.207 284.128C198.207 282.672 199.071 281.36 200.607 281.36C202.159 281.36 203.007 282.672 203.007 284.128C203.007 285.6 202.159 286.912 200.607 286.912ZM215.732 288H217.172V282.416C217.172 280.864 216.404 280.08 214.98 280.08C213.844 280.08 212.82 280.8 212.372 281.52C212.132 280.688 211.444 280.08 210.276 280.08C209.124 280.08 208.1 280.88 207.78 281.36V280.272H206.34V288H207.78V282.48C208.164 281.92 208.916 281.36 209.668 281.36C210.644 281.36 211.028 281.952 211.028 282.848V288H212.468V282.464C212.836 281.904 213.604 281.36 214.388 281.36C215.332 281.36 215.732 281.952 215.732 282.848V288ZM222.153 288H223.289L224.233 285.168H225.993L226.281 284.192H224.553L225.577 281.152H227.273L227.561 280.192H225.897L226.857 277.328H225.721L224.777 280.192H223.097L224.041 277.328H222.905L221.961 280.192H220.233L219.945 281.152H221.625L220.633 284.192H218.953L218.633 285.168H220.281L219.337 288H220.473L221.417 285.168H223.129L222.153 288ZM224.441 281.152L223.433 284.192H221.753L222.761 281.152H224.441ZM228.147 291.04H231.267V277.152H228.147V278.176H230.179V290.016H228.147V291.04Z" fill="#595D67"/>
<path d="M149.672 352.04H152.792V351.016H150.76V339.176H152.792V338.152H149.672V352.04ZM159.271 349.192C161.367 349.192 162.663 348.184 163.511 346.936L162.151 346.216C161.591 347.112 160.535 347.768 159.271 347.768C157.111 347.768 155.447 346.056 155.447 343.672C155.447 341.272 157.111 339.576 159.271 339.576C160.535 339.576 161.591 340.232 162.151 341.128L163.511 340.408C162.679 339.16 161.367 338.152 159.271 338.152C156.231 338.152 153.799 340.392 153.799 343.672C153.799 346.952 156.231 349.192 159.271 349.192ZM165.778 339.976C166.29 339.976 166.706 339.576 166.706 339.064C166.706 338.552 166.29 338.136 165.778 338.136C165.282 338.136 164.85 338.552 164.85 339.064C164.85 339.576 165.282 339.976 165.778 339.976ZM165.074 349H166.514V341.272H165.074V349ZM170.936 349.192C171.688 349.192 172.136 348.984 172.44 348.696L172.072 347.608C171.928 347.768 171.624 347.912 171.288 347.912C170.792 347.912 170.536 347.512 170.536 346.968V342.536H172.104V341.272H170.536V339.16H169.096V341.272H167.816V342.536H169.096V347.288C169.096 348.504 169.72 349.192 170.936 349.192ZM173.539 350.728L173.315 352.024C173.539 352.088 173.971 352.136 174.211 352.136C175.331 352.12 176.179 351.688 176.675 350.472L180.483 341.272H178.931L176.515 347.336L174.099 341.272H172.563L175.747 349.08L175.299 350.104C175.059 350.68 174.707 350.856 174.179 350.856C173.987 350.856 173.715 350.808 173.539 350.728ZM180.772 352.04H183.892V338.152H180.772V339.176H182.804V351.016H180.772V352.04Z" fill="#595D67"/>
</g>
<path d="M124.033 427L121.409 422.808C122.705 422.6 123.953 421.56 123.953 419.672C123.953 417.688 122.561 416.328 120.449 416.328H115.761V427H117.633V423.016H119.505L121.857 427H124.033ZM120.209 421.368H117.633V417.976H120.209C121.265 417.976 122.033 418.632 122.033 419.656C122.033 420.696 121.265 421.368 120.209 421.368ZM129.125 427.192C130.341 427.192 131.477 426.792 132.261 426.056L131.493 424.952C130.933 425.512 130.053 425.816 129.285 425.816C127.829 425.816 126.965 424.84 126.837 423.688H132.789V423.272C132.789 420.84 131.317 419.08 128.997 419.08C126.709 419.08 125.077 420.888 125.077 423.128C125.077 425.576 126.789 427.192 129.125 427.192ZM131.173 422.488H126.821C126.885 421.56 127.557 420.456 128.981 420.456C130.501 420.456 131.125 421.576 131.173 422.488ZM137.353 427.192C139.433 427.192 140.569 426.152 140.569 424.776C140.569 421.704 135.897 422.728 135.897 421.368C135.897 420.824 136.441 420.408 137.321 420.408C138.297 420.408 139.145 420.824 139.609 421.336L140.313 420.152C139.625 419.544 138.633 419.08 137.321 419.08C135.369 419.08 134.281 420.152 134.281 421.416C134.281 424.392 138.953 423.304 138.953 424.824C138.953 425.432 138.425 425.848 137.417 425.848C136.425 425.848 135.353 425.336 134.809 424.776L134.041 425.976C134.841 426.76 136.025 427.192 137.353 427.192ZM149.39 427V419.272H147.71V424.696C147.326 425.208 146.59 425.704 145.742 425.704C144.782 425.704 144.174 425.32 144.174 424.12V419.272H142.494V424.744C142.494 426.312 143.326 427.192 144.99 427.192C146.206 427.192 147.166 426.584 147.71 425.976V427H149.39ZM153.502 427V416.328H151.822V427H153.502ZM158.268 427.192C159.036 427.192 159.532 426.968 159.836 426.696L159.436 425.416C159.308 425.56 159.02 425.704 158.7 425.704C158.22 425.704 157.964 425.304 157.964 424.776V420.728H159.532V419.272H157.964V417.16H156.284V419.272H155.004V420.728H156.284V425.192C156.284 426.488 156.956 427.192 158.268 427.192ZM162.139 418.328C162.715 418.328 163.179 417.864 163.179 417.288C163.179 416.712 162.715 416.248 162.139 416.248C161.563 416.248 161.099 416.712 161.099 417.288C161.099 417.864 161.563 418.328 162.139 418.328ZM162.971 427V419.272H161.291V427H162.971ZM172.312 427V421.56C172.312 419.976 171.481 419.08 169.817 419.08C168.601 419.08 167.593 419.704 167.081 420.312V419.272H165.401V427H167.081V421.592C167.481 421.08 168.217 420.568 169.065 420.568C170.009 420.568 170.633 420.952 170.633 422.168V427H172.312ZM177.896 430.136C179.784 430.136 181.864 429.384 181.864 426.6V419.272H180.184V420.344C179.56 419.512 178.68 419.08 177.704 419.08C175.704 419.08 174.28 420.536 174.28 423.048C174.28 425.592 175.736 427.016 177.704 427.016C178.712 427.016 179.592 426.504 180.184 425.72V426.6C180.184 428.248 179 428.76 177.896 428.76C176.872 428.76 176.072 428.488 175.432 427.768L174.648 428.984C175.608 429.848 176.584 430.136 177.896 430.136ZM178.2 425.512C176.856 425.512 176.008 424.536 176.008 423.048C176.008 421.56 176.856 420.568 178.2 420.568C178.984 420.568 179.8 421.032 180.184 421.592V424.488C179.8 425.048 178.984 425.512 178.2 425.512ZM193.338 427.192C196.442 427.192 197.962 425.416 197.962 422.776V416.328H196.058V422.728C196.058 424.424 195.114 425.528 193.338 425.528C191.562 425.528 190.618 424.424 190.618 422.728V416.328H188.714V422.776C188.714 425.416 190.25 427.192 193.338 427.192ZM208.752 427L206.128 422.808C207.424 422.6 208.672 421.56 208.672 419.672C208.672 417.688 207.28 416.328 205.168 416.328H200.48V427H202.352V423.016H204.224L206.576 427H208.752ZM204.928 421.368H202.352V417.976H204.928C205.984 417.976 206.752 418.632 206.752 419.656C206.752 420.696 205.984 421.368 204.928 421.368ZM217.24 427V425.352H212.536V416.328H210.664V427H217.24ZM224.311 418.328C224.887 418.328 225.351 417.864 225.351 417.288C225.351 416.712 224.887 416.248 224.311 416.248C223.735 416.248 223.271 416.712 223.271 417.288C223.271 417.864 223.735 418.328 224.311 418.328ZM225.143 427V419.272H223.463V427H225.143ZM234.484 427V421.56C234.484 419.976 233.652 419.08 231.988 419.08C230.772 419.08 229.764 419.704 229.252 420.312V419.272H227.572V427H229.252V421.592C229.652 421.08 230.388 420.568 231.236 420.568C232.18 420.568 232.804 420.952 232.804 422.168V427H234.484ZM243.627 427.192C244.395 427.192 244.891 426.968 245.195 426.696L244.795 425.416C244.667 425.56 244.379 425.704 244.059 425.704C243.579 425.704 243.323 425.304 243.323 424.776V420.728H244.891V419.272H243.323V417.16H241.643V419.272H240.363V420.728H241.643V425.192C241.643 426.488 242.315 427.192 243.627 427.192ZM253.562 427V421.528C253.562 419.944 252.731 419.08 251.067 419.08C249.851 419.08 248.859 419.704 248.347 420.312V416.328H246.667V427H248.347V421.592C248.731 421.08 249.467 420.568 250.331 420.568C251.275 420.568 251.883 420.92 251.883 422.136V427H253.562ZM259.578 427.192C260.794 427.192 261.93 426.792 262.714 426.056L261.946 424.952C261.386 425.512 260.506 425.816 259.738 425.816C258.282 425.816 257.418 424.84 257.29 423.688H263.242V423.272C263.242 420.84 261.77 419.08 259.45 419.08C257.162 419.08 255.53 420.888 255.53 423.128C255.53 425.576 257.242 427.192 259.578 427.192ZM261.626 422.488H257.274C257.338 421.56 258.01 420.456 259.434 420.456C260.954 420.456 261.578 421.576 261.626 422.488ZM275.942 427V421.864C275.942 419.8 274.438 419.08 272.71 419.08C271.478 419.08 270.358 419.464 269.462 420.328L270.166 421.496C270.822 420.824 271.59 420.504 272.454 420.504C273.51 420.504 274.262 421.048 274.262 421.944V423.096C273.686 422.44 272.806 422.104 271.75 422.104C270.486 422.104 269.078 422.84 269.078 424.632C269.078 426.328 270.502 427.192 271.75 427.192C272.774 427.192 273.686 426.824 274.262 426.152V427H275.942ZM272.422 426.04C271.478 426.04 270.758 425.496 270.758 424.648C270.758 423.816 271.478 423.256 272.422 423.256C273.141 423.256 273.862 423.528 274.262 424.056V425.24C273.862 425.768 273.141 426.04 272.422 426.04ZM285.489 427V416.328H283.809V420.344C283.201 419.512 282.305 419.08 281.329 419.08C279.345 419.08 277.905 420.632 277.905 423.128C277.905 425.688 279.361 427.192 281.329 427.192C282.337 427.192 283.217 426.712 283.809 425.944V427H285.489ZM281.825 425.704C280.481 425.704 279.633 424.632 279.633 423.128C279.633 421.64 280.481 420.568 281.825 420.568C282.609 420.568 283.441 421.032 283.809 421.608V424.664C283.441 425.24 282.609 425.704 281.825 425.704ZM293.171 421.384C293.779 421.384 294.291 420.872 294.291 420.28C294.291 419.672 293.779 419.16 293.171 419.16C292.563 419.16 292.051 419.672 292.051 420.28C292.051 420.872 292.563 421.384 293.171 421.384ZM293.171 427.176C293.779 427.176 294.291 426.648 294.291 426.04C294.291 425.448 293.779 424.936 293.171 424.936C292.563 424.936 292.051 425.448 292.051 426.04C292.051 426.648 292.563 427.176 293.171 427.176Z" fill="#454954"/>
<path d="M116.192 446.168C115.376 446.744 114.8 447.688 114.8 448.728C114.8 449.576 115.312 450.072 115.904 450.072C116.464 450.072 116.88 449.624 116.88 449.096C116.88 448.568 116.512 448.184 116.032 448.184C115.936 448.184 115.808 448.2 115.776 448.216C115.856 447.672 116.368 447.032 116.88 446.712L116.192 446.168ZM118.944 446.168C118.144 446.744 117.568 447.688 117.568 448.728C117.568 449.576 118.08 450.072 118.672 450.072C119.216 450.072 119.648 449.624 119.648 449.096C119.648 448.568 119.264 448.184 118.784 448.184C118.688 448.184 118.576 448.2 118.544 448.216C118.624 447.672 119.12 447.032 119.632 446.712L118.944 446.168ZM128.403 457H129.891L132.323 449.272H130.819L129.059 455.16L127.123 449.272H125.875L123.939 455.16L122.179 449.272H120.675L123.107 457H124.595L126.499 451.064L128.403 457ZM140.309 457H141.797L144.229 449.272H142.725L140.965 455.16L139.029 449.272H137.781L135.845 455.16L134.085 449.272H132.581L135.013 457H136.501L138.405 451.064L140.309 457ZM152.215 457H153.703L156.135 449.272H154.631L152.871 455.16L150.935 449.272H149.687L147.751 455.16L145.991 449.272H144.487L146.919 457H148.407L150.311 451.064L152.215 457ZM156.49 456.168C156.49 456.712 156.938 457.176 157.482 457.176C158.026 457.176 158.49 456.712 158.49 456.168C158.49 455.624 158.026 455.176 157.482 455.176C156.938 455.176 156.49 455.624 156.49 456.168ZM160.59 457H165.726C167.694 457 168.814 455.8 168.814 454.12C168.814 452.824 167.886 451.672 166.75 451.496C167.726 451.288 168.606 450.392 168.606 449.048C168.606 447.496 167.502 446.328 165.598 446.328H160.59V457ZM162.19 450.856V447.736H165.294C166.366 447.736 166.958 448.424 166.958 449.304C166.958 450.184 166.366 450.856 165.294 450.856H162.19ZM162.19 455.592V452.264H165.374C166.558 452.264 167.166 453.032 167.166 453.912C167.166 454.952 166.494 455.592 165.374 455.592H162.19ZM175.977 457H177.417V449.272H175.977V454.824C175.545 455.4 174.729 455.912 173.833 455.912C172.841 455.912 172.201 455.528 172.201 454.248V449.272H170.761V454.728C170.761 456.36 171.577 457.192 173.225 457.192C174.409 457.192 175.385 456.584 175.977 455.944V457ZM179.219 453.128C179.219 455.56 180.915 457.192 183.219 457.192C184.467 457.192 185.555 456.792 186.323 456.04L185.651 455.096C185.075 455.688 184.179 456.008 183.363 456.008C181.811 456.008 180.851 454.92 180.739 453.608H186.851V453.256C186.851 450.888 185.411 449.08 183.091 449.08C180.835 449.08 179.219 450.888 179.219 453.128ZM183.091 450.264C184.723 450.264 185.411 451.544 185.443 452.568H180.723C180.803 451.512 181.539 450.264 183.091 450.264ZM193.868 457H195.308V451.576C195.308 449.944 194.46 449.08 192.828 449.08C191.628 449.08 190.604 449.736 190.092 450.36V449.272H188.652V457H190.092V451.48C190.508 450.904 191.324 450.36 192.22 450.36C193.212 450.36 193.868 450.776 193.868 452.056V457ZM201.014 457.192C203.43 457.192 204.918 455.368 204.918 453.128C204.918 450.904 203.43 449.08 201.014 449.08C198.614 449.08 197.11 450.904 197.11 453.128C197.11 455.368 198.614 457.192 201.014 457.192ZM201.014 455.912C199.478 455.912 198.614 454.6 198.614 453.128C198.614 451.672 199.478 450.36 201.014 450.36C202.566 450.36 203.414 451.672 203.414 453.128C203.414 454.6 202.566 455.912 201.014 455.912ZM211.514 457H212.954V451.784C212.954 449.816 211.53 449.08 209.85 449.08C208.602 449.08 207.546 449.496 206.682 450.344L207.306 451.336C207.994 450.648 208.746 450.312 209.626 450.312C210.73 450.312 211.514 450.888 211.514 451.848V453.128C210.922 452.44 210.026 452.104 208.986 452.104C207.69 452.104 206.298 452.872 206.298 454.632C206.298 456.328 207.706 457.192 208.986 457.192C210.026 457.192 210.906 456.824 211.514 456.152V457ZM211.514 455.304C211.082 455.88 210.33 456.184 209.53 456.184C208.49 456.184 207.754 455.56 207.754 454.648C207.754 453.736 208.49 453.112 209.53 453.112C210.33 453.112 211.082 453.416 211.514 453.992V455.304ZM216.701 459.944V455.88C217.325 456.728 218.221 457.192 219.229 457.192C221.245 457.192 222.669 455.656 222.669 453.128C222.669 450.6 221.245 449.08 219.229 449.08C218.189 449.08 217.261 449.608 216.701 450.376V449.272H215.261V459.944H216.701ZM221.165 453.128C221.165 454.744 220.285 455.912 218.845 455.912C217.965 455.912 217.085 455.384 216.701 454.776V451.496C217.085 450.872 217.965 450.36 218.845 450.36C220.285 450.36 221.165 451.528 221.165 453.128ZM229.264 457H230.704V451.784C230.704 449.816 229.28 449.08 227.6 449.08C226.352 449.08 225.296 449.496 224.432 450.344L225.056 451.336C225.744 450.648 226.496 450.312 227.376 450.312C228.48 450.312 229.264 450.888 229.264 451.848V453.128C228.672 452.44 227.776 452.104 226.736 452.104C225.44 452.104 224.048 452.872 224.048 454.632C224.048 456.328 225.456 457.192 226.736 457.192C227.776 457.192 228.656 456.824 229.264 456.152V457ZM229.264 455.304C228.832 455.88 228.08 456.184 227.28 456.184C226.24 456.184 225.504 455.56 225.504 454.648C225.504 453.736 226.24 453.112 227.28 453.112C228.08 453.112 228.832 453.416 229.264 453.992V455.304ZM233.011 457H234.451V451.624C234.787 451.048 235.763 450.504 236.483 450.504C236.675 450.504 236.835 450.52 236.979 450.552V449.096C235.955 449.096 235.043 449.688 234.451 450.456V449.272H233.011V457ZM240.546 457.192C241.298 457.192 241.746 456.984 242.05 456.696L241.682 455.608C241.538 455.768 241.234 455.912 240.898 455.912C240.402 455.912 240.146 455.512 240.146 454.968V450.536H241.714V449.272H240.146V447.16H238.706V449.272H237.426V450.536H238.706V455.288C238.706 456.504 239.33 457.192 240.546 457.192ZM252.7 457H254.14V451.416C254.14 449.864 253.372 449.08 251.948 449.08C250.812 449.08 249.788 449.8 249.34 450.52C249.1 449.688 248.412 449.08 247.244 449.08C246.092 449.08 245.068 449.88 244.748 450.36V449.272H243.308V457H244.748V451.48C245.132 450.92 245.884 450.36 246.636 450.36C247.612 450.36 247.996 450.952 247.996 451.848V457H249.436V451.464C249.804 450.904 250.572 450.36 251.356 450.36C252.3 450.36 252.7 450.952 252.7 451.848V457ZM255.953 453.128C255.953 455.56 257.649 457.192 259.953 457.192C261.201 457.192 262.289 456.792 263.057 456.04L262.385 455.096C261.809 455.688 260.913 456.008 260.097 456.008C258.545 456.008 257.585 454.92 257.473 453.608H263.585V453.256C263.585 450.888 262.145 449.08 259.825 449.08C257.569 449.08 255.953 450.888 255.953 453.128ZM259.825 450.264C261.457 450.264 262.145 451.544 262.177 452.568H257.457C257.537 451.512 258.273 450.264 259.825 450.264ZM270.602 457H272.042V451.576C272.042 449.944 271.194 449.08 269.562 449.08C268.362 449.08 267.338 449.736 266.826 450.36V449.272H265.386V457H266.826V451.48C267.242 450.904 268.058 450.36 268.954 450.36C269.946 450.36 270.602 450.776 270.602 452.056V457ZM276.452 457.192C277.204 457.192 277.652 456.984 277.956 456.696L277.588 455.608C277.444 455.768 277.14 455.912 276.804 455.912C276.308 455.912 276.052 455.512 276.052 454.968V450.536H277.62V449.272H276.052V447.16H274.612V449.272H273.332V450.536H274.612V455.288C274.612 456.504 275.236 457.192 276.452 457.192ZM278.543 455.992C279.327 456.792 280.463 457.192 281.759 457.192C283.791 457.192 284.879 456.152 284.879 454.824C284.879 453.048 283.279 452.68 281.935 452.376C280.975 452.152 280.143 451.928 280.143 451.256C280.143 450.632 280.751 450.248 281.727 450.248C282.703 450.248 283.567 450.648 284.015 451.192L284.655 450.184C283.999 449.56 283.039 449.08 281.711 449.08C279.823 449.08 278.767 450.136 278.767 451.368C278.767 453.032 280.303 453.384 281.615 453.688C282.607 453.912 283.487 454.168 283.487 454.936C283.487 455.592 282.911 456.04 281.823 456.04C280.783 456.04 279.759 455.512 279.231 454.936L278.543 455.992ZM286.443 456.168C286.443 456.712 286.891 457.176 287.435 457.176C287.979 457.176 288.443 456.712 288.443 456.168C288.443 455.624 287.979 455.176 287.435 455.176C286.891 455.176 286.443 455.624 286.443 456.168ZM289.938 453.128C289.938 455.448 291.538 457.192 293.874 457.192C295.33 457.192 296.21 456.584 296.77 455.832L295.81 454.952C295.346 455.592 294.722 455.912 293.938 455.912C292.418 455.912 291.442 454.728 291.442 453.128C291.442 451.528 292.418 450.36 293.938 450.36C294.722 450.36 295.346 450.664 295.81 451.32L296.77 450.44C296.21 449.688 295.33 449.08 293.874 449.08C291.538 449.08 289.938 450.808 289.938 453.128ZM301.779 457.192C304.195 457.192 305.683 455.368 305.683 453.128C305.683 450.904 304.195 449.08 301.779 449.08C299.379 449.08 297.875 450.904 297.875 453.128C297.875 455.368 299.379 457.192 301.779 457.192ZM301.779 455.912C300.243 455.912 299.379 454.6 299.379 453.128C299.379 451.672 300.243 450.36 301.779 450.36C303.331 450.36 304.179 451.672 304.179 453.128C304.179 454.6 303.331 455.912 301.779 455.912ZM316.903 457H318.343V451.416C318.343 449.864 317.575 449.08 316.151 449.08C315.015 449.08 313.991 449.8 313.543 450.52C313.303 449.688 312.615 449.08 311.447 449.08C310.295 449.08 309.271 449.88 308.951 450.36V449.272H307.511V457H308.951V451.48C309.335 450.92 310.087 450.36 310.839 450.36C311.815 450.36 312.199 450.952 312.199 451.848V457H313.639V451.464C314.007 450.904 314.775 450.36 315.559 450.36C316.503 450.36 316.903 450.952 316.903 451.848V457ZM319.484 457.32H320.588L324.38 446.008H323.276L319.484 457.32ZM327.335 457H328.935V446.328H327.527L324.663 449.256L325.607 450.232L327.335 448.424V457ZM330.605 453.752H334.445V452.504H330.605V453.752ZM336.074 457H337.514V455.896C338.09 456.664 339.002 457.192 340.042 457.192C342.042 457.192 343.482 455.672 343.482 453.144C343.482 450.664 342.058 449.08 340.042 449.08C339.034 449.08 338.122 449.56 337.514 450.392V446.328H336.074V457ZM337.514 454.792V451.512C337.898 450.888 338.778 450.36 339.658 450.36C341.098 450.36 341.994 451.528 341.994 453.144C341.994 454.76 341.098 455.912 339.658 455.912C338.778 455.912 337.898 455.416 337.514 454.792ZM344.844 453.128C344.844 455.56 346.54 457.192 348.844 457.192C350.092 457.192 351.18 456.792 351.948 456.04L351.276 455.096C350.7 455.688 349.804 456.008 348.988 456.008C347.436 456.008 346.476 454.92 346.364 453.608H352.476V453.256C352.476 450.888 351.036 449.08 348.716 449.08C346.46 449.08 344.844 450.888 344.844 453.128ZM348.716 450.264C350.348 450.264 351.036 451.544 351.068 452.568H346.348C346.428 451.512 347.164 450.264 348.716 450.264ZM359.781 457H361.221V446.328H359.781V450.392C359.157 449.56 358.245 449.08 357.253 449.08C355.237 449.08 353.797 450.664 353.797 453.144C353.797 455.672 355.237 457.192 357.253 457.192C358.277 457.192 359.205 456.664 359.781 455.896V457ZM359.781 454.792C359.381 455.416 358.517 455.912 357.637 455.912C356.197 455.912 355.301 454.744 355.301 453.144C355.301 451.528 356.197 450.36 357.637 450.36C358.517 450.36 359.381 450.872 359.781 451.496V454.792ZM363.527 457H364.967V451.624C365.303 451.048 366.279 450.504 366.999 450.504C367.191 450.504 367.351 450.52 367.495 450.552V449.096C366.471 449.096 365.559 449.688 364.967 450.456V449.272H363.527V457ZM372.357 457.192C374.773 457.192 376.261 455.368 376.261 453.128C376.261 450.904 374.773 449.08 372.357 449.08C369.957 449.08 368.453 450.904 368.453 453.128C368.453 455.368 369.957 457.192 372.357 457.192ZM372.357 455.912C370.821 455.912 369.957 454.6 369.957 453.128C369.957 451.672 370.821 450.36 372.357 450.36C373.909 450.36 374.757 451.672 374.757 453.128C374.757 454.6 373.909 455.912 372.357 455.912ZM118.576 477.192C120.992 477.192 122.48 475.368 122.48 473.128C122.48 470.904 120.992 469.08 118.576 469.08C116.176 469.08 114.672 470.904 114.672 473.128C114.672 475.368 116.176 477.192 118.576 477.192ZM118.576 475.912C117.04 475.912 116.176 474.6 116.176 473.128C116.176 471.672 117.04 470.36 118.576 470.36C120.128 470.36 120.976 471.672 120.976 473.128C120.976 474.6 120.128 475.912 118.576 475.912ZM133.7 477H135.14V471.416C135.14 469.864 134.372 469.08 132.948 469.08C131.812 469.08 130.788 469.8 130.34 470.52C130.1 469.688 129.412 469.08 128.244 469.08C127.092 469.08 126.068 469.88 125.748 470.36V469.272H124.308V477H125.748V471.48C126.132 470.92 126.884 470.36 127.636 470.36C128.612 470.36 128.996 470.952 128.996 471.848V477H130.436V471.464C130.804 470.904 131.572 470.36 132.356 470.36C133.3 470.36 133.7 470.952 133.7 471.848V477ZM136.281 477.32H137.385L141.177 466.008H140.073L136.281 477.32ZM149.972 477H151.732L147.492 466.328H145.492L141.252 477H143.012L143.876 474.792H149.108L149.972 477ZM146.484 467.72L148.644 473.368H144.34L146.484 467.72ZM152.98 477H154.42V471.624C154.756 471.048 155.732 470.504 156.452 470.504C156.644 470.504 156.804 470.52 156.948 470.552V469.096C155.924 469.096 155.012 469.688 154.42 470.456V469.272H152.98V477ZM158.386 477H159.826V466.328H158.386V477ZM162.825 467.976C163.337 467.976 163.753 467.576 163.753 467.064C163.753 466.552 163.337 466.136 162.825 466.136C162.329 466.136 161.897 466.552 161.897 467.064C161.897 467.576 162.329 467.976 162.825 467.976ZM162.121 477H163.561V469.272H162.121V477ZM171.071 477H172.511V471.576C172.511 469.944 171.663 469.08 170.031 469.08C168.831 469.08 167.807 469.736 167.295 470.36V469.272H165.855V477H167.295V471.48C167.711 470.904 168.527 470.36 169.423 470.36C170.415 470.36 171.071 470.776 171.071 472.056V477ZM174.729 478.984C175.657 479.864 176.601 480.136 177.897 480.136C179.801 480.136 181.737 479.352 181.737 476.696V469.272H180.297V470.392C179.673 469.56 178.761 469.08 177.753 469.08C175.753 469.08 174.313 470.584 174.313 473.064C174.313 475.592 175.753 477.064 177.753 477.064C178.793 477.064 179.705 476.504 180.297 475.736V476.744C180.297 478.376 179.097 478.952 177.897 478.952C176.841 478.952 176.057 478.664 175.417 477.928L174.729 478.984ZM180.297 474.632C179.897 475.256 179.017 475.784 178.153 475.784C176.713 475.784 175.817 474.664 175.817 473.064C175.817 471.48 176.713 470.36 178.153 470.36C179.017 470.36 179.897 470.872 180.297 471.496V474.632ZM186.155 477.192C186.907 477.192 187.355 476.984 187.659 476.696L187.291 475.608C187.147 475.768 186.843 475.912 186.507 475.912C186.011 475.912 185.755 475.512 185.755 474.968V470.536H187.323V469.272H185.755V467.16H184.315V469.272H183.035V470.536H184.315V475.288C184.315 476.504 184.939 477.192 186.155 477.192ZM192.342 477.192C194.758 477.192 196.246 475.368 196.246 473.128C196.246 470.904 194.758 469.08 192.342 469.08C189.942 469.08 188.438 470.904 188.438 473.128C188.438 475.368 189.942 477.192 192.342 477.192ZM192.342 475.912C190.806 475.912 189.942 474.6 189.942 473.128C189.942 471.672 190.806 470.36 192.342 470.36C193.894 470.36 194.742 471.672 194.742 473.128C194.742 474.6 193.894 475.912 192.342 475.912ZM203.29 477H204.73V471.576C204.73 469.944 203.882 469.08 202.25 469.08C201.05 469.08 200.026 469.736 199.514 470.36V469.272H198.074V477H199.514V471.48C199.93 470.904 200.746 470.36 201.642 470.36C202.634 470.36 203.29 470.776 203.29 472.056V477ZM218.672 477H220.272V466.328H218.672V470.808H212.768V466.328H211.168V477H212.768V472.232H218.672V477ZM222.125 473.128C222.125 475.56 223.821 477.192 226.125 477.192C227.373 477.192 228.461 476.792 229.229 476.04L228.557 475.096C227.981 475.688 227.085 476.008 226.269 476.008C224.717 476.008 223.757 474.92 223.645 473.608H229.757V473.256C229.757 470.888 228.317 469.08 225.997 469.08C223.741 469.08 222.125 470.888 222.125 473.128ZM225.997 470.264C227.629 470.264 228.317 471.544 228.349 472.568H223.629C223.709 471.512 224.445 470.264 225.997 470.264ZM232.262 467.976C232.774 467.976 233.19 467.576 233.19 467.064C233.19 466.552 232.774 466.136 232.262 466.136C231.766 466.136 231.334 466.552 231.334 467.064C231.334 467.576 231.766 467.976 232.262 467.976ZM231.558 477H232.998V469.272H231.558V477ZM235.229 478.984C236.157 479.864 237.101 480.136 238.397 480.136C240.301 480.136 242.237 479.352 242.237 476.696V469.272H240.797V470.392C240.173 469.56 239.261 469.08 238.253 469.08C236.253 469.08 234.813 470.584 234.813 473.064C234.813 475.592 236.253 477.064 238.253 477.064C239.293 477.064 240.205 476.504 240.797 475.736V476.744C240.797 478.376 239.597 478.952 238.397 478.952C237.341 478.952 236.557 478.664 235.917 477.928L235.229 478.984ZM240.797 474.632C240.397 475.256 239.517 475.784 238.653 475.784C237.213 475.784 236.317 474.664 236.317 473.064C236.317 471.48 237.213 470.36 238.653 470.36C239.517 470.36 240.397 470.872 240.797 471.496V474.632ZM249.743 477H251.183V471.544C251.183 469.912 250.351 469.08 248.703 469.08C247.519 469.08 246.479 469.736 245.967 470.36V466.328H244.527V477H245.967V471.48C246.383 470.904 247.199 470.36 248.095 470.36C249.087 470.36 249.743 470.744 249.743 472.024V477ZM255.608 477.192C256.36 477.192 256.808 476.984 257.112 476.696L256.744 475.608C256.6 475.768 256.296 475.912 255.96 475.912C255.464 475.912 255.208 475.512 255.208 474.968V470.536H256.776V469.272H255.208V467.16H253.768V469.272H252.488V470.536H253.768V475.288C253.768 476.504 254.392 477.192 255.608 477.192ZM257.699 475.992C258.483 476.792 259.619 477.192 260.915 477.192C262.947 477.192 264.035 476.152 264.035 474.824C264.035 473.048 262.435 472.68 261.091 472.376C260.131 472.152 259.299 471.928 259.299 471.256C259.299 470.632 259.907 470.248 260.883 470.248C261.859 470.248 262.723 470.648 263.171 471.192L263.811 470.184C263.155 469.56 262.195 469.08 260.867 469.08C258.979 469.08 257.923 470.136 257.923 471.368C257.923 473.032 259.459 473.384 260.771 473.688C261.763 473.912 262.643 474.168 262.643 474.936C262.643 475.592 262.067 476.04 260.979 476.04C259.939 476.04 258.915 475.512 258.387 474.936L257.699 475.992ZM265.975 470.072C266.791 469.512 267.383 468.552 267.383 467.496C267.383 466.648 266.855 466.168 266.263 466.168C265.719 466.168 265.287 466.616 265.287 467.16C265.287 467.688 265.655 468.072 266.151 468.072C266.231 468.072 266.359 468.04 266.391 468.024C266.311 468.552 265.815 469.208 265.303 469.528L265.975 470.072ZM268.743 470.072C269.543 469.512 270.135 468.552 270.135 467.496C270.135 466.648 269.607 466.168 269.015 466.168C268.487 466.168 268.039 466.616 268.039 467.16C268.039 467.688 268.423 468.072 268.919 468.072C268.999 468.072 269.127 468.04 269.159 468.024C269.063 468.552 268.583 469.208 268.071 469.528L268.743 470.072Z" fill="#29A674"/>
<path d="M120.216 506V496.512H123.608V495.328H115.512V496.512H118.888V506H120.216ZM132.007 506V500.544C132.007 498.864 131.159 498.08 129.543 498.08C128.375 498.08 127.319 498.736 126.791 499.392V495.328H125.591V506H126.791V500.352C127.239 499.728 128.135 499.152 129.063 499.152C130.119 499.152 130.807 499.536 130.807 500.912V506H132.007ZM135.261 497.168C135.709 497.168 136.061 496.816 136.061 496.368C136.061 495.92 135.709 495.552 135.261 495.552C134.813 495.552 134.445 495.92 134.445 496.368C134.445 496.816 134.813 497.168 135.261 497.168ZM135.853 506V498.272H134.653V506H135.853ZM140.961 506.192C142.945 506.192 143.985 505.152 143.985 503.856C143.985 500.848 139.201 501.952 139.201 500.272C139.201 499.584 139.857 499.056 140.913 499.056C141.921 499.056 142.753 499.472 143.217 500.032L143.777 499.2C143.169 498.576 142.241 498.08 140.913 498.08C139.073 498.08 138.049 499.088 138.049 500.304C138.049 503.168 142.833 502.016 142.833 503.888C142.833 504.656 142.177 505.216 140.993 505.216C139.937 505.216 138.961 504.704 138.449 504.112L137.841 504.976C138.625 505.792 139.681 506.192 140.961 506.192ZM156.607 506V500.688C156.607 498.816 155.263 498.08 153.615 498.08C152.351 498.08 151.359 498.496 150.527 499.36L151.087 500.192C151.775 499.44 152.527 499.12 153.455 499.12C154.575 499.12 155.407 499.712 155.407 500.736V502.128C154.783 501.424 153.903 501.088 152.847 501.088C151.535 501.088 150.159 501.888 150.159 503.632C150.159 505.312 151.551 506.192 152.847 506.192C153.887 506.192 154.783 505.824 155.407 505.12V506H156.607ZM153.295 505.328C152.159 505.328 151.375 504.624 151.375 503.632C151.375 502.656 152.159 501.952 153.295 501.952C154.127 501.952 154.943 502.272 155.407 502.896V504.368C154.943 505.008 154.127 505.328 153.295 505.328ZM166.078 506V495.328H164.878V499.44C164.254 498.592 163.31 498.08 162.27 498.08C160.254 498.08 158.83 499.664 158.83 502.144C158.83 504.656 160.254 506.192 162.27 506.192C163.358 506.192 164.302 505.632 164.878 504.848V506H166.078ZM162.574 505.12C161.006 505.12 160.078 503.856 160.078 502.144C160.078 500.432 161.006 499.152 162.574 499.152C163.518 499.152 164.462 499.728 164.878 500.4V503.888C164.462 504.56 163.518 505.12 162.574 505.12ZM176.226 509.136C178.114 509.136 179.922 508.336 179.922 505.888V498.272H178.722V499.44C178.098 498.592 177.154 498.08 176.114 498.08C174.082 498.08 172.674 499.616 172.674 502.096C172.674 504.592 174.098 506.096 176.114 506.096C177.202 506.096 178.146 505.504 178.722 504.72V505.888C178.722 507.52 177.506 508.144 176.226 508.144C175.122 508.144 174.354 507.856 173.714 507.104L173.106 507.968C174.034 508.88 174.93 509.136 176.226 509.136ZM176.418 505.024C174.85 505.024 173.922 503.792 173.922 502.096C173.922 500.384 174.85 499.152 176.418 499.152C177.362 499.152 178.29 499.728 178.722 500.384V503.776C178.29 504.448 177.362 505.024 176.418 505.024ZM186.079 506.192C187.327 506.192 188.367 505.76 189.151 504.992L188.575 504.208C187.951 504.848 187.071 505.2 186.175 505.2C184.511 505.2 183.503 503.984 183.407 502.528H189.647V502.224C189.647 499.904 188.271 498.08 185.935 498.08C183.727 498.08 182.127 499.888 182.127 502.128C182.127 504.544 183.775 506.192 186.079 506.192ZM188.463 501.632H183.391C183.455 500.464 184.271 499.072 185.919 499.072C187.679 499.072 188.447 500.496 188.463 501.632ZM193.809 506.192C194.497 506.192 194.929 505.984 195.233 505.696L194.881 504.784C194.721 504.96 194.417 505.12 194.065 505.12C193.553 505.12 193.297 504.704 193.297 504.128V499.328H194.865V498.272H193.297V496.16H192.081V498.272H190.801V499.328H192.081V504.384C192.081 505.536 192.657 506.192 193.809 506.192ZM199.258 506.192C201.242 506.192 202.282 505.152 202.282 503.856C202.282 500.848 197.498 501.952 197.498 500.272C197.498 499.584 198.154 499.056 199.21 499.056C200.218 499.056 201.05 499.472 201.514 500.032L202.074 499.2C201.466 498.576 200.538 498.08 199.21 498.08C197.37 498.08 196.346 499.088 196.346 500.304C196.346 503.168 201.13 502.016 201.13 503.888C201.13 504.656 200.474 505.216 199.29 505.216C198.234 505.216 197.258 504.704 196.746 504.112L196.138 504.976C196.922 505.792 197.978 506.192 199.258 506.192ZM210.072 506V500.528C210.424 499.904 211.432 499.296 212.184 499.296C212.36 499.296 212.504 499.312 212.648 499.328V498.096C211.592 498.096 210.696 498.704 210.072 499.504V498.272H208.872V506H210.072ZM217.907 506.192C219.155 506.192 220.195 505.76 220.979 504.992L220.403 504.208C219.779 504.848 218.899 505.2 218.003 505.2C216.339 505.2 215.331 503.984 215.235 502.528H221.475V502.224C221.475 499.904 220.099 498.08 217.763 498.08C215.555 498.08 213.955 499.888 213.955 502.128C213.955 504.544 215.603 506.192 217.907 506.192ZM220.291 501.632H215.219C215.283 500.464 216.099 499.072 217.747 499.072C219.507 499.072 220.275 500.496 220.291 501.632ZM224.277 497.168C224.725 497.168 225.077 496.816 225.077 496.368C225.077 495.92 224.725 495.552 224.277 495.552C223.829 495.552 223.461 495.92 223.461 496.368C223.461 496.816 223.829 497.168 224.277 497.168ZM222.581 509.136C224.069 509.136 224.869 508.272 224.869 506.752V498.272H223.669V506.752C223.669 507.728 223.141 508.144 222.421 508.144C221.941 508.144 221.589 507.936 221.317 507.664L220.901 508.56C221.381 508.944 221.797 509.136 222.581 509.136ZM231.016 506.192C232.265 506.192 233.305 505.76 234.089 504.992L233.513 504.208C232.889 504.848 232.009 505.2 231.113 505.2C229.449 505.2 228.441 503.984 228.345 502.528H234.585V502.224C234.585 499.904 233.209 498.08 230.873 498.08C228.664 498.08 227.065 499.888 227.065 502.128C227.065 504.544 228.713 506.192 231.016 506.192ZM233.401 501.632H228.329C228.393 500.464 229.209 499.072 230.857 499.072C232.617 499.072 233.385 500.496 233.401 501.632ZM240.186 506.192C241.594 506.192 242.426 505.616 243.018 504.848L242.218 504.112C241.706 504.8 241.05 505.12 240.25 505.12C238.618 505.12 237.578 503.84 237.578 502.128C237.578 500.416 238.618 499.152 240.25 499.152C241.05 499.152 241.706 499.44 242.218 500.144L243.018 499.424C242.426 498.656 241.594 498.08 240.186 498.08C237.882 498.08 236.33 499.84 236.33 502.128C236.33 504.416 237.882 506.192 240.186 506.192ZM246.934 506.192C247.622 506.192 248.054 505.984 248.358 505.696L248.006 504.784C247.846 504.96 247.542 505.12 247.19 505.12C246.678 505.12 246.422 504.704 246.422 504.128V499.328H247.99V498.272H246.422V496.16H245.206V498.272H243.926V499.328H245.206V504.384C245.206 505.536 245.782 506.192 246.934 506.192ZM253.423 506.192C254.671 506.192 255.711 505.76 256.495 504.992L255.919 504.208C255.295 504.848 254.415 505.2 253.519 505.2C251.855 505.2 250.847 503.984 250.751 502.528H256.991V502.224C256.991 499.904 255.615 498.08 253.279 498.08C251.071 498.08 249.471 499.888 249.471 502.128C249.471 504.544 251.119 506.192 253.423 506.192ZM255.807 501.632H250.735C250.799 500.464 251.615 499.072 253.263 499.072C255.023 499.072 255.791 500.496 255.807 501.632ZM265.984 506V495.328H264.784V499.44C264.16 498.592 263.216 498.08 262.176 498.08C260.16 498.08 258.736 499.664 258.736 502.144C258.736 504.656 260.16 506.192 262.176 506.192C263.264 506.192 264.208 505.632 264.784 504.848V506H265.984ZM262.48 505.12C260.912 505.12 259.984 503.856 259.984 502.144C259.984 500.432 260.912 499.152 262.48 499.152C263.424 499.152 264.368 499.728 264.784 500.4V503.888C264.368 504.56 263.424 505.12 262.48 505.12ZM274.228 503.904V500.4C274.644 499.728 275.588 499.152 276.548 499.152C278.1 499.152 279.028 500.432 279.028 502.144C279.028 503.856 278.1 505.12 276.548 505.12C275.588 505.12 274.644 504.576 274.228 503.904ZM274.228 506V504.848C274.804 505.632 275.748 506.192 276.836 506.192C278.852 506.192 280.276 504.656 280.276 502.144C280.276 499.664 278.868 498.08 276.836 498.08C275.796 498.08 274.852 498.592 274.228 499.44V495.328H273.028V506H274.228ZM282.065 509.024C282.273 509.088 282.673 509.136 282.929 509.136C283.953 509.12 284.737 508.688 285.201 507.568L289.073 498.272H287.777L285.201 504.608L282.641 498.272H281.329L284.561 506.08L284.049 507.248C283.777 507.888 283.425 508.064 282.897 508.064C282.705 508.064 282.417 508.016 282.241 507.936L282.065 509.024ZM300.07 506.208C301.814 506.208 303.27 505.472 304.262 504.352V500.512H299.27V501.696H302.95V503.856C302.406 504.4 301.35 505.008 300.07 505.008C297.734 505.008 295.958 503.2 295.958 500.672C295.958 498.112 297.734 496.336 300.07 496.336C301.35 496.336 302.486 496.944 303.158 497.808L304.214 497.136C303.286 495.984 301.974 495.152 300.07 495.152C297.03 495.152 294.582 497.344 294.582 500.672C294.582 503.984 297.03 506.208 300.07 506.208ZM309.998 506.192C312.35 506.192 313.822 504.368 313.822 502.128C313.822 499.888 312.35 498.08 309.998 498.08C307.646 498.08 306.174 499.888 306.174 502.128C306.174 504.368 307.646 506.192 309.998 506.192ZM309.998 505.12C308.35 505.12 307.438 503.712 307.438 502.128C307.438 500.56 308.35 499.152 309.998 499.152C311.646 499.152 312.558 500.56 312.558 502.128C312.558 503.712 311.646 505.12 309.998 505.12ZM319.404 506.192C321.756 506.192 323.228 504.368 323.228 502.128C323.228 499.888 321.756 498.08 319.404 498.08C317.052 498.08 315.58 499.888 315.58 502.128C315.58 504.368 317.052 506.192 319.404 506.192ZM319.404 505.12C317.756 505.12 316.844 503.712 316.844 502.128C316.844 500.56 317.756 499.152 319.404 499.152C321.052 499.152 321.964 500.56 321.964 502.128C321.964 503.712 321.052 505.12 319.404 505.12ZM328.538 509.136C330.426 509.136 332.234 508.336 332.234 505.888V498.272H331.034V499.44C330.41 498.592 329.466 498.08 328.426 498.08C326.394 498.08 324.986 499.616 324.986 502.096C324.986 504.592 326.41 506.096 328.426 506.096C329.514 506.096 330.458 505.504 331.034 504.72V505.888C331.034 507.52 329.818 508.144 328.538 508.144C327.434 508.144 326.666 507.856 326.026 507.104L325.418 507.968C326.346 508.88 327.242 509.136 328.538 509.136ZM328.73 505.024C327.162 505.024 326.234 503.792 326.234 502.096C326.234 500.384 327.162 499.152 328.73 499.152C329.674 499.152 330.602 499.728 331.034 500.384V503.776C330.602 504.448 329.674 505.024 328.73 505.024ZM336.088 506V495.328H334.888V506H336.088ZM342.235 506.192C343.483 506.192 344.523 505.76 345.307 504.992L344.731 504.208C344.107 504.848 343.227 505.2 342.331 505.2C340.667 505.2 339.659 503.984 339.563 502.528H345.803V502.224C345.803 499.904 344.427 498.08 342.091 498.08C339.883 498.08 338.283 499.888 338.283 502.128C338.283 504.544 339.931 506.192 342.235 506.192ZM344.619 501.632H339.547C339.611 500.464 340.427 499.072 342.075 499.072C343.835 499.072 344.603 500.496 344.619 501.632ZM117.4 528.904V525.4C117.816 524.728 118.76 524.152 119.72 524.152C121.272 524.152 122.2 525.432 122.2 527.144C122.2 528.856 121.272 530.12 119.72 530.12C118.76 530.12 117.816 529.576 117.4 528.904ZM117.4 531V529.848C117.976 530.632 118.92 531.192 120.008 531.192C122.024 531.192 123.448 529.656 123.448 527.144C123.448 524.664 122.04 523.08 120.008 523.08C118.968 523.08 118.024 523.592 117.4 524.44V520.328H116.2V531H117.4ZM129.157 531.192C130.405 531.192 131.445 530.76 132.229 529.992L131.653 529.208C131.029 529.848 130.149 530.2 129.253 530.2C127.589 530.2 126.581 528.984 126.485 527.528H132.725V527.224C132.725 524.904 131.349 523.08 129.013 523.08C126.805 523.08 125.205 524.888 125.205 527.128C125.205 529.544 126.853 531.192 129.157 531.192ZM131.541 526.632H126.469C126.533 525.464 127.349 524.072 128.997 524.072C130.757 524.072 131.525 525.496 131.541 526.632ZM138.327 531.192C139.735 531.192 140.567 530.616 141.159 529.848L140.359 529.112C139.847 529.8 139.191 530.12 138.391 530.12C136.759 530.12 135.719 528.84 135.719 527.128C135.719 525.416 136.759 524.152 138.391 524.152C139.191 524.152 139.847 524.44 140.359 525.144L141.159 524.424C140.567 523.656 139.735 523.08 138.327 523.08C136.023 523.08 134.471 524.84 134.471 527.128C134.471 529.416 136.023 531.192 138.327 531.192ZM149.138 531V525.688C149.138 523.816 147.794 523.08 146.146 523.08C144.882 523.08 143.89 523.496 143.058 524.36L143.618 525.192C144.306 524.44 145.058 524.12 145.986 524.12C147.106 524.12 147.938 524.712 147.938 525.736V527.128C147.314 526.424 146.434 526.088 145.378 526.088C144.066 526.088 142.69 526.888 142.69 528.632C142.69 530.312 144.082 531.192 145.378 531.192C146.418 531.192 147.314 530.824 147.938 530.12V531H149.138ZM145.826 530.328C144.69 530.328 143.906 529.624 143.906 528.632C143.906 527.656 144.69 526.952 145.826 526.952C146.658 526.952 147.474 527.272 147.938 527.896V529.368C147.474 530.008 146.658 530.328 145.826 530.328ZM158.225 531V523.272H157.025V528.952C156.577 529.576 155.681 530.12 154.753 530.12C153.697 530.12 153.009 529.72 153.009 528.36V523.272H151.809V528.728C151.809 530.392 152.657 531.192 154.273 531.192C155.425 531.192 156.433 530.584 157.025 529.912V531H158.225ZM163.336 531.192C165.32 531.192 166.36 530.152 166.36 528.856C166.36 525.848 161.576 526.952 161.576 525.272C161.576 524.584 162.232 524.056 163.288 524.056C164.296 524.056 165.128 524.472 165.592 525.032L166.152 524.2C165.544 523.576 164.616 523.08 163.288 523.08C161.448 523.08 160.424 524.088 160.424 525.304C160.424 528.168 165.208 527.016 165.208 528.888C165.208 529.656 164.552 530.216 163.368 530.216C162.312 530.216 161.336 529.704 160.824 529.112L160.216 529.976C161 530.792 162.056 531.192 163.336 531.192ZM172.063 531.192C173.311 531.192 174.351 530.76 175.135 529.992L174.559 529.208C173.935 529.848 173.055 530.2 172.159 530.2C170.495 530.2 169.487 528.984 169.391 527.528H175.631V527.224C175.631 524.904 174.255 523.08 171.919 523.08C169.711 523.08 168.111 524.888 168.111 527.128C168.111 529.544 169.759 531.192 172.063 531.192ZM174.447 526.632H169.375C169.439 525.464 170.255 524.072 171.903 524.072C173.663 524.072 174.431 525.496 174.447 526.632ZM184.184 531.192C184.872 531.192 185.304 530.984 185.608 530.696L185.256 529.784C185.096 529.96 184.792 530.12 184.44 530.12C183.928 530.12 183.672 529.704 183.672 529.128V524.328H185.24V523.272H183.672V521.16H182.456V523.272H181.176V524.328H182.456V529.384C182.456 530.536 183.032 531.192 184.184 531.192ZM193.601 531V525.544C193.601 523.864 192.753 523.08 191.137 523.08C189.969 523.08 188.913 523.736 188.385 524.392V520.328H187.185V531H188.385V525.352C188.833 524.728 189.729 524.152 190.657 524.152C191.713 524.152 192.401 524.536 192.401 525.912V531H193.601ZM199.751 531.192C200.999 531.192 202.039 530.76 202.823 529.992L202.247 529.208C201.623 529.848 200.743 530.2 199.847 530.2C198.183 530.2 197.175 528.984 197.079 527.528H203.319V527.224C203.319 524.904 201.943 523.08 199.607 523.08C197.399 523.08 195.799 524.888 195.799 527.128C195.799 529.544 197.447 531.192 199.751 531.192ZM202.135 526.632H197.063C197.127 525.464 197.943 524.072 199.591 524.072C201.351 524.072 202.119 525.496 202.135 526.632ZM213.311 531.192C214.719 531.192 215.551 530.616 216.143 529.848L215.343 529.112C214.831 529.8 214.175 530.12 213.375 530.12C211.743 530.12 210.703 528.84 210.703 527.128C210.703 525.416 211.743 524.152 213.375 524.152C214.175 524.152 214.831 524.44 215.343 525.144L216.143 524.424C215.551 523.656 214.719 523.08 213.311 523.08C211.007 523.08 209.455 524.84 209.455 527.128C209.455 529.416 211.007 531.192 213.311 531.192ZM218.699 522.168C219.147 522.168 219.499 521.816 219.499 521.368C219.499 520.92 219.147 520.552 218.699 520.552C218.251 520.552 217.883 520.92 217.883 521.368C217.883 521.816 218.251 522.168 218.699 522.168ZM219.291 531V523.272H218.091V531H219.291ZM223.902 531.192C224.59 531.192 225.022 530.984 225.326 530.696L224.974 529.784C224.814 529.96 224.51 530.12 224.158 530.12C223.646 530.12 223.39 529.704 223.39 529.128V524.328H224.958V523.272H223.39V521.16H222.174V523.272H220.894V524.328H222.174V529.384C222.174 530.536 222.75 531.192 223.902 531.192ZM226.472 534.024C226.68 534.088 227.08 534.136 227.336 534.136C228.36 534.12 229.144 533.688 229.608 532.568L233.48 523.272H232.184L229.608 529.608L227.048 523.272H225.736L228.968 531.08L228.456 532.248C228.184 532.888 227.832 533.064 227.304 533.064C227.112 533.064 226.824 533.016 226.648 532.936L226.472 534.024ZM245.788 531V525.576C245.788 523.896 244.94 523.08 243.34 523.08C242.172 523.08 241.116 523.736 240.572 524.392V523.272H239.372V531H240.572V525.352C241.036 524.728 241.916 524.152 242.86 524.152C243.9 524.152 244.604 524.568 244.604 525.944V531H245.788ZM254.482 531V525.688C254.482 523.816 253.138 523.08 251.49 523.08C250.226 523.08 249.234 523.496 248.402 524.36L248.962 525.192C249.65 524.44 250.402 524.12 251.33 524.12C252.45 524.12 253.282 524.712 253.282 525.736V527.128C252.658 526.424 251.778 526.088 250.722 526.088C249.41 526.088 248.034 526.888 248.034 528.632C248.034 530.312 249.426 531.192 250.722 531.192C251.762 531.192 252.658 530.824 253.282 530.12V531H254.482ZM251.17 530.328C250.034 530.328 249.25 529.624 249.25 528.632C249.25 527.656 250.034 526.952 251.17 526.952C252.002 526.952 252.818 527.272 253.282 527.896V529.368C252.818 530.008 252.002 530.328 251.17 530.328ZM267.681 531V525.416C267.681 523.864 266.929 523.08 265.521 523.08C264.401 523.08 263.361 523.816 262.929 524.52C262.705 523.72 262.033 523.08 260.865 523.08C259.713 523.08 258.689 523.896 258.353 524.392V523.272H257.153V531H258.353V525.352C258.769 524.728 259.601 524.152 260.385 524.152C261.409 524.152 261.809 524.776 261.809 525.752V531H263.009V525.336C263.409 524.712 264.257 524.152 265.057 524.152C266.065 524.152 266.481 524.776 266.481 525.752V531H267.681ZM273.829 531.192C275.077 531.192 276.117 530.76 276.901 529.992L276.325 529.208C275.701 529.848 274.821 530.2 273.925 530.2C272.261 530.2 271.253 528.984 271.157 527.528H277.397V527.224C277.397 524.904 276.021 523.08 273.685 523.08C271.477 523.08 269.877 524.888 269.877 527.128C269.877 529.544 271.525 531.192 273.829 531.192ZM276.213 526.632H271.141C271.205 525.464 272.021 524.072 273.669 524.072C275.429 524.072 276.197 525.496 276.213 526.632ZM290.413 531V525.544C290.413 523.864 289.565 523.08 287.949 523.08C286.781 523.08 285.725 523.736 285.197 524.392V520.328H283.997V531H285.197V525.352C285.645 524.728 286.541 524.152 287.469 524.152C288.525 524.152 289.213 524.536 289.213 525.912V531H290.413ZM299.091 531V525.688C299.091 523.816 297.747 523.08 296.099 523.08C294.835 523.08 293.843 523.496 293.011 524.36L293.571 525.192C294.259 524.44 295.011 524.12 295.939 524.12C297.059 524.12 297.891 524.712 297.891 525.736V527.128C297.267 526.424 296.387 526.088 295.331 526.088C294.019 526.088 292.643 526.888 292.643 528.632C292.643 530.312 294.035 531.192 295.331 531.192C296.371 531.192 297.267 530.824 297.891 530.12V531H299.091ZM295.779 530.328C294.643 530.328 293.859 529.624 293.859 528.632C293.859 527.656 294.643 526.952 295.779 526.952C296.611 526.952 297.427 527.272 297.891 527.896V529.368C297.427 530.008 296.611 530.328 295.779 530.328ZM304.227 531.192C306.211 531.192 307.251 530.152 307.251 528.856C307.251 525.848 302.467 526.952 302.467 525.272C302.467 524.584 303.123 524.056 304.179 524.056C305.187 524.056 306.019 524.472 306.483 525.032L307.043 524.2C306.435 523.576 305.507 523.08 304.179 523.08C302.339 523.08 301.315 524.088 301.315 525.304C301.315 528.168 306.099 527.016 306.099 528.888C306.099 529.656 305.443 530.216 304.259 530.216C303.203 530.216 302.227 529.704 301.715 529.112L301.107 529.976C301.891 530.792 302.947 531.192 304.227 531.192ZM315.809 531.192C316.497 531.192 316.929 530.984 317.233 530.696L316.881 529.784C316.721 529.96 316.417 530.12 316.065 530.12C315.553 530.12 315.297 529.704 315.297 529.128V524.328H316.865V523.272H315.297V521.16H314.081V523.272H312.801V524.328H314.081V529.384C314.081 530.536 314.657 531.192 315.809 531.192ZM322.17 531.192C324.522 531.192 325.994 529.368 325.994 527.128C325.994 524.888 324.522 523.08 322.17 523.08C319.818 523.08 318.346 524.888 318.346 527.128C318.346 529.368 319.818 531.192 322.17 531.192ZM322.17 530.12C320.522 530.12 319.61 528.712 319.61 527.128C319.61 525.56 320.522 524.152 322.17 524.152C323.818 524.152 324.73 525.56 324.73 527.128C324.73 528.712 323.818 530.12 322.17 530.12ZM331.576 531.192C333.928 531.192 335.4 529.368 335.4 527.128C335.4 524.888 333.928 523.08 331.576 523.08C329.224 523.08 327.752 524.888 327.752 527.128C327.752 529.368 329.224 531.192 331.576 531.192ZM331.576 530.12C329.928 530.12 329.016 528.712 329.016 527.128C329.016 525.56 329.928 524.152 331.576 524.152C333.224 524.152 334.136 525.56 334.136 527.128C334.136 528.712 333.224 530.12 331.576 530.12ZM352.525 531V525.416C352.525 523.864 351.773 523.08 350.365 523.08C349.245 523.08 348.205 523.816 347.773 524.52C347.549 523.72 346.877 523.08 345.709 523.08C344.557 523.08 343.533 523.896 343.197 524.392V523.272H341.997V531H343.197V525.352C343.613 524.728 344.445 524.152 345.229 524.152C346.253 524.152 346.653 524.776 346.653 525.752V531H347.853V525.336C348.253 524.712 349.101 524.152 349.901 524.152C350.909 524.152 351.325 524.776 351.325 525.752V531H352.525ZM361.201 531V525.688C361.201 523.816 359.857 523.08 358.209 523.08C356.945 523.08 355.953 523.496 355.121 524.36L355.681 525.192C356.369 524.44 357.121 524.12 358.049 524.12C359.169 524.12 360.001 524.712 360.001 525.736V527.128C359.377 526.424 358.497 526.088 357.441 526.088C356.129 526.088 354.753 526.888 354.753 528.632C354.753 530.312 356.145 531.192 357.441 531.192C358.481 531.192 359.377 530.824 360.001 530.12V531H361.201ZM357.889 530.328C356.753 530.328 355.969 529.624 355.969 528.632C355.969 527.656 356.753 526.952 357.889 526.952C358.721 526.952 359.537 527.272 360.001 527.896V529.368C359.537 530.008 358.721 530.328 357.889 530.328ZM370.288 531V525.576C370.288 523.896 369.44 523.08 367.84 523.08C366.672 523.08 365.616 523.736 365.072 524.392V523.272H363.872V531H365.072V525.352C365.536 524.728 366.416 524.152 367.36 524.152C368.4 524.152 369.104 524.568 369.104 525.944V531H370.288ZM372.534 534.024C372.742 534.088 373.142 534.136 373.398 534.136C374.422 534.12 375.206 533.688 375.67 532.568L379.542 523.272H378.246L375.67 529.608L373.11 523.272H371.798L375.03 531.08L374.518 532.248C374.246 532.888 373.894 533.064 373.366 533.064C373.174 533.064 372.886 533.016 372.71 532.936L372.534 534.024ZM119.608 556.192C121.016 556.192 121.848 555.616 122.44 554.848L121.64 554.112C121.128 554.8 120.472 555.12 119.672 555.12C118.04 555.12 117 553.84 117 552.128C117 550.416 118.04 549.152 119.672 549.152C120.472 549.152 121.128 549.44 121.64 550.144L122.44 549.424C121.848 548.656 121.016 548.08 119.608 548.08C117.304 548.08 115.752 549.84 115.752 552.128C115.752 554.416 117.304 556.192 119.608 556.192ZM130.82 556V550.544C130.82 548.864 129.972 548.08 128.356 548.08C127.188 548.08 126.132 548.736 125.604 549.392V545.328H124.404V556H125.604V550.352C126.052 549.728 126.948 549.152 127.876 549.152C128.932 549.152 129.62 549.536 129.62 550.912V556H130.82ZM139.498 556V550.688C139.498 548.816 138.154 548.08 136.506 548.08C135.242 548.08 134.25 548.496 133.418 549.36L133.978 550.192C134.666 549.44 135.418 549.12 136.346 549.12C137.466 549.12 138.298 549.712 138.298 550.736V552.128C137.674 551.424 136.794 551.088 135.738 551.088C134.426 551.088 133.05 551.888 133.05 553.632C133.05 555.312 134.442 556.192 135.738 556.192C136.778 556.192 137.674 555.824 138.298 555.12V556H139.498ZM136.186 555.328C135.05 555.328 134.266 554.624 134.266 553.632C134.266 552.656 135.05 551.952 136.186 551.952C137.018 551.952 137.834 552.272 138.298 552.896V554.368C137.834 555.008 137.018 555.328 136.186 555.328ZM143.369 556V550.528C143.721 549.904 144.729 549.296 145.481 549.296C145.657 549.296 145.801 549.312 145.945 549.328V548.096C144.889 548.096 143.993 548.704 143.369 549.504V548.272H142.169V556H143.369ZM153.732 556V550.688C153.732 548.816 152.388 548.08 150.74 548.08C149.476 548.08 148.484 548.496 147.652 549.36L148.212 550.192C148.9 549.44 149.652 549.12 150.58 549.12C151.7 549.12 152.532 549.712 152.532 550.736V552.128C151.908 551.424 151.028 551.088 149.972 551.088C148.66 551.088 147.284 551.888 147.284 553.632C147.284 555.312 148.676 556.192 149.972 556.192C151.012 556.192 151.908 555.824 152.532 555.12V556H153.732ZM150.42 555.328C149.284 555.328 148.5 554.624 148.5 553.632C148.5 552.656 149.284 551.952 150.42 551.952C151.252 551.952 152.068 552.272 152.532 552.896V554.368C152.068 555.008 151.252 555.328 150.42 555.328ZM159.811 556.192C161.219 556.192 162.051 555.616 162.643 554.848L161.843 554.112C161.331 554.8 160.675 555.12 159.875 555.12C158.243 555.12 157.203 553.84 157.203 552.128C157.203 550.416 158.243 549.152 159.875 549.152C160.675 549.152 161.331 549.44 161.843 550.144L162.643 549.424C162.051 548.656 161.219 548.08 159.811 548.08C157.507 548.08 155.955 549.84 155.955 552.128C155.955 554.416 157.507 556.192 159.811 556.192ZM166.559 556.192C167.247 556.192 167.679 555.984 167.983 555.696L167.631 554.784C167.471 554.96 167.167 555.12 166.815 555.12C166.303 555.12 166.047 554.704 166.047 554.128V549.328H167.615V548.272H166.047V546.16H164.831V548.272H163.551V549.328H164.831V554.384C164.831 555.536 165.407 556.192 166.559 556.192ZM173.048 556.192C174.296 556.192 175.336 555.76 176.12 554.992L175.544 554.208C174.92 554.848 174.04 555.2 173.144 555.2C171.48 555.2 170.472 553.984 170.376 552.528H176.616V552.224C176.616 549.904 175.24 548.08 172.904 548.08C170.696 548.08 169.096 549.888 169.096 552.128C169.096 554.544 170.744 556.192 173.048 556.192ZM175.432 551.632H170.36C170.424 550.464 171.24 549.072 172.888 549.072C174.648 549.072 175.416 550.496 175.432 551.632ZM180.009 556V550.528C180.361 549.904 181.369 549.296 182.121 549.296C182.297 549.296 182.441 549.312 182.585 549.328V548.096C181.529 548.096 180.633 548.704 180.009 549.504V548.272H178.809V556H180.009ZM186.805 556.192C188.789 556.192 189.829 555.152 189.829 553.856C189.829 550.848 185.045 551.952 185.045 550.272C185.045 549.584 185.701 549.056 186.757 549.056C187.765 549.056 188.597 549.472 189.061 550.032L189.621 549.2C189.013 548.576 188.085 548.08 186.757 548.08C184.917 548.08 183.893 549.088 183.893 550.304C183.893 553.168 188.677 552.016 188.677 553.888C188.677 554.656 188.021 555.216 186.837 555.216C185.781 555.216 184.805 554.704 184.293 554.112L183.685 554.976C184.469 555.792 185.525 556.192 186.805 556.192ZM192.668 556.16C193.148 556.16 193.548 555.76 193.548 555.28C193.548 554.8 193.148 554.4 192.668 554.4C192.188 554.4 191.788 554.8 191.788 555.28C191.788 555.76 192.188 556.16 192.668 556.16Z" fill="#454954"/>
</g>
<defs>
<filter id="filter0_d" x="0" y="0" width="571" height="707" filterUnits="userSpaceOnUse" color-interpolation-filters="sRGB">
<feFlood flood-opacity="0" result="BackgroundImageFix"/>
<feColorMatrix in="SourceAlpha" type="matrix" values="0 0 0 0 0 0 0 0 0 0 0 0 0 0 0 0 0 0 127 0"/>
<feOffset dx="15" dy="24"/>
<feGaussianBlur stdDeviation="45"/>
<feColorMatrix type="matrix" values="0 0 0 0 0.270588 0 0 0 0 0.286275 0 0 0 0 0.329412 0 0 0 0.15 0"/>
<feBlend mode="normal" in2="BackgroundImageFix" result="effect1_dropShadow"/>
<feBlend mode="normal" in="SourceGraphic" in2="effect1_dropShadow" result="shape"/>
</filter>
<filter id="filter1_d" x="75" y="63" width="391" height="530" filterUnits="userSpaceOnUse" color-interpolation-filters="sRGB">
<feFlood flood-opacity="0" result="BackgroundImageFix"/>
<feColorMatrix in="SourceAlpha" type="matrix" values="0 0 0 0 0 0 0 0 0 0 0 0 0 0 0 0 0 0 127 0"/>
<feOffset dy="-3"/>
<feColorMatrix type="matrix" values="0 0 0 0 0.329412 0 0 0 0 0.360784 0 0 0 0 0.72549 0 0 0 1 0"/>
<feBlend mode="normal" in2="BackgroundImageFix" result="effect1_dropShadow"/>
<feBlend mode="normal" in="SourceGraphic" in2="effect1_dropShadow" result="shape"/>
</filter>
<filter id="filter2_d" x="111" y="167" width="331" height="219" filterUnits="userSpaceOnUse" color-interpolation-filters="sRGB">
<feFlood flood-opacity="0" result="BackgroundImageFix"/>
<feColorMatrix in="SourceAlpha" type="matrix" values="0 0 0 0 0 0 0 0 0 0 0 0 0 0 0 0 0 0 127 0"/>
<feOffset/>
<feGaussianBlur stdDeviation="2"/>
<feColorMatrix type="matrix" values="0 0 0 0 0.270588 0 0 0 0 0.286275 0 0 0 0 0.329412 0 0 0 0.25 0"/>
<feBlend mode="normal" in2="BackgroundImageFix" result="effect1_dropShadow"/>
<feBlend mode="normal" in="SourceGraphic" in2="effect1_dropShadow" result="shape"/>
</filter>
</defs>
</svg>
