<svg width="21" height="21" viewBox="0 0 21 21" fill="none" xmlns="http://www.w3.org/2000/svg">
<path d="M8.86961 11.7016L10.422 13.1249C10.4704 13.1686 10.5207 13.2143 10.5724 13.262C10.7718 14.3629 11.7374 15.2002 12.8947 15.2002C14.1957 15.2002 15.2547 14.1416 15.2547 12.8402C15.2547 11.6409 14.3554 10.6483 13.1964 10.4999C13.1741 10.4749 13.1521 10.4509 13.1308 10.4269L12.5143 9.73503L12.4999 9.7397C12.2282 9.44329 11.9158 9.10253 11.674 8.83879C12.0601 8.72109 12.4702 8.65741 12.8944 8.65741C15.201 8.65741 17.0771 10.5336 17.0771 12.8402C17.0771 15.1468 15.201 17.023 12.8944 17.023C10.5877 17.023 8.71157 15.1468 8.71157 12.8402C8.7119 12.4454 8.76692 12.0637 8.86961 11.7016Z" fill="#7877ED"/>
<path d="M5.81225 8.90074C6.27938 9.32585 6.74517 9.75263 7.20529 10.1751C6.82452 10.9846 6.6118 11.8882 6.6118 12.8401C6.6118 16.3044 9.43022 19.1228 12.8945 19.1228C16.3588 19.1228 19.1772 16.3041 19.1772 12.8401C19.1772 9.3762 16.3588 6.55744 12.8945 6.55744C11.9136 6.55744 10.9843 6.7835 10.1564 7.18594C9.73564 6.72682 9.30986 6.26236 8.88641 5.7969C10.0691 5.12106 11.4374 4.73462 12.8945 4.73462C17.3637 4.73462 21 8.37093 21 12.8401C21 17.3093 17.3637 20.9456 12.8945 20.9456C8.42529 20.9456 4.78898 17.3093 4.78898 12.8401C4.78864 11.4111 5.16041 10.0674 5.81225 8.90074Z" fill="#7877ED"/>
<path d="M0.0453548 3.83953C0.0810308 3.74584 0.131377 3.66615 0.195061 3.60246C0.366107 3.43142 0.591167 3.40774 0.808559 3.40774C1.12364 3.40774 1.43839 3.40574 1.75348 3.40341C2.24028 3.40008 2.74374 3.39674 3.23954 3.40174C3.27289 3.40208 3.29456 3.40008 3.30756 3.39808L3.33424 3.33439L3.39792 3.30772C3.39992 3.29438 3.40192 3.27304 3.40159 3.2397C3.39659 2.7439 3.40026 2.24043 3.40326 1.7533C3.40526 1.43855 3.40759 1.12346 3.40759 0.808379C3.40759 0.590987 3.43126 0.365927 3.60231 0.194881C3.66599 0.131197 3.74568 0.0808501 3.83971 0.0451738C4.24348 -0.107534 4.51289 0.165206 4.64259 0.296241C4.86265 0.519968 5.08404 0.742361 5.3051 0.965421C5.81057 1.47422 6.33304 2.00037 6.83651 2.53084C7.00022 2.70422 7.11525 2.98797 7.12259 3.23703C7.13392 3.62214 7.13092 4.01157 7.12792 4.38867C7.12526 4.73177 7.12225 5.0862 7.13059 5.43296C7.13326 5.54565 7.19061 5.69236 7.26429 5.77405C8.12452 6.72797 9.00843 7.69023 9.86332 8.62048L10.5672 9.38735C10.9456 9.80046 11.8385 10.7744 12.1393 11.1015L12.1419 11.1005L12.245 11.2162C12.3123 11.2915 12.3857 11.3722 12.4634 11.4576C12.7034 11.721 12.9758 12.0194 13.2289 12.3435C13.4113 12.5775 13.3133 12.925 13.1129 13.1254C13.1055 13.1327 13.0982 13.1397 13.0909 13.1464C12.9005 13.3187 12.5854 13.4178 12.3433 13.2287C12.0126 12.97 11.7085 12.6922 11.4404 12.4468C11.3617 12.3748 11.2867 12.3061 11.2144 12.2415L8.62032 9.86315C7.68974 9.00825 6.72748 8.12434 5.77389 7.26411C5.6922 7.19043 5.5455 7.13308 5.43247 7.13041C5.08604 7.12208 4.73128 7.12508 4.38819 7.12774C4.01142 7.13074 3.62165 7.13375 3.23654 7.12241C2.98748 7.11507 2.70374 7.00004 2.53002 6.836C1.99988 6.33286 1.47374 5.81039 0.964935 5.30492C0.742208 5.08386 0.519482 4.86247 0.295755 4.64208C0.165053 4.51304 -0.107353 4.24397 0.0453548 3.83953Z" fill="#7877ED"/>
</svg>
