<svg width="16" height="20" viewBox="0 0 16 20" fill="none" xmlns="http://www.w3.org/2000/svg">
<path d="M4.9402 7.73217L4.9341 5.33232C4.9341 4.51447 5.2527 3.74424 5.8325 3.16443C6.41109 2.58584 7.18133 2.26603 8.00039 2.26603C8.81945 2.26603 9.58973 2.58588 10.1682 3.16443C10.7469 3.74424 11.066 4.51451 11.066 5.33232V7.73217H13.3327V5.33232C13.3328 2.3881 10.9452 0.000488281 8.00035 0.000488281C5.05492 0.000488281 2.66797 2.3881 2.66797 5.33232V7.73217H4.9402Z" fill="#1A948C"/>
<path d="M0.334961 9.26538V19.9998H15.665V9.26538H0.334961ZM8.76652 15.2564V17.2644H7.23344V15.2564C6.71406 14.9805 6.35945 14.4349 6.35945 13.8051C6.35945 12.9006 7.0943 12.1657 8 12.1657C8.9057 12.1657 9.63992 12.9005 9.63992 13.8051C9.63992 14.4348 9.28531 14.9805 8.76652 15.2564Z" fill="#1A948C"/>
</svg>
