<svg width="1412" height="846" viewBox="0 0 1412 846" fill="none" xmlns="http://www.w3.org/2000/svg">
<path d="M1285 377.167L1341.1 433.263C1345 437.169 1351.33 437.169 1355.24 433.263L1411.33 377.167L1348.17 314L1285 377.167Z" fill="#F9F9FF"/>
<path d="M858.99 5.18901L853.812 0.0107422L848.633 5.18901L853.812 10.3673L858.99 5.18901Z" fill="#F9F9FF"/>
<path d="M858.995 31.6592L853.817 26.481L848.638 31.6592L853.817 36.8375L858.995 31.6592Z" fill="#F9F9FF"/>
<path d="M858.999 58.1314L853.821 52.9531L848.643 58.1314L853.821 63.3097L858.999 58.1314Z" fill="#F9F9FF"/>
<path d="M859.004 84.6011L853.826 79.4229L848.647 84.6011L853.826 89.7794L859.004 84.6011Z" fill="#F9F9FF"/>
<path d="M859.009 111.073L853.831 105.895L848.652 111.073L853.831 116.252L859.009 111.073Z" fill="#F9F9FF"/>
<path d="M859.013 137.543L853.835 132.365L848.657 137.543L853.835 142.721L859.013 137.543Z" fill="#F9F9FF"/>
<path d="M858.985 163.981L853.807 158.803L848.629 163.981L853.807 169.16L858.985 163.981Z" fill="#F9F9FF"/>
<path d="M833.604 5.17827L828.426 0L823.248 5.17827L828.426 10.3565L833.604 5.17827Z" fill="#F9F9FF"/>
<path d="M833.609 31.6504L828.431 26.4722L823.253 31.6504L828.431 36.8287L833.609 31.6504Z" fill="#F9F9FF"/>
<path d="M833.614 58.1202L828.436 52.9419L823.257 58.1202L828.436 63.2984L833.614 58.1202Z" fill="#F9F9FF"/>
<path d="M833.618 84.5899L828.44 79.4116L823.262 84.5899L828.44 89.7682L833.618 84.5899Z" fill="#F9F9FF"/>
<path d="M833.624 111.062L828.445 105.884L823.267 111.062L828.445 116.24L833.624 111.062Z" fill="#F9F9FF"/>
<path d="M833.628 137.532L828.45 132.354L823.271 137.532L828.45 142.71L833.628 137.532Z" fill="#F9F9FF"/>
<path d="M833.601 163.97L828.422 158.792L823.244 163.97L828.422 169.149L833.601 163.97Z" fill="#F9F9FF"/>
<path d="M808.187 5.20024L803.009 0.0219727L797.83 5.20024L803.009 10.3785L808.187 5.20024Z" fill="#F9F9FF"/>
<path d="M808.192 31.6705L803.013 26.4922L797.835 31.6705L803.013 36.8487L808.192 31.6705Z" fill="#F9F9FF"/>
<path d="M808.196 58.1426L803.018 52.9644L797.84 58.1426L803.018 63.3209L808.196 58.1426Z" fill="#F9F9FF"/>
<path d="M808.201 84.6119L803.023 79.4336L797.845 84.6119L803.023 89.7901L808.201 84.6119Z" fill="#F9F9FF"/>
<path d="M808.206 111.082L803.027 105.903L797.849 111.082L803.027 116.26L808.206 111.082Z" fill="#F9F9FF"/>
<path d="M808.21 137.554L803.032 132.376L797.854 137.554L803.032 142.733L808.21 137.554Z" fill="#F9F9FF"/>
<path d="M808.183 163.993L803.005 158.815L797.826 163.993L803.005 169.171L808.183 163.993Z" fill="#F9F9FF"/>
<path d="M782.801 5.18901L777.623 0.0107422L772.445 5.18901L777.623 10.3673L782.801 5.18901Z" fill="#F9F9FF"/>
<path d="M782.806 31.6592L777.627 26.481L772.449 31.6592L777.627 36.8375L782.806 31.6592Z" fill="#F9F9FF"/>
<path d="M782.811 58.1314L777.633 52.9531L772.454 58.1314L777.633 63.3097L782.811 58.1314Z" fill="#F9F9FF"/>
<path d="M782.815 84.6011L777.637 79.4229L772.459 84.6011L777.637 89.7794L782.815 84.6011Z" fill="#F9F9FF"/>
<path d="M782.82 111.071L777.642 105.893L772.463 111.071L777.642 116.249L782.82 111.071Z" fill="#F9F9FF"/>
<path d="M782.825 137.543L777.646 132.365L772.468 137.543L777.646 142.721L782.825 137.543Z" fill="#F9F9FF"/>
<path d="M782.797 163.981L777.619 158.803L772.44 163.981L777.619 169.16L782.797 163.981Z" fill="#F9F9FF"/>
<path d="M757.416 5.17827L752.238 0L747.059 5.17827L752.238 10.3565L757.416 5.17827Z" fill="#F9F9FF"/>
<path d="M757.42 31.648L752.242 26.4697L747.064 31.648L752.242 36.8263L757.42 31.648Z" fill="#F9F9FF"/>
<path d="M757.425 58.1202L752.247 52.9419L747.069 58.1202L752.247 63.2984L757.425 58.1202Z" fill="#F9F9FF"/>
<path d="M757.43 84.5899L752.251 79.4116L747.073 84.5899L752.251 89.7682L757.43 84.5899Z" fill="#F9F9FF"/>
<path d="M757.434 111.062L752.256 105.884L747.078 111.062L752.256 116.24L757.434 111.062Z" fill="#F9F9FF"/>
<path d="M757.44 137.532L752.261 132.354L747.083 137.532L752.261 142.71L757.44 137.532Z" fill="#F9F9FF"/>
<path d="M757.411 163.97L752.233 158.792L747.055 163.97L752.233 169.149L757.411 163.97Z" fill="#F9F9FF"/>
<path d="M731.998 5.20024L726.82 0.0219727L721.642 5.20024L726.82 10.3785L731.998 5.20024Z" fill="#F9F9FF"/>
<path d="M732.003 31.67L726.824 26.4917L721.646 31.67L726.824 36.8482L732.003 31.67Z" fill="#F9F9FF"/>
<path d="M732.008 58.1402L726.829 52.9619L721.651 58.1402L726.829 63.3185L732.008 58.1402Z" fill="#F9F9FF"/>
<path d="M732.012 84.6119L726.834 79.4336L721.656 84.6119L726.834 89.7901L732.012 84.6119Z" fill="#F9F9FF"/>
<path d="M732.017 111.082L726.839 105.904L721.661 111.082L726.839 116.26L732.017 111.082Z" fill="#F9F9FF"/>
<path d="M732.022 137.552L726.843 132.374L721.665 137.552L726.843 142.73L732.022 137.552Z" fill="#F9F9FF"/>
<path d="M731.994 163.991L726.816 158.812L721.637 163.991L726.816 169.169L731.994 163.991Z" fill="#F9F9FF"/>
<path d="M706.613 5.18901L701.435 0.0107422L696.256 5.18901L701.435 10.3673L706.613 5.18901Z" fill="#F9F9FF"/>
<path d="M706.618 31.6597L701.439 26.4814L696.261 31.6597L701.439 36.838L706.618 31.6597Z" fill="#F9F9FF"/>
<path d="M706.622 58.129L701.444 52.9507L696.266 58.129L701.444 63.3072L706.622 58.129Z" fill="#F9F9FF"/>
<path d="M706.627 84.6011L701.448 79.4229L696.27 84.6011L701.448 89.7794L706.627 84.6011Z" fill="#F9F9FF"/>
<path d="M706.632 111.071L701.454 105.893L696.275 111.071L701.454 116.25L706.632 111.071Z" fill="#F9F9FF"/>
<path d="M706.636 137.543L701.458 132.365L696.28 137.543L701.458 142.721L706.636 137.543Z" fill="#F9F9FF"/>
<path d="M706.608 163.981L701.43 158.803L696.252 163.981L701.43 169.16L706.608 163.981Z" fill="#F9F9FF"/>
<path d="M1331.93 54.4248L1322.28 44.7759L1312.63 54.4248L1322.28 64.0738L1331.93 54.4248Z" fill="#F9F9FF"/>
<path d="M1331.91 103.738L1322.26 94.0889L1312.61 103.738L1322.26 113.387L1331.91 103.738Z" fill="#F9F9FF"/>
<path d="M1331.93 153.082L1322.28 143.433L1312.63 153.082L1322.28 162.731L1331.93 153.082Z" fill="#F9F9FF"/>
<path d="M1331.91 202.395L1322.26 192.746L1312.61 202.395L1322.26 212.044L1331.91 202.395Z" fill="#F9F9FF"/>
<path d="M1284.58 54.4341L1274.93 44.7852L1265.28 54.4341L1274.93 64.0831L1284.58 54.4341Z" fill="#F9F9FF"/>
<path d="M1284.56 103.747L1274.92 94.0977L1265.27 103.747L1274.92 113.396L1284.56 103.747Z" fill="#F9F9FF"/>
<path d="M1284.58 153.093L1274.93 143.444L1265.28 153.093L1274.93 162.742L1284.58 153.093Z" fill="#F9F9FF"/>
<path d="M1284.56 202.406L1274.91 192.757L1265.26 202.406L1274.91 212.055L1284.56 202.406Z" fill="#F9F9FF"/>
<path d="M187.542 540.369C185.587 538.414 185.59 535.243 187.548 533.292L193.337 527.523C195.291 525.576 198.452 525.579 200.402 527.529L210.576 537.704C212.529 539.656 215.695 539.656 217.647 537.704L227.822 527.529C229.772 525.579 232.933 525.576 234.887 527.523L240.676 533.292C242.634 535.243 242.637 538.414 240.682 540.369L217.647 563.403C215.695 565.356 212.529 565.356 210.576 563.403L187.542 540.369Z" fill="#F9F9FF"/>
<path d="M187.536 643.433C185.583 641.481 185.583 638.315 187.536 636.362L193.337 630.561C195.29 628.608 198.456 628.608 200.408 630.561L210.576 640.729C212.529 642.682 215.695 642.682 217.647 640.729L227.816 630.561C229.768 628.608 232.934 628.608 234.887 630.561L240.688 636.362C242.641 638.315 242.641 641.481 240.688 643.433L217.647 666.474C215.695 668.427 212.529 668.427 210.576 666.474L187.536 643.433Z" fill="#F9F9FF"/>
<path d="M974.283 181.393L987.156 194.265L969.917 211.504L987.156 228.744L974.283 241.616L944.217 211.504L974.283 181.393Z" fill="#F9F9FF"/>
<path d="M939.94 181.393L952.813 194.265L935.573 211.504L952.813 228.744L939.94 241.616L909.828 211.504L939.94 181.393Z" fill="#F9F9FF"/>
<path d="M102.188 766.037L111.837 756.388L102.188 746.739L92.539 756.388L102.188 766.037Z" fill="#F9F9FF"/>
<path d="M102.177 718.69L111.826 709.042L102.177 699.393L92.5283 709.042L102.177 718.69Z" fill="#F9F9FF"/>
<path d="M110.642 662.876L93.7213 662.876L102.182 671.336L110.642 662.876Z" fill="#F9F9FF"/>
<path d="M804.653 648.182L777.764 621.293L784.197 614.86L804.653 635.316L825.109 614.86L831.541 621.293L804.653 648.182Z" fill="#F9F9FF"/>
<path d="M804.653 702.959L777.764 676.07L784.197 669.638L804.653 690.094L825.109 669.638L831.541 676.07L804.653 702.959Z" fill="#F9F9FF"/>
<path d="M804.654 757.736L777.765 730.848L784.198 724.415L804.654 744.871L825.11 724.415L831.542 730.848L804.654 757.736Z" fill="#F9F9FF"/>
<path d="M840.83 396.887L804.775 360.833L768.72 396.887L804.775 432.942L840.83 396.887Z" fill="#F9F9FF"/>
<path d="M385.871 751.809C383.916 749.854 383.919 746.683 385.877 744.732L391.496 739.132C393.45 737.186 396.611 737.188 398.561 739.139L408.508 749.086C410.46 751.038 413.626 751.038 415.579 749.086L425.526 739.139C427.476 737.188 430.637 737.186 432.591 739.132L438.21 744.732C440.168 746.683 440.171 749.854 438.216 751.809L415.579 774.446C413.626 776.399 410.46 776.399 408.508 774.446L385.871 751.809Z" fill="#F9F9FF"/>
<path d="M385.865 813.514C383.912 811.561 383.912 808.396 385.865 806.443L391.496 800.811C393.449 798.859 396.615 798.859 398.567 800.811L408.508 810.752C410.46 812.705 413.626 812.705 415.579 810.752L425.52 800.811C427.472 798.859 430.638 798.859 432.591 800.811L438.222 806.443C440.175 808.396 440.175 811.561 438.222 813.514L415.579 836.157C413.626 838.11 410.46 838.11 408.508 836.157L385.865 813.514Z" fill="#F9F9FF"/>
<path d="M11.4042 536.527L24.1068 523.824L41.1186 540.836L58.1303 523.824L70.833 536.527L41.1186 566.196L11.4042 536.527Z" fill="#F9F9FF"/>
<path d="M11.4042 570.417L24.1068 557.714L41.1186 574.726L58.1303 557.714L70.833 570.417L41.1186 600.132L11.4042 570.417Z" fill="#F9F9FF"/>
<path d="M421.052 574.885L430.573 565.364L421.052 555.842L411.53 565.364L421.052 574.885Z" fill="#F9F9FF"/>
<path d="M421.041 528.164L430.563 518.642L421.041 509.12L411.52 518.642L421.041 528.164Z" fill="#F9F9FF"/>
<path d="M429.395 473.085L412.697 473.085L421.046 481.434L429.395 473.085Z" fill="#F9F9FF"/>
<path d="M598.223 590.778L571.689 564.244L578.037 557.897L598.223 578.083L618.409 557.897L624.757 564.244L598.223 590.778Z" fill="#F9F9FF"/>
<path d="M598.223 624.675L571.689 598.141L578.037 591.793L598.223 611.98L618.409 591.793L624.757 598.141L598.223 624.675Z" fill="#F9F9FF"/>
<path d="M598.223 692.47L571.658 665.904L578.005 659.557L598.223 679.775L618.409 659.588L624.757 665.936L598.223 692.47Z" fill="#F9F9FF"/>
<path d="M-9.40384e-05 307.333L35.5791 342.912L71.1583 307.333L35.5791 271.754L-9.40384e-05 307.333Z" fill="#F9F9FF"/>
<path d="M557.369 22.2104L579.579 44.4209L601.79 22.2104L579.579 -0.000176396L557.369 22.2104Z" fill="#F9F9FF"/>
</svg>
