<svg width="48" height="64" viewBox="0 0 48 64" fill="none" xmlns="http://www.w3.org/2000/svg">
<ellipse cx="24.2625" cy="51.6224" rx="13.938" ry="5.16224" fill="#551727"/>
<ellipse cx="24.2625" cy="53.6874" rx="13.938" ry="5.16224" fill="#551727"/>
<path fill-rule="evenodd" clip-rule="evenodd" d="M19.2509 48.5986C19.2499 48.5976 19.2499 48.5955 19.2489 48.5945C19.3562 47.9843 19.4471 47.34 19.5152 46.6658C19.5545 46.2611 19.5978 45.8543 19.6371 45.4331C19.6391 45.4341 19.6402 45.4341 19.6422 45.4352C19.602 45.8523 19.5627 46.2539 19.5235 46.6566C19.4564 47.3266 19.3614 47.9771 19.253 48.5831C19.253 48.5883 19.252 48.5934 19.2509 48.5986Z" fill="#C28B77"/>
<path fill-rule="evenodd" clip-rule="evenodd" d="M26 59H25.9893C19.6541 58.9657 15.9609 53.6485 15 52.0773C15.0021 52.0641 15.0043 52.051 15.0043 52.0378C15.23 50.4903 15.4278 48.8295 15.5675 47.1186C15.6492 46.0905 15.7309 45.065 15.8147 44C18.9167 44.9148 22.2746 45.4631 25.8775 45.5264H25.9893C25.9936 45.5264 25.9957 45.5264 26 45.5264V59Z" fill="#D8AA95"/>
<path fill-rule="evenodd" clip-rule="evenodd" d="M26.0326 59H26V45.6414C28.6599 45.5761 31.1168 45.001 33.4203 44C33.4776 45.0324 33.5412 46.0622 33.597 47.0502C33.721 48.817 33.8403 50.4846 34 52.0633V52.092C33.2978 53.8981 30.8564 59 26.0326 59Z" fill="#D8AA95"/>
<path fill-rule="evenodd" clip-rule="evenodd" d="M24.2242 36.2681C24.5732 36.0347 24.982 36.1452 24.982 36.1452L24.9676 36.169C24.885 36.3063 24.4163 37.0579 24.0435 37.0465C24.0528 37.0403 23.962 36.9774 23.9382 36.7967C23.9083 36.6191 24.0549 36.3868 24.2242 36.2681Z" fill="#A6836A"/>
<path fill-rule="evenodd" clip-rule="evenodd" d="M40.8136 27.2341C41.1337 25.4737 41.3815 24.1243 41.4589 23.861C41.4961 23.7341 41.5219 23.606 41.559 23.479C41.5859 23.3262 41.6241 23.1858 41.6489 23.0475C41.7118 22.8307 41.7501 22.6128 41.8006 22.397C41.8141 22.2948 41.8399 22.1947 41.8523 22.0925C41.8915 21.8509 41.9421 21.6082 41.9793 21.3667C41.9927 21.2655 42.0051 21.1509 42.0175 21.0487C42.0557 20.8329 42.068 20.6171 42.0949 20.4003C42.1073 20.2351 42.1186 20.0689 42.1455 19.9171C42.1579 19.7767 42.1579 19.6363 42.1703 19.4979C42.3354 16.1765 41.6241 12.7922 39.4487 9.72581C36.815 6.03791 33.7868 2.13216 27.2101 1.58496H21.6628C15.0861 2.13216 12.0589 6.03791 9.42515 9.72581C7.24978 12.7922 6.53636 16.1765 6.70259 19.4979C6.71498 19.6363 6.71498 19.7767 6.72737 19.9171C6.75215 20.0689 6.76557 20.2351 6.77899 20.4003C6.80377 20.6171 6.81616 20.8329 6.85436 21.0487C6.86778 21.1509 6.88017 21.2655 6.89256 21.3667C6.93179 21.6082 6.98238 21.8509 7.02058 22.0925C7.034 22.1947 7.05878 22.2948 7.07117 22.397C7.12176 22.6128 7.15996 22.8307 7.22294 23.0475C7.24978 23.1858 7.28799 23.3262 7.31276 23.479C7.352 23.606 7.37678 23.7341 7.41498 23.861C7.49138 24.1233 7.7371 25.4603 8.05509 27.2082C6.2989 26.3503 5.20989 27.5768 5.50001 30.8084C5.79838 34.0885 8.43813 36.0336 9.80406 36.3661C9.93828 36.9597 10.0529 37.4006 10.1365 37.6122C11.3331 40.627 12.7827 41.5304 15.3277 43.9865C18.1008 46.6451 22.1976 49.1385 24.2201 49.1261L24.4359 49.1385L24.6538 49.1261C26.6763 49.1385 30.772 46.6451 33.5452 43.9865C36.0891 41.5304 37.5408 40.627 38.7353 37.6122C38.8189 37.4026 38.9325 36.9649 39.0667 36.3774C40.3852 36.078 43.1985 34.1267 43.5 30.8084C43.7922 27.5479 42.5729 26.3296 40.8136 27.2341Z" fill="#E2B19C"/>
<path fill-rule="evenodd" clip-rule="evenodd" d="M39.8214 6.59851C38.2293 5.11282 36.213 4.58317 36.213 4.58317C36.213 4.58317 31.7569 2.35412 28.3633 0.763119C24.9686 -0.82685 19.4502 0.445126 16.5872 1.18746C13.7221 1.92978 10.3109 6.00176 9.25061 8.22875C8.19132 10.4588 7.55747 11.9888 6.71086 15.4867C5.86219 18.9888 6.70976 25.6936 8.48764 26.4184C9.64501 26.8902 9.71728 29.6087 9.71728 29.6087L10.9831 30.1683C10.9831 30.1683 10.8282 25.866 12.7826 22.492C15.3679 23.5637 17.6103 23.9261 19.5524 23.8084C18.8772 24.3607 18.0822 24.8099 17.1395 25.0855C17.1395 25.0855 19.6732 25.8124 23.1226 22.9618C23.3931 22.8441 23.6574 22.716 23.9114 22.5798C23.3766 24.3453 22.3493 26.0839 20.4269 27.1525C20.4269 27.1525 25.5922 27.456 28.9776 17.4753C28.9776 17.4753 30.5614 8.40736 37.9186 17.8821C39.015 19.214 39.8555 20.996 39.8555 23.5947C39.8555 25.0855 39.1875 29.4259 39.1875 29.4259L39.8555 28.952C39.8555 28.952 39.8555 27.2702 41.7603 26.2171C43.2749 25.3746 43.6621 22.5147 43.6621 21.3336C43.6621 13.4333 41.4134 8.0842 39.8214 6.59851Z" fill="#654238"/>
<path d="M0 63.638V61.9101C0 59.1986 1.62538 56.7529 4.12422 55.7048L15 52C15 52 18.5 58 24 58C30.5 58 34 52 34 52L43.5398 55.7048C46.0386 56.7529 47.664 59.2024 47.664 61.9101V63.638" fill="#6E112C"/>
<path d="M30 57C31.0324 58.3766 32.5221 60.6046 32.5221 63.4954" stroke="#D6F516" stroke-linecap="round"/>
<path d="M18.5 57C17.4676 58.3766 16.5191 60.6046 16.5191 63.4954" stroke="#D6F516" stroke-linecap="round"/>
</svg>
