<svg width="26" height="32" viewBox="0 0 26 32" fill="none" xmlns="http://www.w3.org/2000/svg">
<path d="M25.3203 12.6602C25.3203 5.6619 19.6584 0 12.6602 0C5.6619 0 0 5.6619 0 12.6602C0 17.3374 2.54961 21.4343 6.33008 23.6147V31.6504L12.6602 28.4853L18.9902 31.6504V23.6147C22.7707 21.4343 25.3203 17.3374 25.3203 12.6602ZM12.6602 22.1553C7.42026 22.1553 3.16504 17.9001 3.16504 12.6602C3.16504 7.42026 7.42026 3.16504 12.6602 3.16504C17.9001 3.16504 22.1553 7.42026 22.1553 12.6602C22.1553 17.9001 17.9001 22.1553 12.6602 22.1553Z" fill="#545CB9"/>
<path d="M12.2907 13.6801L8.79156 11.3414L7.0332 13.979L13.0292 17.9704L18.6735 10.4447L16.1415 8.54565L12.2907 13.6801Z" fill="#545CB9"/>
</svg>
