<svg width="22" height="21" viewBox="0 0 22 21" fill="none" xmlns="http://www.w3.org/2000/svg">
<path d="M4.80319 20.88H0.46807V6.93294H4.80319V20.88ZM2.63766 5.02719C1.24742 5.02719 0.123047 3.90079 0.123047 2.51258C0.123047 1.1264 1.24742 0 2.63766 0C4.02384 0 5.15024 1.1264 5.15024 2.51258C5.14821 3.90079 4.02181 5.02719 2.63766 5.02719ZM21.0396 20.88H16.7085V14.0972C16.7085 12.4797 16.6781 10.3994 14.4557 10.3994C12.2009 10.3994 11.8538 12.1611 11.8538 13.9795V20.88H7.52278V6.93294H11.6813V8.83869H11.7402C12.3186 7.74273 13.7332 6.58589 15.8419 6.58589C20.2318 6.58589 21.0416 9.47394 21.0416 13.2306V20.88H21.0396Z" fill="#722BFF"/>
</svg>
