<svg width="13" height="13" viewBox="0 0 13 13" fill="none" xmlns="http://www.w3.org/2000/svg">
<path fill-rule="evenodd" clip-rule="evenodd" d="M8.70849 1.71879C8.694 1.7319 8.67951 1.7457 8.66502 1.76019L5.12877 5.34888C4.72926 5.75391 4.73202 6.40251 5.12808 6.80409L5.60487 7.28847C6.00231 7.69143 6.64332 7.69005 7.03938 7.28778L10.5763 3.69909C10.5908 3.6846 10.6039 3.67011 10.617 3.65562L11.7024 4.75617C12.0978 5.15775 12.42 5.02251 12.42 4.45326V0.34293C12.42 0.15249 12.2689 0 12.0819 0H8.0316C7.4658 0 7.33608 0.32637 7.73214 0.72864L8.70849 1.71879ZM2.07207 0C0.92322 0 0 0.92736 0 2.07207V10.3479C0 11.4968 0.92736 12.42 2.07207 12.42H10.3479C11.4968 12.42 12.42 11.4926 12.42 10.3479V5.00319V7.935L10.35 6.21828V9.31776C10.35 9.8877 9.88701 10.35 9.31776 10.35H3.10224C2.5323 10.35 2.07 9.88701 2.07 9.31776V3.10224C2.07 2.5323 2.53299 2.07 3.10224 2.07H6.21L4.485 0H7.41681H2.07207V0Z" fill="#722BFF"/>
</svg>
