<svg width="20" height="20" viewBox="0 0 20 20" fill="none" xmlns="http://www.w3.org/2000/svg">
<g clip-path="url(#clip0)">
<path d="M6.5891 5.33208L6.5891 5.33296L6.59432 7.38693H5.01297V5.33208C5.01297 2.57839 7.24546 0.345244 10.0004 0.345244C12.7546 0.345244 14.9878 2.57842 14.9877 5.33208V7.38693H13.411V5.33208C13.411 4.42267 13.0555 3.56481 12.4124 2.92048L12.4122 2.92025C11.7691 2.27711 10.9111 1.92079 10.0004 1.92079C9.08966 1.92079 8.23172 2.27707 7.58855 2.92024C6.94404 3.56474 6.5891 4.42273 6.5891 5.33208Z" stroke="#7877ED"/>
<path d="M10.7665 17.6091H11.1115V17.2641V15.4504C11.6372 15.0937 11.9849 14.4908 11.9849 13.8048C11.9849 12.7098 11.0963 11.8204 10 11.8204C8.9039 11.8204 8.01445 12.7097 8.01445 13.8048C8.01445 14.4909 8.36223 15.0938 8.88844 15.4505V17.2641V17.6091H9.23344H10.7665ZM17.32 19.6546H2.67996V9.61014H17.32V19.6546Z" stroke="#7877ED"/>
</g>
<defs>
<clipPath id="clip0">
<rect width="28.9855" height="28.9855" fill="white" transform="scale(0.69)"/>
</clipPath>
</defs>
</svg>
