<svg width="11" height="10" viewBox="0 0 11 10" fill="none" xmlns="http://www.w3.org/2000/svg">
<path fill-rule="evenodd" clip-rule="evenodd" d="M0 5C0 4.44772 0.447715 4 1 4H10C10.5523 4 11 4.44772 11 5C11 5.55228 10.5523 6 10 6H1C0.447715 6 0 5.55228 0 5Z" fill="#545CB9"/>
<path fill-rule="evenodd" clip-rule="evenodd" d="M5.84151 0.247437C6.25715 -0.116245 6.88891 -0.0741276 7.25259 0.341509L10.7526 4.34151C11.0825 4.71853 11.0825 5.28149 10.7526 5.65852L7.25259 9.65852C6.88891 10.0742 6.25715 10.1163 5.84151 9.75259C5.42587 9.38891 5.38375 8.75714 5.74744 8.34151L8.67125 5.00001L5.74744 1.65852C5.38375 1.24288 5.42587 0.611119 5.84151 0.247437Z" fill="#545CB9"/>
</svg>
