<svg width="11" height="11" viewBox="0 0 11 11" fill="none" xmlns="http://www.w3.org/2000/svg">
<path fill-rule="evenodd" clip-rule="evenodd" d="M0 5.43018C0 4.87789 0.447715 4.43018 1 4.43018H10C10.5523 4.43018 11 4.87789 11 5.43018C11 5.98246 10.5523 6.43018 10 6.43018H1C0.447715 6.43018 0 5.98246 0 5.43018Z" fill="#DD72BA"/>
<path fill-rule="evenodd" clip-rule="evenodd" d="M5.84151 0.677613C6.25715 0.313931 6.88891 0.356048 7.25259 0.771685L10.7526 4.77168C11.0825 5.14871 11.0825 5.71167 10.7526 6.08869L7.25259 10.0887C6.88891 10.5043 6.25715 10.5464 5.84151 10.1828C5.42587 9.81908 5.38375 9.18732 5.74744 8.77168L8.67125 5.43019L5.74744 2.08869C5.38375 1.67306 5.42587 1.04129 5.84151 0.677613Z" fill="#DD72BA"/>
</svg>
