<svg width="57" height="57" viewBox="0 0 57 57" fill="none" xmlns="http://www.w3.org/2000/svg">
<circle cx="28.5" cy="28.5" r="28.5" fill="#E9E5FF"/>
<circle cx="28.5" cy="28.5" r="28" stroke="#BB6BD9" stroke-opacity="0.26"/>
<path d="M29.9859 32.455C29.9859 35.954 32.2879 37.7955 34.866 37.7955C37.7204 37.7955 40.3906 35.4015 40.3906 32.363C40.3906 29.8769 38.6412 28.2195 36.5234 28.2195C36.3392 28.2195 35.8789 28.2195 35.7868 28.2195C36.7996 25.273 40.1144 22.1424 43.5212 20.485L40.6669 17.5386C34.9581 20.393 29.9859 26.6542 29.9859 32.455ZM15.3457 32.455C15.3457 35.954 17.5555 37.7955 20.2258 37.7955C23.0802 37.7955 25.7504 35.4015 25.7504 32.363C25.7504 29.8769 23.9089 28.2195 21.7911 28.2195C21.6069 28.2195 21.1465 28.2195 21.0545 28.2195C22.0673 25.273 25.4742 22.1424 28.7889 20.485L26.0266 17.5386C20.3179 20.393 15.3457 26.6542 15.3457 32.455Z" fill="#7877ED"/>
</svg>
