<svg width="704" height="523" viewBox="0 0 704 523" fill="none" xmlns="http://www.w3.org/2000/svg">
<g filter="url(#filter0_d)">
<rect x="75" y="66" width="441.836" height="249.081" rx="10" fill="white"/>
<g filter="url(#filter1_d)">
<rect x="121.938" y="106.992" width="381.131" height="25.6591" fill="white"/>
</g>
<g filter="url(#filter2_d)">
<rect x="121.938" y="135.467" width="381.131" height="25.6591" fill="white"/>
</g>
<g filter="url(#filter3_d)">
<rect x="142.59" y="163.943" width="360.478" height="25.6591" fill="white"/>
</g>
<g filter="url(#filter4_d)">
<rect x="142.59" y="192.417" width="360.478" height="25.6591" fill="white"/>
</g>
<g filter="url(#filter5_d)">
<rect x="142.59" y="220.893" width="360.478" height="25.6591" fill="white"/>
</g>
<g filter="url(#filter6_d)">
<rect x="121.938" y="249.368" width="381.131" height="25.6591" fill="white"/>
</g>
<g filter="url(#filter7_d)">
<rect x="142.59" y="277.844" width="360.478" height="25.6591" fill="white"/>
</g>
<path d="M75 71C75 68.2386 77.2386 66 80 66H511.836C514.598 66 516.836 68.2386 516.836 71V88.8428H75V71Z" fill="#545CB9"/>
<path d="M138.835 119.352H196.098" stroke="#E9E9E9" stroke-width="5" stroke-linecap="round"/>
<path d="M208.614 119.196H244.6" stroke="#E9E9E9" stroke-width="5" stroke-linecap="round"/>
<path d="M456.439 77.5776H481.473" stroke="white" stroke-width="5" stroke-linecap="round"/>
<path d="M95.6523 77.5776H136.331" stroke="white" stroke-width="5" stroke-linecap="round"/>
<path d="M138.835 147.828H196.098" stroke="#E9E9E9" stroke-width="5" stroke-linecap="round"/>
<path d="M208.614 147.671H244.6" stroke="#E9E9E9" stroke-width="5" stroke-linecap="round"/>
<path d="M159.487 177.242H216.751" stroke="#E9E9E9" stroke-width="5" stroke-linecap="round"/>
<path d="M227.39 177.085H272.762" stroke="#E9E9E9" stroke-width="5" stroke-linecap="round"/>
<path d="M159.487 205.717H216.751" stroke="#E9E9E9" stroke-width="5" stroke-linecap="round"/>
<path d="M227.39 205.56H258.681" stroke="#E9E9E9" stroke-width="5" stroke-linecap="round"/>
<path d="M159.487 234.191H216.751" stroke="#E9E9E9" stroke-width="5" stroke-linecap="round"/>
<path d="M227.39 234.036H268.382" stroke="#E9E9E9" stroke-width="5" stroke-linecap="round"/>
<path d="M138.835 262.667H196.098" stroke="#E9E9E9" stroke-width="5" stroke-linecap="round"/>
<path d="M208.614 262.511H244.6" stroke="#E9E9E9" stroke-width="5" stroke-linecap="round"/>
<path d="M159.487 290.829H216.751" stroke="#E9E9E9" stroke-width="5" stroke-linecap="round"/>
<path d="M227.39 290.673H292.789" stroke="#E9E9E9" stroke-width="5" stroke-linecap="round"/>
<path d="M486.17 117.631L490.65 122.325L494.619 117.631" stroke="#545CB9" stroke-width="2" stroke-linejoin="round"/>
<path d="M486.17 287.857L490.65 292.551L494.619 287.857" stroke="#545CB9" stroke-width="2" stroke-linejoin="round"/>
<path d="M494.619 150.8L490.139 146.106L486.17 150.8" stroke="#545CB9" stroke-width="2" stroke-linejoin="round"/>
<path d="M494.619 264.701L490.139 260.007L486.17 264.701" stroke="#545CB9" stroke-width="2" stroke-linejoin="round"/>
<path d="M486.17 173.956L490.65 178.65L494.619 173.956" stroke="#545CB9" stroke-width="2" stroke-linejoin="round"/>
<path d="M486.17 202.744L490.65 207.437L494.619 202.744" stroke="#545CB9" stroke-width="2" stroke-linejoin="round"/>
<path d="M486.17 229.967L490.65 234.661L494.619 229.967" stroke="#545CB9" stroke-width="2" stroke-linejoin="round"/>
<path fill-rule="evenodd" clip-rule="evenodd" d="M91.2619 180.03C96.4332 180.03 100.625 175.838 100.625 170.666C100.625 165.495 96.4332 161.303 91.2619 161.303C86.0906 161.303 81.8984 165.495 81.8984 170.666C81.8984 175.838 86.0906 180.03 91.2619 180.03Z" fill="#CAD3E0"/>
<path fill-rule="evenodd" clip-rule="evenodd" d="M95.3557 168.47C95.5437 168.47 95.6961 168.64 95.6961 168.85V172.481C95.6961 172.691 95.5437 172.861 95.3557 172.861H90.8434C90.6552 172.861 90.5028 173.032 90.5028 173.241V174.72C90.5028 174.948 90.3357 175.101 90.1602 175.101C90.0812 175.101 90.0007 175.07 89.9328 175.001L85.9509 170.947C85.8028 170.796 85.8028 170.536 85.9509 170.385L89.9328 166.331C90.0006 166.261 90.0812 166.23 90.1602 166.23C90.3357 166.23 90.5028 166.383 90.5028 166.611V168.09C90.5028 168.3 90.6552 168.47 90.8434 168.47H95.3557Z" fill="white"/>
<path fill-rule="evenodd" clip-rule="evenodd" d="M91.2619 121.195C96.4332 121.195 100.625 117.003 100.625 111.832C100.625 106.66 96.4332 102.468 91.2619 102.468C86.0906 102.468 81.8984 106.66 81.8984 111.832C81.8984 117.003 86.0906 121.195 91.2619 121.195Z" fill="#767DC7"/>
<path fill-rule="evenodd" clip-rule="evenodd" d="M86.3795 112.019H87.2652V115.646C87.2652 115.86 87.436 116.035 87.6448 116.035H90.2385C90.4471 116.035 90.6179 115.86 90.6179 115.646V112.991H92.1995V115.646C92.1995 115.86 92.3702 116.035 92.579 116.035H95.0462C95.255 116.035 95.4257 115.86 95.4257 115.646V112.019H96.5012C96.6531 112.019 96.7922 111.922 96.8491 111.78C96.9061 111.637 96.8744 111.469 96.7669 111.359L91.8199 106.222C91.6744 106.073 91.4341 106.067 91.2885 106.216L86.1201 111.352C86.0063 111.462 85.9746 111.631 86.0316 111.78C86.0885 111.929 86.2276 112.019 86.3795 112.019Z" fill="white"/>
<path fill-rule="evenodd" clip-rule="evenodd" d="M91.5422 107.044L95.5909 111.241H95.0469C94.8381 111.241 94.6673 111.416 94.6673 111.63V115.257H92.9592V112.602C92.9592 112.388 92.7884 112.213 92.5797 112.213H90.2391C90.0303 112.213 89.8595 112.388 89.8595 112.602V115.257H88.0249V111.63C88.0249 111.416 87.8541 111.241 87.6454 111.241H87.3164L91.5422 107.044Z" fill="white"/>
<path fill-rule="evenodd" clip-rule="evenodd" d="M91.2619 150.46C96.4332 150.46 100.625 146.268 100.625 141.097C100.625 135.926 96.4332 131.733 91.2619 131.733C86.0906 131.733 81.8984 135.926 81.8984 141.097C81.8984 146.268 86.0906 150.46 91.2619 150.46Z" fill="#545CB9"/>
<path fill-rule="evenodd" clip-rule="evenodd" d="M91.4825 138.271C91.4438 138.364 91.3527 138.425 91.2516 138.425H87.0273C86.8893 138.425 86.7773 138.537 86.7773 138.675V144.864C86.7773 145.002 86.8893 145.114 87.0273 145.114H95.539C95.6771 145.114 95.789 145.002 95.789 144.864V137.503C95.789 137.365 95.6771 137.253 95.539 137.253H92.0718C91.9707 137.253 91.8796 137.314 91.8409 137.407L91.4825 138.271Z" fill="white" stroke="white"/>
<circle cx="497.993" cy="76.7804" r="6.83751" fill="#D1D5EB"/>
<path d="M499.563 76.6176C500.196 76.21 500.601 75.4967 500.601 74.6815C500.601 73.4078 499.563 72.3633 498.296 72.3633C497.03 72.3633 495.992 73.4078 495.992 74.6815C495.992 75.4967 496.397 76.21 497.03 76.6176C495.764 77.1271 494.878 78.3754 494.878 79.8275C494.878 80.0058 495.03 80.1332 495.182 80.1332C495.359 80.1332 495.486 79.9803 495.486 79.8275C495.486 78.2735 496.752 76.9997 498.296 76.9997C499.841 76.9997 501.107 78.2735 501.107 79.8275C501.107 80.0058 501.259 80.1332 501.411 80.1332C501.588 80.1332 501.715 79.9803 501.715 79.8275C501.74 78.3499 500.829 77.1271 499.563 76.6176ZM498.296 76.3629C497.36 76.3629 496.625 75.5986 496.625 74.6815C496.625 73.7389 497.385 73.0002 498.296 73.0002C499.233 73.0002 499.968 73.7644 499.968 74.6815C499.968 75.5986 499.233 76.3629 498.296 76.3629Z" fill="white"/>
<rect x="456.439" y="111.339" width="13.8888" height="14.2194" rx="6.94438" fill="#7E84CA"/>
<path d="M460.407 118.382H466.667" stroke="white"/>
<path d="M463.537 115.252L463.537 121.512" stroke="white"/>
<rect x="456.439" y="139.922" width="13.8888" height="14.2194" rx="6.94438" fill="#7E84CA"/>
<path d="M460.407 146.965H466.667" stroke="white"/>
<path d="M463.537 143.836L463.537 150.095" stroke="white"/>
<rect x="456.439" y="255.241" width="13.8888" height="14.2194" rx="6.94438" fill="#7E84CA"/>
<path d="M460.407 262.284H466.667" stroke="white"/>
<path d="M463.537 259.154L463.537 265.414" stroke="white"/>
<rect x="159.764" y="161.606" width="438.844" height="247.394" rx="10" fill="white"/>
<rect x="192.708" y="197.97" width="405.9" height="211.03" fill="white"/>
<path fill-rule="evenodd" clip-rule="evenodd" d="M176.028 279.882C181.199 279.882 185.391 275.69 185.391 270.519C185.391 265.347 181.199 261.155 176.028 261.155C170.856 261.155 166.664 265.347 166.664 270.519C166.664 275.69 170.856 279.882 176.028 279.882Z" fill="#CAD3E0"/>
<path fill-rule="evenodd" clip-rule="evenodd" d="M180.123 268.323C180.311 268.323 180.464 268.493 180.464 268.703V272.334C180.464 272.544 180.311 272.714 180.123 272.714H175.611C175.423 272.714 175.27 272.885 175.27 273.094V274.573C175.27 274.801 175.103 274.954 174.928 274.954C174.849 274.954 174.768 274.923 174.7 274.854L170.718 270.8C170.57 270.649 170.57 270.389 170.718 270.238L174.7 266.184C174.768 266.114 174.849 266.083 174.928 266.083C175.103 266.083 175.27 266.237 175.27 266.464V267.943C175.27 268.153 175.423 268.323 175.611 268.323H180.123Z" fill="white"/>
<path fill-rule="evenodd" clip-rule="evenodd" d="M176.028 221.048C181.199 221.048 185.391 216.856 185.391 211.685C185.391 206.513 181.199 202.321 176.028 202.321C170.856 202.321 166.664 206.513 166.664 211.685C166.664 216.856 170.856 221.048 176.028 221.048Z" fill="#767DC7"/>
<path fill-rule="evenodd" clip-rule="evenodd" d="M171.145 211.872H172.031V215.499C172.031 215.713 172.202 215.888 172.41 215.888H175.004C175.213 215.888 175.384 215.713 175.384 215.499V212.843H176.965V215.499C176.965 215.713 177.136 215.888 177.345 215.888H179.812C180.021 215.888 180.191 215.713 180.191 215.499V211.872H181.267C181.419 211.872 181.558 211.775 181.615 211.632C181.672 211.49 181.64 211.321 181.533 211.211L176.586 206.075C176.44 205.926 176.2 205.92 176.054 206.069L170.886 211.205C170.772 211.315 170.74 211.483 170.797 211.632C170.854 211.781 170.993 211.872 171.145 211.872Z" fill="white"/>
<path fill-rule="evenodd" clip-rule="evenodd" d="M176.306 206.897L180.355 211.094H179.811C179.602 211.094 179.431 211.269 179.431 211.483V215.11H177.723V212.455C177.723 212.241 177.552 212.066 177.343 212.066H175.003C174.794 212.066 174.623 212.241 174.623 212.455V215.11H172.789V211.483C172.789 211.269 172.618 211.094 172.409 211.094H172.08L176.306 206.897Z" fill="white"/>
<path fill-rule="evenodd" clip-rule="evenodd" d="M176.028 250.313C181.199 250.313 185.391 246.121 185.391 240.95C185.391 235.779 181.199 231.586 176.028 231.586C170.856 231.586 166.664 235.779 166.664 240.95C166.664 246.121 170.856 250.313 176.028 250.313Z" fill="#545CB9"/>
<path fill-rule="evenodd" clip-rule="evenodd" d="M176.249 238.124C176.21 238.217 176.119 238.278 176.018 238.278H171.794C171.656 238.278 171.544 238.39 171.544 238.528V244.717C171.544 244.855 171.656 244.967 171.794 244.967H180.306C180.444 244.967 180.556 244.855 180.556 244.717V237.356C180.556 237.218 180.444 237.106 180.306 237.106H176.838C176.737 237.106 176.646 237.167 176.607 237.26L176.249 238.124Z" fill="white" stroke="white"/>
<g filter="url(#filter8_d)">
<rect x="206.385" y="202.2" width="378.55" height="25.4853" rx="3" fill="white"/>
</g>
<g filter="url(#filter9_d)">
<rect x="206.385" y="230.603" width="378.55" height="25.4853" rx="3" fill="white"/>
</g>
<g filter="url(#filter10_d)">
<rect x="206.385" y="258.885" width="378.55" height="25.4853" rx="3" fill="white"/>
</g>
<g filter="url(#filter11_d)">
<rect x="206.385" y="287.168" width="378.55" height="25.4853" rx="3" fill="white"/>
</g>
<g filter="url(#filter12_d)">
<rect x="206.385" y="315.45" width="378.55" height="25.4853" rx="3" fill="white"/>
</g>
<g filter="url(#filter13_d)">
<rect x="206.385" y="343.733" width="378.55" height="25.4853" rx="3" fill="white"/>
</g>
<g filter="url(#filter14_d)">
<rect x="206.385" y="372.015" width="378.55" height="25.4853" rx="3" fill="white"/>
</g>
<path d="M159.764 166.606C159.764 163.845 162.002 161.606 164.764 161.606H593.608C596.369 161.606 598.608 163.845 598.608 166.606V184.294H159.764V166.606Z" fill="#545CB9"/>
<path d="M180.278 173.106H220.682" stroke="white" stroke-width="5" stroke-linecap="round"/>
<path d="M223.83 192.344H264.234" stroke="#767DC7" stroke-width="3" stroke-linecap="round"/>
<path d="M317.466 192.344H348.013" stroke="#767DC7" stroke-width="3" stroke-linecap="round"/>
<path d="M377.589 192.344H398.28" stroke="#767DC7" stroke-width="3" stroke-linecap="round"/>
<path d="M438.698 192.344H459.389" stroke="#767DC7" stroke-width="3" stroke-linecap="round"/>
<path d="M223.322 214.597H280.198" stroke="#E9E9E9" stroke-width="5" stroke-linecap="round"/>
<path d="M317.339 214.441H353.08" stroke="#E9E9E9" stroke-width="5" stroke-linecap="round"/>
<path d="M377.943 214.441H413.685" stroke="#E9E9E9" stroke-width="5" stroke-linecap="round"/>
<path d="M438.549 214.441H474.29" stroke="#E9E9E9" stroke-width="5" stroke-linecap="round"/>
<path d="M223.322 242.88H280.198" stroke="#E9E9E9" stroke-width="5" stroke-linecap="round"/>
<path d="M317.339 242.724H353.08" stroke="#E9E9E9" stroke-width="5" stroke-linecap="round"/>
<path d="M377.943 242.724H413.685" stroke="#E9E9E9" stroke-width="5" stroke-linecap="round"/>
<path d="M438.549 242.724H474.29" stroke="#E9E9E9" stroke-width="5" stroke-linecap="round"/>
<path d="M223.322 272.094H280.198" stroke="#E9E9E9" stroke-width="5" stroke-linecap="round"/>
<path d="M317.339 271.939H353.08" stroke="#E9E9E9" stroke-width="5" stroke-linecap="round"/>
<path d="M377.943 271.939H413.685" stroke="#E9E9E9" stroke-width="5" stroke-linecap="round"/>
<path d="M438.549 271.939H474.29" stroke="#E9E9E9" stroke-width="5" stroke-linecap="round"/>
<path d="M223.322 300.377H280.198" stroke="#E9E9E9" stroke-width="5" stroke-linecap="round"/>
<path d="M317.339 300.222H353.08" stroke="#E9E9E9" stroke-width="5" stroke-linecap="round"/>
<path d="M377.943 300.222H413.685" stroke="#E9E9E9" stroke-width="5" stroke-linecap="round"/>
<path d="M438.549 300.222H474.29" stroke="#E9E9E9" stroke-width="5" stroke-linecap="round"/>
<path d="M223.322 328.659H280.198" stroke="#E9E9E9" stroke-width="5" stroke-linecap="round"/>
<path d="M317.339 328.503H353.08" stroke="#E9E9E9" stroke-width="5" stroke-linecap="round"/>
<path d="M377.943 328.503H413.685" stroke="#E9E9E9" stroke-width="5" stroke-linecap="round"/>
<path d="M438.549 328.503H474.29" stroke="#E9E9E9" stroke-width="5" stroke-linecap="round"/>
<path d="M223.322 356.942H280.198" stroke="#E9E9E9" stroke-width="5" stroke-linecap="round"/>
<path d="M317.339 356.786H353.08" stroke="#E9E9E9" stroke-width="5" stroke-linecap="round"/>
<path d="M377.943 356.786H413.685" stroke="#E9E9E9" stroke-width="5" stroke-linecap="round"/>
<path d="M438.549 356.786H474.29" stroke="#E9E9E9" stroke-width="5" stroke-linecap="round"/>
<path d="M223.322 384.914H280.198" stroke="#E9E9E9" stroke-width="5" stroke-linecap="round"/>
<path d="M317.339 384.758H353.08" stroke="#E9E9E9" stroke-width="5" stroke-linecap="round"/>
<path d="M377.943 384.758H413.685" stroke="#E9E9E9" stroke-width="5"/>
<path d="M438.549 384.758H474.29" stroke="#E9E9E9" stroke-width="5"/>
<rect x="243.098" y="167.683" width="105.034" height="11.2846" rx="5.64231" fill="white"/>
<path fill-rule="evenodd" clip-rule="evenodd" d="M254.438 176.075L252.646 174.283C252.966 173.837 253.159 173.291 253.159 172.717C253.159 171.212 251.942 169.997 250.439 169.997C248.935 169.997 247.72 171.212 247.72 172.717C247.72 174.219 248.935 175.436 250.439 175.436C251.014 175.436 251.559 175.244 252.006 174.923L253.797 176.715C253.958 176.874 254.246 176.874 254.438 176.715C254.63 176.523 254.63 176.267 254.438 176.075ZM250.438 174.796C249.287 174.796 248.359 173.868 248.359 172.717C248.359 171.566 249.287 170.638 250.438 170.638C251.589 170.638 252.517 171.566 252.517 172.717C252.517 173.868 251.589 174.796 250.438 174.796Z" fill="#767DC7"/>
<circle cx="582.756" cy="173.106" r="6.83751" fill="#D1D5EB"/>
<path d="M584.327 172.943C584.96 172.535 585.365 171.822 585.365 171.007C585.365 169.733 584.327 168.688 583.061 168.688C581.795 168.688 580.757 169.733 580.757 171.007C580.757 171.822 581.162 172.535 581.795 172.943C580.529 173.452 579.643 174.701 579.643 176.153C579.643 176.331 579.795 176.458 579.946 176.458C580.124 176.458 580.25 176.306 580.25 176.153C580.25 174.599 581.516 173.325 583.061 173.325C584.606 173.325 585.872 174.599 585.872 176.153C585.872 176.331 586.024 176.458 586.176 176.458C586.353 176.458 586.48 176.306 586.48 176.153C586.505 174.675 585.593 173.452 584.327 172.943ZM583.061 172.688C582.124 172.688 581.39 171.924 581.39 171.007C581.39 170.064 582.149 169.325 583.061 169.325C583.998 169.325 584.732 170.09 584.732 171.007C584.732 171.924 583.998 172.688 583.061 172.688Z" fill="white"/>
<rect x="498.82" y="165.926" width="13.8888" height="14.2194" rx="6.94438" fill="#7E84CA"/>
<path d="M502.789 172.969H509.048" stroke="white"/>
<path d="M505.92 169.839L505.92 176.099" stroke="white"/>
<rect x="562.887" y="208.114" width="13.7988" height="13.7988" rx="2" fill="#E8E8E8"/>
<rect x="545.646" y="208.614" width="12.7988" height="12.7988" rx="1.5" stroke="#C4C4C4"/>
<rect x="527.404" y="208.114" width="13.7988" height="13.7988" rx="2" fill="#C4C4C4"/>
<rect width="13.7988" height="13.7988" rx="2" transform="matrix(-1 0 0 1 558.944 236.697)" fill="#C4C4C4"/>
<rect x="-0.5" y="0.5" width="12.7988" height="12.7988" rx="1.5" transform="matrix(-1 0 0 1 575.686 236.697)" stroke="#C4C4C4"/>
<rect x="527.404" y="236.697" width="13.7988" height="13.7988" rx="2" fill="#C4C4C4"/>
<rect x="562.887" y="265.28" width="13.7988" height="13.7988" rx="2" fill="#E8E8E8"/>
<rect x="-0.5" y="0.5" width="12.7988" height="12.7988" rx="1.5" transform="matrix(-1 0 0 1 540.203 265.28)" stroke="#C4C4C4"/>
<rect width="13.7988" height="13.7988" rx="2" transform="matrix(-1 0 0 1 558.944 265.28)" fill="#C4C4C4"/>
<rect x="562.887" y="293.864" width="13.7988" height="13.7988" rx="2" fill="#E8E8E8"/>
<rect x="-0.5" y="0.5" width="12.7988" height="12.7988" rx="1.5" transform="matrix(-1 0 0 1 540.203 293.864)" stroke="#C4C4C4"/>
<rect width="13.7988" height="13.7988" rx="2" transform="matrix(-1 0 0 1 558.944 293.864)" fill="#C4C4C4"/>
<rect x="562.887" y="322.447" width="13.7988" height="13.7988" rx="2" fill="#E8E8E8"/>
<rect x="545.646" y="322.947" width="12.7988" height="12.7988" rx="1.5" stroke="#C4C4C4"/>
<rect x="527.404" y="322.447" width="13.7988" height="13.7988" rx="2" fill="#545CB9"/>
<rect width="13.7988" height="13.7988" rx="2" transform="matrix(-1 0 0 1 558.944 351.03)" fill="#C4C4C4"/>
<rect x="-0.5" y="0.5" width="12.7988" height="12.7988" rx="1.5" transform="matrix(-1 0 0 1 575.686 351.03)" stroke="#C4C4C4"/>
<rect x="527.404" y="351.03" width="13.7988" height="13.7988" rx="2" fill="#545CB9"/>
<rect x="562.887" y="379.614" width="13.7988" height="13.7988" rx="2" fill="#E8E8E8"/>
<rect x="-0.5" y="0.5" width="12.7988" height="12.7988" rx="1.5" transform="matrix(-1 0 0 1 540.203 379.614)" stroke="#C4C4C4"/>
<rect width="13.7988" height="13.7988" rx="2" transform="matrix(-1 0 0 1 558.944 379.614)" fill="#C4C4C4"/>
<path d="M541.203 172.448H566.236" stroke="white" stroke-width="5" stroke-linecap="round"/>
</g>
<defs>
<filter id="filter0_d" x="0" y="0" width="703.608" height="523" filterUnits="userSpaceOnUse" color-interpolation-filters="sRGB">
<feFlood flood-opacity="0" result="BackgroundImageFix"/>
<feColorMatrix in="SourceAlpha" type="matrix" values="0 0 0 0 0 0 0 0 0 0 0 0 0 0 0 0 0 0 127 0"/>
<feOffset dx="15" dy="24"/>
<feGaussianBlur stdDeviation="45"/>
<feColorMatrix type="matrix" values="0 0 0 0 0.270588 0 0 0 0 0.286275 0 0 0 0 0.329412 0 0 0 0.15 0"/>
<feBlend mode="normal" in2="BackgroundImageFix" result="effect1_dropShadow"/>
<feBlend mode="normal" in="SourceGraphic" in2="effect1_dropShadow" result="shape"/>
</filter>
<filter id="filter1_d" x="117.938" y="102.992" width="389.131" height="33.6591" filterUnits="userSpaceOnUse" color-interpolation-filters="sRGB">
<feFlood flood-opacity="0" result="BackgroundImageFix"/>
<feColorMatrix in="SourceAlpha" type="matrix" values="0 0 0 0 0 0 0 0 0 0 0 0 0 0 0 0 0 0 127 0"/>
<feOffset/>
<feGaussianBlur stdDeviation="2"/>
<feColorMatrix type="matrix" values="0 0 0 0 0.270588 0 0 0 0 0.286275 0 0 0 0 0.329412 0 0 0 0.25 0"/>
<feBlend mode="normal" in2="BackgroundImageFix" result="effect1_dropShadow"/>
<feBlend mode="normal" in="SourceGraphic" in2="effect1_dropShadow" result="shape"/>
</filter>
<filter id="filter2_d" x="117.938" y="131.467" width="389.131" height="33.6591" filterUnits="userSpaceOnUse" color-interpolation-filters="sRGB">
<feFlood flood-opacity="0" result="BackgroundImageFix"/>
<feColorMatrix in="SourceAlpha" type="matrix" values="0 0 0 0 0 0 0 0 0 0 0 0 0 0 0 0 0 0 127 0"/>
<feOffset/>
<feGaussianBlur stdDeviation="2"/>
<feColorMatrix type="matrix" values="0 0 0 0 0.270588 0 0 0 0 0.286275 0 0 0 0 0.329412 0 0 0 0.25 0"/>
<feBlend mode="normal" in2="BackgroundImageFix" result="effect1_dropShadow"/>
<feBlend mode="normal" in="SourceGraphic" in2="effect1_dropShadow" result="shape"/>
</filter>
<filter id="filter3_d" x="138.59" y="159.943" width="368.478" height="33.6591" filterUnits="userSpaceOnUse" color-interpolation-filters="sRGB">
<feFlood flood-opacity="0" result="BackgroundImageFix"/>
<feColorMatrix in="SourceAlpha" type="matrix" values="0 0 0 0 0 0 0 0 0 0 0 0 0 0 0 0 0 0 127 0"/>
<feOffset/>
<feGaussianBlur stdDeviation="2"/>
<feColorMatrix type="matrix" values="0 0 0 0 0.270588 0 0 0 0 0.286275 0 0 0 0 0.329412 0 0 0 0.25 0"/>
<feBlend mode="normal" in2="BackgroundImageFix" result="effect1_dropShadow"/>
<feBlend mode="normal" in="SourceGraphic" in2="effect1_dropShadow" result="shape"/>
</filter>
<filter id="filter4_d" x="138.59" y="188.417" width="368.478" height="33.6591" filterUnits="userSpaceOnUse" color-interpolation-filters="sRGB">
<feFlood flood-opacity="0" result="BackgroundImageFix"/>
<feColorMatrix in="SourceAlpha" type="matrix" values="0 0 0 0 0 0 0 0 0 0 0 0 0 0 0 0 0 0 127 0"/>
<feOffset/>
<feGaussianBlur stdDeviation="2"/>
<feColorMatrix type="matrix" values="0 0 0 0 0.270588 0 0 0 0 0.286275 0 0 0 0 0.329412 0 0 0 0.25 0"/>
<feBlend mode="normal" in2="BackgroundImageFix" result="effect1_dropShadow"/>
<feBlend mode="normal" in="SourceGraphic" in2="effect1_dropShadow" result="shape"/>
</filter>
<filter id="filter5_d" x="138.59" y="216.893" width="368.478" height="33.6591" filterUnits="userSpaceOnUse" color-interpolation-filters="sRGB">
<feFlood flood-opacity="0" result="BackgroundImageFix"/>
<feColorMatrix in="SourceAlpha" type="matrix" values="0 0 0 0 0 0 0 0 0 0 0 0 0 0 0 0 0 0 127 0"/>
<feOffset/>
<feGaussianBlur stdDeviation="2"/>
<feColorMatrix type="matrix" values="0 0 0 0 0.270588 0 0 0 0 0.286275 0 0 0 0 0.329412 0 0 0 0.25 0"/>
<feBlend mode="normal" in2="BackgroundImageFix" result="effect1_dropShadow"/>
<feBlend mode="normal" in="SourceGraphic" in2="effect1_dropShadow" result="shape"/>
</filter>
<filter id="filter6_d" x="117.938" y="245.368" width="389.131" height="33.6591" filterUnits="userSpaceOnUse" color-interpolation-filters="sRGB">
<feFlood flood-opacity="0" result="BackgroundImageFix"/>
<feColorMatrix in="SourceAlpha" type="matrix" values="0 0 0 0 0 0 0 0 0 0 0 0 0 0 0 0 0 0 127 0"/>
<feOffset/>
<feGaussianBlur stdDeviation="2"/>
<feColorMatrix type="matrix" values="0 0 0 0 0.270588 0 0 0 0 0.286275 0 0 0 0 0.329412 0 0 0 0.25 0"/>
<feBlend mode="normal" in2="BackgroundImageFix" result="effect1_dropShadow"/>
<feBlend mode="normal" in="SourceGraphic" in2="effect1_dropShadow" result="shape"/>
</filter>
<filter id="filter7_d" x="138.59" y="273.844" width="368.478" height="33.6591" filterUnits="userSpaceOnUse" color-interpolation-filters="sRGB">
<feFlood flood-opacity="0" result="BackgroundImageFix"/>
<feColorMatrix in="SourceAlpha" type="matrix" values="0 0 0 0 0 0 0 0 0 0 0 0 0 0 0 0 0 0 127 0"/>
<feOffset/>
<feGaussianBlur stdDeviation="2"/>
<feColorMatrix type="matrix" values="0 0 0 0 0.270588 0 0 0 0 0.286275 0 0 0 0 0.329412 0 0 0 0.25 0"/>
<feBlend mode="normal" in2="BackgroundImageFix" result="effect1_dropShadow"/>
<feBlend mode="normal" in="SourceGraphic" in2="effect1_dropShadow" result="shape"/>
</filter>
<filter id="filter8_d" x="202.385" y="198.2" width="386.55" height="33.4853" filterUnits="userSpaceOnUse" color-interpolation-filters="sRGB">
<feFlood flood-opacity="0" result="BackgroundImageFix"/>
<feColorMatrix in="SourceAlpha" type="matrix" values="0 0 0 0 0 0 0 0 0 0 0 0 0 0 0 0 0 0 127 0"/>
<feOffset/>
<feGaussianBlur stdDeviation="2"/>
<feColorMatrix type="matrix" values="0 0 0 0 0.847059 0 0 0 0 0.847059 0 0 0 0 0.847059 0 0 0 1 0"/>
<feBlend mode="normal" in2="BackgroundImageFix" result="effect1_dropShadow"/>
<feBlend mode="normal" in="SourceGraphic" in2="effect1_dropShadow" result="shape"/>
</filter>
<filter id="filter9_d" x="202.385" y="226.603" width="386.55" height="33.4853" filterUnits="userSpaceOnUse" color-interpolation-filters="sRGB">
<feFlood flood-opacity="0" result="BackgroundImageFix"/>
<feColorMatrix in="SourceAlpha" type="matrix" values="0 0 0 0 0 0 0 0 0 0 0 0 0 0 0 0 0 0 127 0"/>
<feOffset/>
<feGaussianBlur stdDeviation="2"/>
<feColorMatrix type="matrix" values="0 0 0 0 0.847059 0 0 0 0 0.847059 0 0 0 0 0.847059 0 0 0 1 0"/>
<feBlend mode="normal" in2="BackgroundImageFix" result="effect1_dropShadow"/>
<feBlend mode="normal" in="SourceGraphic" in2="effect1_dropShadow" result="shape"/>
</filter>
<filter id="filter10_d" x="202.385" y="254.885" width="386.55" height="33.4853" filterUnits="userSpaceOnUse" color-interpolation-filters="sRGB">
<feFlood flood-opacity="0" result="BackgroundImageFix"/>
<feColorMatrix in="SourceAlpha" type="matrix" values="0 0 0 0 0 0 0 0 0 0 0 0 0 0 0 0 0 0 127 0"/>
<feOffset/>
<feGaussianBlur stdDeviation="2"/>
<feColorMatrix type="matrix" values="0 0 0 0 0.847059 0 0 0 0 0.847059 0 0 0 0 0.847059 0 0 0 1 0"/>
<feBlend mode="normal" in2="BackgroundImageFix" result="effect1_dropShadow"/>
<feBlend mode="normal" in="SourceGraphic" in2="effect1_dropShadow" result="shape"/>
</filter>
<filter id="filter11_d" x="202.385" y="283.168" width="386.55" height="33.4853" filterUnits="userSpaceOnUse" color-interpolation-filters="sRGB">
<feFlood flood-opacity="0" result="BackgroundImageFix"/>
<feColorMatrix in="SourceAlpha" type="matrix" values="0 0 0 0 0 0 0 0 0 0 0 0 0 0 0 0 0 0 127 0"/>
<feOffset/>
<feGaussianBlur stdDeviation="2"/>
<feColorMatrix type="matrix" values="0 0 0 0 0.847059 0 0 0 0 0.847059 0 0 0 0 0.847059 0 0 0 1 0"/>
<feBlend mode="normal" in2="BackgroundImageFix" result="effect1_dropShadow"/>
<feBlend mode="normal" in="SourceGraphic" in2="effect1_dropShadow" result="shape"/>
</filter>
<filter id="filter12_d" x="202.385" y="311.45" width="386.55" height="33.4853" filterUnits="userSpaceOnUse" color-interpolation-filters="sRGB">
<feFlood flood-opacity="0" result="BackgroundImageFix"/>
<feColorMatrix in="SourceAlpha" type="matrix" values="0 0 0 0 0 0 0 0 0 0 0 0 0 0 0 0 0 0 127 0"/>
<feOffset/>
<feGaussianBlur stdDeviation="2"/>
<feColorMatrix type="matrix" values="0 0 0 0 0.847059 0 0 0 0 0.847059 0 0 0 0 0.847059 0 0 0 1 0"/>
<feBlend mode="normal" in2="BackgroundImageFix" result="effect1_dropShadow"/>
<feBlend mode="normal" in="SourceGraphic" in2="effect1_dropShadow" result="shape"/>
</filter>
<filter id="filter13_d" x="202.385" y="339.733" width="386.55" height="33.4853" filterUnits="userSpaceOnUse" color-interpolation-filters="sRGB">
<feFlood flood-opacity="0" result="BackgroundImageFix"/>
<feColorMatrix in="SourceAlpha" type="matrix" values="0 0 0 0 0 0 0 0 0 0 0 0 0 0 0 0 0 0 127 0"/>
<feOffset/>
<feGaussianBlur stdDeviation="2"/>
<feColorMatrix type="matrix" values="0 0 0 0 0.847059 0 0 0 0 0.847059 0 0 0 0 0.847059 0 0 0 1 0"/>
<feBlend mode="normal" in2="BackgroundImageFix" result="effect1_dropShadow"/>
<feBlend mode="normal" in="SourceGraphic" in2="effect1_dropShadow" result="shape"/>
</filter>
<filter id="filter14_d" x="202.385" y="368.015" width="386.55" height="33.4853" filterUnits="userSpaceOnUse" color-interpolation-filters="sRGB">
<feFlood flood-opacity="0" result="BackgroundImageFix"/>
<feColorMatrix in="SourceAlpha" type="matrix" values="0 0 0 0 0 0 0 0 0 0 0 0 0 0 0 0 0 0 127 0"/>
<feOffset/>
<feGaussianBlur stdDeviation="2"/>
<feColorMatrix type="matrix" values="0 0 0 0 0.847059 0 0 0 0 0.847059 0 0 0 0 0.847059 0 0 0 1 0"/>
<feBlend mode="normal" in2="BackgroundImageFix" result="effect1_dropShadow"/>
<feBlend mode="normal" in="SourceGraphic" in2="effect1_dropShadow" result="shape"/>
</filter>
</defs>
</svg>
