<svg width="58" height="59" viewBox="0 0 58 59" fill="none" xmlns="http://www.w3.org/2000/svg">
<path d="M46.4258 55.9314V36.5078H40.0445C38.8131 36.5078 38.4022 36.4659 38.0752 36.1924C37.4402 35.6604 38.4684 34.8791 38.4684 33.255C38.4684 31.4576 37.0125 30.0002 35.2146 30.0002C33.4167 30.0002 31.9608 31.4566 31.9608 33.2536C31.9608 34.8786 32.9881 35.6594 32.354 36.1924C32.0274 36.4659 31.616 36.5078 30.3847 36.5078H24.0029L24.002 41.9392C24.002 42.735 24.0784 42.8468 24.233 42.9143C24.5489 43.0504 25.0628 42.7713 26.2494 42.7713C28.7489 42.7713 30.743 45.4078 30.743 47.7223C30.743 50.0336 28.8496 52.6692 26.2494 52.6692C25.0637 52.6692 24.5489 52.3896 24.233 52.5262C24.0802 52.5928 24.0029 52.706 24.0029 53.5022V58.9326H43.4977C43.4977 58.9326 45.1428 59.0473 45.8407 58.3475C46.5404 57.6496 46.4258 55.9314 46.4258 55.9314Z" fill="#CCA5FF"/>
<path d="M54.9331 0.00702581L35.5095 0.00702666L35.5095 6.38836C35.5095 7.61971 35.4676 8.03063 35.1941 8.35769C34.6621 8.9927 33.8808 7.96447 32.2567 7.96447C30.4593 7.96447 29.002 9.42039 29.002 11.2183C29.002 13.0161 30.4583 14.4721 32.2553 14.4721C33.8803 14.4721 34.6612 13.4448 35.1941 14.0788C35.4676 14.4054 35.5095 14.8168 35.5095 16.0482L35.5095 22.43L40.9409 22.4309C41.7367 22.4309 41.8485 22.3545 41.916 22.1998C42.0521 21.8839 41.773 21.3701 41.773 20.1834C41.773 17.6839 44.4095 15.6899 46.724 15.6899C49.0353 15.6899 51.6709 17.5833 51.6709 20.1834C51.6709 21.3691 51.3914 21.8839 51.5279 22.1998C51.5945 22.3526 51.7077 22.43 52.5039 22.43L57.9344 22.43L57.9344 2.93516C57.9344 2.93516 58.049 1.29009 57.3492 0.592188C56.6513 -0.107583 54.9331 0.00702581 54.9331 0.00702581Z" fill="#CCA5FF"/>
<path d="M0.00678053 15.7688L0.00678223 35.1924L6.38812 35.1924C7.61947 35.1924 8.03039 35.2343 8.35744 35.5078C8.99246 36.0398 7.96423 36.8211 7.96423 38.4452C7.96423 40.2426 9.42014 41.7 11.218 41.7C13.0159 41.7 14.4718 40.2436 14.4718 38.4466C14.4718 36.8216 13.4445 36.0408 14.0786 35.5078C14.4052 35.2343 14.8166 35.1924 16.0479 35.1924L22.4297 35.1924L22.4307 29.761C22.4307 28.9652 22.3543 28.8534 22.1996 28.7859C21.8837 28.6498 21.3698 28.9289 20.1832 28.9289C17.6837 28.9289 15.6897 26.2924 15.6897 23.9779C15.6897 21.6666 17.583 19.031 20.1832 19.031C21.3689 19.031 21.8837 19.3105 22.1996 19.174C22.3524 19.1074 22.4297 18.9942 22.4297 18.198L22.4297 12.7676L2.93492 12.7676C2.93492 12.7676 1.28985 12.6529 0.591942 13.3527C-0.107828 14.0506 0.00678053 15.7688 0.00678053 15.7688Z" fill="#CCA5FF"/>
<path d="M3.01029 58.9241L22.4338 58.9241L22.4338 52.5428C22.4338 51.3114 22.4757 50.9005 22.7492 50.5735C23.2813 49.9385 24.0626 50.9667 25.6867 50.9667C27.4841 50.9667 28.9414 49.5108 28.9414 47.7129C28.9414 45.915 27.485 44.4591 25.6881 44.4591C24.063 44.4591 23.2822 45.4864 22.7492 44.8523C22.4757 44.5257 22.4338 44.1143 22.4338 42.883L22.4338 36.5012L17.0024 36.5002C16.2067 36.5002 16.0949 36.5767 16.0273 36.7313C15.8913 37.0472 16.1704 37.5611 16.1704 38.7477C16.1704 41.2472 13.5339 43.2412 11.2193 43.2412C8.90802 43.2412 6.27247 41.3479 6.27247 38.7477C6.27247 37.562 6.552 37.0472 6.4155 36.7313C6.34887 36.5785 6.23566 36.5012 5.43945 36.5012L0.00900599 36.5012L0.00900514 55.996C0.00900514 55.996 -0.105601 57.6411 0.594169 58.339C1.29208 59.0387 3.01029 58.9241 3.01029 58.9241Z" fill="#CCA5FF"/>
</svg>
