<svg width="120" height="154" viewBox="0 0 120 154" fill="none" xmlns="http://www.w3.org/2000/svg">
<path d="M88.6423 34.9739V71.1596H39.9561" stroke="black"/>
<path d="M25.4818 21.1747V107.986C25.4818 110.54 27.4739 112.609 29.934 112.609H96.0328C98.4929 112.609 100.485 110.54 100.485 107.986V21.1747C100.485 18.6203 98.4929 16.5519 96.0328 16.5519H29.934C27.4739 16.5643 25.4818 18.6328 25.4818 21.1747Z" fill="#E9EAFE"/>
<path d="M72.25 46H83.75C83.8881 46 84 46.1119 84 46.25V66.75C84 66.8881 83.8881 67 83.75 67H72.25C72.1119 67 72 66.8881 72 66.75V46.25C72 46.1119 72.1119 46 72.25 46Z" fill="white"/>
<path d="M58.25 34H69.75C69.8881 34 70 34.1119 70 34.25V66.75C70 66.8881 69.8881 67 69.75 67H58.25C58.1119 67 58 66.8881 58 66.75V34.25C58 34.1119 58.1119 34 58.25 34Z" fill="white"/>
<path d="M44.25 52H55.75C55.8881 52 56 52.1119 56 52.25V66.75C56 66.8881 55.8881 67 55.75 67H44.25C44.1119 67 44 66.8881 44 66.75V52.25C44 52.1119 44.1119 52 44.25 52Z" fill="white"/>
<path d="M81 76H46" stroke="#57547F" stroke-width="4" stroke-linecap="round"/>
<path d="M81 86H46" stroke="#57547F" stroke-width="4" stroke-linecap="round"/>
<path d="M71.4233 93.3109L53.8175 93.3109" stroke="#B57DFF" stroke-width="2" stroke-linecap="round"/>
<path d="M43.9082 16.7276C43.9082 19.6817 46.2262 22.0713 49.1149 22.0713H77.3264C80.2151 22.0713 82.5331 19.6817 82.5331 16.7276C82.5331 13.9897 81.4498 11.54 79.7492 9.75078C78.0136 7.96153 75.6142 6.86877 72.9817 6.86877H69.8717C69.8717 3.07414 66.9014 0 63.209 0C59.5166 0 56.5463 3.06213 56.5463 6.86877H53.4363C48.1714 6.88078 43.9082 11.2758 43.9082 16.7276Z" fill="#57547F"/>
<path d="M60 6.21066C60 7.96073 61.4606 9.395 63.2107 9.395C64.9607 9.395 66.395 7.97389 66.395 6.21066C66.395 4.42111 64.9739 3 63.2107 3C61.4606 3 60 4.42111 60 6.21066Z" fill="white"/>
<circle cx="48.5357" cy="93.3109" r="1.76058" fill="#B57DFF"/>
<path d="M43.9447 46.2329C47.9636 36.3835 43.2371 25.141 33.3877 21.1221C23.5383 17.1032 12.2958 21.8297 8.27687 31.6791C4.25797 41.5285 8.98452 52.771 18.8339 56.7899C28.6833 60.8088 39.9258 56.0823 43.9447 46.2329Z" fill="#57547F"/>
<path d="M40.0654 38.9556C40.0654 46.651 33.8056 52.9109 26.1102 52.9109C18.4148 52.9109 12.1549 46.651 12.1549 38.9556C12.1549 31.2602 18.4148 25.0004 26.1102 25.0004C33.8056 25.0004 40.0654 31.2602 40.0654 38.9556Z" fill="white"/>
<path d="M34.7411 38.9558C34.7411 43.7075 30.8798 47.5869 26.1099 47.5869C21.3401 47.5869 17.4788 43.7075 17.4788 38.9558C17.4788 34.1859 21.3401 30.3064 26.1099 30.3064C30.8798 30.3064 34.7411 34.1859 34.7411 38.9558Z" fill="#57547F"/>
<path d="M29.4353 38.9555C29.4353 40.7817 27.9453 42.2808 26.1101 42.2808C24.2839 42.2808 22.7848 40.7908 22.7848 38.9555C22.7848 37.1293 24.2748 35.6302 26.1101 35.6302C27.9362 35.6302 29.4353 37.1293 29.4353 38.9555Z" fill="white"/>
<path d="M0 147.62V146.049C0 143.585 1.47749 141.361 3.74895 140.409L15.0096 136.698H30.7407L42.0014 140.409C44.2728 141.361 45.7503 143.588 45.7503 146.049V147.62" fill="#8FA2C5"/>
<path d="M30.7407 137.157C25.7525 139.477 19.9979 139.477 15.0096 137.157V121.426H30.7407V137.157Z" fill="#F2C8B9"/>
<path d="M5.76792 112.663H7.29719L6.34442 100.981H4.03843C2.39524 100.981 1.06274 102.314 1.06274 103.957V107.961C1.06274 110.557 3.16851 112.663 5.76792 112.663Z" fill="#FDD2C2"/>
<path d="M39.1932 112.663H37.6639L38.6167 100.981H40.9227C42.5659 100.981 43.8984 102.314 43.8984 103.957V107.961C43.8984 110.557 41.7892 112.663 39.1932 112.663Z" fill="#FDD2C2"/>
<path d="M39.4675 119.731C38.9255 123.625 37.0061 127.274 33.9165 129.704C32.6876 130.671 31.2999 131.32 30.0088 131.637C26.467 132.504 19.335 132.514 15.7414 131.637C14.4503 131.323 13.0626 130.671 11.8336 129.704C8.74402 127.274 6.82122 123.625 6.28269 119.728C5.75107 115.892 5.48181 112.026 5.48181 108.149V96.3915C5.48181 86.7844 13.2697 79 22.8734 79C32.4805 79 40.2649 86.7879 40.2649 96.3915V108.153C40.2649 112.029 39.9991 115.896 39.4675 119.731Z" fill="#FDD2C2"/>
<path fill-rule="evenodd" clip-rule="evenodd" d="M5.24561 101.365L11.1109 115.87C11.4692 116.733 12.3699 117.632 15.3788 116.388C19.14 114.833 24.406 113.278 30.3164 116.388C31.212 116.733 34.3617 117.735 35.6513 114.833C36.8831 112.061 38.9985 107.176 40.2783 103.883V108.118C40.2783 111.994 40.0105 115.861 39.4751 119.696C38.9292 123.59 36.9961 127.239 33.8843 129.669C32.6466 130.636 31.2489 131.285 29.9486 131.602C26.3813 132.469 19.1982 132.479 15.5788 131.602C14.2784 131.288 12.8807 130.636 11.643 129.669C8.53122 127.239 6.59462 123.59 6.05223 119.693C5.5168 115.857 5.24561 111.991 5.24561 108.114V101.365Z" fill="#925454"/>
<path d="M80 146.073V144.747C80 142.668 81.2451 140.794 83.1625 139.988L92.6594 136.856H105.929L115.426 139.988C117.34 140.794 118.588 142.668 118.588 144.747V146.073" fill="#FFD12B"/>
<path d="M105.933 137.248C101.724 139.202 96.8686 139.202 92.6633 137.248V123.978H105.933V137.248Z" fill="#F2C8B9"/>
<path d="M110.439 114.309C110.439 114.309 108.579 119.138 112.518 120.714H114.407C114.407 120.714 117.062 116.342 117.469 114.309C117.883 112.276 110.439 114.309 110.439 114.309Z" fill="#454954"/>
<path d="M115.547 125.694C117.16 124.418 118.466 122.274 113.697 120.042C113.697 120.042 107.108 122.463 111.586 125.746C110.217 126.714 109.059 128.245 111.235 130.061C110.02 131.05 109.221 132.504 111.348 134.201C109.992 135.254 109.043 136.873 111.805 138.766C111.548 138.958 111.389 139.223 111.389 139.519C111.389 139.978 111.777 140.364 112.319 140.511H112.306C112.306 140.511 110.938 142.48 110.803 145.465C110.668 148.45 112.729 149.941 113.546 152C113.546 152 118.632 143.586 114.786 140.513H114.774C115.316 140.367 115.704 139.981 115.704 139.522C115.704 139.226 115.541 138.958 115.281 138.766C116.693 137.742 118.115 136.035 115.773 134.151C116.957 133.131 117.811 131.637 115.879 130.009C117.063 128.929 117.83 127.374 115.547 125.694Z" fill="#454954"/>
<path d="M115.741 106.054C115.741 106.054 117.056 104.294 117.532 104.472C117.532 104.472 119.138 81.4027 100.405 84.3331C100.405 84.3331 82.6479 79.7636 82.6479 104.472C82.6479 104.472 83.3974 104.803 84.4389 106.054C84.4389 106.054 85.2435 105.1 86.418 104.472C93.7093 100.572 104.564 100.039 113.685 104.472C114.415 104.827 115.141 105.353 115.741 106.054Z" fill="#454954"/>
<path d="M84.6573 115.132H85.9086L86.556 105.131C86.6089 104.468 86.086 103.901 85.423 103.901H84.3802C82.4099 103.901 80.8099 105.498 80.8099 107.471V111.285C80.8099 113.41 82.5313 115.132 84.6573 115.132Z" fill="#FDD2C2"/>
<path d="M115.769 115.132H114.518L113.871 105.131C113.818 104.468 114.341 103.901 115.004 103.901H116.046C118.017 103.901 119.617 105.498 119.617 107.471V111.285C119.617 113.41 117.895 115.132 115.769 115.132Z" fill="#FDD2C2"/>
<path d="M104.319 94.1081H102.864C86.2235 93.049 86.8742 98.2258 85.4048 103.92V115.368C85.4048 119.242 86.7933 123.01 89.3509 126.077L92.2151 129.512C94.1026 131.774 97.0179 133.101 100.107 133.101C103.197 133.101 106.115 131.777 108 129.512L110.864 126.077C113.422 123.007 114.81 119.242 114.81 115.368V102.845C114.813 97.5812 110.014 94.1081 104.319 94.1081Z" fill="#FDD2C2"/>
<path d="M40.5057 154V152.354C40.5057 149.772 42.0537 147.443 44.4335 146.445L54.9619 142.557H71.4434L81.9718 146.445C84.3516 147.443 85.8996 149.776 85.8996 152.354V154" fill="#C3B8FE"/>
<path d="M71.4477 143.037C66.2215 145.468 60.1924 145.468 54.9662 143.037V126.556H71.4477V143.037Z" fill="#CC927F"/>
<path d="M68.4929 89.246H66.7424C46.717 87.9557 47.2767 95.2321 45.5084 102.169V116.115C45.5084 120.835 47.1794 125.424 50.2572 129.16L53.704 133.345C55.9753 136.101 59.4835 137.718 63.2016 137.718C66.9196 137.718 70.4314 136.105 72.6991 133.345L76.1459 129.16C79.2238 125.421 80.8947 120.835 80.8947 116.115V100.859C80.8983 94.4469 75.3466 89.246 68.4929 89.246Z" fill="#DB9D89"/>
<path fill-rule="evenodd" clip-rule="evenodd" d="M41.8565 123.241C43.5613 130.877 52.5116 135.319 57.0043 133.411C46.1637 126.583 46.5097 107.637 51.4587 101.482C50.3756 103.231 50.2202 106.881 50.6865 107.359C54.0911 105.93 58.2729 103.231 61.2162 98.7831C61.3717 101.323 59.8223 103.549 55.485 106.562C59.2005 105.925 64.7763 103.704 66.9475 97.1944C66.9475 101.801 68.3013 104.835 61.1811 108.012C74.4988 106.264 75.622 99.58 76.2437 93.2251C79.9592 97.5132 82.4613 125.612 70.1666 132.882C74.2682 132.99 78.2294 132.121 79.7136 129.154C89.0299 122.974 85.2241 112.917 84.6074 102.912C83.9856 92.9063 76.5546 80.9986 70.2067 81.3173C67.1079 77.8211 55.4951 76.0781 46.0484 92.7521C36.5916 109.426 40.7734 120.069 41.8565 123.241Z" fill="#4E3654"/>
</svg>
