<svg width="131" height="158" viewBox="0 0 131 158" fill="none" xmlns="http://www.w3.org/2000/svg">
<rect x="17" y="15" width="71.5267" height="85.832" rx="3" fill="#E9EAFE"/>
<path d="M25.1744 30.4483C25.1744 29.3078 26.099 28.3833 27.2394 28.3833H79.7981C80.9385 28.3833 81.8631 29.3078 81.8631 30.4483V30.4483C81.8631 31.5888 80.9385 32.5133 79.7981 32.5133H27.2394C26.099 32.5133 25.1744 31.5888 25.1744 30.4483V30.4483Z" fill="#FDFDFD"/>
<path d="M25.1744 47.8192C25.1744 46.6787 26.099 45.7542 27.2394 45.7542H79.7981C80.9385 45.7542 81.8631 46.6787 81.8631 47.8192V47.8192C81.8631 48.9596 80.9385 49.8842 79.7981 49.8842H27.2394C26.099 49.8842 25.1744 48.9596 25.1744 47.8192V47.8192Z" fill="#FDFDFD"/>
<path d="M25.1744 65.1898C25.1744 64.0493 26.099 63.1248 27.2394 63.1248H79.7981C80.9385 63.1248 81.8631 64.0493 81.8631 65.1898V65.1898C81.8631 66.3302 80.9385 67.2548 79.7981 67.2548H27.2394C26.099 67.2548 25.1744 66.3302 25.1744 65.1898V65.1898Z" fill="#FDFDFD"/>
<path d="M25.1744 82.5606C25.1744 81.4201 26.099 80.4956 27.2394 80.4956H79.7981C80.9385 80.4956 81.8631 81.4201 81.8631 82.5606V82.5606C81.8631 83.7011 80.9385 84.6256 79.7981 84.6256H27.2394C26.099 84.6256 25.1744 83.7011 25.1744 82.5606V82.5606Z" fill="#FDFDFD"/>
<mask id="mask0" mask-type="alpha" maskUnits="userSpaceOnUse" x="68" y="6" width="38" height="39">
<ellipse cx="87.0376" cy="25.6693" rx="18.8043" ry="19.1028" fill="#FCFCFF"/>
</mask>
<g mask="url(#mask0)">
<rect x="43" y="12" width="49" height="58.8" rx="3" fill="#E9EAFE"/>
<path d="M49.285 27.895C49.285 25.9923 50.8274 24.45 52.73 24.45H83.99C85.8926 24.45 87.435 25.9923 87.435 27.895V27.895C87.435 29.7976 85.8926 31.34 83.99 31.34H52.73C50.8274 31.34 49.285 29.7976 49.285 27.895V27.895Z" fill="#FDFDFD"/>
</g>
<rect x="104.122" y="37.9384" width="36.6555" height="6.11" rx="3.055" transform="rotate(45 104.122 37.9384)" fill="#57547F"/>
<path fill-rule="evenodd" clip-rule="evenodd" d="M86.7485 48.1885C100.055 48.1885 110.843 37.4011 110.843 24.0942C110.843 10.7874 100.055 0 86.7485 0C73.4417 0 62.6543 10.7874 62.6543 24.0942C62.6543 37.4011 73.4417 48.1885 86.7485 48.1885ZM86.596 41.4787C96.113 41.4787 103.828 33.7637 103.828 24.2467C103.828 14.7298 96.113 7.01477 86.596 7.01477C77.0791 7.01477 69.3641 14.7298 69.3641 24.2467C69.3641 33.7637 77.0791 41.4787 86.596 41.4787Z" fill="#57547F"/>
<path d="M1.13831 152.846V151.391C1.13831 149.106 2.50792 147.047 4.61266 146.162L15.051 142.721H29.6348L40.0731 146.162C42.1778 147.047 43.5474 149.109 43.5474 151.391V152.846" fill="#E9EAFE"/>
<path d="M29.6378 143.148C25.0134 145.299 19.6784 145.299 15.054 143.148V128.565H29.6378V143.148Z" fill="#875656"/>
<path d="M4.2278 122.526H5.60351L6.31424 113.719C6.3722 112.993 5.79873 112.368 5.06969 112.368H3.92276C1.75701 112.368 0 114.125 0 116.291V118.295C0 120.631 1.89427 122.526 4.2278 122.526Z" fill="#926262"/>
<path d="M41.461 122.025H40.5465L39.8729 113.679C39.8729 113.679 39.8729 113.679 39.8729 113.679C39.8382 113.242 40.1838 112.867 40.6191 112.867H41.766C43.6556 112.867 45.1888 114.401 45.1888 116.29V118.294C45.1888 120.355 43.5209 122.025 41.461 122.025Z" fill="#7C4A4A" stroke="#454954"/>
<path d="M40.6344 114.616L43.1601 100.157C44.127 94.6296 40.8479 89.267 35.5098 87.5436C27.6764 85.0118 17.232 80.5522 13.5289 74C8.2121 76.6233 6.57101 81.1531 7.98332 85.3229C-0.252643 92.6712 0.204911 102.499 4.03616 114.619H40.6344V114.616Z" fill="#B57DFF"/>
<path d="M33.161 135.483C27.2128 139.165 17.4791 139.165 11.5309 135.483C5.92128 132.012 4.97569 125.624 5.69557 119.063L5.69556 100.861C6.19276 96.6946 9.72813 93.5558 13.9224 93.5558H30.7603C34.9576 93.5558 38.49 96.6946 38.9872 100.861L38.9871 119.063C39.7131 125.624 38.7706 132.012 33.161 135.483Z" fill="#926262"/>
<path d="M82.8348 152.384V150.993C82.8348 148.809 84.1436 146.84 86.1558 145.996L96.1312 142.709H110.067L120.042 145.996C122.054 146.84 123.363 148.812 123.363 150.993V152.384" fill="#454954"/>
<path d="M110.067 143.115C105.648 145.17 100.547 145.17 96.1312 143.115V129.18H110.067V143.115Z" fill="#F3C7B7"/>
<path d="M88.0732 122.165H89.3881L88.5686 112.446H86.587C85.1772 112.446 84.0335 113.59 84.0335 115.003V118.125C84.0335 120.357 85.8408 122.165 88.0732 122.165Z" fill="#FDD2C2"/>
<path d="M118.17 122.165H116.856L117.675 112.446H119.657C121.066 112.446 122.21 113.59 122.21 115.003V118.125C122.21 120.357 120.4 122.165 118.17 122.165Z" fill="#FDD2C2"/>
<path d="M84.8317 96.4069C81.9969 101.202 82.8409 107.804 85.5504 112.853L92.0824 113.244V97.8808L84.8317 96.4069Z" fill="#DD6816"/>
<path d="M113.871 131.966L110.987 134.703C108.859 136.721 106.036 137.846 103.1 137.846C100.165 137.846 97.3421 136.721 95.2137 134.703L92.33 131.966C90.4279 130.161 89.2016 127.761 88.8561 125.165L86.798 109.78C85.3118 98.6391 93.9783 88.7372 105.217 88.7372C114.213 88.7372 121.152 96.6636 119.963 105.581L117.348 125.162C116.999 127.761 115.773 130.161 113.871 131.966Z" fill="#FDD2C2"/>
<path d="M119.137 111.761L113.455 98.4894C113.455 98.4894 104.578 102.658 98.6021 102.281C87.9968 101.609 82.5168 94.621 80 90.2449C84.8317 87.0126 101.214 78.7314 112.109 88.9208C117.583 88.0768 121.684 92.621 122.21 97.5292C122.742 102.499 119.137 111.761 119.137 111.761Z" fill="#DD6816"/>
<path d="M39.3455 157.417V155.743C39.3455 153.117 40.9198 150.748 43.3401 149.733L54.0476 145.779H70.8095L81.5169 149.733C83.9372 150.748 85.5115 153.12 85.5115 155.743V157.417" fill="#B57DFF"/>
<path d="M70.8132 146.268C65.4981 148.74 59.3664 148.74 54.0513 146.268V129.506H70.8132V146.268Z" fill="#D09581"/>
<path d="M85.7727 118.6V100.668C85.7727 91.4468 78.2984 83.9725 69.077 83.9725C68.036 83.9725 67.0245 84.0792 66.0351 84.2631C63.0814 81.6184 59.1935 80 54.923 80C45.7016 80 38.2273 87.4743 38.2273 96.6994V118.603L32 124.827C32 130.484 36.5831 135.067 42.2403 135.067C47.2575 135.067 51.4286 131.455 52.3041 126.688H71.6959C72.5714 131.455 76.7388 135.067 81.7597 135.067C87.4169 135.067 92 130.484 92 124.827L85.7727 118.6Z" fill="#5042AD"/>
<path d="M67.808 91.5608H66.0278C60.9591 102.298 52.2306 95.3421 44.4326 104.703V118.887C44.4326 123.687 46.132 128.355 49.2622 132.154L52.7676 136.41C55.0775 139.213 58.6455 140.857 62.4267 140.857C66.208 140.857 69.7796 139.217 72.0859 136.41L75.5913 132.154C78.7215 128.351 80.4208 123.687 80.4208 118.887V103.372C80.4245 96.8501 74.7784 91.5608 67.808 91.5608Z" fill="#DB9D89"/>
</svg>
