<svg width="19" height="23" viewBox="0 0 19 23" fill="none" xmlns="http://www.w3.org/2000/svg">
<path d="M15.885 0.482189C15.616 0.215274 15.1821 0.215278 14.9131 0.482198L14.1778 1.21172L17.6324 4.63923L18.3599 3.91733C18.6319 3.64743 18.6319 3.20759 18.3599 2.9377L15.885 0.482189ZM14.3042 0.848202C14.0352 0.581286 13.6012 0.581288 13.3322 0.848208L13.2076 0.97187L4.45426 9.65674C4.18224 9.92664 4.18224 10.3665 4.45426 10.6364L8.15038 14.3036C8.41939 14.5705 8.85333 14.5705 9.12235 14.3036L11.8463 11.6009C12.5946 11.9502 13.4735 11.9241 14.2028 11.5274C15.0643 12.5879 15.5455 13.9111 15.5455 15.2881C15.5455 18.6109 12.849 21.2863 9.5 21.2863C7.49668 21.2863 5.67216 20.2983 4.55771 18.7156H5.35545C5.73653 18.7156 6.04545 18.4067 6.04545 18.0256V17.6918C6.04545 17.3107 5.73653 17.0018 5.35545 17.0018H1.55364C1.17256 17.0018 0.863636 17.3107 0.863636 17.6918V18.0256C0.863636 18.4067 1.17256 18.7156 1.55364 18.7156H2.53693C3.04649 19.735 3.78111 20.5959 4.64879 21.2863H0.69C0.308924 21.2863 0 21.5952 0 21.9763V22.31C0 22.6911 0.308924 23 0.69 23H18.31C18.6911 23 19 22.6911 19 22.31V21.9763C19 21.5952 18.6911 21.2863 18.31 21.2863H14.3731C16.1391 19.8708 17.2727 17.7081 17.2727 15.2881C17.2727 13.4207 16.5855 11.6265 15.3599 10.2287C15.6169 9.57164 15.5861 8.83308 15.2823 8.19189L18.0003 5.49506C18.2723 5.22516 18.2723 4.78533 18.0003 4.51544L14.3042 0.848202ZM12.9545 8.42771C13.1738 8.42771 13.3929 8.51289 13.5652 8.68389C13.9097 9.0257 13.9097 9.55381 13.5652 9.89562C13.2207 10.2375 12.6884 10.2375 12.3439 9.89562C11.9994 9.55381 11.9994 9.0257 12.3439 8.68389C12.5162 8.51289 12.7353 8.42771 12.9545 8.42771ZM4.82219 10.5126L4.09462 11.2345C3.8226 11.5044 3.82261 11.9442 4.09463 12.2141L6.56951 14.6696C6.83853 14.9365 7.27247 14.9365 7.54148 14.6696L8.27674 13.9401L4.82219 10.5126Z" fill="#A4A9E6"/>
</svg>
