<svg width="540" height="337" viewBox="0 0 540 337" fill="none" xmlns="http://www.w3.org/2000/svg">
<path d="M53.092 109.216C55.216 109.216 56.656 108.208 57.664 106.822L56.404 106.138C55.72 107.146 54.46 107.884 53.092 107.884C50.464 107.884 48.466 105.85 48.466 103.006C48.466 100.126 50.464 98.128 53.092 98.128C54.46 98.128 55.72 98.848 56.404 99.874L57.646 99.172C56.692 97.804 55.216 96.796 53.092 96.796C49.636 96.796 46.918 99.316 46.918 103.006C46.918 106.696 49.636 109.216 53.092 109.216ZM67.2501 109V102.862C67.2501 100.972 66.2961 100.09 64.4781 100.09C63.1641 100.09 61.9761 100.828 61.3821 101.566V96.994H60.0321V109H61.3821V102.646C61.8861 101.944 62.8941 101.296 63.9381 101.296C65.1261 101.296 65.9001 101.728 65.9001 103.276V109H67.2501ZM71.1297 99.064C71.6337 99.064 72.0297 98.668 72.0297 98.164C72.0297 97.66 71.6337 97.246 71.1297 97.246C70.6257 97.246 70.2117 97.66 70.2117 98.164C70.2117 98.668 70.6257 99.064 71.1297 99.064ZM71.7957 109V100.306H70.4457V109H71.7957ZM78.9307 109.216C80.3347 109.216 81.5047 108.73 82.3867 107.866L81.7387 106.984C81.0367 107.704 80.0467 108.1 79.0387 108.1C77.1667 108.1 76.0327 106.732 75.9247 105.094H82.9447V104.752C82.9447 102.142 81.3967 100.09 78.7687 100.09C76.2847 100.09 74.4847 102.124 74.4847 104.644C74.4847 107.362 76.3387 109.216 78.9307 109.216ZM81.6127 104.086H75.9067C75.9787 102.772 76.8967 101.206 78.7507 101.206C80.7307 101.206 81.5947 102.808 81.6127 104.086ZM87.3593 109V101.494H89.1233V100.306H87.3593V99.64C87.3593 98.524 87.8453 97.93 88.7453 97.93C89.1773 97.93 89.5193 98.092 89.8073 98.344L90.3653 97.48C89.8253 96.976 89.2313 96.814 88.5293 96.814C86.9993 96.814 86.0093 97.858 86.0093 99.64V100.306H84.5693V101.494H86.0093V109H87.3593ZM97.9527 109V103.528H104.199V102.196H97.9527V98.326H104.325V96.994H96.4587V109H97.9527ZM107.503 99.064C108.007 99.064 108.403 98.668 108.403 98.164C108.403 97.66 108.007 97.246 107.503 97.246C106.999 97.246 106.585 97.66 106.585 98.164C106.585 98.668 106.999 99.064 107.503 99.064ZM108.169 109V100.306H106.819V109H108.169ZM118.58 109V102.898C118.58 101.008 117.626 100.09 115.826 100.09C114.512 100.09 113.324 100.828 112.712 101.566V100.306H111.362V109H112.712V102.646C113.234 101.944 114.224 101.296 115.286 101.296C116.456 101.296 117.248 101.764 117.248 103.312V109H118.58ZM128.579 109V103.024C128.579 100.918 127.067 100.09 125.213 100.09C123.791 100.09 122.675 100.558 121.739 101.53L122.369 102.466C123.143 101.62 123.989 101.26 125.033 101.26C126.293 101.26 127.229 101.926 127.229 103.078V104.644C126.527 103.852 125.537 103.474 124.349 103.474C122.873 103.474 121.325 104.374 121.325 106.336C121.325 108.226 122.891 109.216 124.349 109.216C125.519 109.216 126.527 108.802 127.229 108.01V109H128.579ZM124.853 108.244C123.575 108.244 122.693 107.452 122.693 106.336C122.693 105.238 123.575 104.446 124.853 104.446C125.789 104.446 126.707 104.806 127.229 105.508V107.164C126.707 107.884 125.789 108.244 124.853 108.244ZM139.021 109V102.898C139.021 101.008 138.067 100.09 136.267 100.09C134.953 100.09 133.765 100.828 133.153 101.566V100.306H131.803V109H133.153V102.646C133.675 101.944 134.665 101.296 135.727 101.296C136.897 101.296 137.689 101.764 137.689 103.312V109H139.021ZM146.069 109.216C147.653 109.216 148.589 108.568 149.255 107.704L148.355 106.876C147.779 107.65 147.041 108.01 146.141 108.01C144.305 108.01 143.135 106.57 143.135 104.644C143.135 102.718 144.305 101.296 146.141 101.296C147.041 101.296 147.779 101.62 148.355 102.412L149.255 101.602C148.589 100.738 147.653 100.09 146.069 100.09C143.477 100.09 141.731 102.07 141.731 104.644C141.731 107.218 143.477 109.216 146.069 109.216ZM152.348 99.064C152.852 99.064 153.248 98.668 153.248 98.164C153.248 97.66 152.852 97.246 152.348 97.246C151.844 97.246 151.43 97.66 151.43 98.164C151.43 98.668 151.844 99.064 152.348 99.064ZM153.014 109V100.306H151.664V109H153.014ZM162.993 109V103.024C162.993 100.918 161.481 100.09 159.627 100.09C158.205 100.09 157.089 100.558 156.153 101.53L156.783 102.466C157.557 101.62 158.403 101.26 159.447 101.26C160.707 101.26 161.643 101.926 161.643 103.078V104.644C160.941 103.852 159.951 103.474 158.763 103.474C157.287 103.474 155.739 104.374 155.739 106.336C155.739 108.226 157.305 109.216 158.763 109.216C159.933 109.216 160.941 108.802 161.643 108.01V109H162.993ZM159.267 108.244C157.989 108.244 157.107 107.452 157.107 106.336C157.107 105.238 157.989 104.446 159.267 104.446C160.203 104.446 161.121 104.806 161.643 105.508V107.164C161.121 107.884 160.203 108.244 159.267 108.244ZM167.567 109V96.994H166.217V109H167.567ZM181.444 109.216C184.99 109.216 187.42 106.552 187.42 103.006C187.42 99.46 184.99 96.796 181.444 96.796C177.898 96.796 175.486 99.46 175.486 103.006C175.486 106.552 177.898 109.216 181.444 109.216ZM181.444 107.884C178.744 107.884 177.034 105.796 177.034 103.006C177.034 100.198 178.744 98.128 181.444 98.128C184.126 98.128 185.872 100.198 185.872 103.006C185.872 105.796 184.126 107.884 181.444 107.884ZM191.91 109V101.494H193.674V100.306H191.91V99.64C191.91 98.524 192.396 97.93 193.296 97.93C193.728 97.93 194.07 98.092 194.358 98.344L194.916 97.48C194.376 96.976 193.782 96.814 193.08 96.814C191.55 96.814 190.56 97.858 190.56 99.64V100.306H189.12V101.494H190.56V109H191.91ZM197.022 109V101.494H198.786V100.306H197.022V99.64C197.022 98.524 197.508 97.93 198.408 97.93C198.732 97.93 198.966 98.002 199.182 98.128L199.524 97.102C199.164 96.904 198.714 96.814 198.192 96.814C196.698 96.814 195.672 97.84 195.672 99.64V100.306H194.232V101.494H195.672V109H197.022ZM201.072 99.064C201.576 99.064 201.972 98.668 201.972 98.164C201.972 97.66 201.576 97.246 201.072 97.246C200.568 97.246 200.154 97.66 200.154 98.164C200.154 98.668 200.568 99.064 201.072 99.064ZM201.738 109V100.306H200.388V109H201.738ZM208.772 109.216C210.356 109.216 211.292 108.568 211.958 107.704L211.058 106.876C210.482 107.65 209.744 108.01 208.844 108.01C207.008 108.01 205.838 106.57 205.838 104.644C205.838 102.718 207.008 101.296 208.844 101.296C209.744 101.296 210.482 101.62 211.058 102.412L211.958 101.602C211.292 100.738 210.356 100.09 208.772 100.09C206.18 100.09 204.434 102.07 204.434 104.644C204.434 107.218 206.18 109.216 208.772 109.216ZM218.31 109.216C219.714 109.216 220.884 108.73 221.766 107.866L221.118 106.984C220.416 107.704 219.426 108.1 218.418 108.1C216.546 108.1 215.412 106.732 215.304 105.094H222.324V104.752C222.324 102.142 220.776 100.09 218.148 100.09C215.664 100.09 213.864 102.124 213.864 104.644C213.864 107.362 215.718 109.216 218.31 109.216ZM220.992 104.086H215.286C215.358 102.772 216.276 101.206 218.13 101.206C220.11 101.206 220.974 102.808 220.992 104.086ZM226.36 109V102.844C226.756 102.142 227.89 101.458 228.736 101.458C228.934 101.458 229.096 101.476 229.258 101.494V100.108C228.07 100.108 227.062 100.792 226.36 101.692V100.306H225.01V109H226.36Z" fill="#454954"/>
<path d="M57.682 187L52.858 174.994H51.004L46.162 187H47.872L48.934 184.318H54.91L55.972 187H57.682ZM54.478 183.004H49.384L51.922 176.524L54.478 183.004ZM62.4697 187.216C64.7017 187.216 65.8717 186.046 65.8717 184.588C65.8717 181.204 60.4897 182.446 60.4897 180.556C60.4897 179.782 61.2277 179.188 62.4157 179.188C63.5497 179.188 64.4857 179.656 65.0077 180.286L65.6377 179.35C64.9537 178.648 63.9097 178.09 62.4157 178.09C60.3457 178.09 59.1937 179.224 59.1937 180.592C59.1937 183.814 64.5757 182.518 64.5757 184.624C64.5757 185.488 63.8377 186.118 62.5057 186.118C61.3177 186.118 60.2197 185.542 59.6437 184.876L58.9597 185.848C59.8417 186.766 61.0297 187.216 62.4697 187.216ZM71.3368 187.216C73.5688 187.216 74.7388 186.046 74.7388 184.588C74.7388 181.204 69.3568 182.446 69.3568 180.556C69.3568 179.782 70.0948 179.188 71.2828 179.188C72.4168 179.188 73.3528 179.656 73.8748 180.286L74.5048 179.35C73.8208 178.648 72.7768 178.09 71.2828 178.09C69.2128 178.09 68.0608 179.224 68.0608 180.592C68.0608 183.814 73.4428 182.518 73.4428 184.624C73.4428 185.488 72.7048 186.118 71.3728 186.118C70.1848 186.118 69.0868 185.542 68.5108 184.876L67.8268 185.848C68.7088 186.766 69.8968 187.216 71.3368 187.216ZM81.23 187.216C83.876 187.216 85.532 185.164 85.532 182.644C85.532 180.124 83.876 178.09 81.23 178.09C78.584 178.09 76.928 180.124 76.928 182.644C76.928 185.164 78.584 187.216 81.23 187.216ZM81.23 186.01C79.376 186.01 78.35 184.426 78.35 182.644C78.35 180.88 79.376 179.296 81.23 179.296C83.084 179.296 84.11 180.88 84.11 182.644C84.11 184.426 83.084 186.01 81.23 186.01ZM92.0668 187.216C93.6508 187.216 94.5868 186.568 95.2528 185.704L94.3528 184.876C93.7768 185.65 93.0388 186.01 92.1388 186.01C90.3028 186.01 89.1328 184.57 89.1328 182.644C89.1328 180.718 90.3028 179.296 92.1388 179.296C93.0388 179.296 93.7768 179.62 94.3528 180.412L95.2528 179.602C94.5868 178.738 93.6508 178.09 92.0668 178.09C89.4748 178.09 87.7288 180.07 87.7288 182.644C87.7288 185.218 89.4748 187.216 92.0668 187.216ZM98.3465 177.064C98.8505 177.064 99.2465 176.668 99.2465 176.164C99.2465 175.66 98.8505 175.246 98.3465 175.246C97.8425 175.246 97.4285 175.66 97.4285 176.164C97.4285 176.668 97.8425 177.064 98.3465 177.064ZM99.0125 187V178.306H97.6625V187H99.0125ZM108.991 187V181.024C108.991 178.918 107.479 178.09 105.625 178.09C104.203 178.09 103.087 178.558 102.151 179.53L102.781 180.466C103.555 179.62 104.401 179.26 105.445 179.26C106.705 179.26 107.641 179.926 107.641 181.078V182.644C106.939 181.852 105.949 181.474 104.761 181.474C103.285 181.474 101.737 182.374 101.737 184.336C101.737 186.226 103.303 187.216 104.761 187.216C105.931 187.216 106.939 186.802 107.641 186.01V187H108.991ZM105.265 186.244C103.987 186.244 103.105 185.452 103.105 184.336C103.105 183.238 103.987 182.446 105.265 182.446C106.201 182.446 107.119 182.806 107.641 183.508V185.164C107.119 185.884 106.201 186.244 105.265 186.244ZM114.429 187.216C115.203 187.216 115.689 186.982 116.031 186.658L115.635 185.632C115.455 185.83 115.113 186.01 114.717 186.01C114.141 186.01 113.853 185.542 113.853 184.894V179.494H115.617V178.306H113.853V175.93H112.485V178.306H111.045V179.494H112.485V185.182C112.485 186.478 113.133 187.216 114.429 187.216ZM121.948 187.216C123.352 187.216 124.522 186.73 125.404 185.866L124.756 184.984C124.054 185.704 123.064 186.1 122.056 186.1C120.184 186.1 119.05 184.732 118.942 183.094H125.962V182.752C125.962 180.142 124.414 178.09 121.786 178.09C119.302 178.09 117.502 180.124 117.502 182.644C117.502 185.362 119.356 187.216 121.948 187.216ZM124.63 182.086H118.924C118.996 180.772 119.914 179.206 121.768 179.206C123.748 179.206 124.612 180.808 124.63 182.086ZM137.965 187C141.709 187 144.121 184.426 144.121 181.006C144.121 177.604 141.709 174.994 137.965 174.994H133.861V187H137.965ZM137.965 185.668H135.355V176.326H137.965C140.935 176.326 142.573 178.414 142.573 181.006C142.573 183.58 140.881 185.668 137.965 185.668ZM147.595 177.064C148.099 177.064 148.495 176.668 148.495 176.164C148.495 175.66 148.099 175.246 147.595 175.246C147.091 175.246 146.677 175.66 146.677 176.164C146.677 176.668 147.091 177.064 147.595 177.064ZM148.261 187V178.306H146.911V187H148.261ZM152.804 187V180.844C153.2 180.142 154.334 179.458 155.18 179.458C155.378 179.458 155.54 179.476 155.702 179.494V178.108C154.514 178.108 153.506 178.792 152.804 179.692V178.306H151.454V187H152.804ZM161.837 187.216C163.241 187.216 164.411 186.73 165.293 185.866L164.645 184.984C163.943 185.704 162.953 186.1 161.945 186.1C160.073 186.1 158.939 184.732 158.831 183.094H165.851V182.752C165.851 180.142 164.303 178.09 161.675 178.09C159.191 178.09 157.391 180.124 157.391 182.644C157.391 185.362 159.245 187.216 161.837 187.216ZM164.519 182.086H158.813C158.885 180.772 159.803 179.206 161.657 179.206C163.637 179.206 164.501 180.808 164.519 182.086ZM172.372 187.216C173.956 187.216 174.892 186.568 175.558 185.704L174.658 184.876C174.082 185.65 173.344 186.01 172.444 186.01C170.608 186.01 169.438 184.57 169.438 182.644C169.438 180.718 170.608 179.296 172.444 179.296C173.344 179.296 174.082 179.62 174.658 180.412L175.558 179.602C174.892 178.738 173.956 178.09 172.372 178.09C169.78 178.09 168.034 180.07 168.034 182.644C168.034 185.218 169.78 187.216 172.372 187.216ZM180.181 187.216C180.955 187.216 181.441 186.982 181.783 186.658L181.387 185.632C181.207 185.83 180.865 186.01 180.469 186.01C179.893 186.01 179.605 185.542 179.605 184.894V179.494H181.369V178.306H179.605V175.93H178.237V178.306H176.797V179.494H178.237V185.182C178.237 186.478 178.885 187.216 180.181 187.216ZM187.556 187.216C190.202 187.216 191.858 185.164 191.858 182.644C191.858 180.124 190.202 178.09 187.556 178.09C184.91 178.09 183.254 180.124 183.254 182.644C183.254 185.164 184.91 187.216 187.556 187.216ZM187.556 186.01C185.702 186.01 184.676 184.426 184.676 182.644C184.676 180.88 185.702 179.296 187.556 179.296C189.41 179.296 190.436 180.88 190.436 182.644C190.436 184.426 189.41 186.01 187.556 186.01ZM195.909 187V180.844C196.305 180.142 197.439 179.458 198.285 179.458C198.483 179.458 198.645 179.476 198.807 179.494V178.108C197.619 178.108 196.611 178.792 195.909 179.692V178.306H194.559V187H195.909ZM209.957 187.216C212.603 187.216 214.259 185.164 214.259 182.644C214.259 180.124 212.603 178.09 209.957 178.09C207.311 178.09 205.655 180.124 205.655 182.644C205.655 185.164 207.311 187.216 209.957 187.216ZM209.957 186.01C208.103 186.01 207.077 184.426 207.077 182.644C207.077 180.88 208.103 179.296 209.957 179.296C211.811 179.296 212.837 180.88 212.837 182.644C212.837 184.426 211.811 186.01 209.957 186.01ZM218.687 187V179.494H220.451V178.306H218.687V177.64C218.687 176.524 219.173 175.93 220.073 175.93C220.505 175.93 220.847 176.092 221.135 176.344L221.693 175.48C221.153 174.976 220.559 174.814 219.857 174.814C218.327 174.814 217.337 175.858 217.337 177.64V178.306H215.897V179.494H217.337V187H218.687ZM229.281 187V182.23H232.611C235.005 182.23 236.373 180.574 236.373 178.612C236.373 176.65 235.023 174.994 232.611 174.994H227.787V187H229.281ZM232.431 180.898H229.281V176.326H232.431C233.853 176.326 234.825 177.262 234.825 178.612C234.825 179.962 233.853 180.898 232.431 180.898ZM240.147 187V180.844C240.543 180.142 241.677 179.458 242.523 179.458C242.721 179.458 242.883 179.476 243.045 179.494V178.108C241.857 178.108 240.849 178.792 240.147 179.692V178.306H238.797V187H240.147ZM249.037 187.216C251.683 187.216 253.339 185.164 253.339 182.644C253.339 180.124 251.683 178.09 249.037 178.09C246.391 178.09 244.735 180.124 244.735 182.644C244.735 185.164 246.391 187.216 249.037 187.216ZM249.037 186.01C247.183 186.01 246.157 184.426 246.157 182.644C246.157 180.88 247.183 179.296 249.037 179.296C250.891 179.296 251.917 180.88 251.917 182.644C251.917 184.426 250.891 186.01 249.037 186.01ZM259.531 190.528C261.655 190.528 263.689 189.628 263.689 186.874V178.306H262.339V179.62C261.637 178.666 260.575 178.09 259.405 178.09C257.119 178.09 255.535 179.818 255.535 182.608C255.535 185.416 257.137 187.108 259.405 187.108C260.629 187.108 261.691 186.442 262.339 185.56V186.874C262.339 188.71 260.971 189.412 259.531 189.412C258.289 189.412 257.425 189.088 256.705 188.242L256.021 189.214C257.065 190.24 258.073 190.528 259.531 190.528ZM259.747 185.902C257.983 185.902 256.939 184.516 256.939 182.608C256.939 180.682 257.983 179.296 259.747 179.296C260.809 179.296 261.853 179.944 262.339 180.682V184.498C261.853 185.254 260.809 185.902 259.747 185.902ZM268.243 187V180.844C268.639 180.142 269.773 179.458 270.619 179.458C270.817 179.458 270.979 179.476 271.141 179.494V178.108C269.953 178.108 268.945 178.792 268.243 179.692V178.306H266.893V187H268.243ZM280.12 187V181.024C280.12 178.918 278.608 178.09 276.754 178.09C275.332 178.09 274.216 178.558 273.28 179.53L273.91 180.466C274.684 179.62 275.53 179.26 276.574 179.26C277.834 179.26 278.77 179.926 278.77 181.078V182.644C278.068 181.852 277.078 181.474 275.89 181.474C274.414 181.474 272.866 182.374 272.866 184.336C272.866 186.226 274.432 187.216 275.89 187.216C277.06 187.216 278.068 186.802 278.77 186.01V187H280.12ZM276.394 186.244C275.116 186.244 274.234 185.452 274.234 184.336C274.234 183.238 275.116 182.446 276.394 182.446C277.33 182.446 278.248 182.806 278.77 183.508V185.164C278.248 185.884 277.33 186.244 276.394 186.244ZM295.188 187V180.718C295.188 178.972 294.342 178.09 292.758 178.09C291.498 178.09 290.328 178.918 289.842 179.71C289.59 178.81 288.834 178.09 287.52 178.09C286.224 178.09 285.072 179.008 284.694 179.566V178.306H283.344V187H284.694V180.646C285.162 179.944 286.098 179.296 286.98 179.296C288.132 179.296 288.582 179.998 288.582 181.096V187H289.932V180.628C290.382 179.926 291.336 179.296 292.236 179.296C293.37 179.296 293.838 179.998 293.838 181.096V187H295.188ZM301.153 187.216C303.385 187.216 304.555 186.046 304.555 184.588C304.555 181.204 299.173 182.446 299.173 180.556C299.173 179.782 299.911 179.188 301.099 179.188C302.233 179.188 303.169 179.656 303.691 180.286L304.321 179.35C303.637 178.648 302.593 178.09 301.099 178.09C299.029 178.09 297.877 179.224 297.877 180.592C297.877 183.814 303.259 182.518 303.259 184.624C303.259 185.488 302.521 186.118 301.189 186.118C300.001 186.118 298.903 185.542 298.327 184.876L297.643 185.848C298.525 186.766 299.713 187.216 301.153 187.216Z" fill="#454954"/>
<path d="M53.092 148.216C55.216 148.216 56.656 147.208 57.664 145.822L56.404 145.138C55.72 146.146 54.46 146.884 53.092 146.884C50.464 146.884 48.466 144.85 48.466 142.006C48.466 139.126 50.464 137.128 53.092 137.128C54.46 137.128 55.72 137.848 56.404 138.874L57.646 138.172C56.692 136.804 55.216 135.796 53.092 135.796C49.636 135.796 46.918 138.316 46.918 142.006C46.918 145.696 49.636 148.216 53.092 148.216ZM67.2501 148V141.862C67.2501 139.972 66.2961 139.09 64.4781 139.09C63.1641 139.09 61.9761 139.828 61.3821 140.566V135.994H60.0321V148H61.3821V141.646C61.8861 140.944 62.8941 140.296 63.9381 140.296C65.1261 140.296 65.9001 140.728 65.9001 142.276V148H67.2501ZM71.1297 138.064C71.6337 138.064 72.0297 137.668 72.0297 137.164C72.0297 136.66 71.6337 136.246 71.1297 136.246C70.6257 136.246 70.2117 136.66 70.2117 137.164C70.2117 137.668 70.6257 138.064 71.1297 138.064ZM71.7957 148V139.306H70.4457V148H71.7957ZM78.9307 148.216C80.3347 148.216 81.5047 147.73 82.3867 146.866L81.7387 145.984C81.0367 146.704 80.0467 147.1 79.0387 147.1C77.1667 147.1 76.0327 145.732 75.9247 144.094H82.9447V143.752C82.9447 141.142 81.3967 139.09 78.7687 139.09C76.2847 139.09 74.4847 141.124 74.4847 143.644C74.4847 146.362 76.3387 148.216 78.9307 148.216ZM81.6127 143.086H75.9067C75.9787 141.772 76.8967 140.206 78.7507 140.206C80.7307 140.206 81.5947 141.808 81.6127 143.086ZM87.3593 148V140.494H89.1233V139.306H87.3593V138.64C87.3593 137.524 87.8453 136.93 88.7453 136.93C89.1773 136.93 89.5193 137.092 89.8073 137.344L90.3653 136.48C89.8253 135.976 89.2313 135.814 88.5293 135.814C86.9993 135.814 86.0093 136.858 86.0093 138.64V139.306H84.5693V140.494H86.0093V148H87.3593ZM102.147 148.216C104.271 148.216 105.711 147.208 106.719 145.822L105.459 145.138C104.775 146.146 103.515 146.884 102.147 146.884C99.5187 146.884 97.5207 144.85 97.5207 142.006C97.5207 139.126 99.5187 137.128 102.147 137.128C103.515 137.128 104.775 137.848 105.459 138.874L106.701 138.172C105.747 136.804 104.271 135.796 102.147 135.796C98.6907 135.796 95.9727 138.316 95.9727 142.006C95.9727 145.696 98.6907 148.216 102.147 148.216ZM112.867 148.216C115.513 148.216 117.169 146.164 117.169 143.644C117.169 141.124 115.513 139.09 112.867 139.09C110.221 139.09 108.565 141.124 108.565 143.644C108.565 146.164 110.221 148.216 112.867 148.216ZM112.867 147.01C111.013 147.01 109.987 145.426 109.987 143.644C109.987 141.88 111.013 140.296 112.867 140.296C114.721 140.296 115.747 141.88 115.747 143.644C115.747 145.426 114.721 147.01 112.867 147.01ZM131.714 148V141.718C131.714 139.972 130.868 139.09 129.284 139.09C128.024 139.09 126.854 139.918 126.368 140.71C126.116 139.81 125.36 139.09 124.046 139.09C122.75 139.09 121.598 140.008 121.22 140.566V139.306H119.87V148H121.22V141.646C121.688 140.944 122.624 140.296 123.506 140.296C124.658 140.296 125.108 140.998 125.108 142.096V148H126.458V141.628C126.908 140.926 127.862 140.296 128.762 140.296C129.896 140.296 130.364 140.998 130.364 142.096V148H131.714ZM146.751 148V141.718C146.751 139.972 145.905 139.09 144.321 139.09C143.061 139.09 141.891 139.918 141.405 140.71C141.153 139.81 140.397 139.09 139.083 139.09C137.787 139.09 136.635 140.008 136.257 140.566V139.306H134.907V148H136.257V141.646C136.725 140.944 137.661 140.296 138.543 140.296C139.695 140.296 140.145 140.998 140.145 142.096V148H141.495V141.628C141.945 140.926 142.899 140.296 143.799 140.296C144.933 140.296 145.401 140.998 145.401 142.096V148H146.751ZM157.162 148V139.306H155.812V145.696C155.308 146.398 154.3 147.01 153.256 147.01C152.068 147.01 151.294 146.56 151.294 145.03V139.306H149.944V145.444C149.944 147.316 150.898 148.216 152.716 148.216C154.012 148.216 155.146 147.532 155.812 146.776V148H157.162ZM167.576 148V141.898C167.576 140.008 166.622 139.09 164.822 139.09C163.508 139.09 162.32 139.828 161.708 140.566V139.306H160.358V148H161.708V141.646C162.23 140.944 163.22 140.296 164.282 140.296C165.452 140.296 166.244 140.764 166.244 142.312V148H167.576ZM171.473 138.064C171.977 138.064 172.373 137.668 172.373 137.164C172.373 136.66 171.977 136.246 171.473 136.246C170.969 136.246 170.555 136.66 170.555 137.164C170.555 137.668 170.969 138.064 171.473 138.064ZM172.139 148V139.306H170.789V148H172.139ZM179.166 148.216C180.75 148.216 181.686 147.568 182.352 146.704L181.452 145.876C180.876 146.65 180.138 147.01 179.238 147.01C177.402 147.01 176.232 145.57 176.232 143.644C176.232 141.718 177.402 140.296 179.238 140.296C180.138 140.296 180.876 140.62 181.452 141.412L182.352 140.602C181.686 139.738 180.75 139.09 179.166 139.09C176.574 139.09 174.828 141.07 174.828 143.644C174.828 146.218 176.574 148.216 179.166 148.216ZM191.548 148V142.024C191.548 139.918 190.036 139.09 188.182 139.09C186.76 139.09 185.644 139.558 184.708 140.53L185.338 141.466C186.112 140.62 186.958 140.26 188.002 140.26C189.262 140.26 190.198 140.926 190.198 142.078V143.644C189.496 142.852 188.506 142.474 187.318 142.474C185.842 142.474 184.294 143.374 184.294 145.336C184.294 147.226 185.86 148.216 187.318 148.216C188.488 148.216 189.496 147.802 190.198 147.01V148H191.548ZM187.822 147.244C186.544 147.244 185.662 146.452 185.662 145.336C185.662 144.238 186.544 143.446 187.822 143.446C188.758 143.446 189.676 143.806 190.198 144.508V146.164C189.676 146.884 188.758 147.244 187.822 147.244ZM196.986 148.216C197.76 148.216 198.246 147.982 198.588 147.658L198.192 146.632C198.012 146.83 197.67 147.01 197.274 147.01C196.698 147.01 196.41 146.542 196.41 145.894V140.494H198.174V139.306H196.41V136.93H195.042V139.306H193.602V140.494H195.042V146.182C195.042 147.478 195.69 148.216 196.986 148.216ZM201.247 138.064C201.751 138.064 202.147 137.668 202.147 137.164C202.147 136.66 201.751 136.246 201.247 136.246C200.743 136.246 200.329 136.66 200.329 137.164C200.329 137.668 200.743 138.064 201.247 138.064ZM201.913 148V139.306H200.563V148H201.913ZM208.904 148.216C211.55 148.216 213.206 146.164 213.206 143.644C213.206 141.124 211.55 139.09 208.904 139.09C206.258 139.09 204.602 141.124 204.602 143.644C204.602 146.164 206.258 148.216 208.904 148.216ZM208.904 147.01C207.05 147.01 206.024 145.426 206.024 143.644C206.024 141.88 207.05 140.296 208.904 140.296C210.758 140.296 211.784 141.88 211.784 143.644C211.784 145.426 210.758 147.01 208.904 147.01ZM223.125 148V141.898C223.125 140.008 222.171 139.09 220.371 139.09C219.057 139.09 217.869 139.828 217.257 140.566V139.306H215.907V148H217.257V141.646C217.779 140.944 218.769 140.296 219.831 140.296C221.001 140.296 221.793 140.764 221.793 142.312V148H223.125ZM229.11 148.216C231.342 148.216 232.512 147.046 232.512 145.588C232.512 142.204 227.13 143.446 227.13 141.556C227.13 140.782 227.868 140.188 229.056 140.188C230.19 140.188 231.126 140.656 231.648 141.286L232.278 140.35C231.594 139.648 230.55 139.09 229.056 139.09C226.986 139.09 225.834 140.224 225.834 141.592C225.834 144.814 231.216 143.518 231.216 145.624C231.216 146.488 230.478 147.118 229.146 147.118C227.958 147.118 226.86 146.542 226.284 145.876L225.6 146.848C226.482 147.766 227.67 148.216 229.11 148.216ZM245.89 148.216C249.436 148.216 251.866 145.552 251.866 142.006C251.866 138.46 249.436 135.796 245.89 135.796C242.344 135.796 239.932 138.46 239.932 142.006C239.932 145.552 242.344 148.216 245.89 148.216ZM245.89 146.884C243.19 146.884 241.48 144.796 241.48 142.006C241.48 139.198 243.19 137.128 245.89 137.128C248.572 137.128 250.318 139.198 250.318 142.006C250.318 144.796 248.572 146.884 245.89 146.884ZM256.355 148V140.494H258.119V139.306H256.355V138.64C256.355 137.524 256.841 136.93 257.741 136.93C258.173 136.93 258.515 137.092 258.803 137.344L259.361 136.48C258.821 135.976 258.227 135.814 257.525 135.814C255.995 135.814 255.005 136.858 255.005 138.64V139.306H253.565V140.494H255.005V148H256.355ZM261.467 148V140.494H263.231V139.306H261.467V138.64C261.467 137.524 261.953 136.93 262.853 136.93C263.177 136.93 263.411 137.002 263.627 137.128L263.969 136.102C263.609 135.904 263.159 135.814 262.637 135.814C261.143 135.814 260.117 136.84 260.117 138.64V139.306H258.677V140.494H260.117V148H261.467ZM265.517 138.064C266.021 138.064 266.417 137.668 266.417 137.164C266.417 136.66 266.021 136.246 265.517 136.246C265.013 136.246 264.599 136.66 264.599 137.164C264.599 137.668 265.013 138.064 265.517 138.064ZM266.183 148V139.306H264.833V148H266.183ZM273.217 148.216C274.801 148.216 275.737 147.568 276.403 146.704L275.503 145.876C274.927 146.65 274.189 147.01 273.289 147.01C271.453 147.01 270.283 145.57 270.283 143.644C270.283 141.718 271.453 140.296 273.289 140.296C274.189 140.296 274.927 140.62 275.503 141.412L276.403 140.602C275.737 139.738 274.801 139.09 273.217 139.09C270.625 139.09 268.879 141.07 268.879 143.644C268.879 146.218 270.625 148.216 273.217 148.216ZM282.755 148.216C284.159 148.216 285.329 147.73 286.211 146.866L285.563 145.984C284.861 146.704 283.871 147.1 282.863 147.1C280.991 147.1 279.857 145.732 279.749 144.094H286.769V143.752C286.769 141.142 285.221 139.09 282.593 139.09C280.109 139.09 278.309 141.124 278.309 143.644C278.309 146.362 280.163 148.216 282.755 148.216ZM285.437 143.086H279.731C279.803 141.772 280.721 140.206 282.575 140.206C284.555 140.206 285.419 141.808 285.437 143.086ZM290.805 148V141.844C291.201 141.142 292.335 140.458 293.181 140.458C293.379 140.458 293.541 140.476 293.703 140.494V139.108C292.515 139.108 291.507 139.792 290.805 140.692V139.306H289.455V148H290.805Z" fill="#454954"/>
<path d="M51.292 271.216C54.532 271.216 55.72 269.416 55.72 267.688C55.72 263.206 48.61 264.754 48.61 262.054C48.61 260.92 49.654 260.146 51.076 260.146C52.39 260.146 53.65 260.578 54.55 261.586L55.45 260.488C54.442 259.426 53.02 258.796 51.202 258.796C48.826 258.796 47.062 260.164 47.062 262.144C47.062 266.428 54.172 264.7 54.172 267.796C54.172 268.732 53.488 269.884 51.346 269.884C49.654 269.884 48.358 269.056 47.584 268.156L46.684 269.308C47.674 270.424 49.222 271.216 51.292 271.216ZM62.2309 271.216C63.8149 271.216 64.7509 270.568 65.4169 269.704L64.5169 268.876C63.9409 269.65 63.2029 270.01 62.3029 270.01C60.4669 270.01 59.2969 268.57 59.2969 266.644C59.2969 264.718 60.4669 263.296 62.3029 263.296C63.2029 263.296 63.9409 263.62 64.5169 264.412L65.4169 263.602C64.7509 262.738 63.8149 262.09 62.2309 262.09C59.6389 262.09 57.8929 264.07 57.8929 266.644C57.8929 269.218 59.6389 271.216 62.2309 271.216ZM69.1766 271V264.844C69.5726 264.142 70.7066 263.458 71.5526 263.458C71.7506 263.458 71.9126 263.476 72.0746 263.494V262.108C70.8866 262.108 69.8786 262.792 69.1766 263.692V262.306H67.8266V271H69.1766ZM81.486 271V262.306H80.136V268.696C79.632 269.398 78.624 270.01 77.58 270.01C76.392 270.01 75.618 269.56 75.618 268.03V262.306H74.268V268.444C74.268 270.316 75.222 271.216 77.04 271.216C78.336 271.216 79.47 270.532 80.136 269.776V271H81.486ZM96.526 271V264.718C96.526 262.972 95.68 262.09 94.096 262.09C92.836 262.09 91.666 262.918 91.18 263.71C90.928 262.81 90.172 262.09 88.858 262.09C87.562 262.09 86.41 263.008 86.032 263.566V262.306H84.682V271H86.032V264.646C86.5 263.944 87.436 263.296 88.318 263.296C89.47 263.296 89.92 263.998 89.92 265.096V271H91.27V264.628C91.72 263.926 92.674 263.296 93.574 263.296C94.708 263.296 95.176 263.998 95.176 265.096V271H96.526ZM116.685 271V258.994H114.543L110.817 268.246L107.073 258.994H104.931V271H106.425V260.902L110.511 271H111.123L115.191 260.902V271H116.685ZM126.718 271V265.024C126.718 262.918 125.206 262.09 123.352 262.09C121.93 262.09 120.814 262.558 119.878 263.53L120.508 264.466C121.282 263.62 122.128 263.26 123.172 263.26C124.432 263.26 125.368 263.926 125.368 265.078V266.644C124.666 265.852 123.676 265.474 122.488 265.474C121.012 265.474 119.464 266.374 119.464 268.336C119.464 270.226 121.03 271.216 122.488 271.216C123.658 271.216 124.666 270.802 125.368 270.01V271H126.718ZM122.992 270.244C121.714 270.244 120.832 269.452 120.832 268.336C120.832 267.238 121.714 266.446 122.992 266.446C123.928 266.446 124.846 266.806 125.368 267.508V269.164C124.846 269.884 123.928 270.244 122.992 270.244ZM132.714 271.216C134.946 271.216 136.116 270.046 136.116 268.588C136.116 265.204 130.734 266.446 130.734 264.556C130.734 263.782 131.472 263.188 132.66 263.188C133.794 263.188 134.73 263.656 135.252 264.286L135.882 263.35C135.198 262.648 134.154 262.09 132.66 262.09C130.59 262.09 129.438 263.224 129.438 264.592C129.438 267.814 134.82 266.518 134.82 268.624C134.82 269.488 134.082 270.118 132.75 270.118C131.562 270.118 130.464 269.542 129.888 268.876L129.204 269.848C130.086 270.766 131.274 271.216 132.714 271.216ZM141.023 271.216C141.797 271.216 142.283 270.982 142.625 270.658L142.229 269.632C142.049 269.83 141.707 270.01 141.311 270.01C140.735 270.01 140.447 269.542 140.447 268.894V263.494H142.211V262.306H140.447V259.93H139.079V262.306H137.639V263.494H139.079V269.182C139.079 270.478 139.727 271.216 141.023 271.216ZM148.542 271.216C149.946 271.216 151.116 270.73 151.998 269.866L151.35 268.984C150.648 269.704 149.658 270.1 148.65 270.1C146.778 270.1 145.644 268.732 145.536 267.094H152.556V266.752C152.556 264.142 151.008 262.09 148.38 262.09C145.896 262.09 144.096 264.124 144.096 266.644C144.096 269.362 145.95 271.216 148.542 271.216ZM151.224 266.086H145.518C145.59 264.772 146.508 263.206 148.362 263.206C150.342 263.206 151.206 264.808 151.224 266.086ZM156.593 271V264.844C156.989 264.142 158.123 263.458 158.969 263.458C159.167 263.458 159.329 263.476 159.491 263.494V262.108C158.303 262.108 157.295 262.792 156.593 263.692V262.306H155.243V271H156.593Z" fill="#454954"/>
<path d="M52.876 302.216C54.118 302.216 55.234 301.892 56.134 301.316L57.304 302.558L58.33 301.658L57.196 300.452C58.24 299.336 58.852 297.788 58.852 296.006C58.852 292.46 56.422 289.796 52.876 289.796C49.33 289.796 46.918 292.46 46.918 296.006C46.918 299.552 49.33 302.216 52.876 302.216ZM52.876 300.884C50.176 300.884 48.466 298.796 48.466 296.006C48.466 293.198 50.176 291.128 52.876 291.128C55.558 291.128 57.304 293.198 57.304 296.006C57.304 297.338 56.89 298.508 56.188 299.372L54.496 297.536L53.452 298.418L55.162 300.272C54.514 300.668 53.74 300.884 52.876 300.884ZM71.2777 302L66.4537 289.994H64.5997L59.7577 302H61.4677L62.5297 299.318H68.5057L69.5677 302H71.2777ZM68.0737 298.004H62.9797L65.5177 291.524L68.0737 298.004Z" fill="#454954"/>
<path d="M381.868 271V260.326H385.684V258.994H376.576V260.326H380.374V271H381.868ZM389.983 271.216C391.387 271.216 392.557 270.73 393.439 269.866L392.791 268.984C392.089 269.704 391.099 270.1 390.091 270.1C388.219 270.1 387.085 268.732 386.977 267.094H393.997V266.752C393.997 264.142 392.449 262.09 389.821 262.09C387.337 262.09 385.537 264.124 385.537 266.644C385.537 269.362 387.391 271.216 389.983 271.216ZM392.665 266.086H386.959C387.031 264.772 387.949 263.206 389.803 263.206C391.783 263.206 392.647 264.808 392.665 266.086ZM400.518 271.216C402.102 271.216 403.038 270.568 403.704 269.704L402.804 268.876C402.228 269.65 401.49 270.01 400.59 270.01C398.754 270.01 397.584 268.57 397.584 266.644C397.584 264.718 398.754 263.296 400.59 263.296C401.49 263.296 402.228 263.62 402.804 264.412L403.704 263.602C403.038 262.738 402.102 262.09 400.518 262.09C397.926 262.09 396.18 264.07 396.18 266.644C396.18 269.218 397.926 271.216 400.518 271.216ZM413.35 271V264.862C413.35 262.972 412.396 262.09 410.578 262.09C409.264 262.09 408.076 262.828 407.482 263.566V258.994H406.132V271H407.482V264.646C407.986 263.944 408.994 263.296 410.038 263.296C411.226 263.296 412 263.728 412 265.276V271H413.35ZM423.763 271V264.898C423.763 263.008 422.809 262.09 421.009 262.09C419.695 262.09 418.507 262.828 417.895 263.566V262.306H416.545V271H417.895V264.646C418.417 263.944 419.407 263.296 420.469 263.296C421.639 263.296 422.431 263.764 422.431 265.312V271H423.763ZM427.661 261.064C428.165 261.064 428.561 260.668 428.561 260.164C428.561 259.66 428.165 259.246 427.661 259.246C427.157 259.246 426.743 259.66 426.743 260.164C426.743 260.668 427.157 261.064 427.661 261.064ZM428.327 271V262.306H426.977V271H428.327ZM435.354 271.216C436.938 271.216 437.874 270.568 438.54 269.704L437.64 268.876C437.064 269.65 436.326 270.01 435.426 270.01C433.59 270.01 432.42 268.57 432.42 266.644C432.42 264.718 433.59 263.296 435.426 263.296C436.326 263.296 437.064 263.62 437.64 264.412L438.54 263.602C437.874 262.738 436.938 262.09 435.354 262.09C432.762 262.09 431.016 264.07 431.016 266.644C431.016 269.218 432.762 271.216 435.354 271.216ZM447.736 271V265.024C447.736 262.918 446.224 262.09 444.37 262.09C442.948 262.09 441.832 262.558 440.896 263.53L441.526 264.466C442.3 263.62 443.146 263.26 444.19 263.26C445.45 263.26 446.386 263.926 446.386 265.078V266.644C445.684 265.852 444.694 265.474 443.506 265.474C442.03 265.474 440.482 266.374 440.482 268.336C440.482 270.226 442.048 271.216 443.506 271.216C444.676 271.216 445.684 270.802 446.386 270.01V271H447.736ZM444.01 270.244C442.732 270.244 441.85 269.452 441.85 268.336C441.85 267.238 442.732 266.446 444.01 266.446C444.946 266.446 445.864 266.806 446.386 267.508V269.164C445.864 269.884 444.946 270.244 444.01 270.244ZM452.309 271V258.994H450.959V271H452.309ZM467.591 271V269.668H462.011V258.994H460.517V271H467.591ZM473.593 271.216C474.997 271.216 476.167 270.73 477.049 269.866L476.401 268.984C475.699 269.704 474.709 270.1 473.701 270.1C471.829 270.1 470.695 268.732 470.587 267.094H477.607V266.752C477.607 264.142 476.059 262.09 473.431 262.09C470.947 262.09 469.147 264.124 469.147 266.644C469.147 269.362 471.001 271.216 473.593 271.216ZM476.275 266.086H470.569C470.641 264.772 471.559 263.206 473.413 263.206C475.393 263.206 476.257 264.808 476.275 266.086ZM487.079 271V265.024C487.079 262.918 485.567 262.09 483.713 262.09C482.291 262.09 481.175 262.558 480.239 263.53L480.869 264.466C481.643 263.62 482.489 263.26 483.533 263.26C484.793 263.26 485.729 263.926 485.729 265.078V266.644C485.027 265.852 484.037 265.474 482.849 265.474C481.373 265.474 479.825 266.374 479.825 268.336C479.825 270.226 481.391 271.216 482.849 271.216C484.019 271.216 485.027 270.802 485.729 270.01V271H487.079ZM483.353 270.244C482.075 270.244 481.193 269.452 481.193 268.336C481.193 267.238 482.075 266.446 483.353 266.446C484.289 266.446 485.207 266.806 485.729 267.508V269.164C485.207 269.884 484.289 270.244 483.353 270.244ZM497.953 271V258.994H496.603V263.62C495.901 262.666 494.839 262.09 493.669 262.09C491.401 262.09 489.799 263.872 489.799 266.662C489.799 269.488 491.401 271.216 493.669 271.216C494.893 271.216 495.955 270.586 496.603 269.704V271H497.953ZM494.011 270.01C492.247 270.01 491.203 268.588 491.203 266.662C491.203 264.736 492.247 263.296 494.011 263.296C495.073 263.296 496.135 263.944 496.603 264.7V268.624C496.135 269.38 495.073 270.01 494.011 270.01Z" fill="#454954"/>
<path d="M208.876 271C211.072 271 212.35 269.686 212.35 267.76C212.35 266.32 211.288 265.006 210.01 264.808C211.108 264.574 212.116 263.566 212.116 262.054C212.116 260.254 210.838 258.994 208.75 258.994H203.404V271H208.876ZM208.498 264.196H204.898V260.326H208.498C209.848 260.326 210.568 261.19 210.568 262.27C210.568 263.368 209.848 264.196 208.498 264.196ZM208.588 269.668H204.898V265.528H208.588C210.046 265.528 210.802 266.5 210.802 267.598C210.802 268.876 209.974 269.668 208.588 269.668ZM222.388 271V262.306H221.038V268.696C220.534 269.398 219.526 270.01 218.482 270.01C217.294 270.01 216.52 269.56 216.52 268.03V262.306H215.17V268.444C215.17 270.316 216.124 271.216 217.942 271.216C219.238 271.216 220.372 270.532 221.038 269.776V271H222.388ZM228.356 271.216C230.588 271.216 231.758 270.046 231.758 268.588C231.758 265.204 226.376 266.446 226.376 264.556C226.376 263.782 227.114 263.188 228.302 263.188C229.436 263.188 230.372 263.656 230.894 264.286L231.524 263.35C230.84 262.648 229.796 262.09 228.302 262.09C226.232 262.09 225.08 263.224 225.08 264.592C225.08 267.814 230.462 266.518 230.462 268.624C230.462 269.488 229.724 270.118 228.392 270.118C227.204 270.118 226.106 269.542 225.53 268.876L224.846 269.848C225.728 270.766 226.916 271.216 228.356 271.216ZM235.136 261.064C235.64 261.064 236.036 260.668 236.036 260.164C236.036 259.66 235.64 259.246 235.136 259.246C234.632 259.246 234.218 259.66 234.218 260.164C234.218 260.668 234.632 261.064 235.136 261.064ZM235.802 271V262.306H234.452V271H235.802ZM246.213 271V264.898C246.213 263.008 245.259 262.09 243.459 262.09C242.145 262.09 240.957 262.828 240.345 263.566V262.306H238.995V271H240.345V264.646C240.867 263.944 241.857 263.296 242.919 263.296C244.089 263.296 244.881 263.764 244.881 265.312V271H246.213ZM253.368 271.216C254.772 271.216 255.942 270.73 256.824 269.866L256.176 268.984C255.474 269.704 254.484 270.1 253.476 270.1C251.604 270.1 250.47 268.732 250.362 267.094H257.382V266.752C257.382 264.142 255.834 262.09 253.206 262.09C250.722 262.09 248.922 264.124 248.922 266.644C248.922 269.362 250.776 271.216 253.368 271.216ZM256.05 266.086H250.344C250.416 264.772 251.334 263.206 253.188 263.206C255.168 263.206 256.032 264.808 256.05 266.086ZM262.841 271.216C265.073 271.216 266.243 270.046 266.243 268.588C266.243 265.204 260.861 266.446 260.861 264.556C260.861 263.782 261.599 263.188 262.787 263.188C263.921 263.188 264.857 263.656 265.379 264.286L266.009 263.35C265.325 262.648 264.281 262.09 262.787 262.09C260.717 262.09 259.565 263.224 259.565 264.592C259.565 267.814 264.947 266.518 264.947 268.624C264.947 269.488 264.209 270.118 262.877 270.118C261.689 270.118 260.591 269.542 260.015 268.876L259.331 269.848C260.213 270.766 261.401 271.216 262.841 271.216ZM271.708 271.216C273.94 271.216 275.11 270.046 275.11 268.588C275.11 265.204 269.728 266.446 269.728 264.556C269.728 263.782 270.466 263.188 271.654 263.188C272.788 263.188 273.724 263.656 274.246 264.286L274.876 263.35C274.192 262.648 273.148 262.09 271.654 262.09C269.584 262.09 268.432 263.224 268.432 264.592C268.432 267.814 273.814 266.518 273.814 268.624C273.814 269.488 273.076 270.118 271.744 270.118C270.556 270.118 269.458 269.542 268.882 268.876L268.198 269.848C269.08 270.766 270.268 271.216 271.708 271.216ZM293.293 271L288.469 258.994H286.615L281.773 271H283.483L284.545 268.318H290.521L291.583 271H293.293ZM290.089 267.004H284.995L287.533 260.524L290.089 267.004ZM302.527 271V264.898C302.527 263.008 301.573 262.09 299.773 262.09C298.459 262.09 297.271 262.828 296.659 263.566V262.306H295.309V271H296.659V264.646C297.181 263.944 298.171 263.296 299.233 263.296C300.403 263.296 301.195 263.764 301.195 265.312V271H302.527ZM312.527 271V265.024C312.527 262.918 311.015 262.09 309.161 262.09C307.739 262.09 306.623 262.558 305.687 263.53L306.317 264.466C307.091 263.62 307.937 263.26 308.981 263.26C310.241 263.26 311.177 263.926 311.177 265.078V266.644C310.475 265.852 309.485 265.474 308.297 265.474C306.821 265.474 305.273 266.374 305.273 268.336C305.273 270.226 306.839 271.216 308.297 271.216C309.467 271.216 310.475 270.802 311.177 270.01V271H312.527ZM308.801 270.244C307.523 270.244 306.641 269.452 306.641 268.336C306.641 267.238 307.523 266.446 308.801 266.446C309.737 266.446 310.655 266.806 311.177 267.508V269.164C310.655 269.884 309.737 270.244 308.801 270.244ZM317.1 271V258.994H315.75V271H317.1ZM319.825 274.402C320.059 274.474 320.509 274.528 320.797 274.528C321.949 274.51 322.831 274.024 323.353 272.764L327.709 262.306H326.251L323.353 269.434L320.473 262.306H318.997L322.633 271.09L322.057 272.404C321.751 273.124 321.355 273.322 320.761 273.322C320.545 273.322 320.221 273.268 320.023 273.178L319.825 274.402ZM332.39 271.216C334.622 271.216 335.792 270.046 335.792 268.588C335.792 265.204 330.41 266.446 330.41 264.556C330.41 263.782 331.148 263.188 332.336 263.188C333.47 263.188 334.406 263.656 334.928 264.286L335.558 263.35C334.874 262.648 333.83 262.09 332.336 262.09C330.266 262.09 329.114 263.224 329.114 264.592C329.114 267.814 334.496 266.518 334.496 268.624C334.496 269.488 333.758 270.118 332.426 270.118C331.238 270.118 330.14 269.542 329.564 268.876L328.88 269.848C329.762 270.766 330.95 271.216 332.39 271.216ZM340.699 271.216C341.473 271.216 341.959 270.982 342.301 270.658L341.905 269.632C341.725 269.83 341.383 270.01 340.987 270.01C340.411 270.01 340.123 269.542 340.123 268.894V263.494H341.887V262.306H340.123V259.93H338.755V262.306H337.315V263.494H338.755V269.182C338.755 270.478 339.403 271.216 340.699 271.216Z" fill="#454954"/>
<path d="M207.292 301.216C210.532 301.216 211.72 299.416 211.72 297.688C211.72 293.206 204.61 294.754 204.61 292.054C204.61 290.92 205.654 290.146 207.076 290.146C208.39 290.146 209.65 290.578 210.55 291.586L211.45 290.488C210.442 289.426 209.02 288.796 207.202 288.796C204.826 288.796 203.062 290.164 203.062 292.144C203.062 296.428 210.172 294.7 210.172 297.796C210.172 298.732 209.488 299.884 207.346 299.884C205.654 299.884 204.358 299.056 203.584 298.156L202.684 299.308C203.674 300.424 205.222 301.216 207.292 301.216ZM218.339 301.216C219.743 301.216 220.913 300.73 221.795 299.866L221.147 298.984C220.445 299.704 219.455 300.1 218.447 300.1C216.575 300.1 215.441 298.732 215.333 297.094H222.353V296.752C222.353 294.142 220.805 292.09 218.177 292.09C215.693 292.09 213.893 294.124 213.893 296.644C213.893 299.362 215.747 301.216 218.339 301.216ZM221.021 296.086H215.315C215.387 294.772 216.305 293.206 218.159 293.206C220.139 293.206 221.003 294.808 221.021 296.086ZM232.257 301V294.898C232.257 293.008 231.303 292.09 229.503 292.09C228.189 292.09 227.001 292.828 226.389 293.566V292.306H225.039V301H226.389V294.646C226.911 293.944 227.901 293.296 228.963 293.296C230.133 293.296 230.925 293.764 230.925 295.312V301H232.257ZM236.155 291.064C236.659 291.064 237.055 290.668 237.055 290.164C237.055 289.66 236.659 289.246 236.155 289.246C235.651 289.246 235.237 289.66 235.237 290.164C235.237 290.668 235.651 291.064 236.155 291.064ZM236.821 301V292.306H235.471V301H236.821ZM243.812 301.216C246.458 301.216 248.114 299.164 248.114 296.644C248.114 294.124 246.458 292.09 243.812 292.09C241.166 292.09 239.51 294.124 239.51 296.644C239.51 299.164 241.166 301.216 243.812 301.216ZM243.812 300.01C241.958 300.01 240.932 298.426 240.932 296.644C240.932 294.88 241.958 293.296 243.812 293.296C245.666 293.296 246.692 294.88 246.692 296.644C246.692 298.426 245.666 300.01 243.812 300.01ZM252.165 301V294.844C252.561 294.142 253.695 293.458 254.541 293.458C254.739 293.458 254.901 293.476 255.063 293.494V292.108C253.875 292.108 252.867 292.792 252.165 293.692V292.306H250.815V301H252.165ZM270.334 301V299.668H263.962V295.528H270.208V294.196H263.962V290.326H270.334V288.994H262.468V301H270.334ZM280.381 301V294.898C280.381 293.008 279.427 292.09 277.627 292.09C276.312 292.09 275.125 292.828 274.513 293.566V292.306H273.163V301H274.513V294.646C275.035 293.944 276.025 293.296 277.087 293.296C278.257 293.296 279.049 293.764 279.049 295.312V301H280.381ZM287.086 304.528C289.21 304.528 291.244 303.628 291.244 300.874V292.306H289.894V293.62C289.192 292.666 288.13 292.09 286.96 292.09C284.674 292.09 283.09 293.818 283.09 296.608C283.09 299.416 284.692 301.108 286.96 301.108C288.184 301.108 289.246 300.442 289.894 299.56V300.874C289.894 302.71 288.526 303.412 287.086 303.412C285.844 303.412 284.98 303.088 284.26 302.242L283.576 303.214C284.62 304.24 285.628 304.528 287.086 304.528ZM287.302 299.902C285.538 299.902 284.494 298.516 284.494 296.608C284.494 294.682 285.538 293.296 287.302 293.296C288.364 293.296 289.408 293.944 289.894 294.682V298.498C289.408 299.254 288.364 299.902 287.302 299.902ZM295.132 291.064C295.636 291.064 296.032 290.668 296.032 290.164C296.032 289.66 295.636 289.246 295.132 289.246C294.628 289.246 294.214 289.66 294.214 290.164C294.214 290.668 294.628 291.064 295.132 291.064ZM295.798 301V292.306H294.448V301H295.798ZM306.209 301V294.898C306.209 293.008 305.255 292.09 303.455 292.09C302.141 292.09 300.953 292.828 300.341 293.566V292.306H298.991V301H300.341V294.646C300.863 293.944 301.853 293.296 302.915 293.296C304.085 293.296 304.877 293.764 304.877 295.312V301H306.209ZM313.364 301.216C314.768 301.216 315.938 300.73 316.82 299.866L316.172 298.984C315.47 299.704 314.48 300.1 313.472 300.1C311.6 300.1 310.466 298.732 310.358 297.094H317.378V296.752C317.378 294.142 315.83 292.09 313.202 292.09C310.718 292.09 308.918 294.124 308.918 296.644C308.918 299.362 310.772 301.216 313.364 301.216ZM316.046 296.086H310.34C310.412 294.772 311.33 293.206 313.184 293.206C315.164 293.206 316.028 294.808 316.046 296.086ZM324.007 301.216C325.411 301.216 326.581 300.73 327.463 299.866L326.815 298.984C326.113 299.704 325.123 300.1 324.115 300.1C322.243 300.1 321.109 298.732 321.001 297.094H328.021V296.752C328.021 294.142 326.473 292.09 323.845 292.09C321.361 292.09 319.561 294.124 319.561 296.644C319.561 299.362 321.415 301.216 324.007 301.216ZM326.689 296.086H320.983C321.055 294.772 321.973 293.206 323.827 293.206C325.807 293.206 326.671 294.808 326.689 296.086ZM332.057 301V294.844C332.453 294.142 333.587 293.458 334.433 293.458C334.631 293.458 334.793 293.476 334.955 293.494V292.108C333.767 292.108 332.759 292.792 332.057 293.692V292.306H330.707V301H332.057ZM343.855 301V288.994H342.361V301H343.855ZM348.662 301V288.994H347.168V301H348.662Z" fill="#454954"/>
<path d="M381.292 301.216C384.532 301.216 385.72 299.416 385.72 297.688C385.72 293.206 378.61 294.754 378.61 292.054C378.61 290.92 379.654 290.146 381.076 290.146C382.39 290.146 383.65 290.578 384.55 291.586L385.45 290.488C384.442 289.426 383.02 288.796 381.202 288.796C378.826 288.796 377.062 290.164 377.062 292.144C377.062 296.428 384.172 294.7 384.172 297.796C384.172 298.732 383.488 299.884 381.346 299.884C379.654 299.884 378.358 299.056 377.584 298.156L376.684 299.308C377.674 300.424 379.222 301.216 381.292 301.216ZM392.195 301.216C394.841 301.216 396.497 299.164 396.497 296.644C396.497 294.124 394.841 292.09 392.195 292.09C389.549 292.09 387.893 294.124 387.893 296.644C387.893 299.164 389.549 301.216 392.195 301.216ZM392.195 300.01C390.341 300.01 389.315 298.426 389.315 296.644C389.315 294.88 390.341 293.296 392.195 293.296C394.049 293.296 395.075 294.88 395.075 296.644C395.075 298.426 394.049 300.01 392.195 300.01ZM400.926 301V293.494H402.69V292.306H400.926V291.64C400.926 290.524 401.412 289.93 402.312 289.93C402.744 289.93 403.086 290.092 403.374 290.344L403.932 289.48C403.392 288.976 402.798 288.814 402.096 288.814C400.566 288.814 399.576 289.858 399.576 291.64V292.306H398.136V293.494H399.576V301H400.926ZM407.027 301.216C407.801 301.216 408.287 300.982 408.629 300.658L408.233 299.632C408.053 299.83 407.711 300.01 407.315 300.01C406.739 300.01 406.451 299.542 406.451 298.894V293.494H408.215V292.306H406.451V289.93H405.083V292.306H403.643V293.494H405.083V299.182C405.083 300.478 405.731 301.216 407.027 301.216ZM419.496 301L422.268 292.306H420.846L418.722 299.236L416.454 292.306H415.284L412.998 299.236L410.874 292.306H409.47L412.242 301H413.592L415.86 294.016L418.128 301H419.496ZM431.109 301V295.024C431.109 292.918 429.597 292.09 427.743 292.09C426.321 292.09 425.205 292.558 424.269 293.53L424.899 294.466C425.673 293.62 426.519 293.26 427.563 293.26C428.823 293.26 429.759 293.926 429.759 295.078V296.644C429.057 295.852 428.067 295.474 426.879 295.474C425.403 295.474 423.855 296.374 423.855 298.336C423.855 300.226 425.421 301.216 426.879 301.216C428.049 301.216 429.057 300.802 429.759 300.01V301H431.109ZM427.383 300.244C426.105 300.244 425.223 299.452 425.223 298.336C425.223 297.238 426.105 296.446 427.383 296.446C428.319 296.446 429.237 296.806 429.759 297.508V299.164C429.237 299.884 428.319 300.244 427.383 300.244ZM435.682 301V294.844C436.078 294.142 437.212 293.458 438.058 293.458C438.256 293.458 438.418 293.476 438.58 293.494V292.108C437.392 292.108 436.384 292.792 435.682 293.692V292.306H434.332V301H435.682ZM444.716 301.216C446.12 301.216 447.29 300.73 448.172 299.866L447.524 298.984C446.822 299.704 445.832 300.1 444.824 300.1C442.952 300.1 441.818 298.732 441.71 297.094H448.73V296.752C448.73 294.142 447.182 292.09 444.554 292.09C442.07 292.09 440.27 294.124 440.27 296.644C440.27 299.362 442.124 301.216 444.716 301.216ZM447.398 296.086H441.692C441.764 294.772 442.682 293.206 444.536 293.206C446.516 293.206 447.38 294.808 447.398 296.086ZM464.495 301V299.668H458.123V295.528H464.369V294.196H458.123V290.326H464.495V288.994H456.629V301H464.495ZM474.541 301V294.898C474.541 293.008 473.587 292.09 471.787 292.09C470.473 292.09 469.285 292.828 468.673 293.566V292.306H467.323V301H468.673V294.646C469.195 293.944 470.185 293.296 471.247 293.296C472.417 293.296 473.209 293.764 473.209 295.312V301H474.541ZM481.246 304.528C483.37 304.528 485.404 303.628 485.404 300.874V292.306H484.054V293.62C483.352 292.666 482.29 292.09 481.12 292.09C478.834 292.09 477.25 293.818 477.25 296.608C477.25 299.416 478.852 301.108 481.12 301.108C482.344 301.108 483.406 300.442 484.054 299.56V300.874C484.054 302.71 482.686 303.412 481.246 303.412C480.004 303.412 479.14 303.088 478.42 302.242L477.736 303.214C478.78 304.24 479.788 304.528 481.246 304.528ZM481.462 299.902C479.698 299.902 478.654 298.516 478.654 296.608C478.654 294.682 479.698 293.296 481.462 293.296C482.524 293.296 483.568 293.944 484.054 294.682V298.498C483.568 299.254 482.524 299.902 481.462 299.902ZM489.292 291.064C489.796 291.064 490.192 290.668 490.192 290.164C490.192 289.66 489.796 289.246 489.292 289.246C488.788 289.246 488.374 289.66 488.374 290.164C488.374 290.668 488.788 291.064 489.292 291.064ZM489.958 301V292.306H488.608V301H489.958ZM500.369 301V294.898C500.369 293.008 499.415 292.09 497.615 292.09C496.301 292.09 495.113 292.828 494.501 293.566V292.306H493.151V301H494.501V294.646C495.023 293.944 496.013 293.296 497.075 293.296C498.245 293.296 499.037 293.764 499.037 295.312V301H500.369ZM507.524 301.216C508.928 301.216 510.098 300.73 510.98 299.866L510.332 298.984C509.63 299.704 508.64 300.1 507.632 300.1C505.76 300.1 504.626 298.732 504.518 297.094H511.538V296.752C511.538 294.142 509.99 292.09 507.362 292.09C504.878 292.09 503.078 294.124 503.078 296.644C503.078 299.362 504.932 301.216 507.524 301.216ZM510.206 296.086H504.5C504.572 294.772 505.49 293.206 507.344 293.206C509.324 293.206 510.188 294.808 510.206 296.086ZM518.167 301.216C519.571 301.216 520.741 300.73 521.623 299.866L520.975 298.984C520.273 299.704 519.283 300.1 518.275 300.1C516.403 300.1 515.269 298.732 515.161 297.094H522.181V296.752C522.181 294.142 520.633 292.09 518.005 292.09C515.521 292.09 513.721 294.124 513.721 296.644C513.721 299.362 515.575 301.216 518.167 301.216ZM520.849 296.086H515.143C515.215 294.772 516.133 293.206 517.987 293.206C519.967 293.206 520.831 294.808 520.849 296.086ZM526.218 301V294.844C526.614 294.142 527.748 293.458 528.594 293.458C528.792 293.458 528.954 293.476 529.116 293.494V292.108C527.928 292.108 526.92 292.792 526.218 293.692V292.306H524.868V301H526.218ZM538.015 301V288.994H536.521V301H538.015Z" fill="#454954"/>
<path d="M52.3 333.216C55.558 333.216 57.214 331.308 57.214 328.32V320.994H55.702V328.302C55.702 330.498 54.514 331.884 52.3 331.884C50.086 331.884 48.916 330.498 48.916 328.302V320.994H47.404V328.338C47.404 331.29 49.06 333.216 52.3 333.216ZM70.6411 333L65.9611 326.826L70.3711 320.994H68.5351L64.9891 325.782L61.4251 320.994H59.6071L64.0171 326.844L59.3371 333H61.1551L64.9891 327.888L68.8231 333H70.6411ZM72.4253 333.36L76.6913 320.634H75.6293L71.3633 333.36H72.4253ZM83.4895 333.216C86.7475 333.216 88.4035 331.308 88.4035 328.32V320.994H86.8915V328.302C86.8915 330.498 85.7035 331.884 83.4895 331.884C81.2755 331.884 80.1055 330.498 80.1055 328.302V320.994H78.5935V328.338C78.5935 331.29 80.2495 333.216 83.4895 333.216ZM93.2085 333V320.994H91.7145V333H93.2085ZM105.783 333C109.527 333 111.939 330.426 111.939 327.006C111.939 323.604 109.527 320.994 105.783 320.994H101.679V333H105.783ZM105.783 331.668H103.173V322.326H105.783C108.753 322.326 110.391 324.414 110.391 327.006C110.391 329.58 108.699 331.668 105.783 331.668ZM118.671 333.216C120.075 333.216 121.245 332.73 122.127 331.866L121.479 330.984C120.777 331.704 119.787 332.1 118.779 332.1C116.907 332.1 115.773 330.732 115.665 329.094H122.685V328.752C122.685 326.142 121.137 324.09 118.509 324.09C116.025 324.09 114.225 326.124 114.225 328.644C114.225 331.362 116.079 333.216 118.671 333.216ZM121.353 328.086H115.647C115.719 326.772 116.637 325.206 118.491 325.206C120.471 325.206 121.335 326.808 121.353 328.086ZM128.143 333.216C130.375 333.216 131.545 332.046 131.545 330.588C131.545 327.204 126.163 328.446 126.163 326.556C126.163 325.782 126.901 325.188 128.089 325.188C129.223 325.188 130.159 325.656 130.681 326.286L131.311 325.35C130.627 324.648 129.583 324.09 128.089 324.09C126.019 324.09 124.867 325.224 124.867 326.592C124.867 329.814 130.249 328.518 130.249 330.624C130.249 331.488 129.511 332.118 128.179 332.118C126.991 332.118 125.893 331.542 125.317 330.876L124.633 331.848C125.515 332.766 126.703 333.216 128.143 333.216ZM134.923 323.064C135.427 323.064 135.823 322.668 135.823 322.164C135.823 321.66 135.427 321.246 134.923 321.246C134.419 321.246 134.005 321.66 134.005 322.164C134.005 322.668 134.419 323.064 134.923 323.064ZM135.589 333V324.306H134.239V333H135.589ZM142.274 336.528C144.398 336.528 146.432 335.628 146.432 332.874V324.306H145.082V325.62C144.38 324.666 143.318 324.09 142.148 324.09C139.862 324.09 138.278 325.818 138.278 328.608C138.278 331.416 139.88 333.108 142.148 333.108C143.372 333.108 144.434 332.442 145.082 331.56V332.874C145.082 334.71 143.714 335.412 142.274 335.412C141.032 335.412 140.168 335.088 139.448 334.242L138.764 335.214C139.808 336.24 140.816 336.528 142.274 336.528ZM142.49 331.902C140.726 331.902 139.682 330.516 139.682 328.608C139.682 326.682 140.726 325.296 142.49 325.296C143.552 325.296 144.596 325.944 145.082 326.682V330.498C144.596 331.254 143.552 331.902 142.49 331.902ZM156.853 333V326.898C156.853 325.008 155.899 324.09 154.099 324.09C152.785 324.09 151.597 324.828 150.985 325.566V324.306H149.635V333H150.985V326.646C151.507 325.944 152.497 325.296 153.559 325.296C154.729 325.296 155.521 325.764 155.521 327.312V333H156.853ZM164.009 333.216C165.413 333.216 166.583 332.73 167.465 331.866L166.817 330.984C166.115 331.704 165.125 332.1 164.117 332.1C162.245 332.1 161.111 330.732 161.003 329.094H168.023V328.752C168.023 326.142 166.475 324.09 163.847 324.09C161.363 324.09 159.563 326.124 159.563 328.644C159.563 331.362 161.417 333.216 164.009 333.216ZM166.691 328.086H160.985C161.057 326.772 161.975 325.206 163.829 325.206C165.809 325.206 166.673 326.808 166.691 328.086ZM172.059 333V326.844C172.455 326.142 173.589 325.458 174.435 325.458C174.633 325.458 174.795 325.476 174.957 325.494V324.108C173.769 324.108 172.761 324.792 172.059 325.692V324.306H170.709V333H172.059Z" fill="#454954"/>
<path d="M49.328 244V233.328H47.056V244H49.328ZM61.9986 244V233.328H59.7266V240.032L54.7826 233.328H52.4466V244H54.7186V237.04L59.8066 244H61.9986ZM69.8549 244V235.328H72.9589V233.328H64.4469V235.328H67.5669V244H69.8549ZM82.9674 244V242H77.6874V239.568H82.8554V237.568H77.6874V235.328H82.9674V233.328H75.4154V244H82.9674ZM94.3995 244L91.9835 239.936C93.1355 239.664 94.3355 238.64 94.3355 236.768C94.3355 234.784 92.9595 233.328 90.7355 233.328H85.7435V244H88.0155V240.208H89.6795L91.7755 244H94.3995ZM90.4155 238.208H88.0155V235.328H90.4155C91.3115 235.328 91.9995 235.872 91.9995 236.752C91.9995 237.664 91.3115 238.208 90.4155 238.208ZM106.577 244V233.328H104.305V240.032L99.3608 233.328H97.0247V244H99.2968V237.04L104.385 244H106.577ZM119.633 244L115.521 233.328H112.673L108.561 244H111.137L111.809 242.192H116.385L117.057 244H119.633ZM115.761 240.192H112.433L114.097 235.6L115.761 240.192ZM128.323 244V242H123.811V233.328H121.523V244H128.323Z" fill="#595D67"/>
<path d="M52.24 72.192C54.576 72.192 55.936 70.896 56.688 69.568L54.736 68.624C54.288 69.488 53.328 70.176 52.24 70.176C50.288 70.176 48.88 68.688 48.88 66.672C48.88 64.656 50.288 63.168 52.24 63.168C53.328 63.168 54.288 63.856 54.736 64.72L56.688 63.76C55.936 62.416 54.576 61.152 52.24 61.152C49.024 61.152 46.544 63.376 46.544 66.672C46.544 69.952 49.024 72.192 52.24 72.192ZM65.7444 72V70H61.2324V61.328H58.9444V72H65.7444ZM70.5468 72V61.328H68.2747V72H70.5468ZM81.2174 72V70H75.9374V67.568H81.1054V65.568H75.9374V63.328H81.2174V61.328H73.6654V72H81.2174ZM93.5455 72V61.328H91.2735V68.032L86.3295 61.328H83.9935V72H86.2655V65.04L91.3535 72H93.5455ZM101.402 72V63.328H104.506V61.328H95.9938V63.328H99.1138V72H101.402Z" fill="#595D67"/>
<path d="M53.35 20.3C57.85 20.3 59.5 17.8 59.5 15.4C59.5 9.175 49.625 11.325 49.625 7.575C49.625 6 51.075 4.925 53.05 4.925C54.875 4.925 56.625 5.525 57.875 6.925L59.125 5.4C57.725 3.925 55.75 3.05 53.225 3.05C49.925 3.05 47.475 4.95 47.475 7.7C47.475 13.65 57.35 11.25 57.35 15.55C57.35 16.85 56.4 18.45 53.425 18.45C51.075 18.45 49.275 17.3 48.2 16.05L46.95 17.65C48.325 19.2 50.475 20.3 53.35 20.3ZM68.3484 20.3C70.5484 20.3 71.8484 19.4 72.7734 18.2L71.5234 17.05C70.7234 18.125 69.6984 18.625 68.4484 18.625C65.8984 18.625 64.2734 16.625 64.2734 13.95C64.2734 11.275 65.8984 9.3 68.4484 9.3C69.6984 9.3 70.7234 9.75 71.5234 10.85L72.7734 9.725C71.8484 8.525 70.5484 7.625 68.3484 7.625C64.7484 7.625 62.3234 10.375 62.3234 13.95C62.3234 17.525 64.7484 20.3 68.3484 20.3ZM77.8008 20V11.45C78.3508 10.475 79.9258 9.525 81.1008 9.525C81.3758 9.525 81.6008 9.55 81.8258 9.575V7.65C80.1758 7.65 78.7758 8.6 77.8008 9.85V7.925H75.9258V20H77.8008ZM94.7027 20V7.925H92.8277V16.8C92.1277 17.775 90.7277 18.625 89.2777 18.625C87.6277 18.625 86.5527 18 86.5527 15.875V7.925H84.6777V16.45C84.6777 19.05 86.0027 20.3 88.5277 20.3C90.3277 20.3 91.9027 19.35 92.8277 18.3V20H94.7027ZM115.397 20V11.275C115.397 8.85 114.222 7.625 112.022 7.625C110.272 7.625 108.647 8.775 107.972 9.875C107.622 8.625 106.572 7.625 104.747 7.625C102.947 7.625 101.347 8.9 100.822 9.675V7.925H98.9473V20H100.822V11.175C101.472 10.2 102.772 9.3 103.997 9.3C105.597 9.3 106.222 10.275 106.222 11.8V20H108.097V11.15C108.722 10.175 110.047 9.3 111.297 9.3C112.872 9.3 113.522 10.275 113.522 11.8V20H115.397ZM132.882 20V5.175H138.182V3.325H125.532V5.175H130.807V20H132.882ZM143.959 20.3C145.909 20.3 147.534 19.625 148.759 18.425L147.859 17.2C146.884 18.2 145.509 18.75 144.109 18.75C141.509 18.75 139.934 16.85 139.784 14.575H149.534V14.1C149.534 10.475 147.384 7.625 143.734 7.625C140.284 7.625 137.784 10.45 137.784 13.95C137.784 17.725 140.359 20.3 143.959 20.3ZM147.684 13.175H139.759C139.859 11.35 141.134 9.175 143.709 9.175C146.459 9.175 147.659 11.4 147.684 13.175ZM162.496 20V11.7C162.496 8.775 160.396 7.625 157.821 7.625C155.846 7.625 154.296 8.275 152.996 9.625L153.871 10.925C154.946 9.75 156.121 9.25 157.571 9.25C159.321 9.25 160.621 10.175 160.621 11.775V13.95C159.646 12.85 158.271 12.325 156.621 12.325C154.571 12.325 152.421 13.575 152.421 16.3C152.421 18.925 154.596 20.3 156.621 20.3C158.246 20.3 159.646 19.725 160.621 18.625V20H162.496ZM157.321 18.95C155.546 18.95 154.321 17.85 154.321 16.3C154.321 14.775 155.546 13.675 157.321 13.675C158.621 13.675 159.896 14.175 160.621 15.15V17.45C159.896 18.45 158.621 18.95 157.321 18.95ZM183.229 20V11.275C183.229 8.85 182.054 7.625 179.854 7.625C178.104 7.625 176.479 8.775 175.804 9.875C175.454 8.625 174.404 7.625 172.579 7.625C170.779 7.625 169.179 8.9 168.654 9.675V7.925H166.779V20H168.654V11.175C169.304 10.2 170.604 9.3 171.829 9.3C173.429 9.3 174.054 10.275 174.054 11.8V20H175.929V11.15C176.554 10.175 177.879 9.3 179.129 9.3C180.704 9.3 181.354 10.275 181.354 11.8V20H183.229Z" fill="#454954"/>
<circle cx="13" cy="13" r="13" fill="#C8F3D7"/>
<path fill-rule="evenodd" clip-rule="evenodd" d="M7 13C7 12.4477 7.44772 12 8 12H17C17.5523 12 18 12.4477 18 13C18 13.5523 17.5523 14 17 14H8C7.44772 14 7 13.5523 7 13Z" fill="#1A948C"/>
<path fill-rule="evenodd" clip-rule="evenodd" d="M12.8415 8.24744C13.2571 7.88375 13.8889 7.92587 14.2526 8.34151L17.7526 12.3415C18.0825 12.7185 18.0825 13.2815 17.7526 13.6585L14.2526 17.6585C13.8889 18.0742 13.2571 18.1163 12.8415 17.7526C12.4259 17.3889 12.3838 16.7571 12.7474 16.3415L15.6712 13L12.7474 9.65852C12.3838 9.24288 12.4259 8.61112 12.8415 8.24744Z" fill="#1A948C"/>
</svg>
