<svg width="317" height="366" viewBox="0 0 317 366" fill="none" xmlns="http://www.w3.org/2000/svg">
<path d="M40.576 98V93.76H43.536C45.664 93.76 46.88 92.288 46.88 90.544C46.88 88.8 45.68 87.328 43.536 87.328H39.248V98H40.576ZM43.376 92.576H40.576V88.512H43.376C44.64 88.512 45.504 89.344 45.504 90.544C45.504 91.744 44.64 92.576 43.376 92.576ZM49.7906 98V92.528C50.1426 91.904 51.1506 91.296 51.9026 91.296C52.0786 91.296 52.2226 91.312 52.3666 91.328V90.096C51.3106 90.096 50.4146 90.704 49.7906 91.504V90.272H48.5906V98H49.7906ZM57.2479 98.192C59.5999 98.192 61.0719 96.368 61.0719 94.128C61.0719 91.888 59.5999 90.08 57.2479 90.08C54.8959 90.08 53.4239 91.888 53.4239 94.128C53.4239 96.368 54.8959 98.192 57.2479 98.192ZM57.2479 97.12C55.5999 97.12 54.6879 95.712 54.6879 94.128C54.6879 92.56 55.5999 91.152 57.2479 91.152C58.8959 91.152 59.8079 92.56 59.8079 94.128C59.8079 95.712 58.8959 97.12 57.2479 97.12ZM69.8281 98V87.328H68.6281V91.44C68.0041 90.592 67.0601 90.08 66.0201 90.08C64.0041 90.08 62.5801 91.664 62.5801 94.144C62.5801 96.656 64.0041 98.192 66.0201 98.192C67.1081 98.192 68.0521 97.632 68.6281 96.848V98H69.8281ZM66.3241 97.12C64.7561 97.12 63.8281 95.856 63.8281 94.144C63.8281 92.432 64.7561 91.152 66.3241 91.152C67.2681 91.152 68.2121 91.728 68.6281 92.4V95.888C68.2121 96.56 67.2681 97.12 66.3241 97.12ZM78.6473 98V90.272H77.4473V95.952C76.9993 96.576 76.1033 97.12 75.1753 97.12C74.1193 97.12 73.4313 96.72 73.4313 95.36V90.272H72.2313V95.728C72.2313 97.392 73.0793 98.192 74.6953 98.192C75.8473 98.192 76.8553 97.584 77.4473 96.912V98H78.6473ZM84.4518 98.192C85.8598 98.192 86.6918 97.616 87.2838 96.848L86.4838 96.112C85.9718 96.8 85.3158 97.12 84.5158 97.12C82.8838 97.12 81.8438 95.84 81.8438 94.128C81.8438 92.416 82.8838 91.152 84.5158 91.152C85.3158 91.152 85.9718 91.44 86.4838 92.144L87.2838 91.424C86.6918 90.656 85.8598 90.08 84.4518 90.08C82.1478 90.08 80.5958 91.84 80.5958 94.128C80.5958 96.416 82.1478 98.192 84.4518 98.192ZM90.9493 98.192C91.6373 98.192 92.0693 97.984 92.3733 97.696L92.0213 96.784C91.8613 96.96 91.5573 97.12 91.2053 97.12C90.6933 97.12 90.4373 96.704 90.4373 96.128V91.328H92.0052V90.272H90.4373V88.16H89.2213V90.272H87.9413V91.328H89.2213V96.384C89.2213 97.536 89.7973 98.192 90.9493 98.192ZM108.321 98V87.328H106.417L103.105 95.552L99.777 87.328H97.873V98H99.201V89.024L102.833 98H103.377L106.993 89.024V98H108.321ZM116.795 98V92.688C116.795 90.816 115.451 90.08 113.803 90.08C112.539 90.08 111.547 90.496 110.715 91.36L111.275 92.192C111.963 91.44 112.715 91.12 113.643 91.12C114.763 91.12 115.595 91.712 115.595 92.736V94.128C114.971 93.424 114.091 93.088 113.035 93.088C111.723 93.088 110.347 93.888 110.347 95.632C110.347 97.312 111.739 98.192 113.035 98.192C114.075 98.192 114.971 97.824 115.595 97.12V98H116.795ZM113.483 97.328C112.347 97.328 111.562 96.624 111.562 95.632C111.562 94.656 112.347 93.952 113.483 93.952C114.315 93.952 115.131 94.272 115.595 94.896V96.368C115.131 97.008 114.315 97.328 113.483 97.328ZM125.632 98V92.576C125.632 90.896 124.784 90.08 123.184 90.08C122.016 90.08 120.96 90.736 120.416 91.392V90.272H119.216V98H120.416V92.352C120.88 91.728 121.76 91.152 122.704 91.152C123.744 91.152 124.448 91.568 124.448 92.944V98H125.632ZM134.076 98V92.688C134.076 90.816 132.732 90.08 131.084 90.08C129.82 90.08 128.828 90.496 127.996 91.36L128.556 92.192C129.244 91.44 129.996 91.12 130.924 91.12C132.044 91.12 132.876 91.712 132.876 92.736V94.128C132.252 93.424 131.372 93.088 130.316 93.088C129.004 93.088 127.628 93.888 127.628 95.632C127.628 97.312 129.02 98.192 130.316 98.192C131.356 98.192 132.252 97.824 132.876 97.12V98H134.076ZM130.764 97.328C129.628 97.328 128.844 96.624 128.844 95.632C128.844 94.656 129.628 93.952 130.764 93.952C131.596 93.952 132.412 94.272 132.876 94.896V96.368C132.412 97.008 131.596 97.328 130.764 97.328ZM139.601 101.136C141.489 101.136 143.297 100.336 143.297 97.888V90.272H142.097V91.44C141.473 90.592 140.529 90.08 139.489 90.08C137.457 90.08 136.049 91.616 136.049 94.096C136.049 96.592 137.473 98.096 139.489 98.096C140.577 98.096 141.521 97.504 142.097 96.72V97.888C142.097 99.52 140.881 100.144 139.601 100.144C138.497 100.144 137.729 99.856 137.089 99.104L136.481 99.968C137.409 100.88 138.305 101.136 139.601 101.136ZM139.793 97.024C138.225 97.024 137.297 95.792 137.297 94.096C137.297 92.384 138.225 91.152 139.793 91.152C140.737 91.152 141.665 91.728 142.097 92.384V95.776C141.665 96.448 140.737 97.024 139.793 97.024ZM149.204 98.192C150.452 98.192 151.492 97.76 152.276 96.992L151.7 96.208C151.076 96.848 150.196 97.2 149.3 97.2C147.636 97.2 146.628 95.984 146.532 94.528H152.772V94.224C152.772 91.904 151.396 90.08 149.06 90.08C146.852 90.08 145.252 91.888 145.252 94.128C145.252 96.544 146.9 98.192 149.204 98.192ZM151.588 93.632H146.516C146.58 92.464 147.396 91.072 149.044 91.072C150.804 91.072 151.572 92.496 151.588 93.632ZM155.916 98V92.528C156.268 91.904 157.276 91.296 158.028 91.296C158.204 91.296 158.348 91.312 158.492 91.328V90.096C157.436 90.096 156.54 90.704 155.916 91.504V90.272H154.716V98H155.916Z" fill="#454954"/>
<path d="M42.704 129.192C45.584 129.192 46.64 127.592 46.64 126.056C46.64 122.072 40.32 123.448 40.32 121.048C40.32 120.04 41.248 119.352 42.512 119.352C43.68 119.352 44.8 119.736 45.6 120.632L46.4 119.656C45.504 118.712 44.24 118.152 42.624 118.152C40.512 118.152 38.944 119.368 38.944 121.128C38.944 124.936 45.264 123.4 45.264 126.152C45.264 126.984 44.656 128.008 42.752 128.008C41.248 128.008 40.096 127.272 39.408 126.472L38.608 127.496C39.488 128.488 40.864 129.192 42.704 129.192ZM49.775 129V123.528C50.127 122.904 51.135 122.296 51.887 122.296C52.063 122.296 52.207 122.312 52.351 122.328V121.096C51.295 121.096 50.399 121.704 49.775 122.504V121.272H48.575V129H49.775ZM53.1681 129.16C53.6481 129.16 54.0481 128.76 54.0481 128.28C54.0481 127.8 53.6481 127.4 53.1681 127.4C52.6881 127.4 52.2881 127.8 52.2881 128.28C52.2881 128.76 52.6881 129.16 53.1681 129.16ZM64.0679 129C67.3959 129 69.5399 126.712 69.5399 123.672C69.5399 120.648 67.3959 118.328 64.0679 118.328H60.4199V129H64.0679ZM64.0679 127.816H61.7479V119.512H64.0679C66.7079 119.512 68.1639 121.368 68.1639 123.672C68.1639 125.96 66.6599 127.816 64.0679 127.816ZM72.183 120.168C72.631 120.168 72.983 119.816 72.983 119.368C72.983 118.92 72.631 118.552 72.183 118.552C71.735 118.552 71.367 118.92 71.367 119.368C71.367 119.816 71.735 120.168 72.183 120.168ZM72.775 129V121.272H71.575V129H72.775ZM76.3688 129V123.528C76.7208 122.904 77.7288 122.296 78.4808 122.296C78.6568 122.296 78.8008 122.312 78.9448 122.328V121.096C77.8888 121.096 76.9928 121.704 76.3688 122.504V121.272H75.1688V129H76.3688ZM83.954 129.192C85.202 129.192 86.242 128.76 87.026 127.992L86.45 127.208C85.826 127.848 84.946 128.2 84.05 128.2C82.386 128.2 81.378 126.984 81.282 125.528H87.522V125.224C87.522 122.904 86.146 121.08 83.81 121.08C81.602 121.08 80.002 122.888 80.002 125.128C80.002 127.544 81.65 129.192 83.954 129.192ZM86.338 124.632H81.266C81.33 123.464 82.146 122.072 83.794 122.072C85.554 122.072 86.322 123.496 86.338 124.632ZM92.8736 129.192C94.2816 129.192 95.1136 128.616 95.7056 127.848L94.9056 127.112C94.3936 127.8 93.7376 128.12 92.9376 128.12C91.3056 128.12 90.2656 126.84 90.2656 125.128C90.2656 123.416 91.3056 122.152 92.9376 122.152C93.7376 122.152 94.3936 122.44 94.9056 123.144L95.7056 122.424C95.1136 121.656 94.2816 121.08 92.8736 121.08C90.5696 121.08 89.0176 122.84 89.0176 125.128C89.0176 127.416 90.5696 129.192 92.8736 129.192ZM99.3711 129.192C100.059 129.192 100.491 128.984 100.795 128.696L100.443 127.784C100.283 127.96 99.9791 128.12 99.6271 128.12C99.1151 128.12 98.8591 127.704 98.8591 127.128V122.328H100.427V121.272H98.8591V119.16H97.6431V121.272H96.3631V122.328H97.6431V127.384C97.6431 128.536 98.2191 129.192 99.3711 129.192ZM105.482 129.192C107.834 129.192 109.306 127.368 109.306 125.128C109.306 122.888 107.834 121.08 105.482 121.08C103.13 121.08 101.658 122.888 101.658 125.128C101.658 127.368 103.13 129.192 105.482 129.192ZM105.482 128.12C103.834 128.12 102.922 126.712 102.922 125.128C102.922 123.56 103.834 122.152 105.482 122.152C107.13 122.152 108.042 123.56 108.042 125.128C108.042 126.712 107.13 128.12 105.482 128.12ZM112.463 129V123.528C112.815 122.904 113.823 122.296 114.575 122.296C114.751 122.296 114.895 122.312 115.039 122.328V121.096C113.983 121.096 113.087 121.704 112.463 122.504V121.272H111.263V129H112.463ZM124.06 129.192C126.412 129.192 127.884 127.368 127.884 125.128C127.884 122.888 126.412 121.08 124.06 121.08C121.708 121.08 120.236 122.888 120.236 125.128C120.236 127.368 121.708 129.192 124.06 129.192ZM124.06 128.12C122.412 128.12 121.5 126.712 121.5 125.128C121.5 123.56 122.412 122.152 124.06 122.152C125.708 122.152 126.62 123.56 126.62 125.128C126.62 126.712 125.708 128.12 124.06 128.12ZM131.377 129V122.328H132.945V121.272H131.377V120.68C131.377 119.688 131.809 119.16 132.609 119.16C132.993 119.16 133.297 119.304 133.553 119.528L134.049 118.76C133.569 118.312 133.041 118.168 132.417 118.168C131.057 118.168 130.177 119.096 130.177 120.68V121.272H128.897V122.328H130.177V129H131.377ZM139.904 129V124.76H142.864C144.992 124.76 146.208 123.288 146.208 121.544C146.208 119.8 145.008 118.328 142.864 118.328H138.576V129H139.904ZM142.704 123.576H139.904V119.512H142.704C143.968 119.512 144.832 120.344 144.832 121.544C144.832 122.744 143.968 123.576 142.704 123.576ZM151.22 129.192C152.468 129.192 153.508 128.76 154.292 127.992L153.716 127.208C153.092 127.848 152.212 128.2 151.316 128.2C149.652 128.2 148.644 126.984 148.548 125.528H154.788V125.224C154.788 122.904 153.412 121.08 151.076 121.08C148.868 121.08 147.268 122.888 147.268 125.128C147.268 127.544 148.916 129.192 151.22 129.192ZM153.604 124.632H148.532C148.596 123.464 149.412 122.072 151.06 122.072C152.82 122.072 153.588 123.496 153.604 124.632ZM157.931 129V123.528C158.283 122.904 159.291 122.296 160.043 122.296C160.219 122.296 160.363 122.312 160.507 122.328V121.096C159.451 121.096 158.555 121.704 157.931 122.504V121.272H156.731V129H157.931ZM163.549 129V122.328H165.117V121.272H163.549V120.68C163.549 119.688 163.981 119.16 164.781 119.16C165.165 119.16 165.469 119.304 165.725 119.528L166.221 118.76C165.741 118.312 165.213 118.168 164.589 118.168C163.229 118.168 162.349 119.096 162.349 120.68V121.272H161.069V122.328H162.349V129H163.549ZM169.935 129.192C172.287 129.192 173.759 127.368 173.759 125.128C173.759 122.888 172.287 121.08 169.935 121.08C167.583 121.08 166.111 122.888 166.111 125.128C166.111 127.368 167.583 129.192 169.935 129.192ZM169.935 128.12C168.287 128.12 167.375 126.712 167.375 125.128C167.375 123.56 168.287 122.152 169.935 122.152C171.583 122.152 172.495 123.56 172.495 125.128C172.495 126.712 171.583 128.12 169.935 128.12ZM176.916 129V123.528C177.268 122.904 178.276 122.296 179.028 122.296C179.204 122.296 179.348 122.312 179.492 122.328V121.096C178.436 121.096 177.54 121.704 176.916 122.504V121.272H175.716V129H176.916ZM191.525 129V123.416C191.525 121.864 190.773 121.08 189.365 121.08C188.245 121.08 187.205 121.816 186.773 122.52C186.549 121.72 185.877 121.08 184.709 121.08C183.557 121.08 182.533 121.896 182.197 122.392V121.272H180.997V129H182.197V123.352C182.613 122.728 183.445 122.152 184.229 122.152C185.253 122.152 185.653 122.776 185.653 123.752V129H186.853V123.336C187.253 122.712 188.101 122.152 188.901 122.152C189.909 122.152 190.325 122.776 190.325 123.752V129H191.525ZM199.951 129V123.688C199.951 121.816 198.607 121.08 196.959 121.08C195.695 121.08 194.703 121.496 193.871 122.36L194.431 123.192C195.119 122.44 195.871 122.12 196.799 122.12C197.919 122.12 198.751 122.712 198.751 123.736V125.128C198.127 124.424 197.247 124.088 196.191 124.088C194.879 124.088 193.503 124.888 193.503 126.632C193.503 128.312 194.895 129.192 196.191 129.192C197.231 129.192 198.127 128.824 198.751 128.12V129H199.951ZM196.639 128.328C195.503 128.328 194.719 127.624 194.719 126.632C194.719 125.656 195.503 124.952 196.639 124.952C197.471 124.952 198.287 125.272 198.751 125.896V127.368C198.287 128.008 197.471 128.328 196.639 128.328ZM208.788 129V123.576C208.788 121.896 207.94 121.08 206.34 121.08C205.172 121.08 204.116 121.736 203.572 122.392V121.272H202.372V129H203.572V123.352C204.036 122.728 204.916 122.152 205.86 122.152C206.9 122.152 207.604 122.568 207.604 123.944V129H208.788ZM214.608 129.192C216.016 129.192 216.848 128.616 217.44 127.848L216.64 127.112C216.128 127.8 215.472 128.12 214.672 128.12C213.04 128.12 212 126.84 212 125.128C212 123.416 213.04 122.152 214.672 122.152C215.472 122.152 216.128 122.44 216.64 123.144L217.44 122.424C216.848 121.656 216.016 121.08 214.608 121.08C212.304 121.08 210.752 122.84 210.752 125.128C210.752 127.416 212.304 129.192 214.608 129.192ZM222.641 129.192C223.89 129.192 224.93 128.76 225.714 127.992L225.138 127.208C224.514 127.848 223.634 128.2 222.738 128.2C221.074 128.2 220.066 126.984 219.97 125.528H226.21V125.224C226.21 122.904 224.834 121.08 222.498 121.08C220.289 121.08 218.69 122.888 218.69 125.128C218.69 127.544 220.338 129.192 222.641 129.192ZM225.026 124.632H219.954C220.018 123.464 220.834 122.072 222.482 122.072C224.242 122.072 225.01 123.496 225.026 124.632ZM242.79 129V118.328H240.886L237.574 126.552L234.246 118.328H232.342V129H233.67V120.024L237.302 129H237.846L241.462 120.024V129H242.79ZM251.263 129V123.688C251.263 121.816 249.919 121.08 248.271 121.08C247.007 121.08 246.015 121.496 245.183 122.36L245.743 123.192C246.431 122.44 247.183 122.12 248.111 122.12C249.231 122.12 250.063 122.712 250.063 123.736V125.128C249.439 124.424 248.559 124.088 247.503 124.088C246.191 124.088 244.815 124.888 244.815 126.632C244.815 128.312 246.207 129.192 247.503 129.192C248.543 129.192 249.439 128.824 250.063 128.12V129H251.263ZM247.951 128.328C246.815 128.328 246.031 127.624 246.031 126.632C246.031 125.656 246.815 124.952 247.951 124.952C248.783 124.952 249.599 125.272 250.063 125.896V127.368C249.599 128.008 248.783 128.328 247.951 128.328ZM254.884 129V123.528C255.236 122.904 256.244 122.296 256.996 122.296C257.172 122.296 257.316 122.312 257.46 122.328V121.096C256.404 121.096 255.508 121.704 254.884 122.504V121.272H253.684V129H254.884ZM265.766 129L262.326 124.776L265.75 121.272H264.23L260.166 125.384V118.328H258.966V129H260.166V126.792L261.462 125.528L264.23 129H265.766ZM270.641 129.192C271.89 129.192 272.93 128.76 273.714 127.992L273.138 127.208C272.514 127.848 271.634 128.2 270.738 128.2C269.074 128.2 268.066 126.984 267.97 125.528H274.21V125.224C274.21 122.904 272.834 121.08 270.498 121.08C268.289 121.08 266.69 122.888 266.69 125.128C266.69 127.544 268.338 129.192 270.641 129.192ZM273.026 124.632H267.954C268.018 123.464 268.834 122.072 270.482 122.072C272.242 122.072 273.01 123.496 273.026 124.632ZM278.121 129.192C278.809 129.192 279.241 128.984 279.545 128.696L279.193 127.784C279.033 127.96 278.729 128.12 278.377 128.12C277.865 128.12 277.609 127.704 277.609 127.128V122.328H279.177V121.272H277.609V119.16H276.393V121.272H275.113V122.328H276.393V127.384C276.393 128.536 276.969 129.192 278.121 129.192ZM281.464 120.168C281.912 120.168 282.264 119.816 282.264 119.368C282.264 118.92 281.912 118.552 281.464 118.552C281.016 118.552 280.648 118.92 280.648 119.368C280.648 119.816 281.016 120.168 281.464 120.168ZM282.056 129V121.272H280.856V129H282.056ZM290.866 129V123.576C290.866 121.896 290.018 121.08 288.418 121.08C287.25 121.08 286.194 121.736 285.65 122.392V121.272H284.45V129H285.65V123.352C286.114 122.728 286.994 122.152 287.938 122.152C288.978 122.152 289.682 122.568 289.682 123.944V129H290.866ZM296.382 132.136C298.27 132.136 300.078 131.336 300.078 128.888V121.272H298.878V122.44C298.254 121.592 297.31 121.08 296.27 121.08C294.238 121.08 292.83 122.616 292.83 125.096C292.83 127.592 294.254 129.096 296.27 129.096C297.358 129.096 298.302 128.504 298.878 127.72V128.888C298.878 130.52 297.662 131.144 296.382 131.144C295.278 131.144 294.51 130.856 293.87 130.104L293.262 130.968C294.19 131.88 295.086 132.136 296.382 132.136ZM296.574 128.024C295.006 128.024 294.078 126.792 294.078 125.096C294.078 123.384 295.006 122.152 296.574 122.152C297.518 122.152 298.446 122.728 298.878 123.384V126.776C298.446 127.448 297.518 128.024 296.574 128.024Z" fill="#454954"/>
<path d="M42.896 160C46.224 160 48.368 157.712 48.368 154.672C48.368 151.648 46.224 149.328 42.896 149.328H39.248V160H42.896ZM42.896 158.816H40.576V150.512H42.896C45.536 150.512 46.992 152.368 46.992 154.672C46.992 156.96 45.488 158.816 42.896 158.816ZM51.0111 151.168C51.4591 151.168 51.8111 150.816 51.8111 150.368C51.8111 149.92 51.4591 149.552 51.0111 149.552C50.5631 149.552 50.1951 149.92 50.1951 150.368C50.1951 150.816 50.5631 151.168 51.0111 151.168ZM51.6031 160V152.272H50.4031V160H51.6031ZM57.1009 163.136C58.9889 163.136 60.7969 162.336 60.7969 159.888V152.272H59.5969V153.44C58.9729 152.592 58.0289 152.08 56.9889 152.08C54.9569 152.08 53.5489 153.616 53.5489 156.096C53.5489 158.592 54.9729 160.096 56.9889 160.096C58.0769 160.096 59.0209 159.504 59.5969 158.72V159.888C59.5969 161.52 58.3809 162.144 57.1009 162.144C55.9969 162.144 55.2289 161.856 54.5889 161.104L53.9809 161.968C54.9089 162.88 55.8049 163.136 57.1009 163.136ZM57.2929 159.024C55.7249 159.024 54.7969 157.792 54.7969 156.096C54.7969 154.384 55.7249 153.152 57.2929 153.152C58.2369 153.152 59.1649 153.728 59.5969 154.384V157.776C59.1649 158.448 58.2369 159.024 57.2929 159.024ZM63.808 151.168C64.256 151.168 64.608 150.816 64.608 150.368C64.608 149.92 64.256 149.552 63.808 149.552C63.36 149.552 62.992 149.92 62.992 150.368C62.992 150.816 63.36 151.168 63.808 151.168ZM64.4 160V152.272H63.2V160H64.4ZM68.7618 160.192C69.4498 160.192 69.8818 159.984 70.1858 159.696L69.8338 158.784C69.6738 158.96 69.3698 159.12 69.0178 159.12C68.5058 159.12 68.2498 158.704 68.2498 158.128V153.328H69.8177V152.272H68.2498V150.16H67.0338V152.272H65.7538V153.328H67.0338V158.384C67.0338 159.536 67.6098 160.192 68.7618 160.192ZM77.5289 160V154.688C77.5289 152.816 76.1849 152.08 74.5369 152.08C73.2729 152.08 72.2809 152.496 71.4489 153.36L72.0089 154.192C72.6969 153.44 73.4489 153.12 74.3769 153.12C75.4969 153.12 76.3289 153.712 76.3289 154.736V156.128C75.7049 155.424 74.8249 155.088 73.7689 155.088C72.4569 155.088 71.0809 155.888 71.0809 157.632C71.0809 159.312 72.4729 160.192 73.7689 160.192C74.8089 160.192 75.7049 159.824 76.3289 159.12V160H77.5289ZM74.2169 159.328C73.0809 159.328 72.2969 158.624 72.2969 157.632C72.2969 156.656 73.0809 155.952 74.2169 155.952C75.0489 155.952 75.8649 156.272 76.3289 156.896V158.368C75.8649 159.008 75.0489 159.328 74.2169 159.328ZM81.15 160V149.328H79.95V160H81.15ZM98.1804 160V149.328H96.2764L92.9644 157.552L89.6364 149.328H87.7324V160H89.0604V151.024L92.6924 160H93.2364L96.8524 151.024V160H98.1804ZM106.654 160V154.688C106.654 152.816 105.31 152.08 103.662 152.08C102.398 152.08 101.406 152.496 100.574 153.36L101.134 154.192C101.822 153.44 102.574 153.12 103.502 153.12C104.622 153.12 105.454 153.712 105.454 154.736V156.128C104.83 155.424 103.95 155.088 102.894 155.088C101.582 155.088 100.206 155.888 100.206 157.632C100.206 159.312 101.598 160.192 102.894 160.192C103.934 160.192 104.83 159.824 105.454 159.12V160H106.654ZM103.342 159.328C102.206 159.328 101.422 158.624 101.422 157.632C101.422 156.656 102.206 155.952 103.342 155.952C104.174 155.952 104.99 156.272 105.454 156.896V158.368C104.99 159.008 104.174 159.328 103.342 159.328ZM110.275 160V154.528C110.627 153.904 111.635 153.296 112.387 153.296C112.563 153.296 112.707 153.312 112.851 153.328V152.096C111.795 152.096 110.899 152.704 110.275 153.504V152.272H109.075V160H110.275ZM121.156 160L117.716 155.776L121.14 152.272H119.62L115.556 156.384V149.328H114.356V160H115.556V157.792L116.852 156.528L119.62 160H121.156ZM126.032 160.192C127.28 160.192 128.32 159.76 129.104 158.992L128.528 158.208C127.904 158.848 127.024 159.2 126.128 159.2C124.464 159.2 123.456 157.984 123.36 156.528H129.6V156.224C129.6 153.904 128.224 152.08 125.888 152.08C123.68 152.08 122.08 153.888 122.08 156.128C122.08 158.544 123.728 160.192 126.032 160.192ZM128.416 155.632H123.344C123.408 154.464 124.224 153.072 125.872 153.072C127.632 153.072 128.4 154.496 128.416 155.632ZM133.512 160.192C134.2 160.192 134.632 159.984 134.936 159.696L134.584 158.784C134.424 158.96 134.12 159.12 133.768 159.12C133.256 159.12 133 158.704 133 158.128V153.328H134.568V152.272H133V150.16H131.784V152.272H130.504V153.328H131.784V158.384C131.784 159.536 132.36 160.192 133.512 160.192ZM136.855 151.168C137.303 151.168 137.655 150.816 137.655 150.368C137.655 149.92 137.303 149.552 136.855 149.552C136.407 149.552 136.039 149.92 136.039 150.368C136.039 150.816 136.407 151.168 136.855 151.168ZM137.447 160V152.272H136.247V160H137.447ZM146.257 160V154.576C146.257 152.896 145.409 152.08 143.809 152.08C142.641 152.08 141.585 152.736 141.041 153.392V152.272H139.841V160H141.041V154.352C141.505 153.728 142.385 153.152 143.329 153.152C144.369 153.152 145.073 153.568 145.073 154.944V160H146.257ZM151.773 163.136C153.661 163.136 155.469 162.336 155.469 159.888V152.272H154.269V153.44C153.645 152.592 152.701 152.08 151.661 152.08C149.629 152.08 148.221 153.616 148.221 156.096C148.221 158.592 149.645 160.096 151.661 160.096C152.749 160.096 153.693 159.504 154.269 158.72V159.888C154.269 161.52 153.053 162.144 151.773 162.144C150.669 162.144 149.901 161.856 149.261 161.104L148.653 161.968C149.581 162.88 150.477 163.136 151.773 163.136ZM151.965 159.024C150.397 159.024 149.469 157.792 149.469 156.096C149.469 154.384 150.397 153.152 151.965 153.152C152.909 153.152 153.837 153.728 154.269 154.384V157.776C153.837 158.448 152.909 159.024 151.965 159.024ZM172.509 160V149.328H170.605L167.293 157.552L163.965 149.328H162.061V160H163.389V151.024L167.021 160H167.565L171.181 151.024V160H172.509ZM180.982 160V154.688C180.982 152.816 179.638 152.08 177.99 152.08C176.726 152.08 175.734 152.496 174.902 153.36L175.462 154.192C176.15 153.44 176.902 153.12 177.83 153.12C178.95 153.12 179.782 153.712 179.782 154.736V156.128C179.158 155.424 178.278 155.088 177.222 155.088C175.91 155.088 174.534 155.888 174.534 157.632C174.534 159.312 175.926 160.192 177.222 160.192C178.262 160.192 179.158 159.824 179.782 159.12V160H180.982ZM177.67 159.328C176.534 159.328 175.75 158.624 175.75 157.632C175.75 156.656 176.534 155.952 177.67 155.952C178.502 155.952 179.318 156.272 179.782 156.896V158.368C179.318 159.008 178.502 159.328 177.67 159.328ZM189.819 160V154.576C189.819 152.896 188.971 152.08 187.371 152.08C186.203 152.08 185.147 152.736 184.603 153.392V152.272H183.403V160H184.603V154.352C185.067 153.728 185.947 153.152 186.891 153.152C187.931 153.152 188.635 153.568 188.635 154.944V160H189.819ZM198.263 160V154.688C198.263 152.816 196.919 152.08 195.271 152.08C194.007 152.08 193.015 152.496 192.183 153.36L192.743 154.192C193.431 153.44 194.183 153.12 195.111 153.12C196.231 153.12 197.063 153.712 197.063 154.736V156.128C196.439 155.424 195.559 155.088 194.503 155.088C193.191 155.088 191.815 155.888 191.815 157.632C191.815 159.312 193.207 160.192 194.503 160.192C195.543 160.192 196.439 159.824 197.063 159.12V160H198.263ZM194.951 159.328C193.815 159.328 193.031 158.624 193.031 157.632C193.031 156.656 193.815 155.952 194.951 155.952C195.783 155.952 196.599 156.272 197.063 156.896V158.368C196.599 159.008 195.783 159.328 194.951 159.328ZM203.788 163.136C205.676 163.136 207.484 162.336 207.484 159.888V152.272H206.284V153.44C205.66 152.592 204.716 152.08 203.676 152.08C201.644 152.08 200.236 153.616 200.236 156.096C200.236 158.592 201.66 160.096 203.676 160.096C204.764 160.096 205.708 159.504 206.284 158.72V159.888C206.284 161.52 205.068 162.144 203.788 162.144C202.684 162.144 201.916 161.856 201.276 161.104L200.668 161.968C201.596 162.88 202.492 163.136 203.788 163.136ZM203.98 159.024C202.412 159.024 201.484 157.792 201.484 156.096C201.484 154.384 202.412 153.152 203.98 153.152C204.924 153.152 205.852 153.728 206.284 154.384V157.776C205.852 158.448 204.924 159.024 203.98 159.024ZM213.391 160.192C214.64 160.192 215.68 159.76 216.464 158.992L215.888 158.208C215.264 158.848 214.384 159.2 213.488 159.2C211.824 159.2 210.816 157.984 210.72 156.528H216.96V156.224C216.96 153.904 215.584 152.08 213.248 152.08C211.039 152.08 209.44 153.888 209.44 156.128C209.44 158.544 211.088 160.192 213.391 160.192ZM215.776 155.632H210.704C210.768 154.464 211.584 153.072 213.232 153.072C214.992 153.072 215.76 154.496 215.776 155.632ZM220.103 160V154.528C220.455 153.904 221.463 153.296 222.215 153.296C222.391 153.296 222.535 153.312 222.679 153.328V152.096C221.623 152.096 220.727 152.704 220.103 153.504V152.272H218.903V160H220.103Z" fill="#454954"/>
<path d="M42.896 191C46.224 191 48.368 188.712 48.368 185.672C48.368 182.648 46.224 180.328 42.896 180.328H39.248V191H42.896ZM42.896 189.816H40.576V181.512H42.896C45.536 181.512 46.992 183.368 46.992 185.672C46.992 187.96 45.488 189.816 42.896 189.816ZM51.0111 182.168C51.4591 182.168 51.8111 181.816 51.8111 181.368C51.8111 180.92 51.4591 180.552 51.0111 180.552C50.5631 180.552 50.1951 180.92 50.1951 181.368C50.1951 181.816 50.5631 182.168 51.0111 182.168ZM51.6031 191V183.272H50.4031V191H51.6031ZM57.1009 194.136C58.9889 194.136 60.7969 193.336 60.7969 190.888V183.272H59.5969V184.44C58.9729 183.592 58.0289 183.08 56.9889 183.08C54.9569 183.08 53.5489 184.616 53.5489 187.096C53.5489 189.592 54.9729 191.096 56.9889 191.096C58.0769 191.096 59.0209 190.504 59.5969 189.72V190.888C59.5969 192.52 58.3809 193.144 57.1009 193.144C55.9969 193.144 55.2289 192.856 54.5889 192.104L53.9809 192.968C54.9089 193.88 55.8049 194.136 57.1009 194.136ZM57.2929 190.024C55.7249 190.024 54.7969 188.792 54.7969 187.096C54.7969 185.384 55.7249 184.152 57.2929 184.152C58.2369 184.152 59.1649 184.728 59.5969 185.384V188.776C59.1649 189.448 58.2369 190.024 57.2929 190.024ZM63.808 182.168C64.256 182.168 64.608 181.816 64.608 181.368C64.608 180.92 64.256 180.552 63.808 180.552C63.36 180.552 62.992 180.92 62.992 181.368C62.992 181.816 63.36 182.168 63.808 182.168ZM64.4 191V183.272H63.2V191H64.4ZM68.7618 191.192C69.4498 191.192 69.8818 190.984 70.1858 190.696L69.8338 189.784C69.6738 189.96 69.3698 190.12 69.0178 190.12C68.5058 190.12 68.2498 189.704 68.2498 189.128V184.328H69.8177V183.272H68.2498V181.16H67.0338V183.272H65.7538V184.328H67.0338V189.384C67.0338 190.536 67.6098 191.192 68.7618 191.192ZM77.5289 191V185.688C77.5289 183.816 76.1849 183.08 74.5369 183.08C73.2729 183.08 72.2809 183.496 71.4489 184.36L72.0089 185.192C72.6969 184.44 73.4489 184.12 74.3769 184.12C75.4969 184.12 76.3289 184.712 76.3289 185.736V187.128C75.7049 186.424 74.8249 186.088 73.7689 186.088C72.4569 186.088 71.0809 186.888 71.0809 188.632C71.0809 190.312 72.4729 191.192 73.7689 191.192C74.8089 191.192 75.7049 190.824 76.3289 190.12V191H77.5289ZM74.2169 190.328C73.0809 190.328 72.2969 189.624 72.2969 188.632C72.2969 187.656 73.0809 186.952 74.2169 186.952C75.0489 186.952 75.8649 187.272 76.3289 187.896V189.368C75.8649 190.008 75.0489 190.328 74.2169 190.328ZM81.15 191V180.328H79.95V191H81.15ZM98.1804 191V180.328H96.2764L92.9644 188.552L89.6364 180.328H87.7324V191H89.0604V182.024L92.6924 191H93.2364L96.8524 182.024V191H98.1804ZM106.654 191V185.688C106.654 183.816 105.31 183.08 103.662 183.08C102.398 183.08 101.406 183.496 100.574 184.36L101.134 185.192C101.822 184.44 102.574 184.12 103.502 184.12C104.622 184.12 105.454 184.712 105.454 185.736V187.128C104.83 186.424 103.95 186.088 102.894 186.088C101.582 186.088 100.206 186.888 100.206 188.632C100.206 190.312 101.598 191.192 102.894 191.192C103.934 191.192 104.83 190.824 105.454 190.12V191H106.654ZM103.342 190.328C102.206 190.328 101.422 189.624 101.422 188.632C101.422 187.656 102.206 186.952 103.342 186.952C104.174 186.952 104.99 187.272 105.454 187.896V189.368C104.99 190.008 104.174 190.328 103.342 190.328ZM110.275 191V185.528C110.627 184.904 111.635 184.296 112.387 184.296C112.563 184.296 112.707 184.312 112.851 184.328V183.096C111.795 183.096 110.899 183.704 110.275 184.504V183.272H109.075V191H110.275ZM121.156 191L117.716 186.776L121.14 183.272H119.62L115.556 187.384V180.328H114.356V191H115.556V188.792L116.852 187.528L119.62 191H121.156ZM126.032 191.192C127.28 191.192 128.32 190.76 129.104 189.992L128.528 189.208C127.904 189.848 127.024 190.2 126.128 190.2C124.464 190.2 123.456 188.984 123.36 187.528H129.6V187.224C129.6 184.904 128.224 183.08 125.888 183.08C123.68 183.08 122.08 184.888 122.08 187.128C122.08 189.544 123.728 191.192 126.032 191.192ZM128.416 186.632H123.344C123.408 185.464 124.224 184.072 125.872 184.072C127.632 184.072 128.4 185.496 128.416 186.632ZM133.512 191.192C134.2 191.192 134.632 190.984 134.936 190.696L134.584 189.784C134.424 189.96 134.12 190.12 133.768 190.12C133.256 190.12 133 189.704 133 189.128V184.328H134.568V183.272H133V181.16H131.784V183.272H130.504V184.328H131.784V189.384C131.784 190.536 132.36 191.192 133.512 191.192ZM136.855 182.168C137.303 182.168 137.655 181.816 137.655 181.368C137.655 180.92 137.303 180.552 136.855 180.552C136.407 180.552 136.039 180.92 136.039 181.368C136.039 181.816 136.407 182.168 136.855 182.168ZM137.447 191V183.272H136.247V191H137.447ZM146.257 191V185.576C146.257 183.896 145.409 183.08 143.809 183.08C142.641 183.08 141.585 183.736 141.041 184.392V183.272H139.841V191H141.041V185.352C141.505 184.728 142.385 184.152 143.329 184.152C144.369 184.152 145.073 184.568 145.073 185.944V191H146.257ZM151.773 194.136C153.661 194.136 155.469 193.336 155.469 190.888V183.272H154.269V184.44C153.645 183.592 152.701 183.08 151.661 183.08C149.629 183.08 148.221 184.616 148.221 187.096C148.221 189.592 149.645 191.096 151.661 191.096C152.749 191.096 153.693 190.504 154.269 189.72V190.888C154.269 192.52 153.053 193.144 151.773 193.144C150.669 193.144 149.901 192.856 149.261 192.104L148.653 192.968C149.581 193.88 150.477 194.136 151.773 194.136ZM151.965 190.024C150.397 190.024 149.469 188.792 149.469 187.096C149.469 185.384 150.397 184.152 151.965 184.152C152.909 184.152 153.837 184.728 154.269 185.384V188.776C153.837 189.448 152.909 190.024 151.965 190.024ZM171.197 191L166.909 180.328H165.261L160.957 191H162.477L163.421 188.616H168.733L169.677 191H171.197ZM168.349 187.448H163.821L166.077 181.688L168.349 187.448ZM178.96 191V185.576C178.96 183.896 178.112 183.08 176.512 183.08C175.344 183.08 174.288 183.736 173.744 184.392V183.272H172.544V191H173.744V185.352C174.208 184.728 175.088 184.152 176.032 184.152C177.072 184.152 177.776 184.568 177.776 185.944V191H178.96ZM187.404 191V185.688C187.404 183.816 186.06 183.08 184.412 183.08C183.148 183.08 182.156 183.496 181.324 184.36L181.884 185.192C182.572 184.44 183.324 184.12 184.252 184.12C185.372 184.12 186.204 184.712 186.204 185.736V187.128C185.58 186.424 184.7 186.088 183.644 186.088C182.332 186.088 180.956 186.888 180.956 188.632C180.956 190.312 182.348 191.192 183.644 191.192C184.684 191.192 185.58 190.824 186.204 190.12V191H187.404ZM184.092 190.328C182.956 190.328 182.172 189.624 182.172 188.632C182.172 187.656 182.956 186.952 184.092 186.952C184.924 186.952 185.74 187.272 186.204 187.896V189.368C185.74 190.008 184.924 190.328 184.092 190.328ZM191.025 191V180.328H189.825V191H191.025ZM193.003 194.024C193.211 194.088 193.611 194.136 193.867 194.136C194.891 194.12 195.675 193.688 196.139 192.568L200.011 183.272H198.715L196.139 189.608L193.579 183.272H192.267L195.499 191.08L194.987 192.248C194.715 192.888 194.363 193.064 193.835 193.064C193.643 193.064 193.355 193.016 193.179 192.936L193.003 194.024ZM203.727 191.192C205.711 191.192 206.751 190.152 206.751 188.856C206.751 185.848 201.967 186.952 201.967 185.272C201.967 184.584 202.623 184.056 203.679 184.056C204.687 184.056 205.519 184.472 205.983 185.032L206.543 184.2C205.935 183.576 205.007 183.08 203.679 183.08C201.839 183.08 200.815 184.088 200.815 185.304C200.815 188.168 205.599 187.016 205.599 188.888C205.599 189.656 204.943 190.216 203.759 190.216C202.703 190.216 201.727 189.704 201.215 189.112L200.607 189.976C201.391 190.792 202.447 191.192 203.727 191.192ZM210.668 191.192C211.356 191.192 211.788 190.984 212.092 190.696L211.74 189.784C211.58 189.96 211.276 190.12 210.924 190.12C210.412 190.12 210.156 189.704 210.156 189.128V184.328H211.724V183.272H210.156V181.16H208.94V183.272H207.66V184.328H208.94V189.384C208.94 190.536 209.516 191.192 210.668 191.192ZM220.536 187.656L220.76 186.6H216.92L216.696 187.656H220.536ZM232.033 191L233.217 185.64C233.265 185.464 233.313 185.144 233.313 184.984C233.313 183.752 232.369 183.08 231.009 183.08C229.905 183.08 228.945 183.736 228.273 184.392L228.529 183.272H227.329L225.617 191H226.817L228.065 185.368C228.657 184.744 229.553 184.152 230.449 184.152C231.361 184.152 232.049 184.504 232.049 185.384C232.049 185.576 232.001 185.768 231.969 185.928L230.849 191H232.033ZM238.525 191.192C239.517 191.192 240.541 190.808 241.245 190.28L240.829 189.432C240.205 189.944 239.357 190.2 238.605 190.2C236.861 190.2 235.981 189.096 235.981 187.896C235.981 187.784 235.997 187.592 236.013 187.528H242.301C242.349 187.304 242.429 186.824 242.429 186.456C242.429 184.488 241.149 183.08 239.101 183.08C236.653 183.08 234.749 185.208 234.749 187.768C234.749 189.816 236.173 191.192 238.525 191.192ZM241.277 186.632H236.125C236.365 185.272 237.581 184.072 238.989 184.072C240.525 184.072 241.341 185.048 241.341 186.344C241.341 186.424 241.325 186.568 241.325 186.632H241.277ZM251.365 191L255.541 183.272H254.229L250.981 189.432L250.325 183.272H249.285L245.877 189.432L245.381 183.272H244.165L244.917 191H246.117L249.509 184.792L250.149 191H251.365ZM266.344 191L266.6 189.816H261.368C264.968 187.624 268.088 185.384 268.088 182.968C268.088 181.064 266.344 180.168 264.456 180.168C263.128 180.168 261.816 180.68 261.016 181.448L261.64 182.392C262.296 181.784 263.176 181.352 264.376 181.352C265.72 181.352 266.68 181.976 266.68 183.032C266.68 185.032 263.592 187.064 259.304 189.688L259.016 191H266.344ZM272.87 191.192C275.99 191.192 277.878 187.528 277.878 184.312C277.878 181.768 276.646 180.168 274.406 180.168C271.286 180.168 269.366 183.816 269.366 187.032C269.366 189.576 270.63 191.192 272.87 191.192ZM272.982 190.008C271.366 190.008 270.71 188.76 270.71 187.112C270.71 184.616 272.054 181.352 274.262 181.352C275.894 181.352 276.518 182.584 276.518 184.232C276.518 186.712 275.206 190.008 272.982 190.008ZM281.531 191L283.883 180.328H282.715L279.451 183.08L280.059 183.896L282.171 182.072L280.203 191H281.531ZM287.993 191.192C290.105 191.192 291.913 189.96 291.913 188.152C291.913 186.856 290.825 186.04 289.913 185.624C291.673 185.352 292.937 184.344 292.937 182.792C292.937 181.096 291.161 180.168 289.289 180.168C287.513 180.168 285.497 181.08 285.497 183.096C285.497 184.216 286.441 184.984 287.353 185.352C285.417 185.752 284.121 186.888 284.121 188.472C284.121 190.28 285.865 191.192 287.993 191.192ZM288.761 184.952C287.945 184.76 286.825 184.104 286.825 183.224C286.825 182.04 287.961 181.368 289.209 181.368C290.489 181.368 291.513 182.072 291.513 183C291.513 184.168 290.345 184.84 288.761 184.952ZM288.025 190.008C286.665 190.008 285.529 189.4 285.529 188.232C285.529 187.016 286.825 186.184 288.521 186.088C289.385 186.296 290.585 187 290.585 188.024C290.585 189.272 289.289 190.008 288.025 190.008Z" fill="#454954"/>
<path d="M42.896 222C46.224 222 48.368 219.712 48.368 216.672C48.368 213.648 46.224 211.328 42.896 211.328H39.248V222H42.896ZM42.896 220.816H40.576V212.512H42.896C45.536 212.512 46.992 214.368 46.992 216.672C46.992 218.96 45.488 220.816 42.896 220.816ZM51.0111 213.168C51.4591 213.168 51.8111 212.816 51.8111 212.368C51.8111 211.92 51.4591 211.552 51.0111 211.552C50.5631 211.552 50.1951 211.92 50.1951 212.368C50.1951 212.816 50.5631 213.168 51.0111 213.168ZM51.6031 222V214.272H50.4031V222H51.6031ZM57.1009 225.136C58.9889 225.136 60.7969 224.336 60.7969 221.888V214.272H59.5969V215.44C58.9729 214.592 58.0289 214.08 56.9889 214.08C54.9569 214.08 53.5489 215.616 53.5489 218.096C53.5489 220.592 54.9729 222.096 56.9889 222.096C58.0769 222.096 59.0209 221.504 59.5969 220.72V221.888C59.5969 223.52 58.3809 224.144 57.1009 224.144C55.9969 224.144 55.2289 223.856 54.5889 223.104L53.9809 223.968C54.9089 224.88 55.8049 225.136 57.1009 225.136ZM57.2929 221.024C55.7249 221.024 54.7969 219.792 54.7969 218.096C54.7969 216.384 55.7249 215.152 57.2929 215.152C58.2369 215.152 59.1649 215.728 59.5969 216.384V219.776C59.1649 220.448 58.2369 221.024 57.2929 221.024ZM63.808 213.168C64.256 213.168 64.608 212.816 64.608 212.368C64.608 211.92 64.256 211.552 63.808 211.552C63.36 211.552 62.992 211.92 62.992 212.368C62.992 212.816 63.36 213.168 63.808 213.168ZM64.4 222V214.272H63.2V222H64.4ZM68.7618 222.192C69.4498 222.192 69.8818 221.984 70.1858 221.696L69.8338 220.784C69.6738 220.96 69.3698 221.12 69.0178 221.12C68.5058 221.12 68.2498 220.704 68.2498 220.128V215.328H69.8177V214.272H68.2498V212.16H67.0338V214.272H65.7538V215.328H67.0338V220.384C67.0338 221.536 67.6098 222.192 68.7618 222.192ZM77.5289 222V216.688C77.5289 214.816 76.1849 214.08 74.5369 214.08C73.2729 214.08 72.2809 214.496 71.4489 215.36L72.0089 216.192C72.6969 215.44 73.4489 215.12 74.3769 215.12C75.4969 215.12 76.3289 215.712 76.3289 216.736V218.128C75.7049 217.424 74.8249 217.088 73.7689 217.088C72.4569 217.088 71.0809 217.888 71.0809 219.632C71.0809 221.312 72.4729 222.192 73.7689 222.192C74.8089 222.192 75.7049 221.824 76.3289 221.12V222H77.5289ZM74.2169 221.328C73.0809 221.328 72.2969 220.624 72.2969 219.632C72.2969 218.656 73.0809 217.952 74.2169 217.952C75.0489 217.952 75.8649 218.272 76.3289 218.896V220.368C75.8649 221.008 75.0489 221.328 74.2169 221.328ZM81.15 222V211.328H79.95V222H81.15ZM98.1804 222V211.328H96.2764L92.9644 219.552L89.6364 211.328H87.7324V222H89.0604V213.024L92.6924 222H93.2364L96.8524 213.024V222H98.1804ZM106.654 222V216.688C106.654 214.816 105.31 214.08 103.662 214.08C102.398 214.08 101.406 214.496 100.574 215.36L101.134 216.192C101.822 215.44 102.574 215.12 103.502 215.12C104.622 215.12 105.454 215.712 105.454 216.736V218.128C104.83 217.424 103.95 217.088 102.894 217.088C101.582 217.088 100.206 217.888 100.206 219.632C100.206 221.312 101.598 222.192 102.894 222.192C103.934 222.192 104.83 221.824 105.454 221.12V222H106.654ZM103.342 221.328C102.206 221.328 101.422 220.624 101.422 219.632C101.422 218.656 102.206 217.952 103.342 217.952C104.174 217.952 104.99 218.272 105.454 218.896V220.368C104.99 221.008 104.174 221.328 103.342 221.328ZM110.275 222V216.528C110.627 215.904 111.635 215.296 112.387 215.296C112.563 215.296 112.707 215.312 112.851 215.328V214.096C111.795 214.096 110.899 214.704 110.275 215.504V214.272H109.075V222H110.275ZM121.156 222L117.716 217.776L121.14 214.272H119.62L115.556 218.384V211.328H114.356V222H115.556V219.792L116.852 218.528L119.62 222H121.156ZM126.032 222.192C127.28 222.192 128.32 221.76 129.104 220.992L128.528 220.208C127.904 220.848 127.024 221.2 126.128 221.2C124.464 221.2 123.456 219.984 123.36 218.528H129.6V218.224C129.6 215.904 128.224 214.08 125.888 214.08C123.68 214.08 122.08 215.888 122.08 218.128C122.08 220.544 123.728 222.192 126.032 222.192ZM128.416 217.632H123.344C123.408 216.464 124.224 215.072 125.872 215.072C127.632 215.072 128.4 216.496 128.416 217.632ZM133.512 222.192C134.2 222.192 134.632 221.984 134.936 221.696L134.584 220.784C134.424 220.96 134.12 221.12 133.768 221.12C133.256 221.12 133 220.704 133 220.128V215.328H134.568V214.272H133V212.16H131.784V214.272H130.504V215.328H131.784V220.384C131.784 221.536 132.36 222.192 133.512 222.192ZM136.855 213.168C137.303 213.168 137.655 212.816 137.655 212.368C137.655 211.92 137.303 211.552 136.855 211.552C136.407 211.552 136.039 211.92 136.039 212.368C136.039 212.816 136.407 213.168 136.855 213.168ZM137.447 222V214.272H136.247V222H137.447ZM146.257 222V216.576C146.257 214.896 145.409 214.08 143.809 214.08C142.641 214.08 141.585 214.736 141.041 215.392V214.272H139.841V222H141.041V216.352C141.505 215.728 142.385 215.152 143.329 215.152C144.369 215.152 145.073 215.568 145.073 216.944V222H146.257ZM151.773 225.136C153.661 225.136 155.469 224.336 155.469 221.888V214.272H154.269V215.44C153.645 214.592 152.701 214.08 151.661 214.08C149.629 214.08 148.221 215.616 148.221 218.096C148.221 220.592 149.645 222.096 151.661 222.096C152.749 222.096 153.693 221.504 154.269 220.72V221.888C154.269 223.52 153.053 224.144 151.773 224.144C150.669 224.144 149.901 223.856 149.261 223.104L148.653 223.968C149.581 224.88 150.477 225.136 151.773 225.136ZM151.965 221.024C150.397 221.024 149.469 219.792 149.469 218.096C149.469 216.384 150.397 215.152 151.965 215.152C152.909 215.152 153.837 215.728 154.269 216.384V219.776C153.837 220.448 152.909 221.024 151.965 221.024ZM171.197 222L166.909 211.328H165.261L160.957 222H162.477L163.421 219.616H168.733L169.677 222H171.197ZM168.349 218.448H163.821L166.077 212.688L168.349 218.448ZM178.96 222V216.576C178.96 214.896 178.112 214.08 176.512 214.08C175.344 214.08 174.288 214.736 173.744 215.392V214.272H172.544V222H173.744V216.352C174.208 215.728 175.088 215.152 176.032 215.152C177.072 215.152 177.776 215.568 177.776 216.944V222H178.96ZM187.404 222V216.688C187.404 214.816 186.06 214.08 184.412 214.08C183.148 214.08 182.156 214.496 181.324 215.36L181.884 216.192C182.572 215.44 183.324 215.12 184.252 215.12C185.372 215.12 186.204 215.712 186.204 216.736V218.128C185.58 217.424 184.7 217.088 183.644 217.088C182.332 217.088 180.956 217.888 180.956 219.632C180.956 221.312 182.348 222.192 183.644 222.192C184.684 222.192 185.58 221.824 186.204 221.12V222H187.404ZM184.092 221.328C182.956 221.328 182.172 220.624 182.172 219.632C182.172 218.656 182.956 217.952 184.092 217.952C184.924 217.952 185.74 218.272 186.204 218.896V220.368C185.74 221.008 184.924 221.328 184.092 221.328ZM191.025 222V211.328H189.825V222H191.025ZM193.003 225.024C193.211 225.088 193.611 225.136 193.867 225.136C194.891 225.12 195.675 224.688 196.139 223.568L200.011 214.272H198.715L196.139 220.608L193.579 214.272H192.267L195.499 222.08L194.987 223.248C194.715 223.888 194.363 224.064 193.835 224.064C193.643 224.064 193.355 224.016 193.179 223.936L193.003 225.024ZM203.727 222.192C205.711 222.192 206.751 221.152 206.751 219.856C206.751 216.848 201.967 217.952 201.967 216.272C201.967 215.584 202.623 215.056 203.679 215.056C204.687 215.056 205.519 215.472 205.983 216.032L206.543 215.2C205.935 214.576 205.007 214.08 203.679 214.08C201.839 214.08 200.815 215.088 200.815 216.304C200.815 219.168 205.599 218.016 205.599 219.888C205.599 220.656 204.943 221.216 203.759 221.216C202.703 221.216 201.727 220.704 201.215 220.112L200.607 220.976C201.391 221.792 202.447 222.192 203.727 222.192ZM210.668 222.192C211.356 222.192 211.788 221.984 212.092 221.696L211.74 220.784C211.58 220.96 211.276 221.12 210.924 221.12C210.412 221.12 210.156 220.704 210.156 220.128V215.328H211.724V214.272H210.156V212.16H208.94V214.272H207.66V215.328H208.94V220.384C208.94 221.536 209.516 222.192 210.668 222.192ZM220.536 218.656L220.76 217.6H216.92L216.696 218.656H220.536ZM232.033 222L233.217 216.64C233.265 216.464 233.313 216.144 233.313 215.984C233.313 214.752 232.369 214.08 231.009 214.08C229.905 214.08 228.945 214.736 228.273 215.392L228.529 214.272H227.329L225.617 222H226.817L228.065 216.368C228.657 215.744 229.553 215.152 230.449 215.152C231.361 215.152 232.049 215.504 232.049 216.384C232.049 216.576 232.001 216.768 231.969 216.928L230.849 222H232.033ZM238.525 222.192C239.517 222.192 240.541 221.808 241.245 221.28L240.829 220.432C240.205 220.944 239.357 221.2 238.605 221.2C236.861 221.2 235.981 220.096 235.981 218.896C235.981 218.784 235.997 218.592 236.013 218.528H242.301C242.349 218.304 242.429 217.824 242.429 217.456C242.429 215.488 241.149 214.08 239.101 214.08C236.653 214.08 234.749 216.208 234.749 218.768C234.749 220.816 236.173 222.192 238.525 222.192ZM241.277 217.632H236.125C236.365 216.272 237.581 215.072 238.989 215.072C240.525 215.072 241.341 216.048 241.341 217.344C241.341 217.424 241.325 217.568 241.325 217.632H241.277ZM251.365 222L255.541 214.272H254.229L250.981 220.432L250.325 214.272H249.285L245.877 220.432L245.381 214.272H244.165L244.917 222H246.117L249.509 215.792L250.149 222H251.365ZM266.344 222L266.6 220.816H261.368C264.968 218.624 268.088 216.384 268.088 213.968C268.088 212.064 266.344 211.168 264.456 211.168C263.128 211.168 261.816 211.68 261.016 212.448L261.64 213.392C262.296 212.784 263.176 212.352 264.376 212.352C265.72 212.352 266.68 212.976 266.68 214.032C266.68 216.032 263.592 218.064 259.304 220.688L259.016 222H266.344ZM272.87 222.192C275.99 222.192 277.878 218.528 277.878 215.312C277.878 212.768 276.646 211.168 274.406 211.168C271.286 211.168 269.366 214.816 269.366 218.032C269.366 220.576 270.63 222.192 272.87 222.192ZM272.982 221.008C271.366 221.008 270.71 219.76 270.71 218.112C270.71 215.616 272.054 212.352 274.262 212.352C275.894 212.352 276.518 213.584 276.518 215.232C276.518 217.712 275.206 221.008 272.982 221.008ZM281.531 222L283.883 211.328H282.715L279.451 214.08L280.059 214.896L282.171 213.072L280.203 222H281.531ZM287.993 222.192C290.105 222.192 291.913 220.96 291.913 219.152C291.913 217.856 290.825 217.04 289.913 216.624C291.673 216.352 292.937 215.344 292.937 213.792C292.937 212.096 291.161 211.168 289.289 211.168C287.513 211.168 285.497 212.08 285.497 214.096C285.497 215.216 286.441 215.984 287.353 216.352C285.417 216.752 284.121 217.888 284.121 219.472C284.121 221.28 285.865 222.192 287.993 222.192ZM288.761 215.952C287.945 215.76 286.825 215.104 286.825 214.224C286.825 213.04 287.961 212.368 289.209 212.368C290.489 212.368 291.513 213.072 291.513 214C291.513 215.168 290.345 215.84 288.761 215.952ZM288.025 221.008C286.665 221.008 285.529 220.4 285.529 219.232C285.529 218.016 286.825 217.184 288.521 217.088C289.385 217.296 290.585 218 290.585 219.024C290.585 220.272 289.289 221.008 288.025 221.008Z" fill="#454954"/>
<path d="M44.112 300C46.064 300 47.2 298.832 47.2 297.12C47.2 295.84 46.256 294.672 45.12 294.496C46.096 294.288 46.992 293.392 46.992 292.048C46.992 290.448 45.856 289.328 44 289.328H39.248V300H44.112ZM43.776 293.952H40.576V290.512H43.776C44.976 290.512 45.616 291.28 45.616 292.24C45.616 293.216 44.976 293.952 43.776 293.952ZM43.856 298.816H40.576V295.136H43.856C45.152 295.136 45.824 296 45.824 296.976C45.824 298.112 45.088 298.816 43.856 298.816ZM55.6785 300V292.272H54.4785V297.952C54.0305 298.576 53.1345 299.12 52.2065 299.12C51.1505 299.12 50.4625 298.72 50.4625 297.36V292.272H49.2625V297.728C49.2625 299.392 50.1105 300.192 51.7265 300.192C52.8785 300.192 53.8865 299.584 54.4785 298.912V300H55.6785ZM60.539 300.192C62.523 300.192 63.563 299.152 63.563 297.856C63.563 294.848 58.779 295.952 58.779 294.272C58.779 293.584 59.435 293.056 60.491 293.056C61.499 293.056 62.331 293.472 62.795 294.032L63.355 293.2C62.747 292.576 61.819 292.08 60.491 292.08C58.651 292.08 57.627 293.088 57.627 294.304C57.627 297.168 62.411 296.016 62.411 297.888C62.411 298.656 61.755 299.216 60.571 299.216C59.515 299.216 58.539 298.704 58.027 298.112L57.419 298.976C58.203 299.792 59.259 300.192 60.539 300.192ZM66.1205 291.168C66.5685 291.168 66.9205 290.816 66.9205 290.368C66.9205 289.92 66.5685 289.552 66.1205 289.552C65.6725 289.552 65.3045 289.92 65.3045 290.368C65.3045 290.816 65.6725 291.168 66.1205 291.168ZM66.7125 300V292.272H65.5125V300H66.7125ZM75.5223 300V294.576C75.5223 292.896 74.6743 292.08 73.0743 292.08C71.9062 292.08 70.8503 292.736 70.3063 293.392V292.272H69.1063V300H70.3063V294.352C70.7703 293.728 71.6503 293.152 72.5943 293.152C73.6343 293.152 74.3383 293.568 74.3383 294.944V300H75.5223ZM81.4384 300.192C82.6864 300.192 83.7264 299.76 84.5104 298.992L83.9344 298.208C83.3104 298.848 82.4304 299.2 81.5344 299.2C79.8704 299.2 78.8624 297.984 78.7664 296.528H85.0064V296.224C85.0064 293.904 83.6304 292.08 81.2944 292.08C79.0864 292.08 77.4864 293.888 77.4864 296.128C77.4864 298.544 79.1344 300.192 81.4384 300.192ZM83.8224 295.632H78.7504C78.8144 294.464 79.6304 293.072 81.2784 293.072C83.0384 293.072 83.8064 294.496 83.8224 295.632ZM89.414 300.192C91.398 300.192 92.438 299.152 92.438 297.856C92.438 294.848 87.654 295.952 87.654 294.272C87.654 293.584 88.31 293.056 89.366 293.056C90.374 293.056 91.206 293.472 91.67 294.032L92.23 293.2C91.622 292.576 90.694 292.08 89.366 292.08C87.526 292.08 86.502 293.088 86.502 294.304C86.502 297.168 91.286 296.016 91.286 297.888C91.286 298.656 90.63 299.216 89.446 299.216C88.39 299.216 87.414 298.704 86.902 298.112L86.294 298.976C87.078 299.792 88.134 300.192 89.414 300.192ZM96.8515 300.192C98.8355 300.192 99.8755 299.152 99.8755 297.856C99.8755 294.848 95.0915 295.952 95.0915 294.272C95.0915 293.584 95.7475 293.056 96.8035 293.056C97.8115 293.056 98.6435 293.472 99.1075 294.032L99.6675 293.2C99.0595 292.576 98.1315 292.08 96.8035 292.08C94.9635 292.08 93.9395 293.088 93.9395 294.304C93.9395 297.168 98.7235 296.016 98.7235 297.888C98.7235 298.656 98.0675 299.216 96.8835 299.216C95.8275 299.216 94.8515 298.704 94.3395 298.112L93.7315 298.976C94.5155 299.792 95.5715 300.192 96.8515 300.192ZM115.15 300L110.862 289.328H109.214L104.91 300H106.43L107.374 297.616H112.686L113.63 300H115.15ZM112.302 296.448H107.774L110.03 290.688L112.302 296.448ZM122.913 300V294.576C122.913 292.896 122.065 292.08 120.465 292.08C119.297 292.08 118.241 292.736 117.697 293.392V292.272H116.497V300H117.697V294.352C118.161 293.728 119.041 293.152 119.985 293.152C121.025 293.152 121.729 293.568 121.729 294.944V300H122.913ZM131.357 300V294.688C131.357 292.816 130.013 292.08 128.365 292.08C127.101 292.08 126.109 292.496 125.277 293.36L125.837 294.192C126.525 293.44 127.277 293.12 128.205 293.12C129.325 293.12 130.157 293.712 130.157 294.736V296.128C129.533 295.424 128.653 295.088 127.597 295.088C126.285 295.088 124.909 295.888 124.909 297.632C124.909 299.312 126.301 300.192 127.597 300.192C128.637 300.192 129.533 299.824 130.157 299.12V300H131.357ZM128.045 299.328C126.909 299.328 126.125 298.624 126.125 297.632C126.125 296.656 126.909 295.952 128.045 295.952C128.877 295.952 129.693 296.272 130.157 296.896V298.368C129.693 299.008 128.877 299.328 128.045 299.328ZM134.978 300V289.328H133.778V300H134.978ZM136.956 303.024C137.164 303.088 137.564 303.136 137.82 303.136C138.844 303.12 139.628 302.688 140.092 301.568L143.964 292.272H142.668L140.092 298.608L137.532 292.272H136.22L139.452 300.08L138.94 301.248C138.668 301.888 138.316 302.064 137.788 302.064C137.596 302.064 137.308 302.016 137.132 301.936L136.956 303.024ZM147.68 300.192C149.664 300.192 150.704 299.152 150.704 297.856C150.704 294.848 145.92 295.952 145.92 294.272C145.92 293.584 146.576 293.056 147.632 293.056C148.64 293.056 149.472 293.472 149.936 294.032L150.496 293.2C149.888 292.576 148.96 292.08 147.632 292.08C145.792 292.08 144.768 293.088 144.768 294.304C144.768 297.168 149.552 296.016 149.552 297.888C149.552 298.656 148.896 299.216 147.712 299.216C146.656 299.216 145.68 298.704 145.168 298.112L144.56 298.976C145.344 299.792 146.4 300.192 147.68 300.192ZM154.621 300.192C155.309 300.192 155.741 299.984 156.045 299.696L155.693 298.784C155.533 298.96 155.229 299.12 154.877 299.12C154.365 299.12 154.109 298.704 154.109 298.128V293.328H155.677V292.272H154.109V290.16H152.893V292.272H151.613V293.328H152.893V298.384C152.893 299.536 153.469 300.192 154.621 300.192Z" fill="#454954"/>
<path d="M44.112 331.192C45.216 331.192 46.208 330.904 47.008 330.392L48.048 331.496L48.96 330.696L47.952 329.624C48.88 328.632 49.424 327.256 49.424 325.672C49.424 322.52 47.264 320.152 44.112 320.152C40.96 320.152 38.816 322.52 38.816 325.672C38.816 328.824 40.96 331.192 44.112 331.192ZM44.112 330.008C41.712 330.008 40.192 328.152 40.192 325.672C40.192 323.176 41.712 321.336 44.112 321.336C46.496 321.336 48.048 323.176 48.048 325.672C48.048 326.856 47.68 327.896 47.056 328.664L45.552 327.032L44.624 327.816L46.144 329.464C45.568 329.816 44.88 330.008 44.112 330.008ZM60.0246 331L55.7366 320.328H54.0886L49.7846 331H51.3046L52.2486 328.616H57.5606L58.5046 331H60.0246ZM57.1766 327.448H52.6486L54.9046 321.688L57.1766 327.448Z" fill="#454954"/>
<path d="M198.704 362.192C201.584 362.192 202.64 360.592 202.64 359.056C202.64 355.072 196.32 356.448 196.32 354.048C196.32 353.04 197.248 352.352 198.512 352.352C199.68 352.352 200.8 352.736 201.6 353.632L202.4 352.656C201.504 351.712 200.24 351.152 198.624 351.152C196.512 351.152 194.944 352.368 194.944 354.128C194.944 357.936 201.264 356.4 201.264 359.152C201.264 359.984 200.656 361.008 198.752 361.008C197.248 361.008 196.096 360.272 195.408 359.472L194.608 360.496C195.488 361.488 196.864 362.192 198.704 362.192ZM208.079 362.192C209.327 362.192 210.367 361.76 211.151 360.992L210.575 360.208C209.951 360.848 209.071 361.2 208.175 361.2C206.511 361.2 205.503 359.984 205.407 358.528H211.647V358.224C211.647 355.904 210.271 354.08 207.935 354.08C205.727 354.08 204.127 355.888 204.127 358.128C204.127 360.544 205.775 362.192 208.079 362.192ZM210.463 357.632H205.391C205.455 356.464 206.271 355.072 207.919 355.072C209.679 355.072 210.447 356.496 210.463 357.632ZM220.007 362V356.576C220.007 354.896 219.159 354.08 217.559 354.08C216.391 354.08 215.335 354.736 214.791 355.392V354.272H213.591V362H214.791V356.352C215.255 355.728 216.135 355.152 217.079 355.152C218.119 355.152 218.823 355.568 218.823 356.944V362H220.007ZM223.027 353.168C223.475 353.168 223.827 352.816 223.827 352.368C223.827 351.92 223.475 351.552 223.027 351.552C222.579 351.552 222.211 351.92 222.211 352.368C222.211 352.816 222.579 353.168 223.027 353.168ZM223.619 362V354.272H222.419V362H223.619ZM229.389 362.192C231.741 362.192 233.213 360.368 233.213 358.128C233.213 355.888 231.741 354.08 229.389 354.08C227.037 354.08 225.565 355.888 225.565 358.128C225.565 360.368 227.037 362.192 229.389 362.192ZM229.389 361.12C227.741 361.12 226.829 359.712 226.829 358.128C226.829 356.56 227.741 355.152 229.389 355.152C231.037 355.152 231.949 356.56 231.949 358.128C231.949 359.712 231.037 361.12 229.389 361.12ZM236.369 362V356.528C236.721 355.904 237.729 355.296 238.481 355.296C238.657 355.296 238.801 355.312 238.945 355.328V354.096C237.889 354.096 236.993 354.704 236.369 355.504V354.272H235.169V362H236.369ZM253.775 362L249.487 351.328H247.839L243.535 362H245.055L245.999 359.616H251.311L252.255 362H253.775ZM250.927 358.448H246.399L248.655 352.688L250.927 358.448ZM256.322 362V356.528C256.674 355.904 257.682 355.296 258.434 355.296C258.61 355.296 258.754 355.312 258.898 355.328V354.096C257.842 354.096 256.946 354.704 256.322 355.504V354.272H255.122V362H256.322ZM263.811 362.192C265.219 362.192 266.051 361.616 266.643 360.848L265.843 360.112C265.331 360.8 264.675 361.12 263.875 361.12C262.243 361.12 261.203 359.84 261.203 358.128C261.203 356.416 262.243 355.152 263.875 355.152C264.675 355.152 265.331 355.44 265.843 356.144L266.643 355.424C266.051 354.656 265.219 354.08 263.811 354.08C261.507 354.08 259.955 355.84 259.955 358.128C259.955 360.416 261.507 362.192 263.811 362.192ZM274.773 362V356.544C274.773 354.864 273.925 354.08 272.309 354.08C271.141 354.08 270.085 354.736 269.557 355.392V351.328H268.357V362H269.557V356.352C270.005 355.728 270.901 355.152 271.829 355.152C272.885 355.152 273.573 355.536 273.573 356.912V362H274.773ZM277.777 353.168C278.225 353.168 278.577 352.816 278.577 352.368C278.577 351.92 278.225 351.552 277.777 351.552C277.329 351.552 276.961 351.92 276.961 352.368C276.961 352.816 277.329 353.168 277.777 353.168ZM278.369 362V354.272H277.169V362H278.369ZM282.731 362.192C283.419 362.192 283.851 361.984 284.155 361.696L283.803 360.784C283.643 360.96 283.339 361.12 282.987 361.12C282.475 361.12 282.219 360.704 282.219 360.128V355.328H283.786V354.272H282.219V352.16H281.003V354.272H279.723V355.328H281.003V360.384C281.003 361.536 281.579 362.192 282.731 362.192ZM288.97 362.192C290.218 362.192 291.258 361.76 292.042 360.992L291.466 360.208C290.842 360.848 289.962 361.2 289.066 361.2C287.402 361.2 286.394 359.984 286.298 358.528H292.538V358.224C292.538 355.904 291.162 354.08 288.826 354.08C286.618 354.08 285.018 355.888 285.018 358.128C285.018 360.544 286.666 362.192 288.97 362.192ZM291.354 357.632H286.282C286.346 356.464 287.162 355.072 288.81 355.072C290.57 355.072 291.338 356.496 291.354 357.632ZM297.889 362.192C299.297 362.192 300.129 361.616 300.721 360.848L299.921 360.112C299.409 360.8 298.753 361.12 297.953 361.12C296.321 361.12 295.281 359.84 295.281 358.128C295.281 356.416 296.321 355.152 297.953 355.152C298.753 355.152 299.409 355.44 299.921 356.144L300.721 355.424C300.129 354.656 299.297 354.08 297.889 354.08C295.585 354.08 294.033 355.84 294.033 358.128C294.033 360.416 295.585 362.192 297.889 362.192ZM304.387 362.192C305.075 362.192 305.507 361.984 305.811 361.696L305.459 360.784C305.299 360.96 304.995 361.12 304.643 361.12C304.131 361.12 303.875 360.704 303.875 360.128V355.328H305.443V354.272H303.875V352.16H302.659V354.272H301.379V355.328H302.659V360.384C302.659 361.536 303.235 362.192 304.387 362.192Z" fill="#454954"/>
<path d="M198.704 300.192C201.584 300.192 202.64 298.592 202.64 297.056C202.64 293.072 196.32 294.448 196.32 292.048C196.32 291.04 197.248 290.352 198.512 290.352C199.68 290.352 200.8 290.736 201.6 291.632L202.4 290.656C201.504 289.712 200.24 289.152 198.624 289.152C196.512 289.152 194.944 290.368 194.944 292.128C194.944 295.936 201.264 294.4 201.264 297.152C201.264 297.984 200.656 299.008 198.752 299.008C197.248 299.008 196.096 298.272 195.408 297.472L194.608 298.496C195.488 299.488 196.864 300.192 198.704 300.192ZM208.079 300.192C209.327 300.192 210.367 299.76 211.151 298.992L210.575 298.208C209.951 298.848 209.071 299.2 208.175 299.2C206.511 299.2 205.503 297.984 205.407 296.528H211.647V296.224C211.647 293.904 210.271 292.08 207.935 292.08C205.727 292.08 204.127 293.888 204.127 296.128C204.127 298.544 205.775 300.192 208.079 300.192ZM210.463 295.632H205.391C205.455 294.464 206.271 293.072 207.919 293.072C209.679 293.072 210.447 294.496 210.463 295.632ZM220.007 300V294.576C220.007 292.896 219.159 292.08 217.559 292.08C216.391 292.08 215.335 292.736 214.791 293.392V292.272H213.591V300H214.791V294.352C215.255 293.728 216.135 293.152 217.079 293.152C218.119 293.152 218.823 293.568 218.823 294.944V300H220.007ZM223.027 291.168C223.475 291.168 223.827 290.816 223.827 290.368C223.827 289.92 223.475 289.552 223.027 289.552C222.579 289.552 222.211 289.92 222.211 290.368C222.211 290.816 222.579 291.168 223.027 291.168ZM223.619 300V292.272H222.419V300H223.619ZM229.389 300.192C231.741 300.192 233.213 298.368 233.213 296.128C233.213 293.888 231.741 292.08 229.389 292.08C227.037 292.08 225.565 293.888 225.565 296.128C225.565 298.368 227.037 300.192 229.389 300.192ZM229.389 299.12C227.741 299.12 226.829 297.712 226.829 296.128C226.829 294.56 227.741 293.152 229.389 293.152C231.037 293.152 231.949 294.56 231.949 296.128C231.949 297.712 231.037 299.12 229.389 299.12ZM236.369 300V294.528C236.721 293.904 237.729 293.296 238.481 293.296C238.657 293.296 238.801 293.312 238.945 293.328V292.096C237.889 292.096 236.993 292.704 236.369 293.504V292.272H235.169V300H236.369ZM248.287 300C251.615 300 253.759 297.712 253.759 294.672C253.759 291.648 251.615 289.328 248.287 289.328H244.639V300H248.287ZM248.287 298.816H245.967V290.512H248.287C250.927 290.512 252.383 292.368 252.383 294.672C252.383 296.96 250.879 298.816 248.287 298.816ZM259.298 300.192C260.546 300.192 261.586 299.76 262.37 298.992L261.794 298.208C261.17 298.848 260.29 299.2 259.394 299.2C257.73 299.2 256.722 297.984 256.626 296.528H262.866V296.224C262.866 293.904 261.49 292.08 259.154 292.08C256.946 292.08 255.346 293.888 255.346 296.128C255.346 298.544 256.994 300.192 259.298 300.192ZM261.682 295.632H256.61C256.674 294.464 257.49 293.072 259.138 293.072C260.898 293.072 261.666 294.496 261.682 295.632ZM268.185 300L271.401 292.272H270.105L267.529 298.608L264.969 292.272H263.657L266.873 300H268.185ZM276.157 300.192C277.405 300.192 278.445 299.76 279.229 298.992L278.653 298.208C278.029 298.848 277.149 299.2 276.253 299.2C274.589 299.2 273.581 297.984 273.485 296.528H279.725V296.224C279.725 293.904 278.349 292.08 276.013 292.08C273.805 292.08 272.205 293.888 272.205 296.128C272.205 298.544 273.853 300.192 276.157 300.192ZM278.541 295.632H273.469C273.533 294.464 274.349 293.072 275.997 293.072C277.757 293.072 278.525 294.496 278.541 295.632ZM282.869 300V289.328H281.669V300H282.869ZM288.639 300.192C290.991 300.192 292.463 298.368 292.463 296.128C292.463 293.888 290.991 292.08 288.639 292.08C286.287 292.08 284.815 293.888 284.815 296.128C284.815 298.368 286.287 300.192 288.639 300.192ZM288.639 299.12C286.991 299.12 286.079 297.712 286.079 296.128C286.079 294.56 286.991 293.152 288.639 293.152C290.287 293.152 291.199 294.56 291.199 296.128C291.199 297.712 290.287 299.12 288.639 299.12ZM298.227 300.192C300.259 300.192 301.667 298.624 301.667 296.128C301.667 293.616 300.259 292.08 298.227 292.08C297.139 292.08 296.179 292.64 295.619 293.424V292.272H294.419V302.944H295.619V298.832C296.259 299.68 297.171 300.192 298.227 300.192ZM297.923 299.12C296.979 299.12 296.035 298.544 295.619 297.872V294.384C296.035 293.712 296.979 293.152 297.923 293.152C299.475 293.152 300.403 294.416 300.403 296.128C300.403 297.84 299.475 299.12 297.923 299.12ZM307.079 300.192C308.327 300.192 309.367 299.76 310.151 298.992L309.575 298.208C308.951 298.848 308.071 299.2 307.175 299.2C305.511 299.2 304.503 297.984 304.407 296.528H310.647V296.224C310.647 293.904 309.271 292.08 306.935 292.08C304.727 292.08 303.127 293.888 303.127 296.128C303.127 298.544 304.775 300.192 307.079 300.192ZM309.463 295.632H304.391C304.455 294.464 305.271 293.072 306.919 293.072C308.679 293.072 309.447 294.496 309.463 295.632ZM313.791 300V294.528C314.143 293.904 315.151 293.296 315.903 293.296C316.079 293.296 316.223 293.312 316.367 293.328V292.096C315.311 292.096 314.415 292.704 313.791 293.504V292.272H312.591V300H313.791Z" fill="#454954"/>
<path d="M196.96 331.192C198.864 331.192 200.352 330.088 200.352 327.784V320.328H199.024V327.768C199.024 329.096 198.192 330.008 196.88 330.008C195.952 330.008 195.328 329.512 194.88 328.952L194.176 329.96C194.912 330.824 195.84 331.192 196.96 331.192ZM209.21 331V323.272H208.01V328.952C207.562 329.576 206.666 330.12 205.738 330.12C204.682 330.12 203.994 329.72 203.994 328.36V323.272H202.794V328.728C202.794 330.392 203.642 331.192 205.258 331.192C206.41 331.192 207.418 330.584 208.01 329.912V331H209.21ZM218.022 331V325.576C218.022 323.896 217.174 323.08 215.574 323.08C214.406 323.08 213.35 323.736 212.806 324.392V323.272H211.606V331H212.806V325.352C213.27 324.728 214.15 324.152 215.094 324.152C216.134 324.152 216.838 324.568 216.838 325.944V331H218.022ZM221.042 322.168C221.49 322.168 221.842 321.816 221.842 321.368C221.842 320.92 221.49 320.552 221.042 320.552C220.594 320.552 220.226 320.92 220.226 321.368C220.226 321.816 220.594 322.168 221.042 322.168ZM221.634 331V323.272H220.434V331H221.634ZM227.404 331.192C229.756 331.192 231.228 329.368 231.228 327.128C231.228 324.888 229.756 323.08 227.404 323.08C225.052 323.08 223.58 324.888 223.58 327.128C223.58 329.368 225.052 331.192 227.404 331.192ZM227.404 330.12C225.756 330.12 224.844 328.712 224.844 327.128C224.844 325.56 225.756 324.152 227.404 324.152C229.052 324.152 229.964 325.56 229.964 327.128C229.964 328.712 229.052 330.12 227.404 330.12ZM234.384 331V325.528C234.736 324.904 235.744 324.296 236.496 324.296C236.672 324.296 236.816 324.312 236.96 324.328V323.096C235.904 323.096 235.008 323.704 234.384 324.504V323.272H233.184V331H234.384ZM246.302 331C249.63 331 251.774 328.712 251.774 325.672C251.774 322.648 249.63 320.328 246.302 320.328H242.654V331H246.302ZM246.302 329.816H243.982V321.512H246.302C248.942 321.512 250.398 323.368 250.398 325.672C250.398 327.96 248.894 329.816 246.302 329.816ZM257.313 331.192C258.561 331.192 259.601 330.76 260.385 329.992L259.809 329.208C259.185 329.848 258.305 330.2 257.409 330.2C255.745 330.2 254.737 328.984 254.641 327.528H260.881V327.224C260.881 324.904 259.505 323.08 257.169 323.08C254.961 323.08 253.361 324.888 253.361 327.128C253.361 329.544 255.009 331.192 257.313 331.192ZM259.697 326.632H254.625C254.689 325.464 255.505 324.072 257.153 324.072C258.913 324.072 259.681 325.496 259.697 326.632ZM266.201 331L269.417 323.272H268.121L265.545 329.608L262.985 323.272H261.673L264.889 331H266.201ZM274.173 331.192C275.421 331.192 276.461 330.76 277.245 329.992L276.669 329.208C276.045 329.848 275.165 330.2 274.269 330.2C272.605 330.2 271.597 328.984 271.501 327.528H277.741V327.224C277.741 324.904 276.365 323.08 274.029 323.08C271.821 323.08 270.221 324.888 270.221 327.128C270.221 329.544 271.869 331.192 274.173 331.192ZM276.557 326.632H271.485C271.549 325.464 272.365 324.072 274.013 324.072C275.773 324.072 276.541 325.496 276.557 326.632ZM280.884 331V320.328H279.684V331H280.884ZM286.654 331.192C289.006 331.192 290.478 329.368 290.478 327.128C290.478 324.888 289.006 323.08 286.654 323.08C284.302 323.08 282.83 324.888 282.83 327.128C282.83 329.368 284.302 331.192 286.654 331.192ZM286.654 330.12C285.006 330.12 284.094 328.712 284.094 327.128C284.094 325.56 285.006 324.152 286.654 324.152C288.302 324.152 289.214 325.56 289.214 327.128C289.214 328.712 288.302 330.12 286.654 330.12ZM296.242 331.192C298.274 331.192 299.682 329.624 299.682 327.128C299.682 324.616 298.274 323.08 296.242 323.08C295.154 323.08 294.194 323.64 293.634 324.424V323.272H292.434V333.944H293.634V329.832C294.274 330.68 295.186 331.192 296.242 331.192ZM295.938 330.12C294.994 330.12 294.05 329.544 293.634 328.872V325.384C294.05 324.712 294.994 324.152 295.938 324.152C297.49 324.152 298.418 325.416 298.418 327.128C298.418 328.84 297.49 330.12 295.938 330.12ZM305.095 331.192C306.343 331.192 307.383 330.76 308.167 329.992L307.591 329.208C306.967 329.848 306.087 330.2 305.191 330.2C303.527 330.2 302.519 328.984 302.423 327.528H308.663V327.224C308.663 324.904 307.287 323.08 304.951 323.08C302.743 323.08 301.143 324.888 301.143 327.128C301.143 329.544 302.791 331.192 305.095 331.192ZM307.479 326.632H302.407C302.471 325.464 303.287 324.072 304.935 324.072C306.695 324.072 307.463 325.496 307.479 326.632ZM311.806 331V325.528C312.158 324.904 313.166 324.296 313.918 324.296C314.094 324.296 314.238 324.312 314.382 324.328V323.096C313.326 323.096 312.43 323.704 311.806 324.504V323.272H310.606V331H311.806Z" fill="#454954"/>
<path d="M43.6 362.192C46.496 362.192 47.968 360.496 47.968 357.84V351.328H46.624V357.824C46.624 359.776 45.568 361.008 43.6 361.008C41.632 361.008 40.592 359.776 40.592 357.824V351.328H39.248V357.856C39.248 360.48 40.72 362.192 43.6 362.192ZM59.4588 362L55.2988 356.512L59.2188 351.328H57.5868L54.4348 355.584L51.2668 351.328H49.6508L53.5708 356.528L49.4108 362H51.0268L54.4348 357.456L57.8428 362H59.4588ZM60.6003 362.32L64.3923 351.008H63.4483L59.6562 362.32H60.6003ZM69.9906 362.192C72.8866 362.192 74.3586 360.496 74.3586 357.84V351.328H73.0146V357.824C73.0146 359.776 71.9586 361.008 69.9906 361.008C68.0226 361.008 66.9826 359.776 66.9826 357.824V351.328H65.6386V357.856C65.6386 360.48 67.1106 362.192 69.9906 362.192ZM78.1854 362V351.328H76.8574V362H78.1854ZM88.4741 362C91.8021 362 93.9461 359.712 93.9461 356.672C93.9461 353.648 91.8021 351.328 88.4741 351.328H84.8261V362H88.4741ZM88.4741 360.816H86.1541V352.512H88.4741C91.1141 352.512 92.5701 354.368 92.5701 356.672C92.5701 358.96 91.0661 360.816 88.4741 360.816ZM99.4852 362.192C100.733 362.192 101.773 361.76 102.557 360.992L101.981 360.208C101.357 360.848 100.477 361.2 99.5813 361.2C97.9173 361.2 96.9093 359.984 96.8133 358.528H103.053V358.224C103.053 355.904 101.677 354.08 99.3413 354.08C97.1332 354.08 95.5333 355.888 95.5333 358.128C95.5333 360.544 97.1813 362.192 99.4852 362.192ZM101.869 357.632H96.7973C96.8613 356.464 97.6773 355.072 99.3253 355.072C101.085 355.072 101.853 356.496 101.869 357.632ZM107.461 362.192C109.445 362.192 110.485 361.152 110.485 359.856C110.485 356.848 105.701 357.952 105.701 356.272C105.701 355.584 106.357 355.056 107.413 355.056C108.421 355.056 109.253 355.472 109.717 356.032L110.277 355.2C109.669 354.576 108.741 354.08 107.413 354.08C105.573 354.08 104.549 355.088 104.549 356.304C104.549 359.168 109.333 358.016 109.333 359.888C109.333 360.656 108.677 361.216 107.493 361.216C106.437 361.216 105.461 360.704 104.949 360.112L104.341 360.976C105.125 361.792 106.181 362.192 107.461 362.192ZM113.042 353.168C113.49 353.168 113.842 352.816 113.842 352.368C113.842 351.92 113.49 351.552 113.042 351.552C112.594 351.552 112.226 351.92 112.226 352.368C112.226 352.816 112.594 353.168 113.042 353.168ZM113.634 362V354.272H112.434V362H113.634ZM119.132 365.136C121.02 365.136 122.828 364.336 122.828 361.888V354.272H121.628V355.44C121.004 354.592 120.06 354.08 119.02 354.08C116.988 354.08 115.58 355.616 115.58 358.096C115.58 360.592 117.004 362.096 119.02 362.096C120.108 362.096 121.052 361.504 121.628 360.72V361.888C121.628 363.52 120.412 364.144 119.132 364.144C118.028 364.144 117.26 363.856 116.62 363.104L116.012 363.968C116.94 364.88 117.836 365.136 119.132 365.136ZM119.324 361.024C117.756 361.024 116.828 359.792 116.828 358.096C116.828 356.384 117.756 355.152 119.324 355.152C120.268 355.152 121.196 355.728 121.628 356.384V359.776C121.196 360.448 120.268 361.024 119.324 361.024ZM131.647 362V356.576C131.647 354.896 130.799 354.08 129.199 354.08C128.031 354.08 126.975 354.736 126.431 355.392V354.272H125.231V362H126.431V356.352C126.895 355.728 127.775 355.152 128.719 355.152C129.759 355.152 130.463 355.568 130.463 356.944V362H131.647ZM137.563 362.192C138.811 362.192 139.851 361.76 140.635 360.992L140.059 360.208C139.435 360.848 138.555 361.2 137.659 361.2C135.995 361.2 134.987 359.984 134.891 358.528H141.131V358.224C141.131 355.904 139.755 354.08 137.419 354.08C135.211 354.08 133.611 355.888 133.611 358.128C133.611 360.544 135.259 362.192 137.563 362.192ZM139.947 357.632H134.875C134.939 356.464 135.755 355.072 137.403 355.072C139.163 355.072 139.931 356.496 139.947 357.632ZM144.275 362V356.528C144.627 355.904 145.635 355.296 146.387 355.296C146.563 355.296 146.707 355.312 146.851 355.328V354.096C145.795 354.096 144.899 354.704 144.275 355.504V354.272H143.075V362H144.275Z" fill="#454954"/>
<path d="M41.328 274V263.328H39.056V274H41.328ZM53.9986 274V263.328H51.7266V270.032L46.7826 263.328H44.4466V274H46.7186V267.04L51.8066 274H53.9986ZM61.8549 274V265.328H64.9589V263.328H56.4469V265.328H59.5669V274H61.8549ZM74.9674 274V272H69.6874V269.568H74.8554V267.568H69.6874V265.328H74.9674V263.328H67.4154V274H74.9674ZM86.3995 274L83.9835 269.936C85.1355 269.664 86.3355 268.64 86.3355 266.768C86.3355 264.784 84.9595 263.328 82.7355 263.328H77.7435V274H80.0155V270.208H81.6795L83.7755 274H86.3995ZM82.4155 268.208H80.0155V265.328H82.4155C83.3115 265.328 83.9995 265.872 83.9995 266.752C83.9995 267.664 83.3115 268.208 82.4155 268.208ZM98.5768 274V263.328H96.3048V270.032L91.3608 263.328H89.0247V274H91.2968V267.04L96.3848 274H98.5768ZM111.633 274L107.521 263.328H104.673L100.561 274H103.137L103.809 272.192H108.385L109.057 274H111.633ZM107.761 270.192H104.433L106.097 265.6L107.761 270.192ZM120.323 274V272H115.811V263.328H113.523V274H120.323Z" fill="#595D67"/>
<path d="M44.24 72.192C46.576 72.192 47.936 70.896 48.688 69.568L46.736 68.624C46.288 69.488 45.328 70.176 44.24 70.176C42.288 70.176 40.88 68.688 40.88 66.672C40.88 64.656 42.288 63.168 44.24 63.168C45.328 63.168 46.288 63.856 46.736 64.72L48.688 63.76C47.936 62.416 46.576 61.152 44.24 61.152C41.024 61.152 38.544 63.376 38.544 66.672C38.544 69.952 41.024 72.192 44.24 72.192ZM57.7444 72V70H53.2324V61.328H50.9444V72H57.7444ZM62.5468 72V61.328H60.2747V72H62.5468ZM73.2174 72V70H67.9374V67.568H73.1054V65.568H67.9374V63.328H73.2174V61.328H65.6654V72H73.2174ZM85.5455 72V61.328H83.2735V68.032L78.3295 61.328H75.9935V72H78.2655V65.04L83.3535 72H85.5455ZM93.4018 72V63.328H96.5058V61.328H87.9938V63.328H91.1138V72H93.4018Z" fill="#595D67"/>
<path d="M45.35 20.3C49.85 20.3 51.5 17.8 51.5 15.4C51.5 9.175 41.625 11.325 41.625 7.575C41.625 6 43.075 4.925 45.05 4.925C46.875 4.925 48.625 5.525 49.875 6.925L51.125 5.4C49.725 3.925 47.75 3.05 45.225 3.05C41.925 3.05 39.475 4.95 39.475 7.7C39.475 13.65 49.35 11.25 49.35 15.55C49.35 16.85 48.4 18.45 45.425 18.45C43.075 18.45 41.275 17.3 40.2 16.05L38.95 17.65C40.325 19.2 42.475 20.3 45.35 20.3ZM60.3484 20.3C62.5484 20.3 63.8484 19.4 64.7734 18.2L63.5234 17.05C62.7234 18.125 61.6984 18.625 60.4484 18.625C57.8984 18.625 56.2734 16.625 56.2734 13.95C56.2734 11.275 57.8984 9.3 60.4484 9.3C61.6984 9.3 62.7234 9.75 63.5234 10.85L64.7734 9.725C63.8484 8.525 62.5484 7.625 60.3484 7.625C56.7484 7.625 54.3234 10.375 54.3234 13.95C54.3234 17.525 56.7484 20.3 60.3484 20.3ZM69.8008 20V11.45C70.3508 10.475 71.9258 9.525 73.1008 9.525C73.3758 9.525 73.6008 9.55 73.8258 9.575V7.65C72.1758 7.65 70.7758 8.6 69.8008 9.85V7.925H67.9258V20H69.8008ZM86.7027 20V7.925H84.8277V16.8C84.1277 17.775 82.7277 18.625 81.2777 18.625C79.6277 18.625 78.5527 18 78.5527 15.875V7.925H76.6777V16.45C76.6777 19.05 78.0027 20.3 80.5277 20.3C82.3277 20.3 83.9027 19.35 84.8277 18.3V20H86.7027ZM107.397 20V11.275C107.397 8.85 106.222 7.625 104.022 7.625C102.272 7.625 100.647 8.775 99.9723 9.875C99.6223 8.625 98.5723 7.625 96.7473 7.625C94.9473 7.625 93.3473 8.9 92.8223 9.675V7.925H90.9473V20H92.8223V11.175C93.4723 10.2 94.7723 9.3 95.9973 9.3C97.5973 9.3 98.2223 10.275 98.2223 11.8V20H100.097V11.15C100.722 10.175 102.047 9.3 103.297 9.3C104.872 9.3 105.522 10.275 105.522 11.8V20H107.397ZM124.882 20V5.175H130.182V3.325H117.532V5.175H122.807V20H124.882ZM135.959 20.3C137.909 20.3 139.534 19.625 140.759 18.425L139.859 17.2C138.884 18.2 137.509 18.75 136.109 18.75C133.509 18.75 131.934 16.85 131.784 14.575H141.534V14.1C141.534 10.475 139.384 7.625 135.734 7.625C132.284 7.625 129.784 10.45 129.784 13.95C129.784 17.725 132.359 20.3 135.959 20.3ZM139.684 13.175H131.759C131.859 11.35 133.134 9.175 135.709 9.175C138.459 9.175 139.659 11.4 139.684 13.175ZM154.496 20V11.7C154.496 8.775 152.396 7.625 149.821 7.625C147.846 7.625 146.296 8.275 144.996 9.625L145.871 10.925C146.946 9.75 148.121 9.25 149.571 9.25C151.321 9.25 152.621 10.175 152.621 11.775V13.95C151.646 12.85 150.271 12.325 148.621 12.325C146.571 12.325 144.421 13.575 144.421 16.3C144.421 18.925 146.596 20.3 148.621 20.3C150.246 20.3 151.646 19.725 152.621 18.625V20H154.496ZM149.321 18.95C147.546 18.95 146.321 17.85 146.321 16.3C146.321 14.775 147.546 13.675 149.321 13.675C150.621 13.675 151.896 14.175 152.621 15.15V17.45C151.896 18.45 150.621 18.95 149.321 18.95ZM175.229 20V11.275C175.229 8.85 174.054 7.625 171.854 7.625C170.104 7.625 168.479 8.775 167.804 9.875C167.454 8.625 166.404 7.625 164.579 7.625C162.779 7.625 161.179 8.9 160.654 9.675V7.925H158.779V20H160.654V11.175C161.304 10.2 162.604 9.3 163.829 9.3C165.429 9.3 166.054 10.275 166.054 11.8V20H167.929V11.15C168.554 10.175 169.879 9.3 171.129 9.3C172.704 9.3 173.354 10.275 173.354 11.8V20H175.229Z" fill="#454954"/>
<circle cx="13" cy="13" r="13" fill="#E9E5FF"/>
<path fill-rule="evenodd" clip-rule="evenodd" d="M7 13C7 12.4477 7.44772 12 8 12H17C17.5523 12 18 12.4477 18 13C18 13.5523 17.5523 14 17 14H8C7.44772 14 7 13.5523 7 13Z" fill="#545CB9"/>
<path fill-rule="evenodd" clip-rule="evenodd" d="M12.8415 8.24744C13.2571 7.88375 13.8889 7.92587 14.2526 8.34151L17.7526 12.3415C18.0825 12.7185 18.0825 13.2815 17.7526 13.6585L14.2526 17.6585C13.8889 18.0742 13.2571 18.1163 12.8415 17.7526C12.4259 17.3889 12.3838 16.7571 12.7474 16.3415L15.6712 13L12.7474 9.65852C12.3838 9.24288 12.4259 8.61112 12.8415 8.24744Z" fill="#545CB9"/>
</svg>
