<svg width="24" height="19" viewBox="0 0 24 19" fill="none" xmlns="http://www.w3.org/2000/svg">
<path fill-rule="evenodd" clip-rule="evenodd" d="M23.123 2.21646C23.0631 2.51598 22.8834 2.69569 22.7037 2.8754C22.4042 3.29473 22.0447 3.65416 21.6853 4.01358C21.4457 4.19329 21.2061 4.43291 20.9665 4.61262C20.8467 4.67253 20.8467 4.73243 20.8467 4.85224C20.8467 5.09186 20.8467 5.27157 20.8467 5.51119C20.8467 6.11023 20.7868 6.70927 20.7268 7.30831C20.5471 8.08707 20.3674 8.86582 20.1278 9.58467C19.8882 10.3634 19.5288 11.1422 19.1693 11.861C18.75 12.6398 18.2109 13.3586 17.6717 14.0176C17.492 14.3171 17.1925 14.6166 16.9529 14.8562C16.4736 15.3954 15.9345 15.8147 15.3954 16.234C14.976 16.5935 14.4968 16.893 14.0176 17.1326C13.2388 17.5519 12.4601 17.9114 11.6214 18.2109C10.8427 18.4505 10.0639 18.6302 9.22524 18.75C8.92572 18.8099 8.5663 18.8099 8.26678 18.8099C8.14697 18.8099 8.08706 18.8099 7.96726 18.8099C7.90735 18.8099 7.90735 18.8099 7.84745 18.8099C7.78754 18.8099 7.72764 18.8099 7.66773 18.8099C7.42812 18.8099 7.1286 18.8099 6.88898 18.8099C6.82908 18.8099 6.76917 18.8099 6.70927 18.8099C6.64936 18.8099 6.64936 18.8099 6.58946 18.8099C5.51118 18.8099 4.49281 18.6302 3.47444 18.3307C2.57588 18.0911 1.67732 17.7316 0.838659 17.2524C0.599042 17.1326 0.359425 17.0128 0.0599042 16.8331C0 16.7732 0 16.7133 0 16.6534C0.119808 16.6534 0.179713 16.6534 0.299521 16.6534C0.71885 16.7133 1.13818 16.7133 1.4976 16.7133C1.85703 16.6534 2.21645 16.6534 2.57588 16.5935C3.47444 16.4737 4.3131 16.1741 5.09186 15.8147C5.6909 15.5152 6.28994 15.1558 6.82908 14.7963C6.82908 14.7963 6.82908 14.7963 6.88898 14.7364C6.64936 14.7364 6.52956 14.7364 6.34984 14.6765C5.7508 14.5567 5.27157 14.377 4.73243 14.1374C4.3131 13.8978 3.89377 13.5384 3.53435 13.1789C3.17492 12.8195 2.9353 12.4002 2.69569 11.9808C2.63578 11.861 2.63578 11.6813 2.57588 11.5615C2.51598 11.4417 2.57588 11.3818 2.69569 11.3818C2.9353 11.4417 3.17492 11.4417 3.41454 11.4417C3.77396 11.4417 4.13339 11.3818 4.49281 11.3219C4.3131 11.262 4.07348 11.2021 3.89377 11.1422C3.65415 11.0823 3.47444 10.9625 3.29473 10.8427C3.11502 10.7828 2.9353 10.6629 2.75559 10.4832C2.21645 10.0639 1.73722 9.52477 1.4377 8.92573C1.13818 8.38659 0.958467 7.84745 0.898563 7.24841C0.898563 7.0687 0.838659 6.88898 0.898563 6.70927C0.898563 6.58946 0.958467 6.52956 1.07828 6.58946C1.61741 6.82908 2.09665 7.00879 2.69569 7.0687C2.75559 7.0687 2.8155 7.0687 2.8754 7.0687C2.63578 6.88898 2.45607 6.70927 2.27636 6.52956C1.91693 6.17013 1.61741 5.7508 1.3778 5.33147C1.13818 4.91215 0.958467 4.37301 0.898563 3.71406C0.838659 2.99521 0.898563 2.33626 1.13818 1.67732C1.25799 1.4377 1.3778 1.19808 1.4377 0.958467C1.4976 0.838659 1.55751 0.838659 1.67732 0.958467C1.85703 1.19808 2.09665 1.4377 2.27636 1.61741C2.69569 2.03674 3.11502 2.45607 3.59425 2.8155C4.19329 3.29473 4.79233 3.65416 5.39138 4.01358C6.17013 4.49282 7.00879 4.85224 7.84745 5.09186C8.6262 5.33147 9.40496 5.51119 10.2436 5.631C10.5431 5.6909 10.7828 5.6909 11.0823 5.6909C11.2021 5.6909 11.2021 5.6909 11.2021 5.57109C11.262 5.51119 11.262 5.33147 11.2021 5.15176C11.2021 4.85224 11.2021 4.61262 11.2021 4.3131C11.2021 4.01358 11.262 3.77397 11.3219 3.47444C11.5016 2.8155 11.8011 2.21646 12.2205 1.67732C12.6398 1.13818 13.2388 0.658946 13.8379 0.359425C14.1973 0.179713 14.5567 0.0599042 14.976 0C15.2157 0 15.3954 0 15.5751 0H15.635C15.6949 0 15.6949 0 15.7548 0C15.8147 0 15.8147 0 15.8746 0C16.0543 0 16.2939 0 16.5336 0C16.6534 0 16.8331 0 16.9529 0.0599042C17.3123 0.119808 17.6118 0.179713 17.9114 0.359425C18.3307 0.479234 18.75 0.778755 19.1693 1.13818C19.2292 1.19808 19.3491 1.25799 19.409 1.3778C19.4689 1.4377 19.5288 1.4377 19.5887 1.4377C20.1877 1.31789 20.7268 1.13818 21.3259 0.898563C21.6853 0.718851 22.0447 0.599042 22.3443 0.419329C22.4042 0.359425 22.4042 0.359425 22.4641 0.419329C22.524 0.479234 22.4641 0.479234 22.4641 0.539138C22.3443 0.838659 22.2245 1.13818 22.0447 1.4377C21.865 1.73722 21.5655 2.09665 21.266 2.39617C21.0863 2.57588 20.8467 2.75559 20.6669 2.8754C20.9665 2.8155 21.3259 2.75559 21.6853 2.69569C22.1046 2.57588 22.5839 2.39617 23.0032 2.21646C23.0032 2.21646 23.0631 2.15655 23.123 2.21646Z" fill="#722BFF"/>
</svg>
