<svg width="44" height="65" viewBox="0 0 44 65" fill="none" xmlns="http://www.w3.org/2000/svg">
<g clip-path="url(#clip0)">
<path fill-rule="evenodd" clip-rule="evenodd" d="M22.9406 41.6302H22.9809C25.1942 41.6302 27.9457 41.4546 27.9457 41.4546C27.9457 42.962 27.986 44.5382 28.1811 45.9991C28.2148 46.2909 28.2753 46.5793 28.3157 46.8526C28.4031 47.3636 28.4637 47.8413 28.578 48.2868V48.2959C28.6386 48.4952 28.6857 48.6768 28.7529 48.8619C29.2844 50.5044 30.8 51.5 31.3 52C32.9032 53.8825 36.3721 56.4663 36.3721 65.5502H22.9406C13.2903 65.6077 8.46509 65.6364 8.46509 65.6364C8.46509 55.7692 13.85 52 13.85 52C15 51.5 16.5689 50.6021 17.1083 49.0517C17.1893 48.8154 17.2634 48.5692 17.3241 48.3062C17.4387 47.8689 17.5264 47.3997 17.614 46.9181C17.6343 46.6254 17.6949 46.3331 17.7354 46.0318C17.9242 44.5559 17.9849 42.962 17.9849 41.4546C17.9849 41.4546 20.7223 41.6302 22.9406 41.6302Z" fill="#F9DDC7"/>
<path fill-rule="evenodd" clip-rule="evenodd" d="M8.96711 30.5007C8.96711 30.4664 8.96479 30.4325 8.96033 30.3992C8.96258 30.4331 8.96484 30.4669 8.96711 30.5007ZM22.5736 9.53792C7.9894 9.60426 8.31126 20.6696 8.96033 30.3992C8.82724 29.4079 6.78274 28.9271 7.01941 32.4587C7.25941 35.976 10.2539 37.8892 10.1939 37.4809C10.2853 38.1029 12.2039 41.7375 12.9671 42.5007C13.652 43.1856 14.272 43.863 14.8638 44.5096C17.0237 46.8694 18.8077 48.8184 22.0011 49.2252L21.9999 49.3033C22.2193 49.3033 22.4325 49.297 22.64 49.2846C22.8473 49.2969 23.0603 49.3033 23.2794 49.3033L23.2783 49.2253C26.4717 48.8185 28.2556 46.8694 30.4155 44.5096C31.0073 43.8631 31.6273 43.1857 32.3123 42.5007C33.0755 41.7375 34.9941 38.1029 35.0855 37.4809C35.0255 37.8893 38.02 35.9761 38.26 32.4587C38.4966 28.9271 36.4521 29.408 36.319 30.3993C36.9681 20.6696 37.29 9.6043 22.7058 9.53796L22.698 9.00024L22.7057 9.53762C22.6808 9.53762 22.656 9.53765 22.6313 9.53771C22.6121 9.53767 22.5929 9.53766 22.5737 9.53766L22.5813 9.00028L22.5736 9.53792ZM36.3123 30.5007C36.3123 30.4664 36.3146 30.4326 36.319 30.3993C36.3168 30.4331 36.3145 30.4669 36.3123 30.5007Z" fill="#FFE3CC"/>
<path fill-rule="evenodd" clip-rule="evenodd" d="M17.2738 11.4529L17.1964 11.533L17.2024 11.5511L17.2738 11.4529Z" fill="#2D241A"/>
<path fill-rule="evenodd" clip-rule="evenodd" d="M29.9591 8.83609C27.7143 7.59809 26.2567 7.89014 25.4524 8.28566C26.2652 7.54029 27.9334 7.60544 27.9334 7.60544C27.9334 7.60544 25.8737 6.33528 22.6906 7.47411C20.4521 8.27694 19.1116 9.18954 18.3584 9.84412L19.6138 8.50214C19.6138 8.50214 15.0859 10.3048 12.0006 14.0188C8.91954 17.7303 9.0002 20.606 9.0002 24.5324C9.0002 27.1483 9.04915 26.937 9.50321 30.8493C9.50321 24.3211 9.34859 21.9912 10.8948 20.7975C11.9832 19.9572 12.8034 16.8747 14.0036 16.7286C15.4547 16.9282 24.0895 17.3175 24.0895 17.3175C24.0895 17.3175 29.7548 17.2882 32.5675 16.7286C32.5675 16.7286 33.5725 15.8646 34.6327 20.0216C34.7623 20.53 34.9878 21.0111 35.2265 21.4784C36.8815 24.7172 35.6459 29.4797 35.6459 30.299C35.6459 33.3158 35.3866 34.2195 35.9428 30.8493C36.6112 26.7987 37.1467 24.9369 36.9637 22.7418C36.785 20.5934 37.2106 12.8353 29.9591 8.83609Z" fill="#48332F"/>
<path fill-rule="evenodd" clip-rule="evenodd" d="M34.9309 31.5201C34.9129 31.6646 34.8754 31.8182 34.8168 31.9765L34.7995 32.0221C34.78 32.0718 34.7575 32.1215 34.732 32.172L34.7147 32.2062C34.6914 32.2505 34.6667 32.2952 34.6396 32.3399L34.6216 32.3695C34.5878 32.4234 34.5503 32.4777 34.5098 32.532L34.497 32.5487C34.461 32.5963 34.4212 32.6439 34.3791 32.6915L34.3438 32.7304C34.298 32.7809 34.2492 32.831 34.1967 32.8811L34.1892 32.8891L34.1486 32.9283L34.1276 32.9459L34.1231 32.9492L34.0736 32.9905C33.985 33.0661 33.8911 33.1413 33.7845 33.2152L33.6389 33.3088C33.4865 33.3982 33.3131 33.4758 33.1216 33.5389C32.9677 33.5894 32.7688 33.6458 32.53 33.6993L32.3619 33.7356C31.9122 33.8346 31.4437 33.8868 30.9843 33.9085C29.9032 33.9599 28.8762 33.8404 28.2876 33.7494L28.2283 33.7415C28.1892 33.736 28.1322 33.7273 28.0601 33.7147L27.8799 33.6796L27.7763 33.6592L27.7508 33.6533L27.5601 33.6082L27.4926 33.5907L27.3221 33.5431L27.2876 33.5326L27.0984 33.4704L27.0489 33.4529L26.9002 33.3961L26.8672 33.3827L26.702 33.31L26.6667 33.2929L26.5369 33.2278L26.5068 33.2119L26.3642 33.13L26.3432 33.1167L26.2283 33.0415L26.2028 33.0244L26.0812 32.9342L26.0759 32.93L25.9685 32.8402L25.9513 32.8252C25.8792 32.76 25.8139 32.694 25.7553 32.6272L25.7486 32.6197C25.6262 32.4794 25.5316 32.3353 25.4588 32.1924L25.458 32.1929C25.3477 31.9774 25.2869 31.764 25.2561 31.5698C25.1998 31.3163 25.181 31.0118 25.2891 30.7215C25.5819 29.3492 29.8837 29.2991 30.4963 29.2987L30.6472 29.2974C31.1862 29.2865 31.6532 29.2962 32.0556 29.3204C32.2395 29.3296 32.4865 29.3479 32.7583 29.3847C34.3574 29.5864 34.5788 30.0542 34.5968 30.0997C34.6622 30.1761 34.714 30.2596 34.7485 30.3511C34.964 30.7646 34.994 31.1638 34.9309 31.5201ZM20.3708 31.5762V31.5766C20.3107 31.8372 20.2124 32.0435 20.1688 32.1254L20.1598 32.1425L20.1478 32.1634C19.7289 33.1431 18.4219 33.5382 17.7469 33.6798L17.7439 33.6802C17.6869 33.6911 17.6058 33.7057 17.5075 33.7224L17.3453 33.7483L17.34 33.7491H17.3393L17.3355 33.7495C16.7905 33.8331 16.2883 33.8803 15.828 33.9024C14.7282 33.9542 13.8686 33.8577 13.2545 33.7333L13.2515 33.7328L13.2492 33.7324C13.009 33.6785 12.774 33.6113 12.5496 33.5286C12.1637 33.3862 11.8086 33.1979 11.506 32.9506L11.4775 32.9247L11.44 32.8905C11.3897 32.8391 11.2958 32.7372 11.19 32.596C11.1276 32.5129 11.0616 32.416 10.9985 32.3079L10.9385 32.2001H10.9377C10.8334 32.0017 10.741 31.7712 10.6967 31.519C10.6194 30.905 10.8484 30.4498 10.8484 30.4498L10.8806 30.3471C10.9227 30.2661 10.9722 30.185 11.0293 30.1032L11.0315 30.099C11.4024 29.6663 12.214 29.4713 12.8784 29.3832C13.0796 29.3577 13.3033 29.3368 13.5518 29.3214L13.5728 29.3201C13.7688 29.3105 13.8911 29.3109 13.8911 29.3109C14.286 29.2992 14.6554 29.2951 15 29.2971L15.0585 29.2988L15.1269 29.2984C18.1201 29.3322 19.2492 29.843 19.2492 29.843C19.8963 30.041 20.2086 30.3705 20.3385 30.7196L20.34 30.7259C20.34 30.7259 20.4489 31.0934 20.3708 31.5762ZM36.9362 29.5315C36.8979 29.3937 36.72 29.2801 36.479 29.2425C31.4745 28.4649 27.5789 28.9205 27.5789 28.9205C25.4926 29.1226 24.5932 29.7933 24.5932 29.7933C24.0001 30.1446 22.814 29.9959 22.814 29.9959C22.814 29.9959 21.6278 30.1446 21.0347 29.7933C21.0347 29.7933 20.1346 29.1226 18.049 28.9205C18.049 28.9205 14.1534 28.4649 9.14893 29.2425C8.90794 29.2801 8.73001 29.3937 8.69173 29.5315C8.61065 29.8238 8.54083 30.3079 8.92145 30.4323C8.92145 30.4323 9.68721 30.5171 9.68721 31.1135C9.68721 31.1135 10.2803 33.0722 10.9883 33.4978C10.9883 33.4978 11.9447 34.4771 15.1789 34.4241C15.1789 34.4241 19.6023 34.5272 20.4611 33.1678C20.5745 32.9883 20.7344 32.7803 20.862 32.6036L21.5993 31.423C21.6773 31.2981 21.817 31.1866 22.0084 31.1085C22.1931 31.0329 22.4551 30.9723 22.814 30.9857C23.1728 30.9723 23.4348 31.0329 23.6195 31.1081C23.811 31.1866 23.9498 31.2981 24.0279 31.423L24.7659 32.6036C24.8935 32.7803 25.0534 32.9883 25.1668 33.1678C26.0256 34.5272 30.449 34.4241 30.449 34.4241C33.6832 34.4771 34.6397 33.4978 34.6397 33.4978C35.3476 33.0722 35.9407 31.1135 35.9407 31.1135C35.9407 30.5171 36.7065 30.4323 36.7065 30.4323C37.0871 30.3083 37.0173 29.8238 36.9362 29.5315V29.5315Z" fill="black"/>
<path d="M0.325562 65.6363V63.4955C0.325562 60.1361 1.79269 57.106 4.04823 55.8074L14.2449 51.8181C14.2449 51.8181 18.0355 55.8074 23 55.8074C28.8671 55.8074 31.1167 51.8181 31.1167 51.8181L39.6261 55.8074C41.8817 57.106 43.3488 60.1408 43.3488 63.4955V65.6363" fill="#00C87C"/>
</g>
<defs>
<clipPath id="clip0">
<rect width="44" height="65" fill="white"/>
</clipPath>
</defs>
</svg>
